%FSLAX42Y42*%
%MOMM*%
G71*
G01*
G75*
G04 Layer_Color=8388736*
%ADD10C,0.25*%
%ADD11R,1.60X2.70*%
%ADD12R,2.70X1.60*%
%ADD13C,1.00*%
%ADD14C,0.25*%
%ADD15C,0.50*%
%ADD16C,0.30*%
%ADD17C,0.35*%
%ADD18C,1.00*%
%ADD19C,1.20*%
%ADD20C,0.20*%
%ADD21C,0.40*%
%ADD22C,0.80*%
%ADD23C,0.60*%
%ADD24O,2.40X2.00*%
%ADD25O,1.40X2.50*%
%ADD26R,1.40X2.50*%
%ADD27C,1.70*%
%ADD28R,2.50X1.40*%
%ADD29O,2.50X1.40*%
%ADD30O,2.00X2.30*%
%ADD31O,2.00X3.00*%
%ADD32P,2.71X8X292.5*%
%ADD33C,2.50*%
%ADD34O,1.20X2.50*%
%ADD35R,1.20X2.50*%
%ADD36C,3.00*%
%ADD37C,0.60*%
%ADD38C,0.80*%
%ADD39R,0.50X1.10*%
%ADD40R,1.30X1.30*%
%ADD41R,1.10X0.50*%
%ADD42R,1.30X1.30*%
%ADD43R,1.35X0.70*%
%ADD44R,1.80X0.70*%
G04:AMPARAMS|DCode=45|XSize=1.9mm|YSize=3.3mm|CornerRadius=0mm|HoleSize=0mm|Usage=FLASHONLY|Rotation=90.000|XOffset=0mm|YOffset=0mm|HoleType=Round|Shape=Octagon|*
%AMOCTAGOND45*
4,1,8,-1.65,-0.47,-1.65,0.47,-1.17,0.95,1.17,0.95,1.65,0.47,1.65,-0.47,1.17,-0.95,-1.17,-0.95,-1.65,-0.47,0.0*
%
%ADD45OCTAGOND45*%

%ADD46R,1.60X1.80*%
%ADD47R,1.80X1.60*%
%ADD48R,1.65X0.60*%
%ADD49R,1.80X1.60*%
%ADD50P,1.84X4X360.0*%
%ADD51P,1.84X4X90.0*%
%ADD52R,3.00X2.00*%
%ADD53R,1.80X2.70*%
%ADD54R,1.20X1.60*%
%ADD55R,1.80X2.00*%
%ADD56R,2.50X2.00*%
%ADD57R,1.20X3.50*%
%ADD58R,2.20X2.20*%
G04:AMPARAMS|DCode=59|XSize=2.2mm|YSize=2.2mm|CornerRadius=0.55mm|HoleSize=0mm|Usage=FLASHONLY|Rotation=270.000|XOffset=0mm|YOffset=0mm|HoleType=Round|Shape=RoundedRectangle|*
%AMROUNDEDRECTD59*
21,1,2.20,1.10,0,0,270.0*
21,1,1.10,2.20,0,0,270.0*
1,1,1.10,-0.55,-0.55*
1,1,1.10,-0.55,0.55*
1,1,1.10,0.55,0.55*
1,1,1.10,0.55,-0.55*
%
%ADD59ROUNDEDRECTD59*%
%ADD60R,2.00X1.80*%
G04:AMPARAMS|DCode=61|XSize=6mm|YSize=12.7mm|CornerRadius=1.5mm|HoleSize=0mm|Usage=FLASHONLY|Rotation=0.000|XOffset=0mm|YOffset=0mm|HoleType=Round|Shape=RoundedRectangle|*
%AMROUNDEDRECTD61*
21,1,6.00,9.70,0,0,0.0*
21,1,3.00,12.70,0,0,0.0*
1,1,3.00,1.50,-4.85*
1,1,3.00,-1.50,-4.85*
1,1,3.00,-1.50,4.85*
1,1,3.00,1.50,4.85*
%
%ADD61ROUNDEDRECTD61*%
%ADD62R,1.00X1.00*%
%ADD63R,1.30X1.00*%
%ADD64R,1.60X1.20*%
%ADD65R,2.60X1.60*%
%ADD66R,1.10X2.15*%
%ADD67R,1.10X2.15*%
%ADD68R,3.50X2.15*%
%ADD69R,2.15X3.50*%
%ADD70R,2.15X1.10*%
%ADD71R,2.15X1.10*%
%ADD72R,0.50X1.80*%
%ADD73O,0.50X1.80*%
%ADD74R,1.00X1.00*%
%ADD75R,1.00X1.30*%
%ADD76R,2.50X4.00*%
%ADD77O,1.80X0.55*%
%ADD78R,1.80X0.55*%
%ADD79R,2.50X3.30*%
%ADD80O,1.80X0.50*%
%ADD81R,1.80X0.50*%
G04:AMPARAMS|DCode=82|XSize=1.9mm|YSize=3.3mm|CornerRadius=0mm|HoleSize=0mm|Usage=FLASHONLY|Rotation=0.000|XOffset=0mm|YOffset=0mm|HoleType=Round|Shape=Octagon|*
%AMOCTAGOND82*
4,1,8,-0.47,1.65,0.47,1.65,0.95,1.17,0.95,-1.17,0.47,-1.65,-0.47,-1.65,-0.95,-1.17,-0.95,1.17,-0.47,1.65,0.0*
%
%ADD82OCTAGOND82*%

%ADD83R,0.70X1.80*%
%ADD84R,0.70X1.35*%
%ADD85R,5.80X6.20*%
%ADD86R,1.60X3.00*%
%ADD87R,1.27X0.50*%
%ADD88R,0.50X1.27*%
%ADD89R,1.60X1.80*%
G04:AMPARAMS|DCode=90|XSize=6mm|YSize=12.7mm|CornerRadius=1.5mm|HoleSize=0mm|Usage=FLASHONLY|Rotation=90.000|XOffset=0mm|YOffset=0mm|HoleType=Round|Shape=RoundedRectangle|*
%AMROUNDEDRECTD90*
21,1,6.00,9.70,0,0,90.0*
21,1,3.00,12.70,0,0,90.0*
1,1,3.00,4.85,1.50*
1,1,3.00,4.85,-1.50*
1,1,3.00,-4.85,-1.50*
1,1,3.00,-4.85,1.50*
%
%ADD90ROUNDEDRECTD90*%
%ADD91R,2.00X3.00*%
%ADD92R,1.00X4.50*%
%ADD93R,9.00X9.00*%
%ADD94R,0.25X2.00*%
%ADD95R,2.00X0.25*%
%ADD96R,1.90X1.60*%
%ADD97R,1.45X2.00*%
%ADD98O,1.60X0.25*%
%ADD99R,1.60X0.25*%
G04:AMPARAMS|DCode=100|XSize=5mm|YSize=1.6mm|CornerRadius=0.4mm|HoleSize=0mm|Usage=FLASHONLY|Rotation=90.000|XOffset=0mm|YOffset=0mm|HoleType=Round|Shape=RoundedRectangle|*
%AMROUNDEDRECTD100*
21,1,5.00,0.80,0,0,90.0*
21,1,4.20,1.60,0,0,90.0*
1,1,0.80,0.40,2.10*
1,1,0.80,0.40,-2.10*
1,1,0.80,-0.40,-2.10*
1,1,0.80,-0.40,2.10*
%
%ADD100ROUNDEDRECTD100*%
%ADD101R,0.60X1.65*%
%ADD102C,0.15*%
%ADD103R,6.05X6.05*%
%ADD104R,4.95X6.30*%
%ADD105R,1.57X1.19*%
%ADD106C,0.10*%
%ADD107C,0.13*%
%ADD108C,0.14*%
%ADD109R,4.76X1.25*%
%ADD110R,4.69X1.25*%
%ADD111R,1.25X4.69*%
%ADD112R,1.25X4.76*%
%ADD113C,0.19*%
%ADD114C,0.20*%
%ADD115C,0.05*%
%ADD116C,0.30*%
%ADD117C,0.12*%
%ADD118R,0.16X0.27*%
%ADD119R,0.15X0.19*%
%ADD120R,0.19X0.28*%
%ADD121R,0.05X0.15*%
%ADD122R,0.06X0.18*%
%ADD123R,0.10X0.24*%
%ADD124R,0.09X0.15*%
%ADD125R,5.23X5.16*%
%ADD126R,3.33X8.53*%
%ADD127R,3.78X8.51*%
%ADD128R,7.52X1.80*%
%ADD129R,1.80X2.90*%
%ADD130R,2.90X1.80*%
%ADD131C,1.20*%
%ADD132O,2.60X2.20*%
%ADD133O,1.60X2.70*%
%ADD134R,1.60X2.70*%
%ADD135C,1.90*%
%ADD136R,2.70X1.60*%
%ADD137O,2.70X1.60*%
%ADD138O,2.20X2.50*%
%ADD139O,2.20X3.20*%
%ADD140P,2.93X8X292.5*%
%ADD141C,2.70*%
%ADD142O,1.40X2.70*%
%ADD143R,1.40X2.70*%
%ADD144C,3.20*%
%ADD145C,0.80*%
%ADD146C,1.00*%
D125*
X7144Y5046D02*
D03*
D126*
X6474Y5227D02*
D03*
D127*
X7465Y5234D02*
D03*
D128*
X6943Y5571D02*
D03*
D129*
X26423Y2050D02*
D03*
X26703D02*
D03*
X26690Y2766D02*
D03*
X26410D02*
D03*
X3616Y2095D02*
D03*
X3336D02*
D03*
X3329Y2812D02*
D03*
X3609D02*
D03*
X8678Y12573D02*
D03*
X8958D02*
D03*
D130*
X3702Y7445D02*
D03*
Y7165D02*
D03*
X3938Y10183D02*
D03*
Y9903D02*
D03*
X2765Y9129D02*
D03*
Y8849D02*
D03*
X5389Y9174D02*
D03*
Y8894D02*
D03*
X5432Y7463D02*
D03*
Y7183D02*
D03*
X5391Y10904D02*
D03*
Y10624D02*
D03*
X24670Y10902D02*
D03*
Y10622D02*
D03*
X4597Y1801D02*
D03*
Y1521D02*
D03*
X2300D02*
D03*
Y1801D02*
D03*
X27711Y1760D02*
D03*
Y1480D02*
D03*
X24675Y9172D02*
D03*
Y8892D02*
D03*
X24632Y7452D02*
D03*
Y7172D02*
D03*
X26367Y7447D02*
D03*
Y7167D02*
D03*
X26123Y10173D02*
D03*
Y9893D02*
D03*
X27301Y9139D02*
D03*
Y8859D02*
D03*
X27906Y7661D02*
D03*
Y7381D02*
D03*
X28249Y3988D02*
D03*
Y3708D02*
D03*
X2160Y7656D02*
D03*
Y7376D02*
D03*
X25407Y1760D02*
D03*
Y1480D02*
D03*
X21264Y12730D02*
D03*
Y12450D02*
D03*
X3504Y4333D02*
D03*
Y4053D02*
D03*
D131*
X478Y13876D02*
D03*
X29756Y-245D02*
D03*
D132*
X18447Y1295D02*
D03*
Y835D02*
D03*
X19047Y1295D02*
D03*
X19047Y835D02*
D03*
X20949Y1295D02*
D03*
Y835D02*
D03*
X21549Y1295D02*
D03*
X21549Y835D02*
D03*
X11551Y833D02*
D03*
X11551Y1293D02*
D03*
X10951Y833D02*
D03*
Y1293D02*
D03*
X14051Y835D02*
D03*
X14051Y1295D02*
D03*
X13451Y835D02*
D03*
Y1295D02*
D03*
X16545Y840D02*
D03*
X16545Y1300D02*
D03*
X15945Y840D02*
D03*
Y1300D02*
D03*
X9044Y839D02*
D03*
X9044Y1299D02*
D03*
X8444Y839D02*
D03*
Y1299D02*
D03*
D133*
X14906Y3416D02*
D03*
X14656D02*
D03*
X15156D02*
D03*
X14122Y11707D02*
D03*
X13622D02*
D03*
X13872D02*
D03*
D134*
X15406Y3416D02*
D03*
X14372Y11707D02*
D03*
D135*
X3374Y3127D02*
D03*
X2834Y2590D02*
D03*
X4454Y973D02*
D03*
X4994Y1510D02*
D03*
X26460Y3106D02*
D03*
X25920Y2569D02*
D03*
X27540Y953D02*
D03*
X28080Y1490D02*
D03*
D136*
X23854Y6751D02*
D03*
D137*
Y7001D02*
D03*
D138*
X29206Y8100D02*
D03*
Y6300D02*
D03*
X28599Y6302D02*
D03*
Y8102D02*
D03*
D139*
X900Y7996D02*
D03*
Y6196D02*
D03*
X1497Y6195D02*
D03*
Y7995D02*
D03*
D140*
X24449Y846D02*
D03*
Y1866D02*
D03*
Y1356D02*
D03*
X22349Y1346D02*
D03*
D141*
X23920Y11732D02*
D03*
X24420D02*
D03*
X17497Y11920D02*
D03*
Y12420D02*
D03*
X8287Y11433D02*
D03*
X8787D02*
D03*
X24952Y12136D02*
D03*
X25452D02*
D03*
X16427Y11920D02*
D03*
Y12420D02*
D03*
D142*
X25087Y5980D02*
D03*
X25337D02*
D03*
X25087Y6500D02*
D03*
X25337D02*
D03*
X27087D02*
D03*
X26837D02*
D03*
X26587D02*
D03*
X26337D02*
D03*
X26087D02*
D03*
X25837D02*
D03*
X25587D02*
D03*
X27337Y5980D02*
D03*
X27087D02*
D03*
X26837D02*
D03*
X26587D02*
D03*
X26337D02*
D03*
X26087D02*
D03*
X25837D02*
D03*
X25587D02*
D03*
X2579Y5974D02*
D03*
X2829D02*
D03*
X3079D02*
D03*
X3329D02*
D03*
X3579D02*
D03*
X3829D02*
D03*
X2579Y6494D02*
D03*
X2829D02*
D03*
X3079D02*
D03*
X3329D02*
D03*
X3579D02*
D03*
X3829D02*
D03*
X5929D02*
D03*
X5679D02*
D03*
X5429D02*
D03*
X5179D02*
D03*
X4929D02*
D03*
X4329D02*
D03*
X4079D02*
D03*
X6179Y5974D02*
D03*
X5929D02*
D03*
X5679D02*
D03*
X5429D02*
D03*
X5179D02*
D03*
X4929D02*
D03*
X4329D02*
D03*
X4079D02*
D03*
D143*
X27337Y6500D02*
D03*
X6179Y6494D02*
D03*
D144*
X11126Y11554D02*
D03*
X11626D02*
D03*
X7409Y5968D02*
D03*
Y7659D02*
D03*
D145*
X2148Y5565D02*
D03*
X2239Y5514D02*
D03*
X2371Y5601D02*
D03*
X2554Y5651D02*
D03*
X1833Y3622D02*
D03*
X1693Y3520D02*
D03*
X1538Y3513D02*
D03*
X1520Y3848D02*
D03*
X1751Y3909D02*
D03*
X1906Y3749D02*
D03*
X1716Y3693D02*
D03*
X17431Y3574D02*
D03*
X17357Y3792D02*
D03*
X17466Y3752D02*
D03*
X17471Y3973D02*
D03*
X17416Y3874D02*
D03*
X17395Y4028D02*
D03*
X17375Y4166D02*
D03*
X17494Y4138D02*
D03*
X28223Y3096D02*
D03*
X28307D02*
D03*
X17370Y6424D02*
D03*
X17456Y6485D02*
D03*
X17418Y6601D02*
D03*
X17365Y6711D02*
D03*
X19707Y6683D02*
D03*
X19834Y6746D02*
D03*
X19808Y6622D02*
D03*
X19752Y6825D02*
D03*
X19864Y6899D02*
D03*
X27426Y1801D02*
D03*
X27314Y1803D02*
D03*
X27012Y1306D02*
D03*
X26814Y1547D02*
D03*
X26544Y1323D02*
D03*
X26290Y1798D02*
D03*
X26204Y1877D02*
D03*
X26295Y1646D02*
D03*
X26318Y1318D02*
D03*
X26158Y1285D02*
D03*
X26024Y1412D02*
D03*
X25909Y1626D02*
D03*
Y1488D02*
D03*
X25782Y1621D02*
D03*
X25536Y1943D02*
D03*
X25429Y1986D02*
D03*
X25340Y1933D02*
D03*
X25201Y1928D02*
D03*
X26052Y2052D02*
D03*
X25991Y2156D02*
D03*
X26128Y2154D02*
D03*
X26265Y2428D02*
D03*
X26176Y2449D02*
D03*
X26262Y2510D02*
D03*
X25665Y2451D02*
D03*
X25719Y2578D02*
D03*
X25546Y2476D02*
D03*
X25384Y2443D02*
D03*
X25500Y2588D02*
D03*
X22899Y3124D02*
D03*
X23001Y2725D02*
D03*
X22785Y2913D02*
D03*
X22554Y3157D02*
D03*
X21764Y2548D02*
D03*
X21883Y2550D02*
D03*
X21998Y2548D02*
D03*
X21944Y2464D02*
D03*
X21812Y2469D02*
D03*
X21883Y2380D02*
D03*
X22066Y2464D02*
D03*
X22010Y2377D02*
D03*
X21769Y2380D02*
D03*
X22142Y2385D02*
D03*
X22384Y2383D02*
D03*
X22257Y2385D02*
D03*
X22186Y2474D02*
D03*
X22318Y2469D02*
D03*
X22257Y2555D02*
D03*
X22137Y2553D02*
D03*
X22953Y1504D02*
D03*
X23072Y1506D02*
D03*
X23186Y1504D02*
D03*
X23133Y1420D02*
D03*
X23001Y1425D02*
D03*
X23072Y1336D02*
D03*
X23255Y1420D02*
D03*
X23199Y1334D02*
D03*
X22958Y1336D02*
D03*
X23331Y1341D02*
D03*
X23573Y1339D02*
D03*
X23628Y1425D02*
D03*
X23446Y1341D02*
D03*
X23374Y1430D02*
D03*
X23506Y1425D02*
D03*
X23560Y1509D02*
D03*
X23446Y1511D02*
D03*
X23326Y1509D02*
D03*
X23293Y4630D02*
D03*
X23298Y4308D02*
D03*
X22950Y3777D02*
D03*
X22704Y3597D02*
D03*
X22457Y3574D02*
D03*
X22452Y3868D02*
D03*
X22483Y4186D02*
D03*
X23052Y3988D02*
D03*
X23887Y4440D02*
D03*
X23707Y4409D02*
D03*
X23773Y4669D02*
D03*
X23984Y4831D02*
D03*
X23534Y5466D02*
D03*
X23733Y5588D02*
D03*
X23707Y5250D02*
D03*
X23534Y5210D02*
D03*
X21607Y4331D02*
D03*
X21599Y3955D02*
D03*
X21617Y4097D02*
D03*
X21650Y3805D02*
D03*
X21647Y3602D02*
D03*
Y3432D02*
D03*
X21723Y3505D02*
D03*
X21713Y3686D02*
D03*
Y3894D02*
D03*
X21718Y4079D02*
D03*
X21731Y4206D02*
D03*
X21650Y4196D02*
D03*
X21726Y4315D02*
D03*
X21657Y4417D02*
D03*
X21716Y4531D02*
D03*
X21548Y4501D02*
D03*
X21388Y4610D02*
D03*
X22112Y6218D02*
D03*
X22483Y5530D02*
D03*
X22445Y5667D02*
D03*
X22437Y5250D02*
D03*
X22262Y5159D02*
D03*
X22066Y4923D02*
D03*
X22663Y5471D02*
D03*
X22488Y5370D02*
D03*
X22325Y5032D02*
D03*
X22196Y4856D02*
D03*
X22610Y5024D02*
D03*
X22744Y5149D02*
D03*
X22902Y5281D02*
D03*
X23004Y5433D02*
D03*
X22805Y5382D02*
D03*
X22653Y5291D02*
D03*
X22485Y5105D02*
D03*
X22389Y4834D02*
D03*
X22153Y5052D02*
D03*
X21586Y5207D02*
D03*
X21601Y5314D02*
D03*
X21678Y5354D02*
D03*
X21680Y5169D02*
D03*
X21685Y5276D02*
D03*
X21581Y5545D02*
D03*
X21480Y5690D02*
D03*
X21701Y5593D02*
D03*
X21624Y5659D02*
D03*
X21739Y5695D02*
D03*
X20946Y6104D02*
D03*
X20949Y5672D02*
D03*
X19171Y2285D02*
D03*
X19257Y2189D02*
D03*
X19054Y3028D02*
D03*
X18058Y2550D02*
D03*
X17875D02*
D03*
X4695Y7991D02*
D03*
X4698Y8235D02*
D03*
X27052Y9205D02*
D03*
X16588Y7971D02*
D03*
X16590Y7783D02*
D03*
X16727Y7869D02*
D03*
X16753Y7996D02*
D03*
X16478Y7912D02*
D03*
X16336Y7955D02*
D03*
X17748Y11605D02*
D03*
X17697Y11615D02*
D03*
X8241Y5712D02*
D03*
X8513Y5723D02*
D03*
X8294Y5895D02*
D03*
X7624Y6330D02*
D03*
X7537Y6375D02*
D03*
X7586Y6596D02*
D03*
X7449Y7183D02*
D03*
X7446Y7303D02*
D03*
X7449Y7417D02*
D03*
X7532Y7363D02*
D03*
X7527Y7231D02*
D03*
X7616Y7303D02*
D03*
X7532Y7485D02*
D03*
X7619Y7429D02*
D03*
X7616Y7188D02*
D03*
X7621Y6815D02*
D03*
X7624Y7056D02*
D03*
X7537Y7112D02*
D03*
X7621Y6929D02*
D03*
X7532Y6858D02*
D03*
X7537Y6990D02*
D03*
X7454Y7043D02*
D03*
X7451Y6929D02*
D03*
X7454Y6810D02*
D03*
X8000Y5852D02*
D03*
X7786Y6119D02*
D03*
X7700Y6243D02*
D03*
X7784Y6190D02*
D03*
X7779Y6058D02*
D03*
X7868Y6129D02*
D03*
X7784Y6312D02*
D03*
X7870Y6256D02*
D03*
X7868Y6015D02*
D03*
X7873Y5641D02*
D03*
X7875Y5883D02*
D03*
X7789Y5939D02*
D03*
X7873Y5756D02*
D03*
X7784Y5685D02*
D03*
X7789Y5817D02*
D03*
X8109Y5725D02*
D03*
X8345Y5697D02*
D03*
X7705Y5636D02*
D03*
X7697Y6805D02*
D03*
X7695Y6924D02*
D03*
X7697Y7038D02*
D03*
X7781Y6985D02*
D03*
X7776Y6853D02*
D03*
X7865Y6924D02*
D03*
X7781Y7107D02*
D03*
X7868Y7051D02*
D03*
X7865Y6810D02*
D03*
X7870Y6436D02*
D03*
X7873Y6678D02*
D03*
X7786Y6734D02*
D03*
X7870Y6551D02*
D03*
X7781Y6480D02*
D03*
X7786Y6612D02*
D03*
X7703Y6665D02*
D03*
X7700Y6551D02*
D03*
X7703Y6431D02*
D03*
X7697Y7574D02*
D03*
X7695Y7694D02*
D03*
X7697Y7808D02*
D03*
X7781Y7755D02*
D03*
X7776Y7623D02*
D03*
X7865Y7694D02*
D03*
X7781Y7877D02*
D03*
X7868Y7821D02*
D03*
X7865Y7579D02*
D03*
X7870Y7206D02*
D03*
X7873Y7447D02*
D03*
X7786Y7503D02*
D03*
X7870Y7320D02*
D03*
X7781Y7249D02*
D03*
X7786Y7381D02*
D03*
X7703Y7435D02*
D03*
X7700Y7320D02*
D03*
X7703Y7201D02*
D03*
X5170Y9418D02*
D03*
X5114Y9482D02*
D03*
X5625Y6195D02*
D03*
X5546Y6353D02*
D03*
X3199Y6944D02*
D03*
X3209Y7076D02*
D03*
X3197Y6746D02*
D03*
X3225Y6853D02*
D03*
X3189Y7963D02*
D03*
X4070Y8461D02*
D03*
X3997Y8443D02*
D03*
X4060Y8529D02*
D03*
X2833Y6764D02*
D03*
X2826Y6855D02*
D03*
X2818Y7013D02*
D03*
X24954Y10366D02*
D03*
X23994Y10320D02*
D03*
Y10417D02*
D03*
X24385D02*
D03*
X25244Y10119D02*
D03*
X25211Y10300D02*
D03*
X25206Y10450D02*
D03*
X5046Y7722D02*
D03*
X4957Y8004D02*
D03*
X4096Y7590D02*
D03*
X4055Y7498D02*
D03*
X4063Y7668D02*
D03*
X5645Y7894D02*
D03*
X5475Y7960D02*
D03*
X5224Y7993D02*
D03*
X4903Y7269D02*
D03*
X5018Y7363D02*
D03*
X5782Y6769D02*
D03*
X5787Y6894D02*
D03*
Y7033D02*
D03*
X5544Y6739D02*
D03*
X5551Y6840D02*
D03*
X5549Y6977D02*
D03*
X12084Y1933D02*
D03*
X11965D02*
D03*
X12381Y2189D02*
D03*
X12252D02*
D03*
X12610Y2154D02*
D03*
X12478Y2151D02*
D03*
X11807Y1925D02*
D03*
Y884D02*
D03*
X12473Y1915D02*
D03*
Y1504D02*
D03*
X12221Y1915D02*
D03*
Y1496D02*
D03*
X12287Y1184D02*
D03*
X12544Y1400D02*
D03*
X18091Y7968D02*
D03*
X17924Y7838D02*
D03*
X17949Y7976D02*
D03*
X16984Y7402D02*
D03*
X17695Y7628D02*
D03*
X17708Y7483D02*
D03*
X18018Y8044D02*
D03*
X18251Y7976D02*
D03*
X18162Y8021D02*
D03*
X21665Y10546D02*
D03*
X21662Y11029D02*
D03*
X21492Y12451D02*
D03*
X7400Y1316D02*
D03*
X7281Y1313D02*
D03*
X7167Y1316D02*
D03*
X7220Y1400D02*
D03*
X7352Y1394D02*
D03*
X7281Y1483D02*
D03*
X7098Y1400D02*
D03*
X7154Y1486D02*
D03*
X7395Y1483D02*
D03*
X7769Y1488D02*
D03*
X7527Y1491D02*
D03*
X7471Y1405D02*
D03*
X7654Y1488D02*
D03*
X7725Y1400D02*
D03*
X7593Y1405D02*
D03*
X7540Y1321D02*
D03*
X7654Y1318D02*
D03*
X6633Y1313D02*
D03*
X6514Y1311D02*
D03*
X6400Y1313D02*
D03*
X6453Y1397D02*
D03*
X6585Y1392D02*
D03*
X6514Y1481D02*
D03*
X6331Y1397D02*
D03*
X6387Y1483D02*
D03*
X6628Y1481D02*
D03*
X7002Y1486D02*
D03*
X6760Y1488D02*
D03*
X6704Y1402D02*
D03*
X6887Y1486D02*
D03*
X6958Y1397D02*
D03*
X6826Y1402D02*
D03*
X6773Y1318D02*
D03*
X6887Y1316D02*
D03*
X7007Y1318D02*
D03*
X5412Y1120D02*
D03*
X5292Y1118D02*
D03*
X5178Y1120D02*
D03*
X5231Y1204D02*
D03*
X5363Y1199D02*
D03*
X5292Y1288D02*
D03*
X5109Y1204D02*
D03*
X5165Y1290D02*
D03*
X5406Y1288D02*
D03*
X5780Y1293D02*
D03*
X5538Y1295D02*
D03*
X5483Y1209D02*
D03*
X5665Y1293D02*
D03*
X5737Y1204D02*
D03*
X5605Y1209D02*
D03*
X5551Y1125D02*
D03*
X5665Y1123D02*
D03*
X5785Y1125D02*
D03*
X5528Y996D02*
D03*
X5648Y998D02*
D03*
X5762Y996D02*
D03*
X5709Y912D02*
D03*
X5577Y917D02*
D03*
X5831Y912D02*
D03*
X5457Y907D02*
D03*
X5203Y912D02*
D03*
X5335Y907D02*
D03*
X5389Y991D02*
D03*
X5274Y993D02*
D03*
X5155Y991D02*
D03*
X2061Y3066D02*
D03*
X2059Y3185D02*
D03*
X2061Y3299D02*
D03*
X2145Y3246D02*
D03*
X2140Y3114D02*
D03*
X2229Y3185D02*
D03*
X2145Y3368D02*
D03*
X2231Y3312D02*
D03*
X2229Y3071D02*
D03*
X2234Y2697D02*
D03*
X2236Y2939D02*
D03*
X2150Y2995D02*
D03*
X2234Y2812D02*
D03*
X2145Y2741D02*
D03*
X2150Y2873D02*
D03*
X2066Y2926D02*
D03*
X2064Y2812D02*
D03*
X2066Y2692D02*
D03*
X2346Y3307D02*
D03*
X2343Y3426D02*
D03*
X2346Y3541D02*
D03*
X2430Y3487D02*
D03*
X2424Y3355D02*
D03*
X2513Y3426D02*
D03*
X2430Y3609D02*
D03*
X2516Y3553D02*
D03*
X2513Y3312D02*
D03*
X2518Y2939D02*
D03*
X2521Y3180D02*
D03*
X2435Y3236D02*
D03*
X2518Y3053D02*
D03*
X2430Y2982D02*
D03*
X2435Y3114D02*
D03*
X2351Y3167D02*
D03*
X2348Y3053D02*
D03*
X2351Y2934D02*
D03*
X2628Y3571D02*
D03*
X2625Y3691D02*
D03*
X2628Y3805D02*
D03*
X2711Y3752D02*
D03*
X2706Y3619D02*
D03*
X2795Y3691D02*
D03*
X2711Y3874D02*
D03*
X2798Y3818D02*
D03*
X2795Y3576D02*
D03*
X2800Y3203D02*
D03*
X2803Y3444D02*
D03*
X2717Y3500D02*
D03*
X2800Y3317D02*
D03*
X2711Y3246D02*
D03*
X2717Y3378D02*
D03*
X2633Y3432D02*
D03*
X2630Y3317D02*
D03*
X2633Y3198D02*
D03*
X4456Y3332D02*
D03*
X4459Y3213D02*
D03*
X4456Y3099D02*
D03*
X4373Y3152D02*
D03*
X4378Y3284D02*
D03*
X4289Y3213D02*
D03*
X4373Y3030D02*
D03*
X4286Y3086D02*
D03*
X4289Y3327D02*
D03*
X4284Y3701D02*
D03*
X4281Y3459D02*
D03*
X4368Y3404D02*
D03*
X4284Y3586D02*
D03*
X4373Y3658D02*
D03*
X4368Y3526D02*
D03*
X4451Y3472D02*
D03*
X4454Y3586D02*
D03*
X4451Y3706D02*
D03*
X4784Y3325D02*
D03*
X4787Y3205D02*
D03*
X4784Y3091D02*
D03*
X4700Y3145D02*
D03*
X4705Y3277D02*
D03*
X4616Y3205D02*
D03*
X4700Y3023D02*
D03*
X4614Y3078D02*
D03*
X4616Y3320D02*
D03*
X4611Y3693D02*
D03*
X4609Y3452D02*
D03*
X4695Y3396D02*
D03*
X4611Y3579D02*
D03*
X4700Y3650D02*
D03*
X4695Y3518D02*
D03*
X4779Y3465D02*
D03*
X4782Y3579D02*
D03*
X4779Y3698D02*
D03*
X4388Y3823D02*
D03*
X4269Y3820D02*
D03*
X4154Y3823D02*
D03*
X4208Y3907D02*
D03*
X4340Y3901D02*
D03*
X4269Y3990D02*
D03*
X4086Y3907D02*
D03*
X4142Y3993D02*
D03*
X4383Y3990D02*
D03*
X4756Y3995D02*
D03*
X4515Y3998D02*
D03*
X4459Y3912D02*
D03*
X4642Y3995D02*
D03*
X4713Y3907D02*
D03*
X4581Y3912D02*
D03*
X4528Y3828D02*
D03*
X4642Y3825D02*
D03*
X4761Y3828D02*
D03*
X2031Y6248D02*
D03*
X1911Y6246D02*
D03*
X1797Y6248D02*
D03*
X1850Y6332D02*
D03*
X1983Y6327D02*
D03*
X1911Y6416D02*
D03*
X1728Y6332D02*
D03*
X1784Y6419D02*
D03*
X2026Y6416D02*
D03*
X2399Y6421D02*
D03*
X2158Y6424D02*
D03*
X2102Y6337D02*
D03*
X2285Y6421D02*
D03*
X2356Y6332D02*
D03*
X2224Y6337D02*
D03*
X2170Y6253D02*
D03*
X2285Y6251D02*
D03*
X2404Y6253D02*
D03*
X1789Y5829D02*
D03*
X1909Y5832D02*
D03*
X2023Y5829D02*
D03*
X1970Y5745D02*
D03*
X1838Y5751D02*
D03*
X1909Y5662D02*
D03*
X2092Y5745D02*
D03*
X2036Y5659D02*
D03*
X1795Y5662D02*
D03*
X1421Y5657D02*
D03*
X1662Y5654D02*
D03*
X1718Y5740D02*
D03*
X1535Y5657D02*
D03*
X1464Y5745D02*
D03*
X1596Y5740D02*
D03*
X1650Y5824D02*
D03*
X1535Y5827D02*
D03*
X1416Y5824D02*
D03*
X15826Y7625D02*
D03*
X15706Y7623D02*
D03*
X15592Y7625D02*
D03*
X15645Y7709D02*
D03*
X15777Y7704D02*
D03*
X15706Y7793D02*
D03*
X15523Y7709D02*
D03*
X15579Y7795D02*
D03*
X15820Y7793D02*
D03*
X15952Y7800D02*
D03*
X15897Y7714D02*
D03*
X16079Y7798D02*
D03*
X16151Y7709D02*
D03*
X16019Y7714D02*
D03*
X15965Y7630D02*
D03*
X16079Y7628D02*
D03*
X14997Y7633D02*
D03*
X14878Y7630D02*
D03*
X14764Y7633D02*
D03*
X14817Y7717D02*
D03*
X14949Y7711D02*
D03*
X14878Y7800D02*
D03*
X14695Y7717D02*
D03*
X14751Y7803D02*
D03*
X14992Y7800D02*
D03*
X15366Y7805D02*
D03*
X15124Y7808D02*
D03*
X15069Y7722D02*
D03*
X15251Y7805D02*
D03*
X15323Y7717D02*
D03*
X15190Y7722D02*
D03*
X15137Y7638D02*
D03*
X15251Y7635D02*
D03*
X15371Y7638D02*
D03*
X10646Y4158D02*
D03*
X10766Y4161D02*
D03*
X10880Y4158D02*
D03*
X10827Y4074D02*
D03*
X10695Y4079D02*
D03*
X10766Y3990D02*
D03*
X10949Y4074D02*
D03*
X10893Y3988D02*
D03*
X10652Y3990D02*
D03*
X10278Y3985D02*
D03*
X10519Y3983D02*
D03*
X10575Y4069D02*
D03*
X10392Y3985D02*
D03*
X10321Y4074D02*
D03*
X10453Y4069D02*
D03*
X10507Y4153D02*
D03*
X10392Y4155D02*
D03*
X10273Y4153D02*
D03*
X11474Y4150D02*
D03*
X11594Y4153D02*
D03*
X11708Y4150D02*
D03*
X11655Y4067D02*
D03*
X11523Y4072D02*
D03*
X11594Y3983D02*
D03*
X11777Y4067D02*
D03*
X11721Y3980D02*
D03*
X11480Y3983D02*
D03*
X11106Y3978D02*
D03*
X11347Y3975D02*
D03*
X11403Y4061D02*
D03*
X11220Y3978D02*
D03*
X11149Y4067D02*
D03*
X11281Y4061D02*
D03*
X11335Y4145D02*
D03*
X11220Y4148D02*
D03*
X11101Y4145D02*
D03*
X9006Y4158D02*
D03*
X9125Y4161D02*
D03*
X9239Y4158D02*
D03*
X9186Y4074D02*
D03*
X9054Y4079D02*
D03*
X9125Y3990D02*
D03*
X9308Y4074D02*
D03*
X9252Y3988D02*
D03*
X9011Y3990D02*
D03*
X8637Y3985D02*
D03*
X8879Y3983D02*
D03*
X8934Y4069D02*
D03*
X8752Y3985D02*
D03*
X8680Y4074D02*
D03*
X8813Y4069D02*
D03*
X8866Y4153D02*
D03*
X8752Y4155D02*
D03*
X8632Y4153D02*
D03*
X9834Y4150D02*
D03*
X9953Y4153D02*
D03*
X10067Y4150D02*
D03*
X10014Y4067D02*
D03*
X9882Y4072D02*
D03*
X9953Y3983D02*
D03*
X10136Y4067D02*
D03*
X10080Y3980D02*
D03*
X9839Y3983D02*
D03*
X9465Y3978D02*
D03*
X9707Y3975D02*
D03*
X9763Y4061D02*
D03*
X9580Y3978D02*
D03*
X9509Y4067D02*
D03*
X9641Y4061D02*
D03*
X9694Y4145D02*
D03*
X9580Y4148D02*
D03*
X9460Y4145D02*
D03*
X7405Y4161D02*
D03*
X7525Y4163D02*
D03*
X7639Y4161D02*
D03*
X7586Y4077D02*
D03*
X7454Y4082D02*
D03*
X7525Y3993D02*
D03*
X7708Y4077D02*
D03*
X7652Y3990D02*
D03*
X7410Y3993D02*
D03*
X7037Y3988D02*
D03*
X7278Y3985D02*
D03*
X7334Y4072D02*
D03*
X7151Y3988D02*
D03*
X7080Y4077D02*
D03*
X7212Y4072D02*
D03*
X7266Y4155D02*
D03*
X7151Y4158D02*
D03*
X7032Y4155D02*
D03*
X8233Y4153D02*
D03*
X8353Y4155D02*
D03*
X8467Y4153D02*
D03*
X8414Y4069D02*
D03*
X8282Y4074D02*
D03*
X8353Y3985D02*
D03*
X8536Y4069D02*
D03*
X8480Y3983D02*
D03*
X8239Y3985D02*
D03*
X7865Y3980D02*
D03*
X8106Y3978D02*
D03*
X8162Y4064D02*
D03*
X7979Y3980D02*
D03*
X7908Y4069D02*
D03*
X8040Y4064D02*
D03*
X8094Y4148D02*
D03*
X7979Y4150D02*
D03*
X7860Y4148D02*
D03*
X9219Y4483D02*
D03*
X9338Y4486D02*
D03*
X9453Y4483D02*
D03*
X9399Y4399D02*
D03*
X9267Y4404D02*
D03*
X9338Y4315D02*
D03*
X9521Y4399D02*
D03*
X9465Y4313D02*
D03*
X9224Y4315D02*
D03*
X8851Y4310D02*
D03*
X9092Y4308D02*
D03*
X9148Y4394D02*
D03*
X8965Y4310D02*
D03*
X8894Y4399D02*
D03*
X9026Y4394D02*
D03*
X9079Y4478D02*
D03*
X8965Y4481D02*
D03*
X8846Y4478D02*
D03*
X10047Y4475D02*
D03*
X10166Y4478D02*
D03*
X10281Y4475D02*
D03*
X10227Y4392D02*
D03*
X10095Y4397D02*
D03*
X10166Y4308D02*
D03*
X10349Y4392D02*
D03*
X10293Y4305D02*
D03*
X10052Y4308D02*
D03*
X9679Y4303D02*
D03*
X9920Y4300D02*
D03*
X9976Y4387D02*
D03*
X9793Y4303D02*
D03*
X9722Y4392D02*
D03*
X9854Y4387D02*
D03*
X9907Y4470D02*
D03*
X9793Y4473D02*
D03*
X9674Y4470D02*
D03*
X7591Y4483D02*
D03*
X7710Y4486D02*
D03*
X7825Y4483D02*
D03*
X7771Y4399D02*
D03*
X7639Y4404D02*
D03*
X7710Y4315D02*
D03*
X7893Y4399D02*
D03*
X7837Y4313D02*
D03*
X7596Y4315D02*
D03*
X7223Y4310D02*
D03*
X7464Y4308D02*
D03*
X7520Y4394D02*
D03*
X7337Y4310D02*
D03*
X7266Y4399D02*
D03*
X7398Y4394D02*
D03*
X7451Y4478D02*
D03*
X7337Y4481D02*
D03*
X7217Y4478D02*
D03*
X8419Y4475D02*
D03*
X8538Y4478D02*
D03*
X8653Y4475D02*
D03*
X8599Y4392D02*
D03*
X8467Y4397D02*
D03*
X8538Y4308D02*
D03*
X8721Y4392D02*
D03*
X8665Y4305D02*
D03*
X8424Y4308D02*
D03*
X8051Y4303D02*
D03*
X8292Y4300D02*
D03*
X8348Y4387D02*
D03*
X8165Y4303D02*
D03*
X8094Y4392D02*
D03*
X8226Y4387D02*
D03*
X8279Y4470D02*
D03*
X8165Y4473D02*
D03*
X8045Y4470D02*
D03*
X5483Y4829D02*
D03*
X5602Y4831D02*
D03*
X5716Y4829D02*
D03*
X5663Y4745D02*
D03*
X5531Y4750D02*
D03*
X5602Y4661D02*
D03*
X5785Y4745D02*
D03*
X5729Y4658D02*
D03*
X5488Y4661D02*
D03*
X5114Y4656D02*
D03*
X5356Y4653D02*
D03*
X5412Y4740D02*
D03*
X5229Y4656D02*
D03*
X5158Y4745D02*
D03*
X5290Y4740D02*
D03*
X5343Y4823D02*
D03*
X5229Y4826D02*
D03*
X5109Y4823D02*
D03*
X6311Y4821D02*
D03*
X6430Y4823D02*
D03*
X6544Y4821D02*
D03*
X6491Y4737D02*
D03*
X6359Y4742D02*
D03*
X6430Y4653D02*
D03*
X6613Y4737D02*
D03*
X6557Y4651D02*
D03*
X6316Y4653D02*
D03*
X5942Y4648D02*
D03*
X6184Y4646D02*
D03*
X6240Y4732D02*
D03*
X6057Y4648D02*
D03*
X5986Y4737D02*
D03*
X6118Y4732D02*
D03*
X6171Y4816D02*
D03*
X6057Y4818D02*
D03*
X5937Y4816D02*
D03*
X7596Y5019D02*
D03*
X7715Y5022D02*
D03*
X7830Y5019D02*
D03*
X7776Y4935D02*
D03*
X7644Y4940D02*
D03*
X7715Y4851D02*
D03*
X7898Y4935D02*
D03*
X7842Y4849D02*
D03*
X7601Y4851D02*
D03*
X7228Y4846D02*
D03*
X7469Y4844D02*
D03*
X7525Y4930D02*
D03*
X7342Y4846D02*
D03*
X7271Y4935D02*
D03*
X7403Y4930D02*
D03*
X7456Y5014D02*
D03*
X7342Y5017D02*
D03*
X7223Y5014D02*
D03*
X8424Y5011D02*
D03*
X8543Y5014D02*
D03*
X8658Y5011D02*
D03*
X8604Y4928D02*
D03*
X8472Y4933D02*
D03*
X8543Y4844D02*
D03*
X8726Y4928D02*
D03*
X8670Y4841D02*
D03*
X8429Y4844D02*
D03*
X8056Y4839D02*
D03*
X8297Y4836D02*
D03*
X8353Y4923D02*
D03*
X8170Y4839D02*
D03*
X8099Y4928D02*
D03*
X8231Y4923D02*
D03*
X8284Y5006D02*
D03*
X8170Y5009D02*
D03*
X8051Y5006D02*
D03*
X7624Y5301D02*
D03*
X7743Y5304D02*
D03*
X7858Y5301D02*
D03*
X7804Y5217D02*
D03*
X7672Y5222D02*
D03*
X7743Y5133D02*
D03*
X7926Y5217D02*
D03*
X7870Y5131D02*
D03*
X7629Y5133D02*
D03*
X7256Y5128D02*
D03*
X7497Y5126D02*
D03*
X7553Y5212D02*
D03*
X7370Y5128D02*
D03*
X7299Y5217D02*
D03*
X7431Y5212D02*
D03*
X7484Y5296D02*
D03*
X7370Y5298D02*
D03*
X7250Y5296D02*
D03*
X8452Y5293D02*
D03*
X8571Y5296D02*
D03*
X8686Y5293D02*
D03*
X8632Y5210D02*
D03*
X8500Y5215D02*
D03*
X8571Y5126D02*
D03*
X8754Y5210D02*
D03*
X8698Y5123D02*
D03*
X8457Y5126D02*
D03*
X8084Y5121D02*
D03*
X8325Y5118D02*
D03*
X8381Y5204D02*
D03*
X8198Y5121D02*
D03*
X8127Y5210D02*
D03*
X8259Y5204D02*
D03*
X8312Y5288D02*
D03*
X8198Y5291D02*
D03*
X8079Y5288D02*
D03*
X9270Y5024D02*
D03*
X9389Y5027D02*
D03*
X9503Y5024D02*
D03*
X9450Y4940D02*
D03*
X9318Y4945D02*
D03*
X9389Y4856D02*
D03*
X9572Y4940D02*
D03*
X9516Y4854D02*
D03*
X9275Y4856D02*
D03*
X8901Y4851D02*
D03*
X9143Y4849D02*
D03*
X9199Y4935D02*
D03*
X9016Y4851D02*
D03*
X8945Y4940D02*
D03*
X9077Y4935D02*
D03*
X9130Y5019D02*
D03*
X9016Y5022D02*
D03*
X8896Y5019D02*
D03*
X10098Y5017D02*
D03*
X10217Y5019D02*
D03*
X10331Y5017D02*
D03*
X10278Y4933D02*
D03*
X10146Y4938D02*
D03*
X10217Y4849D02*
D03*
X10400Y4933D02*
D03*
X10344Y4846D02*
D03*
X10103Y4849D02*
D03*
X9729Y4844D02*
D03*
X9971Y4841D02*
D03*
X10027Y4928D02*
D03*
X9844Y4844D02*
D03*
X9773Y4933D02*
D03*
X9905Y4928D02*
D03*
X9958Y5011D02*
D03*
X9844Y5014D02*
D03*
X9724Y5011D02*
D03*
X9290Y5309D02*
D03*
X9409Y5311D02*
D03*
X9524Y5309D02*
D03*
X9470Y5225D02*
D03*
X9338Y5230D02*
D03*
X9409Y5141D02*
D03*
X9592Y5225D02*
D03*
X9536Y5138D02*
D03*
X9295Y5141D02*
D03*
X8922Y5136D02*
D03*
X9163Y5133D02*
D03*
X9219Y5220D02*
D03*
X9036Y5136D02*
D03*
X8965Y5225D02*
D03*
X9097Y5220D02*
D03*
X9150Y5304D02*
D03*
X9036Y5306D02*
D03*
X8917Y5304D02*
D03*
X10118Y5301D02*
D03*
X10238Y5304D02*
D03*
X10352Y5301D02*
D03*
X10298Y5217D02*
D03*
X10166Y5222D02*
D03*
X10238Y5133D02*
D03*
X10420Y5217D02*
D03*
X10364Y5131D02*
D03*
X10123Y5133D02*
D03*
X9750Y5128D02*
D03*
X9991Y5126D02*
D03*
X10047Y5212D02*
D03*
X9864Y5128D02*
D03*
X9793Y5217D02*
D03*
X9925Y5212D02*
D03*
X9978Y5296D02*
D03*
X9864Y5298D02*
D03*
X9745Y5296D02*
D03*
X23080Y1196D02*
D03*
X23199Y1199D02*
D03*
X23313Y1196D02*
D03*
X23260Y1113D02*
D03*
X23128Y1118D02*
D03*
X23199Y1029D02*
D03*
X23382Y1113D02*
D03*
X23326Y1026D02*
D03*
X23085Y1029D02*
D03*
X22711Y1024D02*
D03*
X22953Y1021D02*
D03*
X23009Y1107D02*
D03*
X22826Y1024D02*
D03*
X22755Y1113D02*
D03*
X22887Y1107D02*
D03*
X22940Y1191D02*
D03*
X22826Y1194D02*
D03*
X22706Y1191D02*
D03*
X23908Y1189D02*
D03*
X24027Y1191D02*
D03*
X24141Y1189D02*
D03*
X24088Y1105D02*
D03*
X23956Y1110D02*
D03*
X24027Y1021D02*
D03*
X24210Y1105D02*
D03*
X24154Y1019D02*
D03*
X23913Y1021D02*
D03*
X23539Y1016D02*
D03*
X23781Y1013D02*
D03*
X23837Y1100D02*
D03*
X23654Y1016D02*
D03*
X23583Y1105D02*
D03*
X23715Y1100D02*
D03*
X23768Y1184D02*
D03*
X23654Y1186D02*
D03*
X23534Y1184D02*
D03*
X23072Y884D02*
D03*
X23191Y886D02*
D03*
X23306Y884D02*
D03*
X23252Y800D02*
D03*
X23120Y805D02*
D03*
X23191Y716D02*
D03*
X23374Y800D02*
D03*
X23318Y714D02*
D03*
X23077Y716D02*
D03*
X22704Y711D02*
D03*
X22945Y709D02*
D03*
X23001Y795D02*
D03*
X22818Y711D02*
D03*
X22747Y800D02*
D03*
X22879Y795D02*
D03*
X22932Y879D02*
D03*
X22818Y881D02*
D03*
X22699Y879D02*
D03*
X23829Y884D02*
D03*
X23948Y886D02*
D03*
X24063Y884D02*
D03*
X24009Y800D02*
D03*
X23877Y805D02*
D03*
X23948Y716D02*
D03*
X24131Y800D02*
D03*
X24075Y714D02*
D03*
X23834Y716D02*
D03*
X23461Y711D02*
D03*
X23702Y709D02*
D03*
X23758Y795D02*
D03*
X23575Y711D02*
D03*
X23504Y800D02*
D03*
X23636Y795D02*
D03*
X23689Y879D02*
D03*
X23575Y881D02*
D03*
X23456Y879D02*
D03*
X24792Y277D02*
D03*
X24911Y279D02*
D03*
X25025Y277D02*
D03*
X24972Y193D02*
D03*
X24840Y198D02*
D03*
X24911Y109D02*
D03*
X25094Y193D02*
D03*
X25038Y107D02*
D03*
X24797Y109D02*
D03*
X24423Y104D02*
D03*
X24665Y102D02*
D03*
X24721Y188D02*
D03*
X24538Y104D02*
D03*
X24467Y193D02*
D03*
X24599Y188D02*
D03*
X24652Y272D02*
D03*
X24538Y274D02*
D03*
X24418Y272D02*
D03*
X25549Y277D02*
D03*
X25668Y279D02*
D03*
X25782Y277D02*
D03*
X25729Y193D02*
D03*
X25597Y198D02*
D03*
X25668Y109D02*
D03*
X25851Y193D02*
D03*
X25795Y107D02*
D03*
X25554Y109D02*
D03*
X25180Y104D02*
D03*
X25422Y102D02*
D03*
X25477Y188D02*
D03*
X25295Y104D02*
D03*
X25224Y193D02*
D03*
X25356Y188D02*
D03*
X25409Y272D02*
D03*
X25295Y274D02*
D03*
X25175Y272D02*
D03*
X19674Y300D02*
D03*
X19793Y302D02*
D03*
X19907Y300D02*
D03*
X19854Y216D02*
D03*
X19722Y221D02*
D03*
X19793Y132D02*
D03*
X19976Y216D02*
D03*
X19920Y130D02*
D03*
X19679Y132D02*
D03*
X19305Y127D02*
D03*
X19547Y124D02*
D03*
X19602Y211D02*
D03*
X19420Y127D02*
D03*
X19348Y216D02*
D03*
X19481Y211D02*
D03*
X19534Y295D02*
D03*
X19420Y297D02*
D03*
X19300Y295D02*
D03*
X20471Y302D02*
D03*
X20591Y305D02*
D03*
X20705Y302D02*
D03*
X20651Y218D02*
D03*
X20519Y224D02*
D03*
X20591Y135D02*
D03*
X20773Y218D02*
D03*
X20718Y132D02*
D03*
X20476Y135D02*
D03*
X20103Y130D02*
D03*
X20344Y127D02*
D03*
X20400Y213D02*
D03*
X20217Y130D02*
D03*
X20146Y218D02*
D03*
X20278Y213D02*
D03*
X20331Y297D02*
D03*
X20217Y300D02*
D03*
X20098Y297D02*
D03*
X21253Y302D02*
D03*
X21373Y305D02*
D03*
X21487Y302D02*
D03*
X21434Y218D02*
D03*
X21302Y224D02*
D03*
X21373Y135D02*
D03*
X21556Y218D02*
D03*
X21500Y132D02*
D03*
X21259Y135D02*
D03*
X20885Y130D02*
D03*
X21126Y127D02*
D03*
X21182Y213D02*
D03*
X20999Y130D02*
D03*
X20928Y218D02*
D03*
X21060Y213D02*
D03*
X21114Y297D02*
D03*
X20999Y300D02*
D03*
X20880Y297D02*
D03*
X22082Y295D02*
D03*
X22201Y297D02*
D03*
X22315Y295D02*
D03*
X22262Y211D02*
D03*
X22130Y216D02*
D03*
X22201Y127D02*
D03*
X22384Y211D02*
D03*
X22328Y124D02*
D03*
X22087Y127D02*
D03*
X21713Y122D02*
D03*
X21955Y119D02*
D03*
X22010Y206D02*
D03*
X21828Y122D02*
D03*
X21756Y211D02*
D03*
X21888Y206D02*
D03*
X21942Y290D02*
D03*
X21828Y292D02*
D03*
X21708Y290D02*
D03*
X15058Y277D02*
D03*
X15178Y279D02*
D03*
X15292Y277D02*
D03*
X15239Y193D02*
D03*
X15107Y198D02*
D03*
X15178Y109D02*
D03*
X15361Y193D02*
D03*
X15305Y107D02*
D03*
X15063Y109D02*
D03*
X14931Y102D02*
D03*
X14987Y188D02*
D03*
X14865D02*
D03*
X14919Y272D02*
D03*
X15856Y279D02*
D03*
X15975Y282D02*
D03*
X16090Y279D02*
D03*
X16036Y196D02*
D03*
X15904Y201D02*
D03*
X15975Y112D02*
D03*
X16158Y196D02*
D03*
X16102Y109D02*
D03*
X15861Y112D02*
D03*
X15488Y107D02*
D03*
X15729Y104D02*
D03*
X15785Y190D02*
D03*
X15602Y107D02*
D03*
X15531Y196D02*
D03*
X15663Y190D02*
D03*
X15716Y274D02*
D03*
X15602Y277D02*
D03*
X15483Y274D02*
D03*
X16638Y279D02*
D03*
X16758Y282D02*
D03*
X16872Y279D02*
D03*
X16819Y196D02*
D03*
X16687Y201D02*
D03*
X16758Y112D02*
D03*
X16941Y196D02*
D03*
X16885Y109D02*
D03*
X16643Y112D02*
D03*
X16270Y107D02*
D03*
X16511Y104D02*
D03*
X16567Y190D02*
D03*
X16384Y107D02*
D03*
X16313Y196D02*
D03*
X16445Y190D02*
D03*
X16499Y274D02*
D03*
X16384Y277D02*
D03*
X16265Y274D02*
D03*
X17466Y272D02*
D03*
X17586Y274D02*
D03*
X17700Y272D02*
D03*
X17647Y188D02*
D03*
X17515Y193D02*
D03*
X17586Y104D02*
D03*
X17769Y188D02*
D03*
X17713Y102D02*
D03*
X17471Y104D02*
D03*
X17098Y99D02*
D03*
X17339Y97D02*
D03*
X17395Y183D02*
D03*
X17212Y99D02*
D03*
X17141Y188D02*
D03*
X17273Y183D02*
D03*
X17327Y267D02*
D03*
X17212Y269D02*
D03*
X17093Y267D02*
D03*
X13738Y328D02*
D03*
X13857Y330D02*
D03*
X13971Y328D02*
D03*
X13918Y244D02*
D03*
X13786Y249D02*
D03*
X13857Y160D02*
D03*
X14040Y244D02*
D03*
X13984Y157D02*
D03*
X13743Y160D02*
D03*
X14116Y165D02*
D03*
X14357Y163D02*
D03*
X14413Y249D02*
D03*
X14230Y165D02*
D03*
X14159Y254D02*
D03*
X14291Y249D02*
D03*
X14345Y333D02*
D03*
X14230Y335D02*
D03*
X14111Y333D02*
D03*
X12173Y368D02*
D03*
X12292Y371D02*
D03*
X12407Y368D02*
D03*
X12353Y284D02*
D03*
X12221Y290D02*
D03*
X12292Y201D02*
D03*
X12475Y284D02*
D03*
X12419Y198D02*
D03*
X12178Y201D02*
D03*
X12551Y206D02*
D03*
X12793Y203D02*
D03*
X12849Y290D02*
D03*
X12666Y206D02*
D03*
X12595Y295D02*
D03*
X12727Y290D02*
D03*
X12780Y373D02*
D03*
X12666Y376D02*
D03*
X12546Y373D02*
D03*
X11345Y376D02*
D03*
X11464Y378D02*
D03*
X11579Y376D02*
D03*
X11525Y292D02*
D03*
X11393Y297D02*
D03*
X11464Y208D02*
D03*
X11647Y292D02*
D03*
X11591Y206D02*
D03*
X11350Y208D02*
D03*
X11723Y213D02*
D03*
X11965Y211D02*
D03*
X12021Y297D02*
D03*
X11838Y213D02*
D03*
X11767Y302D02*
D03*
X11899Y297D02*
D03*
X11952Y381D02*
D03*
X11838Y384D02*
D03*
X11718Y381D02*
D03*
X10563Y376D02*
D03*
X10682Y378D02*
D03*
X10796Y376D02*
D03*
X10743Y292D02*
D03*
X10611Y297D02*
D03*
X10682Y208D02*
D03*
X10865Y292D02*
D03*
X10809Y206D02*
D03*
X10568Y208D02*
D03*
X10941Y213D02*
D03*
X11182Y211D02*
D03*
X11238Y297D02*
D03*
X11055Y213D02*
D03*
X10984Y302D02*
D03*
X11116Y297D02*
D03*
X11170Y381D02*
D03*
X11055Y384D02*
D03*
X10936Y381D02*
D03*
X9765Y373D02*
D03*
X9884Y376D02*
D03*
X9999Y373D02*
D03*
X9945Y290D02*
D03*
X9813Y295D02*
D03*
X9884Y206D02*
D03*
X10067Y290D02*
D03*
X10011Y203D02*
D03*
X9770Y206D02*
D03*
X10144Y211D02*
D03*
X10385Y208D02*
D03*
X10441Y295D02*
D03*
X10258Y211D02*
D03*
X10187Y300D02*
D03*
X10319Y295D02*
D03*
X10372Y378D02*
D03*
X10258Y381D02*
D03*
X10138Y378D02*
D03*
X8937Y366D02*
D03*
X9056Y368D02*
D03*
X9171Y366D02*
D03*
X9117Y282D02*
D03*
X8985Y287D02*
D03*
X9056Y198D02*
D03*
X9239Y282D02*
D03*
X9183Y196D02*
D03*
X8942Y198D02*
D03*
X9315Y203D02*
D03*
X9557Y201D02*
D03*
X9613Y287D02*
D03*
X9430Y203D02*
D03*
X9359Y292D02*
D03*
X9491Y287D02*
D03*
X9544Y371D02*
D03*
X9430Y373D02*
D03*
X9310Y371D02*
D03*
X8106Y353D02*
D03*
X8226Y356D02*
D03*
X8340Y353D02*
D03*
X8287Y269D02*
D03*
X8155Y274D02*
D03*
X8226Y185D02*
D03*
X8409Y269D02*
D03*
X8353Y183D02*
D03*
X8112Y185D02*
D03*
X8485Y190D02*
D03*
X8726Y188D02*
D03*
X8782Y274D02*
D03*
X8599Y190D02*
D03*
X8528Y279D02*
D03*
X8660Y274D02*
D03*
X8714Y358D02*
D03*
X8599Y361D02*
D03*
X8480Y358D02*
D03*
X7299Y320D02*
D03*
X7418Y323D02*
D03*
X7532Y320D02*
D03*
X7479Y236D02*
D03*
X7347Y241D02*
D03*
X7418Y152D02*
D03*
X7601Y236D02*
D03*
X7545Y150D02*
D03*
X7304Y152D02*
D03*
X7677Y157D02*
D03*
X7918Y155D02*
D03*
X7974Y241D02*
D03*
X7791Y157D02*
D03*
X7720Y246D02*
D03*
X7852Y241D02*
D03*
X7906Y325D02*
D03*
X7791Y328D02*
D03*
X7672Y325D02*
D03*
X6529Y323D02*
D03*
X6648Y325D02*
D03*
X6763Y323D02*
D03*
X6709Y239D02*
D03*
X6577Y244D02*
D03*
X6648Y155D02*
D03*
X6831Y239D02*
D03*
X6775Y152D02*
D03*
X6534Y155D02*
D03*
X6908Y160D02*
D03*
X7149Y157D02*
D03*
X7205Y244D02*
D03*
X7022Y160D02*
D03*
X6951Y249D02*
D03*
X7083Y244D02*
D03*
X7136Y328D02*
D03*
X7022Y330D02*
D03*
X6902Y328D02*
D03*
X4797Y272D02*
D03*
X4916Y274D02*
D03*
X5031Y272D02*
D03*
X4977Y188D02*
D03*
X4845Y193D02*
D03*
X4916Y104D02*
D03*
X5099Y188D02*
D03*
X5043Y102D02*
D03*
X4802Y104D02*
D03*
X5175Y109D02*
D03*
X5417Y107D02*
D03*
X5472Y193D02*
D03*
X5290Y109D02*
D03*
X5218Y198D02*
D03*
X5351Y193D02*
D03*
X5404Y277D02*
D03*
X5290Y279D02*
D03*
X5170Y277D02*
D03*
X4040Y272D02*
D03*
X4159Y274D02*
D03*
X4274Y272D02*
D03*
X4220Y188D02*
D03*
X4088Y193D02*
D03*
X4159Y104D02*
D03*
X4342Y188D02*
D03*
X4286Y102D02*
D03*
X4045Y104D02*
D03*
X4418Y109D02*
D03*
X4660Y107D02*
D03*
X4716Y193D02*
D03*
X4533Y109D02*
D03*
X4462Y198D02*
D03*
X4594Y193D02*
D03*
X4647Y277D02*
D03*
X4533Y279D02*
D03*
X4413Y277D02*
D03*
X3367Y561D02*
D03*
X3194Y625D02*
D03*
X3044Y955D02*
D03*
X3186Y495D02*
D03*
X3067Y493D02*
D03*
X2953Y495D02*
D03*
X3006Y579D02*
D03*
X3067Y663D02*
D03*
X2884Y579D02*
D03*
X2940Y665D02*
D03*
X2808Y658D02*
D03*
X2567Y660D02*
D03*
X2511Y574D02*
D03*
X2694Y658D02*
D03*
X2765Y569D02*
D03*
X2633Y574D02*
D03*
X2579Y490D02*
D03*
X2694Y488D02*
D03*
X2813Y490D02*
D03*
X2945Y765D02*
D03*
X2826Y762D02*
D03*
X2711Y765D02*
D03*
X2765Y848D02*
D03*
X2897Y843D02*
D03*
X2826Y932D02*
D03*
X2643Y848D02*
D03*
X2699Y935D02*
D03*
X2940Y932D02*
D03*
X2567Y927D02*
D03*
X2325Y930D02*
D03*
X2270Y843D02*
D03*
X2452Y927D02*
D03*
X2524Y838D02*
D03*
X2391Y843D02*
D03*
X2338Y759D02*
D03*
X2452Y757D02*
D03*
X2572Y759D02*
D03*
X2071Y907D02*
D03*
X1952Y904D02*
D03*
X1838Y907D02*
D03*
X1891Y991D02*
D03*
X2023Y986D02*
D03*
X1500Y1189D02*
D03*
X1769Y991D02*
D03*
X1373Y1191D02*
D03*
X1614Y1189D02*
D03*
X1693Y1069D02*
D03*
X1452Y1072D02*
D03*
X1396Y986D02*
D03*
X1579Y1069D02*
D03*
X1650Y980D02*
D03*
X1518Y986D02*
D03*
X1464Y902D02*
D03*
X1579Y899D02*
D03*
X1698Y902D02*
D03*
X2371Y439D02*
D03*
X2252Y437D02*
D03*
X2137Y439D02*
D03*
X2191Y523D02*
D03*
X2323Y518D02*
D03*
X2252Y607D02*
D03*
X2069Y523D02*
D03*
X2125Y610D02*
D03*
X2366Y607D02*
D03*
X1993Y602D02*
D03*
X1751Y605D02*
D03*
X1695Y518D02*
D03*
X1878Y602D02*
D03*
X1949Y513D02*
D03*
X1817Y518D02*
D03*
X1764Y434D02*
D03*
X1878Y432D02*
D03*
X1998Y434D02*
D03*
X2320Y140D02*
D03*
X2201Y137D02*
D03*
X2087Y140D02*
D03*
X2140Y224D02*
D03*
X2272Y218D02*
D03*
X2201Y307D02*
D03*
X2018Y224D02*
D03*
X2074Y310D02*
D03*
X2315Y307D02*
D03*
X1942Y302D02*
D03*
X1701Y305D02*
D03*
X1645Y218D02*
D03*
X1828Y302D02*
D03*
X1899Y213D02*
D03*
X1767Y218D02*
D03*
X1713Y135D02*
D03*
X1828Y132D02*
D03*
X1947Y135D02*
D03*
X1391Y211D02*
D03*
X1271Y208D02*
D03*
X1157Y211D02*
D03*
X1210Y295D02*
D03*
X1342Y290D02*
D03*
X1271Y378D02*
D03*
X1088Y295D02*
D03*
X1144Y381D02*
D03*
X1386Y378D02*
D03*
X1012Y373D02*
D03*
X771Y376D02*
D03*
X715Y290D02*
D03*
X898Y373D02*
D03*
X969Y284D02*
D03*
X837Y290D02*
D03*
X784Y206D02*
D03*
X898Y203D02*
D03*
X1017Y206D02*
D03*
X1568Y566D02*
D03*
X1449Y564D02*
D03*
X1335Y566D02*
D03*
X1388Y650D02*
D03*
X1520Y645D02*
D03*
X1449Y734D02*
D03*
X1266Y650D02*
D03*
X1322Y737D02*
D03*
X1563Y734D02*
D03*
X1190Y729D02*
D03*
X949Y732D02*
D03*
X893Y645D02*
D03*
X1076Y729D02*
D03*
X1147Y640D02*
D03*
X1015Y645D02*
D03*
X961Y561D02*
D03*
X1076Y559D02*
D03*
X1195Y561D02*
D03*
X514Y536D02*
D03*
X512Y655D02*
D03*
X514Y770D02*
D03*
X598Y716D02*
D03*
X593Y584D02*
D03*
X682Y655D02*
D03*
X598Y838D02*
D03*
X685Y782D02*
D03*
X682Y541D02*
D03*
X677Y914D02*
D03*
X679Y1156D02*
D03*
X593Y1212D02*
D03*
X677Y1029D02*
D03*
X588Y958D02*
D03*
X593Y1090D02*
D03*
X509Y1143D02*
D03*
X507Y1029D02*
D03*
X509Y909D02*
D03*
X1096Y983D02*
D03*
X1094Y1102D02*
D03*
X1096Y1217D02*
D03*
X1180Y1163D02*
D03*
X1175Y1031D02*
D03*
X1264Y1102D02*
D03*
X1180Y1285D02*
D03*
X1266Y1229D02*
D03*
X1264Y988D02*
D03*
X1259Y1361D02*
D03*
X1261Y1603D02*
D03*
X1175Y1659D02*
D03*
X1259Y1476D02*
D03*
X1170Y1405D02*
D03*
X1175Y1537D02*
D03*
X1091Y1590D02*
D03*
X1088Y1476D02*
D03*
X1091Y1356D02*
D03*
X771Y1379D02*
D03*
X768Y1499D02*
D03*
X771Y1613D02*
D03*
X855Y1560D02*
D03*
X850Y1427D02*
D03*
X939Y1499D02*
D03*
X855Y1681D02*
D03*
X941Y1626D02*
D03*
X939Y1384D02*
D03*
X933Y1758D02*
D03*
X936Y1999D02*
D03*
X850Y2055D02*
D03*
X933Y1872D02*
D03*
X845Y1801D02*
D03*
X850Y1933D02*
D03*
X766Y1986D02*
D03*
X763Y1872D02*
D03*
X766Y1753D02*
D03*
X293Y1344D02*
D03*
X291Y1463D02*
D03*
X293Y1577D02*
D03*
X377Y1524D02*
D03*
X372Y1392D02*
D03*
X461Y1463D02*
D03*
X377Y1646D02*
D03*
X464Y1590D02*
D03*
X461Y1349D02*
D03*
X456Y1722D02*
D03*
X459Y1963D02*
D03*
X372Y2019D02*
D03*
X456Y1836D02*
D03*
X367Y1765D02*
D03*
X372Y1897D02*
D03*
X288Y1951D02*
D03*
X286Y1836D02*
D03*
X288Y1717D02*
D03*
X941Y2296D02*
D03*
X939Y2416D02*
D03*
X941Y2530D02*
D03*
X1025Y2476D02*
D03*
X1020Y2344D02*
D03*
X1109Y2416D02*
D03*
X1025Y2598D02*
D03*
X1111Y2543D02*
D03*
X1109Y2301D02*
D03*
X1104Y2675D02*
D03*
X1106Y2916D02*
D03*
X1020Y2972D02*
D03*
X1104Y2789D02*
D03*
X1015Y2718D02*
D03*
X1020Y2850D02*
D03*
X936Y2903D02*
D03*
X933Y2789D02*
D03*
X936Y2670D02*
D03*
X565Y2197D02*
D03*
X563Y2316D02*
D03*
X565Y2431D02*
D03*
X649Y2377D02*
D03*
X644Y2245D02*
D03*
X733Y2316D02*
D03*
X649Y2499D02*
D03*
X735Y2443D02*
D03*
X733Y2202D02*
D03*
X728Y2576D02*
D03*
X730Y2817D02*
D03*
X644Y2873D02*
D03*
X728Y2690D02*
D03*
X639Y2619D02*
D03*
X644Y2751D02*
D03*
X560Y2804D02*
D03*
X558Y2690D02*
D03*
X560Y2570D02*
D03*
X210Y2245D02*
D03*
X207Y2365D02*
D03*
X210Y2479D02*
D03*
X293Y2426D02*
D03*
X288Y2294D02*
D03*
X377Y2365D02*
D03*
X293Y2548D02*
D03*
X380Y2492D02*
D03*
X377Y2250D02*
D03*
X372Y2624D02*
D03*
X375Y2865D02*
D03*
X288Y2921D02*
D03*
X372Y2738D02*
D03*
X283Y2667D02*
D03*
X288Y2799D02*
D03*
X205Y2852D02*
D03*
X202Y2738D02*
D03*
X205Y2619D02*
D03*
X1111Y3147D02*
D03*
X1109Y3266D02*
D03*
X1111Y3381D02*
D03*
X1195Y3327D02*
D03*
X1190Y3195D02*
D03*
X1279Y3266D02*
D03*
X1195Y3449D02*
D03*
X1281Y3393D02*
D03*
X1279Y3152D02*
D03*
X1274Y3526D02*
D03*
X1276Y3767D02*
D03*
X1190Y3823D02*
D03*
X1274Y3640D02*
D03*
X1185Y3569D02*
D03*
X1190Y3701D02*
D03*
X1106Y3754D02*
D03*
X1104Y3640D02*
D03*
X1106Y3520D02*
D03*
X712Y3091D02*
D03*
X710Y3211D02*
D03*
X712Y3325D02*
D03*
X796Y3272D02*
D03*
X791Y3139D02*
D03*
X880Y3211D02*
D03*
X796Y3393D02*
D03*
X883Y3338D02*
D03*
X880Y3096D02*
D03*
X875Y3470D02*
D03*
X878Y3711D02*
D03*
X791Y3767D02*
D03*
X875Y3584D02*
D03*
X786Y3513D02*
D03*
X791Y3645D02*
D03*
X707Y3698D02*
D03*
X705Y3584D02*
D03*
X707Y3465D02*
D03*
X265Y3198D02*
D03*
X263Y3317D02*
D03*
X265Y3432D02*
D03*
X349Y3378D02*
D03*
X344Y3246D02*
D03*
X433Y3317D02*
D03*
X349Y3500D02*
D03*
X436Y3444D02*
D03*
X433Y3203D02*
D03*
X428Y3576D02*
D03*
X431Y3818D02*
D03*
X344Y3874D02*
D03*
X428Y3691D02*
D03*
X339Y3619D02*
D03*
X344Y3752D02*
D03*
X260Y3805D02*
D03*
X258Y3691D02*
D03*
X260Y3571D02*
D03*
X542Y4034D02*
D03*
X540Y4153D02*
D03*
X542Y4267D02*
D03*
X626Y4214D02*
D03*
X621Y4082D02*
D03*
X710Y4153D02*
D03*
X626Y4336D02*
D03*
X712Y4280D02*
D03*
X710Y4039D02*
D03*
X705Y4412D02*
D03*
X707Y4653D02*
D03*
X621Y4709D02*
D03*
X705Y4526D02*
D03*
X616Y4455D02*
D03*
X621Y4587D02*
D03*
X537Y4641D02*
D03*
X535Y4526D02*
D03*
X537Y4407D02*
D03*
X174Y4161D02*
D03*
X171Y4280D02*
D03*
X174Y4394D02*
D03*
X258Y4341D02*
D03*
X253Y4209D02*
D03*
X342Y4280D02*
D03*
X258Y4463D02*
D03*
X344Y4407D02*
D03*
X342Y4166D02*
D03*
X337Y4539D02*
D03*
X339Y4780D02*
D03*
X253Y4836D02*
D03*
X337Y4653D02*
D03*
X248Y4582D02*
D03*
X253Y4714D02*
D03*
X169Y4768D02*
D03*
X166Y4653D02*
D03*
X169Y4534D02*
D03*
X159Y5240D02*
D03*
X156Y5359D02*
D03*
X159Y5474D02*
D03*
X243Y5420D02*
D03*
X238Y5288D02*
D03*
X326Y5359D02*
D03*
X243Y5542D02*
D03*
X329Y5486D02*
D03*
X326Y5245D02*
D03*
X321Y5618D02*
D03*
X324Y5860D02*
D03*
X238Y5916D02*
D03*
X321Y5733D02*
D03*
X232Y5662D02*
D03*
X238Y5794D02*
D03*
X154Y5847D02*
D03*
X151Y5733D02*
D03*
X154Y5613D02*
D03*
X443Y6043D02*
D03*
X441Y6162D02*
D03*
X443Y6276D02*
D03*
X527Y6223D02*
D03*
X522Y6091D02*
D03*
X611Y6162D02*
D03*
X527Y6345D02*
D03*
X613Y6289D02*
D03*
X611Y6048D02*
D03*
X606Y6421D02*
D03*
X608Y6662D02*
D03*
X522Y6718D02*
D03*
X606Y6535D02*
D03*
X517Y6464D02*
D03*
X522Y6596D02*
D03*
X438Y6650D02*
D03*
X436Y6535D02*
D03*
X438Y6416D02*
D03*
X138Y6459D02*
D03*
X136Y6579D02*
D03*
X138Y6693D02*
D03*
X222Y6640D02*
D03*
X217Y6507D02*
D03*
X306Y6579D02*
D03*
X222Y6761D02*
D03*
X309Y6706D02*
D03*
X306Y6464D02*
D03*
X301Y6838D02*
D03*
X304Y7079D02*
D03*
X217Y7135D02*
D03*
X301Y6952D02*
D03*
X212Y6881D02*
D03*
X217Y7013D02*
D03*
X133Y7066D02*
D03*
X131Y6952D02*
D03*
X133Y6833D02*
D03*
X621Y6802D02*
D03*
X619Y6921D02*
D03*
X621Y7036D02*
D03*
X705Y6982D02*
D03*
X700Y6850D02*
D03*
X789Y6921D02*
D03*
X705Y7104D02*
D03*
X791Y7049D02*
D03*
X789Y6807D02*
D03*
X784Y7181D02*
D03*
X786Y7422D02*
D03*
X700Y7478D02*
D03*
X784Y7295D02*
D03*
X695Y7224D02*
D03*
X700Y7356D02*
D03*
X616Y7409D02*
D03*
X613Y7295D02*
D03*
X616Y7175D02*
D03*
X202Y7262D02*
D03*
X199Y7381D02*
D03*
X202Y7496D02*
D03*
X286Y7442D02*
D03*
X281Y7310D02*
D03*
X370Y7381D02*
D03*
X286Y7564D02*
D03*
X372Y7508D02*
D03*
X370Y7267D02*
D03*
X365Y7640D02*
D03*
X367Y7882D02*
D03*
X281Y7938D02*
D03*
X365Y7755D02*
D03*
X276Y7683D02*
D03*
X281Y7816D02*
D03*
X197Y7869D02*
D03*
X194Y7755D02*
D03*
X197Y7635D02*
D03*
X687Y8382D02*
D03*
X690Y8263D02*
D03*
X687Y8148D02*
D03*
X603Y8202D02*
D03*
X608Y8334D02*
D03*
X519Y8263D02*
D03*
X603Y8080D02*
D03*
X517Y8136D02*
D03*
X519Y8377D02*
D03*
X525Y8004D02*
D03*
X522Y7762D02*
D03*
X608Y7706D02*
D03*
X525Y7889D02*
D03*
X613Y7960D02*
D03*
X608Y7828D02*
D03*
X692Y7775D02*
D03*
X695Y7889D02*
D03*
X692Y8009D02*
D03*
X809Y9177D02*
D03*
X812Y9058D02*
D03*
X809Y8943D02*
D03*
X725Y8997D02*
D03*
X730Y9129D02*
D03*
X641Y9058D02*
D03*
X725Y8875D02*
D03*
X639Y8931D02*
D03*
X641Y9172D02*
D03*
X646Y8799D02*
D03*
X644Y8557D02*
D03*
X730Y8501D02*
D03*
X646Y8684D02*
D03*
X735Y8755D02*
D03*
X730Y8623D02*
D03*
X814Y8570D02*
D03*
X817Y8684D02*
D03*
X814Y8804D02*
D03*
X1114Y8948D02*
D03*
X1116Y8829D02*
D03*
X1114Y8715D02*
D03*
X1030Y8768D02*
D03*
X1035Y8900D02*
D03*
X946Y8829D02*
D03*
X1030Y8646D02*
D03*
X944Y8702D02*
D03*
X946Y8943D02*
D03*
X951Y8570D02*
D03*
X949Y8329D02*
D03*
X1035Y8273D02*
D03*
X951Y8456D02*
D03*
X1040Y8527D02*
D03*
X1035Y8395D02*
D03*
X1119Y8341D02*
D03*
X1121Y8456D02*
D03*
X1119Y8575D02*
D03*
X5318Y12705D02*
D03*
X5198Y12703D02*
D03*
X5084Y12705D02*
D03*
X5137Y12789D02*
D03*
X5269Y12784D02*
D03*
X5198Y12873D02*
D03*
X5015Y12789D02*
D03*
X5071Y12875D02*
D03*
X5312Y12873D02*
D03*
X4939Y12868D02*
D03*
X4698Y12870D02*
D03*
X4642Y12784D02*
D03*
X4825Y12868D02*
D03*
X4896Y12779D02*
D03*
X4764Y12784D02*
D03*
X4710Y12700D02*
D03*
X4825Y12697D02*
D03*
X4944Y12700D02*
D03*
X4728Y12487D02*
D03*
X4609Y12484D02*
D03*
X4495Y12487D02*
D03*
X4548Y12570D02*
D03*
X4680Y12565D02*
D03*
X4609Y12654D02*
D03*
X4426Y12570D02*
D03*
X4482Y12657D02*
D03*
X4723Y12654D02*
D03*
X4350Y12649D02*
D03*
X4108Y12652D02*
D03*
X4053Y12565D02*
D03*
X4235Y12649D02*
D03*
X4307Y12560D02*
D03*
X4175Y12565D02*
D03*
X4121Y12482D02*
D03*
X4235Y12479D02*
D03*
X4355Y12482D02*
D03*
X4421Y12220D02*
D03*
X4302Y12217D02*
D03*
X4187Y12220D02*
D03*
X4241Y12304D02*
D03*
X4373Y12299D02*
D03*
X4302Y12388D02*
D03*
X4119Y12304D02*
D03*
X4175Y12390D02*
D03*
X4416Y12388D02*
D03*
X4042Y12382D02*
D03*
X3801Y12385D02*
D03*
X3745Y12299D02*
D03*
X3928Y12382D02*
D03*
X3999Y12294D02*
D03*
X3867Y12299D02*
D03*
X3814Y12215D02*
D03*
X3928Y12212D02*
D03*
X4048Y12215D02*
D03*
X4106Y11821D02*
D03*
X3987Y11819D02*
D03*
X3872Y11821D02*
D03*
X3926Y11905D02*
D03*
X4058Y11900D02*
D03*
X3987Y11989D02*
D03*
X3804Y11905D02*
D03*
X3860Y11991D02*
D03*
X4101Y11989D02*
D03*
X3727Y11984D02*
D03*
X3486Y11986D02*
D03*
X3430Y11900D02*
D03*
X3613Y11984D02*
D03*
X3684Y11895D02*
D03*
X3552Y11900D02*
D03*
X3499Y11816D02*
D03*
X3613Y11814D02*
D03*
X3733Y11816D02*
D03*
X3743Y11499D02*
D03*
X3623Y11496D02*
D03*
X3509Y11499D02*
D03*
X3562Y11582D02*
D03*
X3694Y11577D02*
D03*
X3623Y11666D02*
D03*
X3440Y11582D02*
D03*
X3496Y11669D02*
D03*
X3738Y11666D02*
D03*
X3364Y11661D02*
D03*
X3123Y11664D02*
D03*
X3067Y11577D02*
D03*
X3250Y11661D02*
D03*
X3321Y11572D02*
D03*
X3189Y11577D02*
D03*
X3136Y11493D02*
D03*
X3250Y11491D02*
D03*
X3369Y11493D02*
D03*
X6600Y12992D02*
D03*
X6481Y12990D02*
D03*
X6367Y12992D02*
D03*
X6420Y13076D02*
D03*
X6552Y13071D02*
D03*
X6481Y13160D02*
D03*
X6298Y13076D02*
D03*
X6354Y13162D02*
D03*
X6595Y13160D02*
D03*
X6222Y13155D02*
D03*
X5980Y13157D02*
D03*
X5925Y13071D02*
D03*
X6107Y13155D02*
D03*
X6179Y13066D02*
D03*
X6047Y13071D02*
D03*
X5993Y12987D02*
D03*
X6107Y12984D02*
D03*
X6227Y12987D02*
D03*
X6064Y12692D02*
D03*
X5945Y12690D02*
D03*
X5831Y12692D02*
D03*
X5884Y12776D02*
D03*
X6016Y12771D02*
D03*
X5945Y12860D02*
D03*
X5762Y12776D02*
D03*
X5818Y12863D02*
D03*
X6059Y12860D02*
D03*
X5686Y12855D02*
D03*
X5445Y12857D02*
D03*
X5389Y12771D02*
D03*
X5572Y12855D02*
D03*
X5643Y12766D02*
D03*
X5511Y12771D02*
D03*
X5457Y12687D02*
D03*
X5572Y12685D02*
D03*
X5691Y12687D02*
D03*
X7123Y12700D02*
D03*
X7004Y12697D02*
D03*
X6890Y12700D02*
D03*
X6943Y12784D02*
D03*
X7075Y12779D02*
D03*
X7004Y12868D02*
D03*
X6821Y12784D02*
D03*
X6877Y12870D02*
D03*
X7118Y12868D02*
D03*
X6745Y12863D02*
D03*
X6504Y12865D02*
D03*
X6448Y12779D02*
D03*
X6631Y12863D02*
D03*
X6702Y12774D02*
D03*
X6570Y12779D02*
D03*
X6516Y12695D02*
D03*
X6631Y12692D02*
D03*
X6750Y12695D02*
D03*
X9046Y13061D02*
D03*
X8927Y13058D02*
D03*
X8813Y13061D02*
D03*
X8866Y13145D02*
D03*
X8998Y13139D02*
D03*
X8927Y13228D02*
D03*
X8744Y13145D02*
D03*
X8800Y13231D02*
D03*
X9041Y13228D02*
D03*
X8668Y13223D02*
D03*
X8426Y13226D02*
D03*
X8371Y13139D02*
D03*
X8553Y13223D02*
D03*
X8625Y13134D02*
D03*
X8493Y13139D02*
D03*
X8439Y13056D02*
D03*
X8553Y13053D02*
D03*
X8673Y13056D02*
D03*
X11099Y12903D02*
D03*
X10979Y12901D02*
D03*
X10865Y12903D02*
D03*
X10918Y12987D02*
D03*
X11050Y12982D02*
D03*
X10979Y13071D02*
D03*
X10796Y12987D02*
D03*
X10852Y13073D02*
D03*
X11093Y13071D02*
D03*
X10720Y13066D02*
D03*
X10479Y13068D02*
D03*
X10423Y12982D02*
D03*
X10606Y13066D02*
D03*
X10677Y12977D02*
D03*
X10545Y12982D02*
D03*
X10492Y12898D02*
D03*
X10606Y12896D02*
D03*
X10725Y12898D02*
D03*
X10011Y12964D02*
D03*
X9892Y12962D02*
D03*
X9778Y12964D02*
D03*
X9831Y13048D02*
D03*
X9963Y13043D02*
D03*
X9892Y13132D02*
D03*
X9709Y13048D02*
D03*
X9765Y13134D02*
D03*
X10006Y13132D02*
D03*
X9633Y13127D02*
D03*
X9392Y13129D02*
D03*
X9336Y13043D02*
D03*
X9519Y13127D02*
D03*
X9590Y13038D02*
D03*
X9458Y13043D02*
D03*
X9404Y12959D02*
D03*
X9519Y12957D02*
D03*
X9638Y12959D02*
D03*
X12803Y12957D02*
D03*
X12684Y12954D02*
D03*
X12569Y12957D02*
D03*
X12623Y13040D02*
D03*
X12755Y13035D02*
D03*
X12684Y13124D02*
D03*
X12501Y13040D02*
D03*
X12557Y13127D02*
D03*
X12798Y13124D02*
D03*
X12424Y13119D02*
D03*
X12183Y13122D02*
D03*
X12127Y13035D02*
D03*
X12310Y13119D02*
D03*
X12381Y13030D02*
D03*
X12249Y13035D02*
D03*
X12196Y12951D02*
D03*
X12310Y12949D02*
D03*
X12430Y12951D02*
D03*
X12742Y13315D02*
D03*
X12623Y13312D02*
D03*
X12508Y13315D02*
D03*
X12562Y13399D02*
D03*
X12694Y13393D02*
D03*
X12623Y13482D02*
D03*
X12440Y13399D02*
D03*
X12496Y13485D02*
D03*
X12737Y13482D02*
D03*
X12363Y13477D02*
D03*
X12122Y13480D02*
D03*
X12066Y13393D02*
D03*
X12249Y13477D02*
D03*
X12320Y13388D02*
D03*
X12188Y13393D02*
D03*
X12135Y13310D02*
D03*
X12249Y13307D02*
D03*
X12369Y13310D02*
D03*
X13618Y13114D02*
D03*
X13499Y13111D02*
D03*
X13385Y13114D02*
D03*
X13438Y13198D02*
D03*
X13570Y13193D02*
D03*
X13499Y13282D02*
D03*
X13316Y13198D02*
D03*
X13372Y13284D02*
D03*
X13613Y13282D02*
D03*
X13240Y13277D02*
D03*
X12998Y13279D02*
D03*
X12943Y13193D02*
D03*
X13125Y13277D02*
D03*
X13197Y13188D02*
D03*
X13065Y13193D02*
D03*
X13011Y13109D02*
D03*
X13125Y13106D02*
D03*
X13245Y13109D02*
D03*
X14444Y13271D02*
D03*
X14324Y13269D02*
D03*
X14210Y13271D02*
D03*
X14263Y13355D02*
D03*
X14395Y13350D02*
D03*
X14324Y13439D02*
D03*
X14141Y13355D02*
D03*
X14197Y13442D02*
D03*
X14439Y13439D02*
D03*
X14065Y13434D02*
D03*
X13824Y13437D02*
D03*
X13768Y13350D02*
D03*
X13951Y13434D02*
D03*
X14022Y13345D02*
D03*
X13890Y13350D02*
D03*
X13837Y13266D02*
D03*
X13951Y13264D02*
D03*
X14070Y13266D02*
D03*
X14434Y12964D02*
D03*
X14314Y12962D02*
D03*
X14200Y12964D02*
D03*
X14253Y13048D02*
D03*
X14385Y13043D02*
D03*
X14314Y13132D02*
D03*
X14131Y13048D02*
D03*
X14187Y13134D02*
D03*
X14429Y13132D02*
D03*
X14055Y13127D02*
D03*
X13814Y13129D02*
D03*
X13758Y13043D02*
D03*
X13941Y13127D02*
D03*
X14012Y13038D02*
D03*
X13880Y13043D02*
D03*
X13827Y12959D02*
D03*
X13941Y12957D02*
D03*
X14060Y12959D02*
D03*
X15409Y13261D02*
D03*
X15290Y13259D02*
D03*
X15175Y13261D02*
D03*
X15229Y13345D02*
D03*
X15361Y13340D02*
D03*
X15290Y13429D02*
D03*
X15107Y13345D02*
D03*
X15163Y13432D02*
D03*
X15404Y13429D02*
D03*
X15030Y13424D02*
D03*
X14789Y13426D02*
D03*
X14733Y13340D02*
D03*
X14916Y13424D02*
D03*
X14987Y13335D02*
D03*
X14855Y13340D02*
D03*
X14802Y13256D02*
D03*
X14916Y13254D02*
D03*
X15036Y13256D02*
D03*
X16270Y13279D02*
D03*
X16151Y13277D02*
D03*
X16036Y13279D02*
D03*
X16090Y13363D02*
D03*
X16222Y13358D02*
D03*
X16151Y13447D02*
D03*
X15968Y13363D02*
D03*
X16024Y13449D02*
D03*
X16265Y13447D02*
D03*
X15892Y13442D02*
D03*
X15650Y13444D02*
D03*
X15594Y13358D02*
D03*
X15777Y13442D02*
D03*
X15848Y13353D02*
D03*
X15716Y13358D02*
D03*
X15663Y13274D02*
D03*
X15777Y13271D02*
D03*
X15897Y13274D02*
D03*
X17121Y13261D02*
D03*
X17002Y13259D02*
D03*
X16887Y13261D02*
D03*
X16941Y13345D02*
D03*
X17073Y13340D02*
D03*
X17002Y13429D02*
D03*
X16819Y13345D02*
D03*
X16875Y13432D02*
D03*
X17116Y13429D02*
D03*
X16742Y13424D02*
D03*
X16501Y13426D02*
D03*
X16445Y13340D02*
D03*
X16628Y13424D02*
D03*
X16699Y13335D02*
D03*
X16567Y13340D02*
D03*
X16514Y13256D02*
D03*
X16628Y13254D02*
D03*
X16748Y13256D02*
D03*
X17918Y13254D02*
D03*
X17799Y13251D02*
D03*
X17685Y13254D02*
D03*
X17738Y13338D02*
D03*
X17870Y13332D02*
D03*
X17799Y13421D02*
D03*
X17616Y13338D02*
D03*
X17672Y13424D02*
D03*
X17913Y13421D02*
D03*
X17540Y13416D02*
D03*
X17299Y13419D02*
D03*
X17243Y13332D02*
D03*
X17426Y13416D02*
D03*
X17497Y13327D02*
D03*
X17365Y13332D02*
D03*
X17311Y13249D02*
D03*
X17426Y13246D02*
D03*
X17545Y13249D02*
D03*
X19506Y12868D02*
D03*
X19387Y12865D02*
D03*
X19272Y12868D02*
D03*
X19326Y12951D02*
D03*
X19458Y12946D02*
D03*
X19387Y13035D02*
D03*
X19204Y12951D02*
D03*
X19260Y13038D02*
D03*
X19501Y13035D02*
D03*
X19127Y13030D02*
D03*
X18886Y13033D02*
D03*
X18830Y12946D02*
D03*
X19013Y13030D02*
D03*
X19084Y12941D02*
D03*
X18952Y12946D02*
D03*
X18899Y12863D02*
D03*
X19013Y12860D02*
D03*
X19133Y12863D02*
D03*
X21716Y13109D02*
D03*
X21596Y13106D02*
D03*
X21482Y13109D02*
D03*
X21535Y13193D02*
D03*
X21668Y13188D02*
D03*
X21596Y13277D02*
D03*
X21413Y13193D02*
D03*
X21469Y13279D02*
D03*
X21711Y13277D02*
D03*
X21337Y13271D02*
D03*
X21096Y13274D02*
D03*
X21040Y13188D02*
D03*
X21223Y13271D02*
D03*
X21294Y13183D02*
D03*
X21162Y13188D02*
D03*
X21109Y13104D02*
D03*
X21223Y13101D02*
D03*
X21342Y13104D02*
D03*
X20839Y13124D02*
D03*
X20720Y13122D02*
D03*
X20606Y13124D02*
D03*
X20659Y13208D02*
D03*
X20791Y13203D02*
D03*
X20720Y13292D02*
D03*
X20537Y13208D02*
D03*
X20593Y13294D02*
D03*
X20834Y13292D02*
D03*
X20461Y13287D02*
D03*
X20220Y13289D02*
D03*
X20164Y13203D02*
D03*
X20347Y13287D02*
D03*
X20418Y13198D02*
D03*
X20286Y13203D02*
D03*
X20232Y13119D02*
D03*
X20347Y13117D02*
D03*
X20466Y13119D02*
D03*
X23578Y12977D02*
D03*
X23458Y12974D02*
D03*
X23344Y12977D02*
D03*
X23397Y13061D02*
D03*
X23529Y13056D02*
D03*
X23458Y13145D02*
D03*
X23275Y13061D02*
D03*
X23331Y13147D02*
D03*
X23573Y13145D02*
D03*
X23199Y13139D02*
D03*
X22958Y13142D02*
D03*
X22902Y13056D02*
D03*
X23085Y13139D02*
D03*
X23156Y13051D02*
D03*
X23024Y13056D02*
D03*
X22971Y12972D02*
D03*
X23085Y12969D02*
D03*
X23204Y12972D02*
D03*
X22734Y12949D02*
D03*
X22615Y12946D02*
D03*
X22501Y12949D02*
D03*
X22554Y13033D02*
D03*
X22686Y13028D02*
D03*
X22615Y13117D02*
D03*
X22432Y13033D02*
D03*
X22488Y13119D02*
D03*
X22729Y13117D02*
D03*
X22356Y13111D02*
D03*
X22115Y13114D02*
D03*
X22059Y13028D02*
D03*
X22242Y13111D02*
D03*
X22313Y13023D02*
D03*
X22181Y13028D02*
D03*
X22127Y12944D02*
D03*
X22242Y12941D02*
D03*
X22361Y12944D02*
D03*
X23044Y12690D02*
D03*
X22925Y12687D02*
D03*
X22810Y12690D02*
D03*
X22864Y12774D02*
D03*
X22996Y12769D02*
D03*
X22925Y12857D02*
D03*
X22742Y12774D02*
D03*
X22798Y12860D02*
D03*
X23039Y12857D02*
D03*
X22666Y12852D02*
D03*
X22424Y12855D02*
D03*
X22369Y12769D02*
D03*
X22551Y12852D02*
D03*
X22623Y12764D02*
D03*
X22490Y12769D02*
D03*
X22437Y12685D02*
D03*
X22551Y12682D02*
D03*
X22671Y12685D02*
D03*
X25399Y12713D02*
D03*
X25150Y12543D02*
D03*
X25046Y12611D02*
D03*
X25048Y12979D02*
D03*
X25432Y12802D02*
D03*
X25244Y12890D02*
D03*
X25061Y12807D02*
D03*
X25117Y12893D02*
D03*
X25358Y12890D02*
D03*
X24985Y12885D02*
D03*
X24743Y12888D02*
D03*
X24688Y12802D02*
D03*
X24870Y12885D02*
D03*
X24942Y12797D02*
D03*
X24809Y12802D02*
D03*
X24756Y12718D02*
D03*
X24870Y12715D02*
D03*
X24990Y12718D02*
D03*
X26186Y12408D02*
D03*
X26067Y12405D02*
D03*
X25952Y12408D02*
D03*
X26006Y12492D02*
D03*
X26138Y12487D02*
D03*
X26067Y12576D02*
D03*
X25884Y12492D02*
D03*
X25940Y12578D02*
D03*
X26181Y12576D02*
D03*
X25808Y12570D02*
D03*
X25566Y12573D02*
D03*
X25511Y12487D02*
D03*
X25693Y12570D02*
D03*
X25765Y12482D02*
D03*
X25632Y12487D02*
D03*
X25579Y12403D02*
D03*
X25693Y12400D02*
D03*
X25813Y12403D02*
D03*
X26821Y12088D02*
D03*
X26702Y12085D02*
D03*
X26587Y12088D02*
D03*
X26641Y12172D02*
D03*
X26773Y12167D02*
D03*
X26702Y12256D02*
D03*
X26519Y12172D02*
D03*
X26575Y12258D02*
D03*
X26816Y12256D02*
D03*
X26443Y12250D02*
D03*
X26201Y12253D02*
D03*
X26146Y12167D02*
D03*
X26328Y12250D02*
D03*
X26400Y12162D02*
D03*
X26267Y12167D02*
D03*
X26214Y12083D02*
D03*
X26328Y12080D02*
D03*
X26448Y12083D02*
D03*
X24022Y12075D02*
D03*
X23946Y12154D02*
D03*
X23705Y12156D02*
D03*
X23649Y12070D02*
D03*
X23832Y12154D02*
D03*
X23903Y12065D02*
D03*
X23771Y12070D02*
D03*
X23717Y11986D02*
D03*
X23832Y11984D02*
D03*
X23951Y11986D02*
D03*
X27502Y10640D02*
D03*
X27383Y10638D02*
D03*
X27268Y10640D02*
D03*
X27322Y10724D02*
D03*
X27454Y10719D02*
D03*
X27383Y10808D02*
D03*
X27200Y10724D02*
D03*
X27255Y10810D02*
D03*
X27497Y10808D02*
D03*
X27123Y10803D02*
D03*
X26882Y10805D02*
D03*
X26826Y10719D02*
D03*
X27009Y10803D02*
D03*
X27080Y10714D02*
D03*
X26948Y10719D02*
D03*
X26895Y10635D02*
D03*
X27009Y10632D02*
D03*
X27129Y10635D02*
D03*
X28051Y9817D02*
D03*
X27931Y9815D02*
D03*
X27817Y9817D02*
D03*
X27870Y9901D02*
D03*
X28002Y9896D02*
D03*
X27931Y9985D02*
D03*
X27748Y9901D02*
D03*
X27804Y9987D02*
D03*
X28045Y9985D02*
D03*
X27672Y9980D02*
D03*
X27431Y9982D02*
D03*
X27375Y9896D02*
D03*
X27558Y9980D02*
D03*
X27629Y9891D02*
D03*
X27497Y9896D02*
D03*
X27443Y9812D02*
D03*
X27558Y9809D02*
D03*
X27677Y9812D02*
D03*
X29635Y7676D02*
D03*
X29633Y7795D02*
D03*
X29635Y7910D02*
D03*
X29719Y7856D02*
D03*
X29714Y7724D02*
D03*
X29803Y7795D02*
D03*
X29719Y7978D02*
D03*
X29806Y7922D02*
D03*
X29803Y7681D02*
D03*
X29798Y8054D02*
D03*
X29801Y8296D02*
D03*
X29714Y8352D02*
D03*
X29798Y8169D02*
D03*
X29709Y8098D02*
D03*
X29714Y8230D02*
D03*
X29630Y8283D02*
D03*
X29628Y8169D02*
D03*
X29630Y8049D02*
D03*
X29704Y6878D02*
D03*
X29702Y6998D02*
D03*
X29704Y7112D02*
D03*
X29788Y7059D02*
D03*
X29783Y6927D02*
D03*
X29872Y6998D02*
D03*
X29788Y7181D02*
D03*
X29874Y7125D02*
D03*
X29872Y6883D02*
D03*
X29867Y7257D02*
D03*
X29869Y7498D02*
D03*
X29783Y7554D02*
D03*
X29867Y7371D02*
D03*
X29778Y7300D02*
D03*
X29783Y7432D02*
D03*
X29699Y7485D02*
D03*
X29696Y7371D02*
D03*
X29699Y7252D02*
D03*
X29717Y5906D02*
D03*
X29714Y6025D02*
D03*
X29717Y6139D02*
D03*
X29801Y6086D02*
D03*
X29795Y5954D02*
D03*
X29884Y6025D02*
D03*
X29801Y6208D02*
D03*
X29887Y6152D02*
D03*
X29884Y5911D02*
D03*
X29879Y6284D02*
D03*
X29882Y6525D02*
D03*
X29795Y6581D02*
D03*
X29879Y6398D02*
D03*
X29790Y6327D02*
D03*
X29795Y6459D02*
D03*
X29712Y6513D02*
D03*
X29709Y6398D02*
D03*
X29712Y6279D02*
D03*
X29752Y4917D02*
D03*
X29750Y5037D02*
D03*
X29752Y5151D02*
D03*
X29836Y5098D02*
D03*
X29831Y4966D02*
D03*
X29920Y5037D02*
D03*
X29836Y5220D02*
D03*
X29923Y5164D02*
D03*
X29920Y4923D02*
D03*
X29915Y5296D02*
D03*
X29917Y5537D02*
D03*
X29831Y5593D02*
D03*
X29915Y5410D02*
D03*
X29826Y5339D02*
D03*
X29831Y5471D02*
D03*
X29747Y5524D02*
D03*
X29745Y5410D02*
D03*
X29747Y5291D02*
D03*
X29635Y2334D02*
D03*
X29633Y2454D02*
D03*
X29635Y2568D02*
D03*
X29719Y2515D02*
D03*
X29714Y2383D02*
D03*
X29803Y2454D02*
D03*
X29719Y2637D02*
D03*
X29806Y2581D02*
D03*
X29803Y2339D02*
D03*
X29798Y2713D02*
D03*
X29801Y2954D02*
D03*
X29714Y3010D02*
D03*
X29798Y2827D02*
D03*
X29709Y2756D02*
D03*
X29714Y2888D02*
D03*
X29630Y2941D02*
D03*
X29628Y2827D02*
D03*
X29630Y2708D02*
D03*
X29516Y3655D02*
D03*
X29514Y3774D02*
D03*
X29516Y3889D02*
D03*
X29600Y3835D02*
D03*
X29595Y3703D02*
D03*
X29684Y3774D02*
D03*
X29600Y3957D02*
D03*
X29686Y3901D02*
D03*
X29684Y3660D02*
D03*
X29679Y4034D02*
D03*
X29681Y4275D02*
D03*
X29595Y4331D02*
D03*
X29679Y4148D02*
D03*
X29590Y4077D02*
D03*
X29595Y4209D02*
D03*
X29511Y4262D02*
D03*
X29508Y4148D02*
D03*
X29511Y4028D02*
D03*
X28150Y1024D02*
D03*
X28269Y1026D02*
D03*
X28383Y1024D02*
D03*
X28330Y940D02*
D03*
X28198Y945D02*
D03*
X28269Y856D02*
D03*
X28452Y940D02*
D03*
X28396Y853D02*
D03*
X28155Y856D02*
D03*
X28528Y861D02*
D03*
X28769Y859D02*
D03*
X28825Y945D02*
D03*
X28642Y861D02*
D03*
X28571Y950D02*
D03*
X28703Y945D02*
D03*
X28757Y1029D02*
D03*
X28642Y1031D02*
D03*
X28523Y1029D02*
D03*
X28835Y521D02*
D03*
X28955Y523D02*
D03*
X29069Y521D02*
D03*
X29016Y437D02*
D03*
X28884Y442D02*
D03*
X28955Y353D02*
D03*
X29138Y437D02*
D03*
X29082Y351D02*
D03*
X28840Y353D02*
D03*
X28452Y516D02*
D03*
X28571Y518D02*
D03*
X28686Y516D02*
D03*
X28632Y432D02*
D03*
X28500Y437D02*
D03*
X28571Y348D02*
D03*
X28754Y432D02*
D03*
X28698Y345D02*
D03*
X28457Y348D02*
D03*
X28084Y343D02*
D03*
X28325Y340D02*
D03*
X28381Y427D02*
D03*
X28198Y343D02*
D03*
X28127Y432D02*
D03*
X28259Y427D02*
D03*
X28312Y511D02*
D03*
X28198Y513D02*
D03*
X28078Y511D02*
D03*
X28609Y2835D02*
D03*
X28249Y6170D02*
D03*
X28345Y6330D02*
D03*
X28078Y6622D02*
D03*
X28058Y6299D02*
D03*
X27723Y5845D02*
D03*
X27797Y5923D02*
D03*
X27667Y5933D02*
D03*
X27540Y6071D02*
D03*
X27400Y5606D02*
D03*
X27466Y5456D02*
D03*
X27644Y5563D02*
D03*
Y5123D02*
D03*
X27489Y5126D02*
D03*
X27212Y5037D02*
D03*
X27281Y5095D02*
D03*
X27367Y5199D02*
D03*
X27560Y5237D02*
D03*
X27583Y5415D02*
D03*
X27309Y5428D02*
D03*
X27393Y5324D02*
D03*
X27525Y5540D02*
D03*
X27510Y5733D02*
D03*
X27169Y5745D02*
D03*
X29105Y6528D02*
D03*
X29290Y6873D02*
D03*
X29127Y6820D02*
D03*
X29244Y6660D02*
D03*
X29295Y7036D02*
D03*
Y7351D02*
D03*
X29277Y7188D02*
D03*
X28998Y7071D02*
D03*
X28823Y7059D02*
D03*
X28790Y7277D02*
D03*
X28800Y7422D02*
D03*
X28538Y7915D02*
D03*
X29064Y7963D02*
D03*
X28957Y7976D02*
D03*
X28810Y7963D02*
D03*
X28726Y7912D02*
D03*
X29173Y7066D02*
D03*
X23430Y6919D02*
D03*
X23595Y6967D02*
D03*
X23527Y7084D02*
D03*
X24083Y7211D02*
D03*
X23791Y7173D02*
D03*
X23674Y7117D02*
D03*
X23529Y7209D02*
D03*
X24096Y6960D02*
D03*
X24116Y7097D02*
D03*
X24314Y6952D02*
D03*
X24286Y7122D02*
D03*
X24248Y7310D02*
D03*
X24266Y7463D02*
D03*
X24053Y7470D02*
D03*
X23758Y7465D02*
D03*
X23699Y7381D02*
D03*
X23689Y7239D02*
D03*
X23865Y7267D02*
D03*
X23974Y7203D02*
D03*
X24022Y7310D02*
D03*
X24180Y7231D02*
D03*
X24152Y7379D02*
D03*
X23928D02*
D03*
X23786Y7338D02*
D03*
X23580Y7348D02*
D03*
X23618Y6292D02*
D03*
X23415Y6650D02*
D03*
X23565D02*
D03*
X23440Y6457D02*
D03*
X23504Y6106D02*
D03*
X23258Y6114D02*
D03*
X23377Y6165D02*
D03*
X23479Y6228D02*
D03*
X23547Y6233D02*
D03*
X23611Y6393D02*
D03*
X23771Y6561D02*
D03*
X23578Y6505D02*
D03*
X23522Y6365D02*
D03*
X23473Y6566D02*
D03*
X23372Y6340D02*
D03*
X23275Y6231D02*
D03*
X23085Y6139D02*
D03*
X22940Y6165D02*
D03*
X22938Y6314D02*
D03*
X22935Y6510D02*
D03*
X22775Y6617D02*
D03*
X22922Y6612D02*
D03*
X22737Y6292D02*
D03*
X22927Y6424D02*
D03*
X22838Y7452D02*
D03*
X22427Y7455D02*
D03*
X23085Y7673D02*
D03*
X23161Y7744D02*
D03*
X23265Y7844D02*
D03*
X14241Y4732D02*
D03*
Y4841D02*
D03*
Y4948D02*
D03*
X14314Y4897D02*
D03*
X14312Y4785D02*
D03*
X14314Y4686D02*
D03*
X14172Y5659D02*
D03*
Y5768D02*
D03*
Y5875D02*
D03*
X14246Y5824D02*
D03*
X14243Y5712D02*
D03*
X14246Y5613D02*
D03*
X15307Y5197D02*
D03*
Y5306D02*
D03*
Y5413D02*
D03*
X15381Y5362D02*
D03*
X15378Y5250D02*
D03*
X15419Y5179D02*
D03*
X15305Y5512D02*
D03*
Y5621D02*
D03*
Y5728D02*
D03*
X15378Y5677D02*
D03*
X15376Y5565D02*
D03*
X15378Y5466D02*
D03*
X14380Y5822D02*
D03*
Y5931D02*
D03*
Y6038D02*
D03*
X14454Y5987D02*
D03*
X14451Y5875D02*
D03*
X14454Y5776D02*
D03*
X14378Y5507D02*
D03*
Y5616D02*
D03*
Y5723D02*
D03*
X14451Y5672D02*
D03*
X14449Y5560D02*
D03*
X14451Y5461D02*
D03*
X14639Y6228D02*
D03*
X14746Y6106D02*
D03*
X14980Y6076D02*
D03*
X14614Y6312D02*
D03*
X14746Y6218D02*
D03*
X14718Y6284D02*
D03*
X14863Y6215D02*
D03*
X14843Y6320D02*
D03*
X14937Y6325D02*
D03*
X15061Y6330D02*
D03*
X15168D02*
D03*
X15549Y6680D02*
D03*
X15632Y6556D02*
D03*
X15696Y6688D02*
D03*
X15531Y6452D02*
D03*
X15323Y6403D02*
D03*
X15404Y6452D02*
D03*
X14807Y6576D02*
D03*
X14916Y6579D02*
D03*
X14914Y6683D02*
D03*
X14733Y6472D02*
D03*
X14843D02*
D03*
X14949D02*
D03*
X14898Y6398D02*
D03*
X14787Y6401D02*
D03*
X14688Y6398D02*
D03*
X15168Y6185D02*
D03*
X15058D02*
D03*
X14952D02*
D03*
X15003Y6259D02*
D03*
X15114Y6256D02*
D03*
X15213Y6259D02*
D03*
X15363Y6264D02*
D03*
Y6154D02*
D03*
Y6048D02*
D03*
X15290Y6099D02*
D03*
X15292Y6210D02*
D03*
X15290Y6309D02*
D03*
X15869Y5560D02*
D03*
X15759D02*
D03*
X15653D02*
D03*
X15704Y5634D02*
D03*
X15815Y5631D02*
D03*
X15914Y5634D02*
D03*
X16186Y6137D02*
D03*
X16077D02*
D03*
X15970D02*
D03*
X16021Y6210D02*
D03*
X16133Y6208D02*
D03*
X16232Y6210D02*
D03*
X16072Y5834D02*
D03*
Y5944D02*
D03*
Y6050D02*
D03*
X16146Y5999D02*
D03*
X16143Y5888D02*
D03*
X16146Y5789D02*
D03*
X16148Y6342D02*
D03*
X16110Y6449D02*
D03*
X16232Y6703D02*
D03*
X16123Y6693D02*
D03*
X16339Y6662D02*
D03*
X16448D02*
D03*
X16554D02*
D03*
X16504Y6589D02*
D03*
X16392Y6591D02*
D03*
X16293Y6589D02*
D03*
X15772Y6652D02*
D03*
X15881D02*
D03*
X15988D02*
D03*
X15937Y6579D02*
D03*
X15826Y6581D02*
D03*
X15726Y6579D02*
D03*
X15378Y6622D02*
D03*
X15488D02*
D03*
X15594D02*
D03*
X15544Y6548D02*
D03*
X15432Y6551D02*
D03*
X15333Y6548D02*
D03*
X15056Y6627D02*
D03*
X15165D02*
D03*
X15272D02*
D03*
X15221Y6553D02*
D03*
X15109Y6556D02*
D03*
X15010Y6553D02*
D03*
Y6401D02*
D03*
X15109Y6403D02*
D03*
X15221Y6401D02*
D03*
X15272Y6474D02*
D03*
X15165D02*
D03*
X15056D02*
D03*
X21204Y2652D02*
D03*
X17113Y9568D02*
D03*
X17047D02*
D03*
X16986Y9563D02*
D03*
X16872Y9240D02*
D03*
Y9563D02*
D03*
X16463Y9566D02*
D03*
X16349D02*
D03*
X16270D02*
D03*
X16524Y9713D02*
D03*
X16656Y9578D02*
D03*
X15747Y9769D02*
D03*
X15338Y9886D02*
D03*
X15447Y9520D02*
D03*
X15508Y9606D02*
D03*
X13705Y9647D02*
D03*
X13733Y9538D02*
D03*
X13834Y9533D02*
D03*
X13872Y9644D02*
D03*
X14855Y9525D02*
D03*
X14180Y9644D02*
D03*
X14619Y9515D02*
D03*
X14456Y9510D02*
D03*
X14332Y9512D02*
D03*
X14429Y9606D02*
D03*
X17339Y8044D02*
D03*
X17629Y7945D02*
D03*
X21281Y3251D02*
D03*
X21137Y2263D02*
D03*
X21205Y3195D02*
D03*
X20164Y3091D02*
D03*
X20070Y9408D02*
D03*
X19351Y9500D02*
D03*
X18254Y9619D02*
D03*
X18332Y8255D02*
D03*
X18482Y8298D02*
D03*
X18338Y8557D02*
D03*
X18655Y8278D02*
D03*
X18018Y9662D02*
D03*
X19666Y11951D02*
D03*
X19818Y11953D02*
D03*
X19846Y12070D02*
D03*
X19549Y11951D02*
D03*
X19430Y11843D02*
D03*
X19237Y12057D02*
D03*
X19308Y11895D02*
D03*
X19407Y11966D02*
D03*
X19511Y12047D02*
D03*
X19699Y12065D02*
D03*
X19343Y12083D02*
D03*
X19138Y12149D02*
D03*
X18805Y12240D02*
D03*
X18983Y12151D02*
D03*
X19249Y12174D02*
D03*
X19427Y12169D02*
D03*
X19559Y12192D02*
D03*
X19714Y12238D02*
D03*
X19823Y12200D02*
D03*
X19737Y12357D02*
D03*
X19628Y12304D02*
D03*
X19475Y12289D02*
D03*
X19310Y12250D02*
D03*
X19379Y12352D02*
D03*
X19493Y12413D02*
D03*
X19836Y12319D02*
D03*
X19813Y12431D02*
D03*
X19646Y12421D02*
D03*
X19864Y12527D02*
D03*
X19735Y12515D02*
D03*
X19554Y12502D02*
D03*
X19397Y12479D02*
D03*
X19196Y12276D02*
D03*
X19262Y12395D02*
D03*
X19138Y12527D02*
D03*
X18795Y12474D02*
D03*
X18127Y12141D02*
D03*
X18183Y12205D02*
D03*
X18066Y12197D02*
D03*
X18175Y12301D02*
D03*
X18449Y12525D02*
D03*
X18467Y12357D02*
D03*
X19059Y12238D02*
D03*
X19138Y12382D02*
D03*
X19257Y12499D02*
D03*
X19031Y12474D02*
D03*
X18899Y12230D02*
D03*
X18894Y12497D02*
D03*
X18843Y12357D02*
D03*
X18970D02*
D03*
X14944Y9515D02*
D03*
X15196Y9558D02*
D03*
X15610Y9512D02*
D03*
X15333Y9563D02*
D03*
X15091Y9568D02*
D03*
X15851Y9622D02*
D03*
X15749Y9649D02*
D03*
X15744Y9865D02*
D03*
X15523Y9980D02*
D03*
X15693Y9964D02*
D03*
X15798Y9967D02*
D03*
X15770Y10066D02*
D03*
X15620Y10076D02*
D03*
X15455Y10096D02*
D03*
X15147Y9995D02*
D03*
X15259Y10084D02*
D03*
X15084Y10071D02*
D03*
X19331Y9624D02*
D03*
X19133Y9426D02*
D03*
X18175Y9423D02*
D03*
X18089Y9426D02*
D03*
X9308Y7043D02*
D03*
X9392D02*
D03*
X9341Y6985D02*
D03*
X9249Y6982D02*
D03*
X10382Y7323D02*
D03*
X10268D02*
D03*
X10085D02*
D03*
X9923Y7325D02*
D03*
X9768Y7330D02*
D03*
X9618Y7323D02*
D03*
X9481Y7320D02*
D03*
X9125Y7122D02*
D03*
X9188Y7219D02*
D03*
X9351Y7315D02*
D03*
X9255Y7297D02*
D03*
X9125Y7313D02*
D03*
X9404Y8037D02*
D03*
X9483Y8092D02*
D03*
X9496Y8204D02*
D03*
X9402Y8158D02*
D03*
X9300Y8072D02*
D03*
X10565Y8136D02*
D03*
X10512Y8202D02*
D03*
X10679Y8131D02*
D03*
X10644Y8192D02*
D03*
X10753Y8202D02*
D03*
X7955Y11331D02*
D03*
X8043Y11336D02*
D03*
X7144Y10604D02*
D03*
X7065Y10902D02*
D03*
X6993Y10979D02*
D03*
X6915Y11052D02*
D03*
X6834Y11232D02*
D03*
X6837Y11135D02*
D03*
X5163Y11389D02*
D03*
X5343Y11239D02*
D03*
X6839Y11979D02*
D03*
X6130Y9294D02*
D03*
X6057Y9365D02*
D03*
X6128Y9426D02*
D03*
X6049Y9482D02*
D03*
X6113Y9568D02*
D03*
X6074Y9680D02*
D03*
X6113Y9804D02*
D03*
X6059Y9903D02*
D03*
X6125Y9990D02*
D03*
X6082Y10102D02*
D03*
X6100Y10259D02*
D03*
X6087Y10406D02*
D03*
X6029Y10478D02*
D03*
X5759Y9802D02*
D03*
X5498Y9809D02*
D03*
X5594Y9695D02*
D03*
X5818Y9489D02*
D03*
X5660Y9622D02*
D03*
X5574Y9789D02*
D03*
X5782Y9616D02*
D03*
X5823Y9738D02*
D03*
X5579Y9898D02*
D03*
X5688Y9741D02*
D03*
X3263Y10571D02*
D03*
X2595Y10307D02*
D03*
X2440Y10198D02*
D03*
X7797Y11803D02*
D03*
X7847Y11897D02*
D03*
X7725Y11923D02*
D03*
X7713Y12073D02*
D03*
X7926Y12098D02*
D03*
X7936Y12202D02*
D03*
X11584Y12342D02*
D03*
X11520Y12184D02*
D03*
X11614Y12479D02*
D03*
X11429Y12388D02*
D03*
X11731Y12212D02*
D03*
Y12474D02*
D03*
X11614Y11817D02*
D03*
X11855Y11829D02*
D03*
X11769Y11986D02*
D03*
X11718Y11877D02*
D03*
X11563Y11996D02*
D03*
X11441Y12134D02*
D03*
X11698Y12093D02*
D03*
X11614Y12235D02*
D03*
X11833Y12151D02*
D03*
X11840Y12291D02*
D03*
X11843Y12449D02*
D03*
X11388Y12474D02*
D03*
X11530Y12426D02*
D03*
X11701Y12360D02*
D03*
X11505Y11867D02*
D03*
X11553Y11250D02*
D03*
X11657Y10909D02*
D03*
X11457Y11013D02*
D03*
X11474Y10876D02*
D03*
X11901Y10886D02*
D03*
X11761Y10958D02*
D03*
X11878Y11256D02*
D03*
X11863Y11077D02*
D03*
X11584Y11085D02*
D03*
X11739Y11262D02*
D03*
X12008Y10320D02*
D03*
X12003Y10424D02*
D03*
X12023Y10607D02*
D03*
X12018Y10757D02*
D03*
X12026Y11171D02*
D03*
X12119Y10253D02*
D03*
X11965Y10184D02*
D03*
X12046D02*
D03*
X14754Y9545D02*
D03*
X15846Y9751D02*
D03*
X16506Y9906D02*
D03*
X16537Y9995D02*
D03*
X16494Y9812D02*
D03*
X16194Y9754D02*
D03*
X19135Y8984D02*
D03*
X18952Y3289D02*
D03*
X18995Y3294D02*
D03*
X20159Y2731D02*
D03*
X22109Y8232D02*
D03*
X22153Y8143D02*
D03*
X22198Y8225D02*
D03*
X22282Y8115D02*
D03*
X22323Y8199D02*
D03*
X22409Y8118D02*
D03*
X22043Y8194D02*
D03*
X21965Y8298D02*
D03*
X21868Y8357D02*
D03*
X22051Y8374D02*
D03*
X21952Y8397D02*
D03*
X21858Y8448D02*
D03*
X21995Y8487D02*
D03*
X22071Y8484D02*
D03*
X23275Y11547D02*
D03*
X22503Y11209D02*
D03*
X22536Y11362D02*
D03*
X22409Y11509D02*
D03*
X22389Y11737D02*
D03*
X22120Y11750D02*
D03*
X21711Y12210D02*
D03*
X21121Y11438D02*
D03*
X21198Y11516D02*
D03*
X21203Y11405D02*
D03*
X11967Y11367D02*
D03*
X12047Y11306D02*
D03*
X11846Y11465D02*
D03*
X11849Y11681D02*
D03*
X11972Y12278D02*
D03*
X11970Y12474D02*
D03*
X10146Y12451D02*
D03*
X10324Y12449D02*
D03*
X10499Y12446D02*
D03*
X10690D02*
D03*
X10867D02*
D03*
X11058D02*
D03*
X11254Y12449D02*
D03*
X6895Y9134D02*
D03*
X7243Y9185D02*
D03*
X7096Y9164D02*
D03*
X7248Y9467D02*
D03*
X7154Y9286D02*
D03*
X6971Y9352D02*
D03*
X7022Y9235D02*
D03*
X7075Y9421D02*
D03*
X7400Y9378D02*
D03*
X7578Y9375D02*
D03*
X7753Y9373D02*
D03*
X7944D02*
D03*
X8122D02*
D03*
X8312D02*
D03*
X8508Y9375D02*
D03*
X7301Y9279D02*
D03*
X7479Y9276D02*
D03*
X7654Y9274D02*
D03*
X7845D02*
D03*
X8023D02*
D03*
X8213D02*
D03*
X8409Y9276D02*
D03*
X7400Y9164D02*
D03*
X7578Y9162D02*
D03*
X7753Y9159D02*
D03*
X7944D02*
D03*
X8122D02*
D03*
X8312D02*
D03*
X8508Y9162D02*
D03*
X13791Y10942D02*
D03*
X13882Y10884D02*
D03*
X13768Y10864D02*
D03*
X13865Y10998D02*
D03*
X13258Y11140D02*
D03*
X13194Y11087D02*
D03*
X13057Y11153D02*
D03*
X13293Y11567D02*
D03*
X13308Y11742D02*
D03*
X13065Y11463D02*
D03*
X13047Y11582D02*
D03*
X13120Y11707D02*
D03*
X13070Y11826D02*
D03*
X13197Y11514D02*
D03*
X13214Y11633D02*
D03*
X13197Y11803D02*
D03*
X13603Y11933D02*
D03*
X13745Y11880D02*
D03*
X14528Y11643D02*
D03*
Y11760D02*
D03*
X14477Y11933D02*
D03*
X14256Y11925D02*
D03*
X13997Y11902D02*
D03*
X13882Y11948D02*
D03*
X13367Y11847D02*
D03*
X13392Y12103D02*
D03*
X13506Y11933D02*
D03*
X13715Y11976D02*
D03*
X13999Y12012D02*
D03*
X13456Y12299D02*
D03*
X13522Y12365D02*
D03*
X13387Y12355D02*
D03*
X14063Y12370D02*
D03*
X13948Y12372D02*
D03*
X14185D02*
D03*
X14675Y9586D02*
D03*
X14530Y9589D02*
D03*
X13926Y9566D02*
D03*
X14088Y9561D02*
D03*
X14276Y9601D02*
D03*
X13788Y9606D02*
D03*
X13319Y9675D02*
D03*
X13359Y9835D02*
D03*
X13352Y10538D02*
D03*
X13369Y10658D02*
D03*
X13240Y10163D02*
D03*
X13189D02*
D03*
X14855Y10168D02*
D03*
X14797Y10335D02*
D03*
X14751Y10226D02*
D03*
X14639Y10287D02*
D03*
X14530Y10335D02*
D03*
X14662Y10399D02*
D03*
X14817Y10508D02*
D03*
X14766Y10632D02*
D03*
X14738Y10544D02*
D03*
X14614Y10508D02*
D03*
X14634Y10587D02*
D03*
X14718Y10470D02*
D03*
X14525Y10465D02*
D03*
X14482Y10566D02*
D03*
X14817Y10729D02*
D03*
X14591Y10668D02*
D03*
X14703Y10711D02*
D03*
X14759Y10820D02*
D03*
X14591D02*
D03*
X14459Y10737D02*
D03*
X14497Y10660D02*
D03*
X14441Y10836D02*
D03*
X14538Y10927D02*
D03*
X14830Y10963D02*
D03*
X14837Y11633D02*
D03*
X14751Y11692D02*
D03*
X14873Y11491D02*
D03*
X14680Y10945D02*
D03*
X14446Y11029D02*
D03*
X14571Y11044D02*
D03*
X13588Y11067D02*
D03*
X13644Y11156D02*
D03*
X14779Y11539D02*
D03*
X14731Y11054D02*
D03*
X14340D02*
D03*
X13639Y11481D02*
D03*
X13727Y11212D02*
D03*
X14098Y11333D02*
D03*
X14479Y11501D02*
D03*
X14301Y11491D02*
D03*
X14147Y11483D02*
D03*
X14037Y11438D02*
D03*
X13997Y11326D02*
D03*
X13872Y11293D02*
D03*
X14017Y11532D02*
D03*
X13578Y11400D02*
D03*
X13613Y11252D02*
D03*
X13766Y11326D02*
D03*
X13674Y11369D02*
D03*
X13880Y11400D02*
D03*
X13941Y11471D02*
D03*
X13773Y11478D02*
D03*
X13372Y7920D02*
D03*
X13479D02*
D03*
X13588D02*
D03*
X13689Y7925D02*
D03*
X13633Y7986D02*
D03*
X13527Y7983D02*
D03*
X13430Y7986D02*
D03*
X13677Y8057D02*
D03*
X13570Y8054D02*
D03*
X13468D02*
D03*
X13367D02*
D03*
X12973Y8125D02*
D03*
X12727Y8090D02*
D03*
Y8004D02*
D03*
X12714Y7851D02*
D03*
X12719Y7724D02*
D03*
Y7610D02*
D03*
X12546Y7607D02*
D03*
X12597Y7752D02*
D03*
X12612Y7899D02*
D03*
X12615Y8014D02*
D03*
X12440Y8136D02*
D03*
X12333Y8128D02*
D03*
X12219D02*
D03*
X11584Y8138D02*
D03*
X11690Y8026D02*
D03*
X11500Y7460D02*
D03*
X11332Y7587D02*
D03*
X11513Y7574D02*
D03*
X11424Y7536D02*
D03*
X11038Y7831D02*
D03*
X11093Y7704D02*
D03*
X11525Y7694D02*
D03*
X11728Y7686D02*
D03*
X11566Y7889D02*
D03*
X11596Y8021D02*
D03*
X11645Y8103D02*
D03*
X11749Y8217D02*
D03*
X11944D02*
D03*
X12948Y8230D02*
D03*
X11528Y7356D02*
D03*
X11317Y7242D02*
D03*
X18569Y8303D02*
D03*
X18490Y9345D02*
D03*
X14657Y12228D02*
D03*
X14912Y12230D02*
D03*
X17185Y12232D02*
D03*
X5696Y11239D02*
D03*
X5724Y11356D02*
D03*
X5848Y11351D02*
D03*
X5864Y8773D02*
D03*
X9760Y12492D02*
D03*
X11693Y2400D02*
D03*
X23585Y3909D02*
D03*
X23578Y4003D02*
D03*
X25076Y3973D02*
D03*
X23136Y2967D02*
D03*
X23065Y3317D02*
D03*
X23131Y3205D02*
D03*
X25018Y3810D02*
D03*
X23354Y3820D02*
D03*
X23352Y3642D02*
D03*
X23349Y3467D02*
D03*
Y3277D02*
D03*
Y3099D02*
D03*
Y2908D02*
D03*
X23352Y2713D02*
D03*
X23491Y3891D02*
D03*
X23489Y3713D02*
D03*
X23486Y3538D02*
D03*
Y3348D02*
D03*
Y3170D02*
D03*
Y2979D02*
D03*
X23489Y2784D02*
D03*
X23593Y3815D02*
D03*
X23590Y3637D02*
D03*
X23588Y3462D02*
D03*
Y3272D02*
D03*
Y3094D02*
D03*
Y2903D02*
D03*
X23590Y2708D02*
D03*
X24896Y2685D02*
D03*
X24718Y2687D02*
D03*
X24543Y2690D02*
D03*
X24352D02*
D03*
X24174D02*
D03*
X23984D02*
D03*
X23788Y2687D02*
D03*
X25074Y2723D02*
D03*
X25076Y2901D02*
D03*
X25079Y3076D02*
D03*
Y3266D02*
D03*
Y3444D02*
D03*
Y3635D02*
D03*
X25076Y3830D02*
D03*
X24985Y2827D02*
D03*
X24987Y3005D02*
D03*
X24990Y3180D02*
D03*
Y3371D02*
D03*
Y3548D02*
D03*
Y3739D02*
D03*
X24987Y3934D02*
D03*
X6529Y2733D02*
D03*
X6532Y2911D02*
D03*
X6534Y3086D02*
D03*
Y3277D02*
D03*
Y3454D02*
D03*
Y3645D02*
D03*
X6532Y3840D02*
D03*
X6321Y2690D02*
D03*
X6412Y2840D02*
D03*
X6415Y3018D02*
D03*
X6417Y3193D02*
D03*
Y3383D02*
D03*
Y3561D02*
D03*
Y3752D02*
D03*
X6415Y3947D02*
D03*
X5018Y2695D02*
D03*
X5196Y2692D02*
D03*
X5371Y2690D02*
D03*
X5561D02*
D03*
X5739D02*
D03*
X5930D02*
D03*
X6125Y2692D02*
D03*
X4906Y3858D02*
D03*
X4903Y3680D02*
D03*
X4901Y3505D02*
D03*
Y3315D02*
D03*
Y3137D02*
D03*
Y2946D02*
D03*
X4903Y2751D02*
D03*
X5005Y2847D02*
D03*
X5003Y3043D02*
D03*
Y3233D02*
D03*
Y3411D02*
D03*
Y3602D02*
D03*
X5005Y3777D02*
D03*
X5008Y3955D02*
D03*
X18645Y8616D02*
D03*
X19595Y9065D02*
D03*
X6671Y9159D02*
D03*
X6154Y8640D02*
D03*
X5861Y7463D02*
D03*
X2513Y8529D02*
D03*
X2554Y8395D02*
D03*
X2547Y7643D02*
D03*
Y7892D02*
D03*
Y8146D02*
D03*
X2170Y9637D02*
D03*
X2201Y9545D02*
D03*
X17438Y10450D02*
D03*
X17352Y10452D02*
D03*
X17258Y10455D02*
D03*
X17177Y10452D02*
D03*
X17174Y10932D02*
D03*
X17309Y10950D02*
D03*
X17421D02*
D03*
X17164Y10628D02*
D03*
X16730Y10638D02*
D03*
X16755Y10777D02*
D03*
X4568Y10150D02*
D03*
X4652Y10188D02*
D03*
X4063Y11163D02*
D03*
X3750Y11166D02*
D03*
X5442Y11077D02*
D03*
X5864Y9279D02*
D03*
X3842Y9479D02*
D03*
X3588Y9327D02*
D03*
X2872Y9291D02*
D03*
X4030Y9545D02*
D03*
X4116Y9705D02*
D03*
X24411Y8606D02*
D03*
X24314Y9472D02*
D03*
Y8593D02*
D03*
X8030Y11135D02*
D03*
X8190Y11118D02*
D03*
X8399Y11242D02*
D03*
X8371Y11097D02*
D03*
X8284Y11201D02*
D03*
X8094Y11239D02*
D03*
X8048Y11557D02*
D03*
X7997Y11420D02*
D03*
X8401Y11666D02*
D03*
X8244Y11727D02*
D03*
X8180Y11872D02*
D03*
X7748Y12197D02*
D03*
X7840Y12024D02*
D03*
X7929Y11829D02*
D03*
X8094Y11971D02*
D03*
X7954Y11976D02*
D03*
X7825Y12136D02*
D03*
X8266Y11920D02*
D03*
X8559Y11841D02*
D03*
X8360Y11783D02*
D03*
X8076Y11717D02*
D03*
Y11852D02*
D03*
X7957Y11684D02*
D03*
X7776Y11687D02*
D03*
X7774Y11521D02*
D03*
X7906Y11537D02*
D03*
X9953Y12730D02*
D03*
X20382Y12408D02*
D03*
Y11293D02*
D03*
X21029Y12725D02*
D03*
X20481Y12367D02*
D03*
X20484Y11303D02*
D03*
X8571Y7511D02*
D03*
X8589Y7409D02*
D03*
X8597Y7234D02*
D03*
X8498Y7300D02*
D03*
X8579Y7127D02*
D03*
X8531Y7579D02*
D03*
X8500Y7473D02*
D03*
X8703Y7523D02*
D03*
X8752Y7282D02*
D03*
X8703Y7379D02*
D03*
X8315Y7529D02*
D03*
X8419D02*
D03*
X8868Y6314D02*
D03*
X8769Y6271D02*
D03*
X8315Y6104D02*
D03*
X8332Y6185D02*
D03*
X8457Y6162D02*
D03*
X8302Y6269D02*
D03*
X8406Y6276D02*
D03*
X8335Y6358D02*
D03*
X8454Y6355D02*
D03*
X8396Y6436D02*
D03*
X16816Y10013D02*
D03*
Y10620D02*
D03*
X17675Y10348D02*
D03*
X17756Y10630D02*
D03*
X28609Y2563D02*
D03*
X27695Y7661D02*
D03*
X28246Y4163D02*
D03*
X28067Y8702D02*
D03*
X24964Y10902D02*
D03*
X7311Y814D02*
D03*
X7217D02*
D03*
X6544Y780D02*
D03*
X6430D02*
D03*
X6346D02*
D03*
X9016Y6292D02*
D03*
X9087Y6408D02*
D03*
X8780Y6393D02*
D03*
X8447Y6520D02*
D03*
X8609Y6525D02*
D03*
X8741Y6591D02*
D03*
X8485Y7026D02*
D03*
X8724Y6807D02*
D03*
X8739Y7013D02*
D03*
X8625Y7328D02*
D03*
X8498Y7130D02*
D03*
X8543Y6939D02*
D03*
X8645Y6833D02*
D03*
X8579Y6723D02*
D03*
X8701Y6513D02*
D03*
X8538Y6495D02*
D03*
X8366Y6538D02*
D03*
X8401Y6721D02*
D03*
X8391Y6863D02*
D03*
X8378Y6988D02*
D03*
Y7122D02*
D03*
X8383Y7249D02*
D03*
X8399Y7422D02*
D03*
X8287Y7722D02*
D03*
X8416Y7653D02*
D03*
X8294Y7325D02*
D03*
X8292Y7079D02*
D03*
X8297Y6810D02*
D03*
Y6457D02*
D03*
X8307Y6637D02*
D03*
X8294Y6937D02*
D03*
X8302Y7191D02*
D03*
X8294Y7437D02*
D03*
X8310Y7623D02*
D03*
X8371Y7742D02*
D03*
X8683Y7084D02*
D03*
X8597Y7015D02*
D03*
X8520Y6817D02*
D03*
X8467Y6634D02*
D03*
X8607Y6624D02*
D03*
X8691Y6685D02*
D03*
Y6929D02*
D03*
Y7178D02*
D03*
X11228Y2822D02*
D03*
X10385Y2367D02*
D03*
X11236Y2448D02*
D03*
X11246Y2715D02*
D03*
X26008Y4178D02*
D03*
X25920Y4247D02*
D03*
X26029Y4331D02*
D03*
X26082Y3279D02*
D03*
X26024Y3355D02*
D03*
X26067Y3442D02*
D03*
X26753Y3854D02*
D03*
Y3589D02*
D03*
X25236Y4178D02*
D03*
X26841Y2037D02*
D03*
X27715Y1313D02*
D03*
X25758Y1480D02*
D03*
X27692Y1935D02*
D03*
X26423Y2410D02*
D03*
X26265Y2047D02*
D03*
X25653Y1758D02*
D03*
X11426Y2837D02*
D03*
X4179Y1522D02*
D03*
X2513Y1552D02*
D03*
X3164Y2174D02*
D03*
X3128Y2774D02*
D03*
X3791Y2080D02*
D03*
X2620Y1788D02*
D03*
X11698Y3274D02*
D03*
X11690Y3076D02*
D03*
Y3167D02*
D03*
X11182Y2906D02*
D03*
Y3162D02*
D03*
X11277Y2995D02*
D03*
Y3154D02*
D03*
X11952Y3459D02*
D03*
Y3284D02*
D03*
X6191Y1844D02*
D03*
Y1504D02*
D03*
X6100Y1754D02*
D03*
X6101Y1507D02*
D03*
X6011Y1664D02*
D03*
X6011Y1503D02*
D03*
X10382Y3088D02*
D03*
X10092Y2368D02*
D03*
Y2997D02*
D03*
Y3165D02*
D03*
X9830Y3169D02*
D03*
X9831Y2906D02*
D03*
X9830Y2373D02*
D03*
X9577Y2369D02*
D03*
X9318Y2377D02*
D03*
X9577Y2717D02*
D03*
Y3172D02*
D03*
X9318Y2627D02*
D03*
X9319Y3166D02*
D03*
X9061Y3167D02*
D03*
Y2540D02*
D03*
X9063Y2376D02*
D03*
X8823Y2448D02*
D03*
Y3167D02*
D03*
X7116Y5408D02*
D03*
X24759Y2327D02*
D03*
X24758Y1982D02*
D03*
X24848Y2237D02*
D03*
X24848Y1984D02*
D03*
X24939Y2147D02*
D03*
X24938Y1976D02*
D03*
X25145Y4232D02*
D03*
X25831Y4333D02*
D03*
X25152Y4331D02*
D03*
X26016Y4425D02*
D03*
X25740D02*
D03*
X25152Y4422D02*
D03*
X26077Y4829D02*
D03*
X26021Y4529D02*
D03*
X25165D02*
D03*
X25653Y4526D02*
D03*
X25506Y4755D02*
D03*
X25152Y4841D02*
D03*
X25170Y4676D02*
D03*
X25328Y4841D02*
D03*
X25119Y4755D02*
D03*
X26003D02*
D03*
X26046Y4674D02*
D03*
X25419Y4676D02*
D03*
X15305Y4361D02*
D03*
X22813Y9525D02*
D03*
X22310Y8900D02*
D03*
X22483Y8898D02*
D03*
X28396Y3056D02*
D03*
X28401Y2845D02*
D03*
X26402Y3944D02*
D03*
X26158D02*
D03*
X26841Y3927D02*
D03*
Y3653D02*
D03*
X26013Y3795D02*
D03*
X26006Y3510D02*
D03*
X26062Y3588D02*
D03*
X25991Y3653D02*
D03*
X26090Y4107D02*
D03*
X25119Y4110D02*
D03*
X25495Y2151D02*
D03*
X25602Y2156D02*
D03*
X26714Y2565D02*
D03*
X25084Y8656D02*
D03*
Y9723D02*
D03*
X25008Y8606D02*
D03*
Y8868D02*
D03*
X24916Y8600D02*
D03*
Y9216D02*
D03*
X25003Y9652D02*
D03*
X24314Y9121D02*
D03*
X24127Y9473D02*
D03*
X24126Y8778D02*
D03*
Y8611D02*
D03*
X23900Y8590D02*
D03*
Y9474D02*
D03*
X23786Y9479D02*
D03*
Y9306D02*
D03*
X23697Y9398D02*
D03*
Y8522D02*
D03*
X23786Y8514D02*
D03*
X23623Y9545D02*
D03*
X6913Y5410D02*
D03*
X12805Y2250D02*
D03*
X12887Y2309D02*
D03*
X13016Y2291D02*
D03*
X13156Y2332D02*
D03*
X13085Y2243D02*
D03*
X13184D02*
D03*
X13247Y2322D02*
D03*
X15775Y5011D02*
D03*
X15787Y4920D02*
D03*
X15914Y5240D02*
D03*
X16021Y5220D02*
D03*
X16323Y4821D02*
D03*
X16199D02*
D03*
X16171Y4757D02*
D03*
X16191Y4651D02*
D03*
X16085Y4684D02*
D03*
X16008Y4610D02*
D03*
X16128Y4597D02*
D03*
X15963Y4242D02*
D03*
X15889Y4272D02*
D03*
X15777Y4270D02*
D03*
X15826Y4209D02*
D03*
X15937Y4155D02*
D03*
X21157Y9210D02*
D03*
X22767Y8252D02*
D03*
X22757Y8339D02*
D03*
X22325Y9723D02*
D03*
X22234Y9731D02*
D03*
X2940Y8263D02*
D03*
X3079Y8171D02*
D03*
X2865Y8170D02*
D03*
X3329Y8077D02*
D03*
X2877Y8072D02*
D03*
X5328Y6195D02*
D03*
X4670Y8473D02*
D03*
X4263D02*
D03*
X4677Y8376D02*
D03*
X4390Y8379D02*
D03*
X4469Y8306D02*
D03*
X4761D02*
D03*
X5533Y7894D02*
D03*
X5211Y8148D02*
D03*
X5478Y8151D02*
D03*
X4945Y8148D02*
D03*
X3616Y2517D02*
D03*
X16976Y6901D02*
D03*
X17332Y6886D02*
D03*
X13199Y5573D02*
D03*
X13113Y5593D02*
D03*
X13001Y5588D02*
D03*
X12920Y5585D02*
D03*
X13293Y5575D02*
D03*
X13184Y4780D02*
D03*
X13268Y4786D02*
D03*
X13359Y4793D02*
D03*
X13435Y4872D02*
D03*
X13425Y4780D02*
D03*
X13359Y4709D02*
D03*
X13199Y5009D02*
D03*
Y5215D02*
D03*
X13349Y5217D02*
D03*
X13326Y4994D02*
D03*
X22678Y9515D02*
D03*
X22620Y9517D02*
D03*
X22607Y9439D02*
D03*
X22602Y9347D02*
D03*
X22590Y9261D02*
D03*
Y9172D02*
D03*
Y8873D02*
D03*
X22564Y8788D02*
D03*
X22569Y8707D02*
D03*
X22567Y8603D02*
D03*
X22648Y8501D02*
D03*
X22772Y8506D02*
D03*
X22996Y8964D02*
D03*
X23118Y8992D02*
D03*
X23242Y8994D02*
D03*
X23346Y8997D02*
D03*
X23461Y8999D02*
D03*
X17819Y7122D02*
D03*
X17540Y7125D02*
D03*
X24627Y5178D02*
D03*
X24395Y5156D02*
D03*
X24248Y5126D02*
D03*
X24078Y5164D02*
D03*
X24116Y5088D02*
D03*
X24322Y5098D02*
D03*
X23923Y5606D02*
D03*
X26781Y7013D02*
D03*
X25569Y7008D02*
D03*
X26908Y8186D02*
D03*
X26674D02*
D03*
X27621Y8455D02*
D03*
X28063Y8446D02*
D03*
X2082Y4442D02*
D03*
X2201Y4455D02*
D03*
X16529Y4282D02*
D03*
X16570Y4288D02*
D03*
X12588Y5738D02*
D03*
X12579Y5641D02*
D03*
X8345Y7953D02*
D03*
X8485Y7968D02*
D03*
X8355Y8092D02*
D03*
X8239Y8087D02*
D03*
Y8029D02*
D03*
X8282Y7902D02*
D03*
X8401Y7882D02*
D03*
X8421Y8021D02*
D03*
X24700Y9535D02*
D03*
X24914Y9611D02*
D03*
X26303Y7628D02*
D03*
X24515Y7630D02*
D03*
X24408Y9468D02*
D03*
X26285Y10119D02*
D03*
X21690Y9723D02*
D03*
X21487D02*
D03*
X21807Y9207D02*
D03*
X26590Y7925D02*
D03*
X26918Y7871D02*
D03*
X26958Y7811D02*
D03*
X26527Y7668D02*
D03*
X26620Y7681D02*
D03*
X27182Y7714D02*
D03*
X26928Y9063D02*
D03*
X26933Y9162D02*
D03*
X27752Y9025D02*
D03*
X27766Y9205D02*
D03*
X27728Y9418D02*
D03*
X27741Y9337D02*
D03*
Y9116D02*
D03*
X28063Y8954D02*
D03*
X28076Y8197D02*
D03*
X28030Y8138D02*
D03*
X27855Y8161D02*
D03*
X27720Y8164D02*
D03*
X27929Y8166D02*
D03*
X28155Y8141D02*
D03*
X27710Y8052D02*
D03*
X27687Y7859D02*
D03*
X28147Y7955D02*
D03*
X27570Y7767D02*
D03*
X4568Y5987D02*
D03*
X4683Y6015D02*
D03*
X4652Y5933D02*
D03*
X4797Y6060D02*
D03*
X4761Y5878D02*
D03*
X4766Y5966D02*
D03*
X4667Y5806D02*
D03*
X4782Y5756D02*
D03*
X4909Y5753D02*
D03*
X5008Y5758D02*
D03*
X4832Y5812D02*
D03*
X4647Y5720D02*
D03*
X4512Y5773D02*
D03*
X4568Y5875D02*
D03*
Y6109D02*
D03*
X4502Y6233D02*
D03*
X4469Y6048D02*
D03*
X4477Y5870D02*
D03*
X4429Y5738D02*
D03*
X4324Y5674D02*
D03*
X4713Y6096D02*
D03*
X4637Y6060D02*
D03*
X4375Y5296D02*
D03*
X4515Y5174D02*
D03*
X4507Y5258D02*
D03*
X4510Y5364D02*
D03*
X4500Y4981D02*
D03*
X4804Y5090D02*
D03*
X4688Y5085D02*
D03*
X4804Y5250D02*
D03*
X4924Y5179D02*
D03*
X4660Y5210D02*
D03*
X4596Y5088D02*
D03*
X4604Y4968D02*
D03*
X4507Y5044D02*
D03*
X4401Y5123D02*
D03*
X4347Y5014D02*
D03*
X4340Y5212D02*
D03*
X4314Y5395D02*
D03*
X4429Y5220D02*
D03*
X4421Y5042D02*
D03*
X4403Y4905D02*
D03*
X4528Y4846D02*
D03*
X8868Y9207D02*
D03*
X9140Y9202D02*
D03*
X9270Y9205D02*
D03*
X10542Y9472D02*
D03*
X10672D02*
D03*
X10771D02*
D03*
X10448Y9754D02*
D03*
X10578D02*
D03*
X5135Y9312D02*
D03*
X5198D02*
D03*
X4959Y9190D02*
D03*
X4873Y9180D02*
D03*
X4025Y9634D02*
D03*
X2947Y7592D02*
D03*
X2869Y7785D02*
D03*
X3077Y7682D02*
D03*
X3565Y8263D02*
D03*
X3563Y8170D02*
D03*
X3468Y7861D02*
D03*
X3329Y7772D02*
D03*
X3562Y8078D02*
D03*
X3556Y7682D02*
D03*
X3554Y7772D02*
D03*
X3562Y7592D02*
D03*
X1924Y9378D02*
D03*
X1581Y9192D02*
D03*
X1792Y9479D02*
D03*
X1774Y8997D02*
D03*
X1949Y9284D02*
D03*
X2092Y9543D02*
D03*
X1942Y9155D02*
D03*
X4053Y7770D02*
D03*
X2242Y7849D02*
D03*
X2600Y4331D02*
D03*
X1256Y6182D02*
D03*
X2511Y4046D02*
D03*
X4271Y1798D02*
D03*
X2747Y3993D02*
D03*
X1190Y4483D02*
D03*
X1528Y4488D02*
D03*
X1368Y4214D02*
D03*
X6760Y4950D02*
D03*
X6722Y5314D02*
D03*
X1554Y8468D02*
D03*
X20042Y12606D02*
D03*
Y12769D02*
D03*
X3811Y10772D02*
D03*
X3816Y10874D02*
D03*
X3755Y10955D02*
D03*
X4081D02*
D03*
X3801Y11041D02*
D03*
X4050D02*
D03*
X5389Y9362D02*
D03*
X4048Y10358D02*
D03*
X19796Y11435D02*
D03*
X19808Y11554D02*
D03*
X19577Y11565D02*
D03*
X19986Y11562D02*
D03*
X19691Y11560D02*
D03*
X26664Y10693D02*
D03*
X23670Y10433D02*
D03*
X23669Y10960D02*
D03*
X28777Y5697D02*
D03*
X27987Y4361D02*
D03*
X27931Y4181D02*
D03*
X28774Y6088D02*
D03*
X25520Y7638D02*
D03*
Y7549D02*
D03*
Y7463D02*
D03*
X24896Y7849D02*
D03*
X24248Y7852D02*
D03*
X24018Y7854D02*
D03*
X23776Y7852D02*
D03*
X4025Y9383D02*
D03*
X4030Y9274D02*
D03*
X4050Y9134D02*
D03*
X4235Y9055D02*
D03*
X4162Y9149D02*
D03*
X4159Y9042D02*
D03*
X4332Y9050D02*
D03*
X4281Y9129D02*
D03*
X4464Y9004D02*
D03*
X4616Y9017D02*
D03*
X4782Y9025D02*
D03*
X4195Y9464D02*
D03*
X4319Y9467D02*
D03*
X3296Y9322D02*
D03*
X3278Y9243D02*
D03*
X3354Y9299D02*
D03*
X1480Y9159D02*
D03*
X1436Y8446D02*
D03*
X1518Y8336D02*
D03*
X1403Y8278D02*
D03*
X1505Y8227D02*
D03*
X1782Y8291D02*
D03*
X1838Y8209D02*
D03*
X1970Y8181D02*
D03*
X1929Y8062D02*
D03*
X1848Y8057D02*
D03*
X1787Y8146D02*
D03*
X1744Y8014D02*
D03*
X1876Y7943D02*
D03*
X1985Y7978D02*
D03*
X2026Y8087D02*
D03*
X1764Y7935D02*
D03*
X1820Y7836D02*
D03*
X1746Y7714D02*
D03*
X1731Y7379D02*
D03*
X1812Y7457D02*
D03*
X1835Y7643D02*
D03*
X1942Y7856D02*
D03*
X2361Y7125D02*
D03*
X2440Y6901D02*
D03*
X2470Y7033D02*
D03*
X2320Y7026D02*
D03*
X2280Y7170D02*
D03*
X2590Y6942D02*
D03*
X2597Y6774D02*
D03*
X2290Y6883D02*
D03*
X1713Y6949D02*
D03*
X1838Y7003D02*
D03*
X1980Y7033D02*
D03*
X1370Y6873D02*
D03*
X1337Y7269D02*
D03*
X1294Y7122D02*
D03*
X1276Y6975D02*
D03*
X2872Y7452D02*
D03*
X17949Y8557D02*
D03*
X17098Y7523D02*
D03*
X17870Y7912D02*
D03*
X17695Y7948D02*
D03*
X17352D02*
D03*
X18569Y8694D02*
D03*
X24949Y11704D02*
D03*
X26593Y9437D02*
D03*
Y9609D02*
D03*
X27200Y9771D02*
D03*
X28142Y9573D02*
D03*
X28152Y9467D02*
D03*
X28528Y9467D02*
D03*
X28452Y9573D02*
D03*
X29237Y2898D02*
D03*
X29232Y2827D02*
D03*
X12211Y9804D02*
D03*
Y9906D02*
D03*
Y10008D02*
D03*
X12209Y10114D02*
D03*
X12280Y9868D02*
D03*
X12282Y9964D02*
D03*
X12280Y10071D02*
D03*
X12341Y10127D02*
D03*
X12346Y10025D02*
D03*
Y9916D02*
D03*
Y9809D02*
D03*
X11990Y9741D02*
D03*
Y9843D02*
D03*
Y9944D02*
D03*
X11988Y10051D02*
D03*
X12059Y9804D02*
D03*
X12061Y9901D02*
D03*
X12059Y10008D02*
D03*
X12120Y10063D02*
D03*
X12125Y9962D02*
D03*
Y9853D02*
D03*
Y9746D02*
D03*
X11914Y9756D02*
D03*
X11812D02*
D03*
X11711D02*
D03*
X11604Y9754D02*
D03*
X11850Y9825D02*
D03*
X11754Y9827D02*
D03*
X11647Y9825D02*
D03*
X11591Y9886D02*
D03*
X11693Y9891D02*
D03*
X11802D02*
D03*
X11909D02*
D03*
X11861Y9502D02*
D03*
X11962D02*
D03*
X12064D02*
D03*
X12170Y9505D02*
D03*
X11924Y9434D02*
D03*
X12021Y9431D02*
D03*
X12127Y9434D02*
D03*
X12183Y9373D02*
D03*
X12082Y9368D02*
D03*
X11972D02*
D03*
X11866D02*
D03*
X12313Y9380D02*
D03*
Y9482D02*
D03*
Y9583D02*
D03*
X12310Y9690D02*
D03*
X12381Y9444D02*
D03*
X12384Y9540D02*
D03*
X12381Y9647D02*
D03*
X12442Y9703D02*
D03*
X12447Y9601D02*
D03*
Y9492D02*
D03*
Y9385D02*
D03*
X10486Y10183D02*
D03*
X10504Y10008D02*
D03*
X10639Y9992D02*
D03*
X10824Y9987D02*
D03*
X10555Y9906D02*
D03*
X10563Y10094D02*
D03*
X10451Y10107D02*
D03*
X10362Y10251D02*
D03*
X10359Y10363D02*
D03*
X10710Y10312D02*
D03*
X10194Y10185D02*
D03*
X10329Y10135D02*
D03*
X10377Y10038D02*
D03*
X10436Y9942D02*
D03*
X10497Y9832D02*
D03*
X10537Y9652D02*
D03*
X10502Y9576D02*
D03*
X10692Y9566D02*
D03*
X10768Y9174D02*
D03*
X10667D02*
D03*
X10565D02*
D03*
X10458Y9172D02*
D03*
X10705Y9243D02*
D03*
X10608Y9246D02*
D03*
X10499Y9238D02*
D03*
X10446Y9304D02*
D03*
X10547Y9309D02*
D03*
X10657D02*
D03*
X10763D02*
D03*
X11160Y9141D02*
D03*
X11058D02*
D03*
X10956D02*
D03*
X10850Y9139D02*
D03*
X11096Y9210D02*
D03*
X11000Y9213D02*
D03*
X10893Y9210D02*
D03*
X10837Y9271D02*
D03*
X10939Y9276D02*
D03*
X11048D02*
D03*
X11154D02*
D03*
X6674Y12167D02*
D03*
X6572D02*
D03*
X6471D02*
D03*
X6364Y12164D02*
D03*
X6610Y12235D02*
D03*
X6514Y12238D02*
D03*
X6407Y12235D02*
D03*
X6351Y12296D02*
D03*
X6453Y12301D02*
D03*
X6562D02*
D03*
X6669D02*
D03*
X7266Y12156D02*
D03*
X7164D02*
D03*
X7062D02*
D03*
X6956Y12154D02*
D03*
X7202Y12225D02*
D03*
X7106Y12228D02*
D03*
X6999Y12225D02*
D03*
X6943Y12286D02*
D03*
X7045Y12291D02*
D03*
X7154D02*
D03*
X7261D02*
D03*
X6633Y11991D02*
D03*
Y11890D02*
D03*
Y11788D02*
D03*
X6636Y11681D02*
D03*
X6565Y11928D02*
D03*
X6562Y11831D02*
D03*
X6565Y11725D02*
D03*
X6504Y11669D02*
D03*
X6499Y11770D02*
D03*
Y11880D02*
D03*
Y11986D02*
D03*
X7229Y11754D02*
D03*
Y11652D02*
D03*
Y11551D02*
D03*
X7232Y11444D02*
D03*
X7161Y11690D02*
D03*
X7158Y11594D02*
D03*
X7161Y11487D02*
D03*
X7100Y11431D02*
D03*
X7095Y11533D02*
D03*
Y11642D02*
D03*
Y11749D02*
D03*
X7271Y11359D02*
D03*
Y11257D02*
D03*
Y11156D02*
D03*
X7273Y11049D02*
D03*
X7202Y11295D02*
D03*
X7200Y11199D02*
D03*
X7202Y11092D02*
D03*
X7141Y11036D02*
D03*
X7136Y11138D02*
D03*
Y11247D02*
D03*
Y11354D02*
D03*
X6755Y11003D02*
D03*
Y10902D02*
D03*
Y10800D02*
D03*
X6758Y10693D02*
D03*
X6687Y10940D02*
D03*
X6684Y10843D02*
D03*
X6687Y10737D02*
D03*
X6626Y10681D02*
D03*
X6621Y10782D02*
D03*
Y10892D02*
D03*
Y10998D02*
D03*
X6542Y11407D02*
D03*
Y11306D02*
D03*
Y11204D02*
D03*
X6544Y11097D02*
D03*
X6473Y11344D02*
D03*
X6471Y11247D02*
D03*
X6473Y11140D02*
D03*
X6412Y11085D02*
D03*
X6407Y11186D02*
D03*
Y11295D02*
D03*
Y11402D02*
D03*
X5607Y12316D02*
D03*
Y12215D02*
D03*
Y12113D02*
D03*
X5610Y12007D02*
D03*
X5538Y12253D02*
D03*
X5536Y12156D02*
D03*
X5538Y12050D02*
D03*
X5478Y11994D02*
D03*
X5472Y12095D02*
D03*
Y12205D02*
D03*
Y12311D02*
D03*
X5277Y12273D02*
D03*
Y12172D02*
D03*
Y12070D02*
D03*
X5279Y11963D02*
D03*
X5208Y12210D02*
D03*
X5206Y12113D02*
D03*
X5208Y12007D02*
D03*
X5147Y11951D02*
D03*
X5142Y12052D02*
D03*
Y12162D02*
D03*
Y12268D02*
D03*
X4611Y11742D02*
D03*
X4713D02*
D03*
X4815D02*
D03*
X4921Y11745D02*
D03*
X4675Y11674D02*
D03*
X4771Y11671D02*
D03*
X4878Y11674D02*
D03*
X4934Y11613D02*
D03*
X4832Y11608D02*
D03*
X4723D02*
D03*
X4616D02*
D03*
X5099Y11499D02*
D03*
Y11600D02*
D03*
Y11702D02*
D03*
X5097Y11808D02*
D03*
X5168Y11562D02*
D03*
X5170Y11659D02*
D03*
X5168Y11765D02*
D03*
X5229Y11821D02*
D03*
X5234Y11720D02*
D03*
Y11610D02*
D03*
Y11504D02*
D03*
X6133Y7803D02*
D03*
Y7904D02*
D03*
Y8006D02*
D03*
X6130Y8113D02*
D03*
X6201Y7866D02*
D03*
X6204Y7963D02*
D03*
X6201Y8070D02*
D03*
X6262Y8125D02*
D03*
X6267Y8024D02*
D03*
Y7915D02*
D03*
Y7808D02*
D03*
X6364Y7945D02*
D03*
Y8047D02*
D03*
Y8148D02*
D03*
X6361Y8255D02*
D03*
X6433Y8009D02*
D03*
X6435Y8105D02*
D03*
X6433Y8212D02*
D03*
X6494Y8268D02*
D03*
X6499Y8166D02*
D03*
Y8057D02*
D03*
Y7950D02*
D03*
X14944Y12456D02*
D03*
Y12558D02*
D03*
Y12659D02*
D03*
X14942Y12766D02*
D03*
X15013Y12520D02*
D03*
X15015Y12616D02*
D03*
X15013Y12723D02*
D03*
X15074Y12779D02*
D03*
X15079Y12677D02*
D03*
Y12568D02*
D03*
Y12461D02*
D03*
X15538Y12380D02*
D03*
X15437D02*
D03*
X15335D02*
D03*
X15229Y12377D02*
D03*
X15475Y12449D02*
D03*
X15378Y12451D02*
D03*
X15272Y12449D02*
D03*
X15216Y12510D02*
D03*
X15318Y12515D02*
D03*
X15427D02*
D03*
X15533D02*
D03*
X16049Y12355D02*
D03*
X15947D02*
D03*
X15846D02*
D03*
X15739Y12352D02*
D03*
X15986Y12423D02*
D03*
X15889Y12426D02*
D03*
X15782Y12423D02*
D03*
X15726Y12484D02*
D03*
X15828Y12489D02*
D03*
X15937D02*
D03*
X16044D02*
D03*
X15876Y12667D02*
D03*
X15775D02*
D03*
X15673D02*
D03*
X15566Y12664D02*
D03*
X15813Y12736D02*
D03*
X15716Y12738D02*
D03*
X15610Y12736D02*
D03*
X15554Y12797D02*
D03*
X15655Y12802D02*
D03*
X15765D02*
D03*
X15871D02*
D03*
X16313Y12822D02*
D03*
X16212D02*
D03*
X16110D02*
D03*
X16003Y12819D02*
D03*
X16250Y12890D02*
D03*
X16153Y12893D02*
D03*
X16046Y12890D02*
D03*
X15991Y12951D02*
D03*
X16092Y12957D02*
D03*
X16201D02*
D03*
X16308D02*
D03*
X17045Y12822D02*
D03*
X16943D02*
D03*
X16841D02*
D03*
X16735Y12819D02*
D03*
X16981Y12890D02*
D03*
X16885Y12893D02*
D03*
X16778Y12890D02*
D03*
X16722Y12951D02*
D03*
X16824Y12957D02*
D03*
X16933D02*
D03*
X17040D02*
D03*
X17108Y12449D02*
D03*
X17007D02*
D03*
X16905D02*
D03*
X16798Y12446D02*
D03*
X17045Y12517D02*
D03*
X16948Y12520D02*
D03*
X16841Y12517D02*
D03*
X16786Y12578D02*
D03*
X16887Y12583D02*
D03*
X16996D02*
D03*
X17103D02*
D03*
X17997Y12433D02*
D03*
X17896D02*
D03*
X17794D02*
D03*
X17710Y12385D02*
D03*
X17934Y12502D02*
D03*
X17837Y12504D02*
D03*
X17730Y12502D02*
D03*
X17675Y12563D02*
D03*
X17776Y12568D02*
D03*
X17885D02*
D03*
X17992D02*
D03*
X15701Y12085D02*
D03*
Y11984D02*
D03*
Y11882D02*
D03*
X15704Y11775D02*
D03*
X15632Y12022D02*
D03*
X15630Y11925D02*
D03*
X15632Y11819D02*
D03*
X15571Y11763D02*
D03*
X15566Y11864D02*
D03*
Y11974D02*
D03*
Y12080D02*
D03*
X16016Y12090D02*
D03*
Y11989D02*
D03*
Y11887D02*
D03*
X16019Y11781D02*
D03*
X15947Y12027D02*
D03*
X15945Y11930D02*
D03*
X15947Y11824D02*
D03*
X15886Y11768D02*
D03*
X15881Y11869D02*
D03*
Y11979D02*
D03*
Y12085D02*
D03*
X16654Y11956D02*
D03*
X16755D02*
D03*
X16857D02*
D03*
X16963Y11958D02*
D03*
X16717Y11887D02*
D03*
X16814Y11885D02*
D03*
X16920Y11887D02*
D03*
X16976Y11826D02*
D03*
X16875Y11821D02*
D03*
X16765D02*
D03*
X16659D02*
D03*
X20024Y10706D02*
D03*
Y10808D02*
D03*
Y10909D02*
D03*
X20022Y11016D02*
D03*
X20093Y10770D02*
D03*
X20095Y10866D02*
D03*
X20093Y10973D02*
D03*
X20154Y11029D02*
D03*
X20159Y10927D02*
D03*
Y10818D02*
D03*
Y10711D02*
D03*
X19747Y10396D02*
D03*
Y10498D02*
D03*
Y10599D02*
D03*
X19745Y10706D02*
D03*
X19816Y10460D02*
D03*
X19818Y10556D02*
D03*
X19816Y10663D02*
D03*
X19877Y10719D02*
D03*
X19882Y10617D02*
D03*
Y10508D02*
D03*
Y10401D02*
D03*
X19516Y10096D02*
D03*
Y10198D02*
D03*
Y10300D02*
D03*
X19514Y10406D02*
D03*
X19585Y10160D02*
D03*
X19587Y10257D02*
D03*
X19585Y10363D02*
D03*
X19646Y10419D02*
D03*
X19651Y10317D02*
D03*
Y10208D02*
D03*
Y10102D02*
D03*
X19181Y9947D02*
D03*
Y10048D02*
D03*
Y10150D02*
D03*
X19178Y10257D02*
D03*
X19249Y10010D02*
D03*
X19252Y10107D02*
D03*
X19249Y10213D02*
D03*
X19310Y10269D02*
D03*
X19315Y10168D02*
D03*
Y10058D02*
D03*
Y9952D02*
D03*
X19542Y10795D02*
D03*
X19580Y10645D02*
D03*
X19615Y10536D02*
D03*
X19674Y10800D02*
D03*
X19823Y10820D02*
D03*
Y10952D02*
D03*
X19793Y11072D02*
D03*
X19554Y11044D02*
D03*
X19298Y10488D02*
D03*
X19270Y10376D02*
D03*
X19150Y9827D02*
D03*
X18658Y10185D02*
D03*
Y9936D02*
D03*
X18655Y9835D02*
D03*
X18668Y10079D02*
D03*
X16971Y10003D02*
D03*
X17159Y10036D02*
D03*
X17309Y10020D02*
D03*
X17339Y9929D02*
D03*
X17327Y9817D02*
D03*
X17588Y9736D02*
D03*
X17929Y9743D02*
D03*
X19087Y10185D02*
D03*
X18569Y9860D02*
D03*
X19575Y10028D02*
D03*
X19503Y9947D02*
D03*
X19793Y10272D02*
D03*
X20093Y10584D02*
D03*
X19996Y10500D02*
D03*
X22422Y10970D02*
D03*
X22320D02*
D03*
X22219D02*
D03*
X22112Y10968D02*
D03*
X22358Y11039D02*
D03*
X22262Y11041D02*
D03*
X22155Y11039D02*
D03*
X22099Y11100D02*
D03*
X22201Y11105D02*
D03*
X22310D02*
D03*
X22417D02*
D03*
X23639Y11524D02*
D03*
X23621Y11085D02*
D03*
X23519D02*
D03*
X23418D02*
D03*
X23311Y11082D02*
D03*
X23557Y11153D02*
D03*
X23461Y11156D02*
D03*
X23354Y11153D02*
D03*
X23298Y11214D02*
D03*
X23400Y11219D02*
D03*
X23509D02*
D03*
X23616D02*
D03*
X24741Y11913D02*
D03*
Y11811D02*
D03*
Y11709D02*
D03*
X24428Y11519D02*
D03*
X24672Y11849D02*
D03*
X24670Y11753D02*
D03*
X24672Y11646D02*
D03*
X24611Y11590D02*
D03*
X24606Y11692D02*
D03*
Y11801D02*
D03*
Y11908D02*
D03*
X24972Y11580D02*
D03*
X25074D02*
D03*
X25175D02*
D03*
X25282Y11582D02*
D03*
X25036Y11511D02*
D03*
X25132Y11509D02*
D03*
X25239Y11511D02*
D03*
X25295Y11450D02*
D03*
X25193Y11445D02*
D03*
X25084D02*
D03*
X24977D02*
D03*
X25698Y12248D02*
D03*
X25800D02*
D03*
X25902D02*
D03*
X26008Y12250D02*
D03*
X25762Y12179D02*
D03*
X25858Y12177D02*
D03*
X25965Y12179D02*
D03*
X26021Y12118D02*
D03*
X25919Y12113D02*
D03*
X25810D02*
D03*
X25704D02*
D03*
X24225Y12842D02*
D03*
X24327D02*
D03*
X24428D02*
D03*
X24535Y12845D02*
D03*
X24289Y12774D02*
D03*
X24385Y12771D02*
D03*
X24492Y12774D02*
D03*
X24548Y12713D02*
D03*
X24446Y12708D02*
D03*
X24337D02*
D03*
X24230D02*
D03*
X23288Y12832D02*
D03*
X23390D02*
D03*
X23491D02*
D03*
X23598Y12835D02*
D03*
X23352Y12764D02*
D03*
X23448Y12761D02*
D03*
X23555Y12764D02*
D03*
X23611Y12703D02*
D03*
X23509Y12697D02*
D03*
X23400D02*
D03*
X23293D02*
D03*
X24286Y13078D02*
D03*
X24388D02*
D03*
X24489D02*
D03*
X24596Y13081D02*
D03*
X24350Y13010D02*
D03*
X24446Y13007D02*
D03*
X24553Y13010D02*
D03*
X24609Y12949D02*
D03*
X24507Y12944D02*
D03*
X24398D02*
D03*
X24291D02*
D03*
X24284Y10922D02*
D03*
X24225Y10805D02*
D03*
X24332Y10808D02*
D03*
X24086Y10737D02*
D03*
X24182Y10734D02*
D03*
X24289Y10737D02*
D03*
X24345Y10676D02*
D03*
X24243Y10671D02*
D03*
X24134D02*
D03*
X24027D02*
D03*
X22229Y10076D02*
D03*
Y10178D02*
D03*
Y10279D02*
D03*
X22226Y10386D02*
D03*
X22297Y10140D02*
D03*
X22300Y10236D02*
D03*
X22297Y10343D02*
D03*
X22358Y10399D02*
D03*
X22363Y10297D02*
D03*
Y10188D02*
D03*
Y10081D02*
D03*
X21975Y10089D02*
D03*
Y10190D02*
D03*
Y10292D02*
D03*
X21972Y10399D02*
D03*
X22043Y10152D02*
D03*
X22046Y10249D02*
D03*
X22043Y10356D02*
D03*
X22104Y10411D02*
D03*
X22109Y10310D02*
D03*
Y10201D02*
D03*
Y10094D02*
D03*
X21670Y10061D02*
D03*
Y10163D02*
D03*
Y10264D02*
D03*
X21668Y10371D02*
D03*
X21739Y10124D02*
D03*
X21741Y10221D02*
D03*
X21739Y10328D02*
D03*
X21800Y10384D02*
D03*
X21805Y10282D02*
D03*
Y10173D02*
D03*
Y10066D02*
D03*
X21396Y10056D02*
D03*
Y10157D02*
D03*
Y10259D02*
D03*
X21393Y10366D02*
D03*
X21464Y10119D02*
D03*
X21467Y10216D02*
D03*
X21464Y10323D02*
D03*
X21525Y10378D02*
D03*
X21530Y10277D02*
D03*
Y10168D02*
D03*
Y10061D02*
D03*
X21137Y10096D02*
D03*
Y10198D02*
D03*
Y10300D02*
D03*
X21134Y10406D02*
D03*
X21205Y10160D02*
D03*
X21208Y10257D02*
D03*
X21205Y10363D02*
D03*
X21266Y10419D02*
D03*
X21271Y10317D02*
D03*
Y10208D02*
D03*
Y10102D02*
D03*
X20745Y9710D02*
D03*
Y9812D02*
D03*
Y9914D02*
D03*
X20743Y10020D02*
D03*
X20814Y9774D02*
D03*
X20817Y9870D02*
D03*
X20814Y9977D02*
D03*
X20875Y10033D02*
D03*
X20880Y9931D02*
D03*
Y9822D02*
D03*
Y9715D02*
D03*
X20715Y9294D02*
D03*
X20613D02*
D03*
X20512D02*
D03*
X20405Y9291D02*
D03*
X20651Y9362D02*
D03*
X20555Y9365D02*
D03*
X20448Y9362D02*
D03*
X20392Y9423D02*
D03*
X20494Y9428D02*
D03*
X20603D02*
D03*
X20710D02*
D03*
X20662Y9507D02*
D03*
X20560D02*
D03*
X20458D02*
D03*
X20352Y9505D02*
D03*
X20598Y9576D02*
D03*
X20502Y9578D02*
D03*
X20395Y9576D02*
D03*
X20339Y9637D02*
D03*
X20441Y9642D02*
D03*
X20550D02*
D03*
X20657D02*
D03*
X20644Y9896D02*
D03*
X20626Y9792D02*
D03*
X20491Y9774D02*
D03*
X21030Y9815D02*
D03*
X20723Y9571D02*
D03*
X20255Y9535D02*
D03*
X20281Y9380D02*
D03*
X21373Y9967D02*
D03*
Y9865D02*
D03*
Y9764D02*
D03*
X21375Y9657D02*
D03*
X21304Y9903D02*
D03*
X21302Y9807D02*
D03*
X21304Y9700D02*
D03*
X21243Y9644D02*
D03*
X21238Y9746D02*
D03*
Y9855D02*
D03*
Y9962D02*
D03*
X20298Y9091D02*
D03*
X20400D02*
D03*
X20502D02*
D03*
X20608Y9093D02*
D03*
X20362Y9022D02*
D03*
X20458Y9020D02*
D03*
X20565Y9022D02*
D03*
X20621Y8961D02*
D03*
X20519Y8956D02*
D03*
X20410D02*
D03*
X20304D02*
D03*
X20781Y9093D02*
D03*
X20883D02*
D03*
X20984D02*
D03*
X21091Y9096D02*
D03*
X20845Y9025D02*
D03*
X20941Y9022D02*
D03*
X21048Y9025D02*
D03*
X21104Y8964D02*
D03*
X21002Y8959D02*
D03*
X20893D02*
D03*
X20786D02*
D03*
X9079Y6040D02*
D03*
X9181D02*
D03*
X9282D02*
D03*
X9389Y6043D02*
D03*
X9143Y5972D02*
D03*
X9239Y5969D02*
D03*
X9346Y5972D02*
D03*
X9402Y5911D02*
D03*
X9300Y5906D02*
D03*
X9191D02*
D03*
X9084D02*
D03*
X9740Y5860D02*
D03*
X9841D02*
D03*
X9943D02*
D03*
X10050Y5862D02*
D03*
X9803Y5791D02*
D03*
X9900Y5789D02*
D03*
X10006Y5791D02*
D03*
X10062Y5730D02*
D03*
X9961Y5725D02*
D03*
X9851D02*
D03*
X9745D02*
D03*
X8741Y5804D02*
D03*
X8843D02*
D03*
X8945D02*
D03*
X9051Y5806D02*
D03*
X8805Y5735D02*
D03*
X8901Y5733D02*
D03*
X9008Y5735D02*
D03*
X9064Y5674D02*
D03*
X8962Y5669D02*
D03*
X8853D02*
D03*
X8747D02*
D03*
X10118Y6048D02*
D03*
X10220D02*
D03*
X10321D02*
D03*
X10428Y6050D02*
D03*
X10182Y5979D02*
D03*
X10278Y5977D02*
D03*
X10385Y5979D02*
D03*
X10441Y5918D02*
D03*
X10339Y5913D02*
D03*
X10230D02*
D03*
X10123D02*
D03*
X11335Y6114D02*
D03*
X11436D02*
D03*
X11538D02*
D03*
X11645Y6116D02*
D03*
X11398Y6045D02*
D03*
X11495Y6043D02*
D03*
X11601Y6045D02*
D03*
X11657Y5984D02*
D03*
X11556Y5979D02*
D03*
X11447D02*
D03*
X11340D02*
D03*
X10758Y6144D02*
D03*
X10860D02*
D03*
X10961D02*
D03*
X11068Y6147D02*
D03*
X10822Y6076D02*
D03*
X10918Y6073D02*
D03*
X11025Y6076D02*
D03*
X11081Y6015D02*
D03*
X10979Y6010D02*
D03*
X10870D02*
D03*
X10763D02*
D03*
X10608Y6111D02*
D03*
X10550Y6017D02*
D03*
X11243Y6053D02*
D03*
X11469Y5812D02*
D03*
X11894Y6038D02*
D03*
X11769Y6119D02*
D03*
X11784Y5987D02*
D03*
X12076Y6154D02*
D03*
X10258Y5812D02*
D03*
X9272Y5804D02*
D03*
X9374D02*
D03*
X9475D02*
D03*
X9582Y5806D02*
D03*
X9336Y5735D02*
D03*
X9432Y5733D02*
D03*
X9539Y5735D02*
D03*
X9595Y5674D02*
D03*
X9493Y5669D02*
D03*
X9384D02*
D03*
X9277D02*
D03*
X9526Y6124D02*
D03*
X9628D02*
D03*
X9729D02*
D03*
X9836Y6126D02*
D03*
X9590Y6055D02*
D03*
X9686Y6053D02*
D03*
X9793Y6055D02*
D03*
X9849Y5994D02*
D03*
X9747Y5989D02*
D03*
X9638D02*
D03*
X9531D02*
D03*
X10740Y9944D02*
D03*
X10636Y9886D02*
D03*
X10601Y9581D02*
D03*
X10606Y9385D02*
D03*
X10712D02*
D03*
X10484Y9380D02*
D03*
X11309Y9909D02*
D03*
X11322Y9629D02*
D03*
X11386Y9340D02*
D03*
X11622Y9218D02*
D03*
X11492Y9342D02*
D03*
X11505Y9233D02*
D03*
X11416Y9263D02*
D03*
X11246Y9599D02*
D03*
X11756Y9622D02*
D03*
X11980Y9629D02*
D03*
X12183D02*
D03*
X12650Y9705D02*
D03*
X12676Y9589D02*
D03*
X13047Y9649D02*
D03*
X13082Y9550D02*
D03*
X13143Y9456D02*
D03*
X18614Y1615D02*
D03*
X18627Y1486D02*
D03*
X18759Y1471D02*
D03*
X17497Y2824D02*
D03*
X17578Y2852D02*
D03*
X21800Y1605D02*
D03*
X21871Y1565D02*
D03*
X22242Y1526D02*
D03*
X21822Y1481D02*
D03*
X21675Y1582D02*
D03*
X22066D02*
D03*
X21977Y1588D02*
D03*
X22165Y1577D02*
D03*
X22366Y1562D02*
D03*
X22219Y1161D02*
D03*
X22120Y1087D02*
D03*
X22308Y1041D02*
D03*
X22516Y1125D02*
D03*
X22135Y942D02*
D03*
X19257Y3282D02*
D03*
X19346Y3302D02*
D03*
X19188Y3035D02*
D03*
X19186Y3198D02*
D03*
X19506Y1463D02*
D03*
X19257Y983D02*
D03*
X19155Y1463D02*
D03*
X18551Y2365D02*
D03*
X18437Y2568D02*
D03*
X18579Y2451D02*
D03*
X18668Y1730D02*
D03*
X18607Y1773D02*
D03*
X19176Y1082D02*
D03*
X19945Y3139D02*
D03*
X19930Y3228D02*
D03*
X20042Y3122D02*
D03*
X13252Y4544D02*
D03*
X13529D02*
D03*
X18150Y2365D02*
D03*
X20024Y1379D02*
D03*
X20156Y1367D02*
D03*
X20164Y1222D02*
D03*
X20060Y1201D02*
D03*
X20083Y1311D02*
D03*
X20347Y937D02*
D03*
X20603Y942D02*
D03*
X20545Y798D02*
D03*
X19575Y782D02*
D03*
X20004Y790D02*
D03*
X19956Y635D02*
D03*
X19765Y742D02*
D03*
X19618Y561D02*
D03*
X20243Y488D02*
D03*
X21228Y1072D02*
D03*
Y853D02*
D03*
X21970Y782D02*
D03*
X22384Y762D02*
D03*
X21690Y1029D02*
D03*
X17352Y1242D02*
D03*
X17583Y1252D02*
D03*
X17446Y1311D02*
D03*
X17659Y1321D02*
D03*
X14929Y1372D02*
D03*
X14896Y1260D02*
D03*
X14980Y1252D02*
D03*
X16123Y1379D02*
D03*
X16278D02*
D03*
X12524Y1242D02*
D03*
X12396Y1209D02*
D03*
X12676Y1201D02*
D03*
X9836Y1295D02*
D03*
X9963Y1361D02*
D03*
X9956Y1227D02*
D03*
X10067Y1285D02*
D03*
X7687Y1140D02*
D03*
X7644Y833D02*
D03*
X7967Y782D02*
D03*
X9442Y765D02*
D03*
X9956Y775D02*
D03*
X21497Y3030D02*
D03*
X21421Y3094D02*
D03*
X21680Y3216D02*
D03*
X22008Y3373D02*
D03*
X21088Y5329D02*
D03*
X20796Y5141D02*
D03*
X20237Y8550D02*
D03*
X19732Y8915D02*
D03*
X19663Y8984D02*
D03*
X19230Y8548D02*
D03*
X19204Y8915D02*
D03*
X19943Y8763D02*
D03*
X19803Y8847D02*
D03*
X19948Y8849D02*
D03*
X19214Y9053D02*
D03*
X19199Y8773D02*
D03*
X19138Y8844D02*
D03*
X21259Y5194D02*
D03*
X21287Y2626D02*
D03*
X19348Y2187D02*
D03*
X19498Y1295D02*
D03*
X19420Y983D02*
D03*
X19417Y1085D02*
D03*
X17022Y2423D02*
D03*
X16443Y2654D02*
D03*
X11683Y2553D02*
D03*
X11515Y2535D02*
D03*
X11617Y2626D02*
D03*
X11675Y3012D02*
D03*
X11614Y2715D02*
D03*
X11706Y2979D02*
D03*
X11617Y2837D02*
D03*
X19082Y1864D02*
D03*
X22681Y297D02*
D03*
X22800Y300D02*
D03*
X22915Y297D02*
D03*
X22861Y213D02*
D03*
X22729Y218D02*
D03*
X22800Y130D02*
D03*
X22983Y213D02*
D03*
X22927Y127D02*
D03*
X22686Y130D02*
D03*
X23059Y135D02*
D03*
X23301Y132D02*
D03*
X23357Y218D02*
D03*
X23174Y135D02*
D03*
X23103Y224D02*
D03*
X23235Y218D02*
D03*
X23288Y302D02*
D03*
X23174Y305D02*
D03*
X23054Y302D02*
D03*
X22165Y1999D02*
D03*
X22285Y2002D02*
D03*
X22399Y1999D02*
D03*
X22346Y1915D02*
D03*
X22214Y1920D02*
D03*
X22285Y1831D02*
D03*
X22468Y1915D02*
D03*
X22412Y1829D02*
D03*
X22170Y1831D02*
D03*
X22544Y1836D02*
D03*
X22785Y1834D02*
D03*
X22841Y1920D02*
D03*
X22658Y1836D02*
D03*
X22587Y1925D02*
D03*
X22719Y1920D02*
D03*
X22772Y2004D02*
D03*
X22658Y2007D02*
D03*
X22539Y2004D02*
D03*
X23179Y1971D02*
D03*
X23298Y1974D02*
D03*
X23412Y1971D02*
D03*
X23359Y1887D02*
D03*
X23227Y1892D02*
D03*
X23298Y1803D02*
D03*
X23481Y1887D02*
D03*
X23425Y1801D02*
D03*
X23184Y1803D02*
D03*
X23557Y1808D02*
D03*
X23799Y1806D02*
D03*
X23854Y1892D02*
D03*
X23672Y1808D02*
D03*
X23600Y1897D02*
D03*
X23733Y1892D02*
D03*
X23786Y1976D02*
D03*
X23672Y1979D02*
D03*
X23552Y1976D02*
D03*
X20309Y4117D02*
D03*
X20189Y4115D02*
D03*
X20075Y4117D02*
D03*
X20128Y4201D02*
D03*
X20260Y4196D02*
D03*
X20189Y4285D02*
D03*
X20006Y4201D02*
D03*
X20062Y4288D02*
D03*
X20304Y4285D02*
D03*
X19930Y4280D02*
D03*
X19689Y4282D02*
D03*
X19633Y4196D02*
D03*
X19816Y4280D02*
D03*
X19887Y4191D02*
D03*
X19755Y4196D02*
D03*
X19702Y4112D02*
D03*
X19816Y4110D02*
D03*
X19935Y4112D02*
D03*
X21060Y4115D02*
D03*
X20941Y4112D02*
D03*
X20827Y4115D02*
D03*
X20880Y4199D02*
D03*
X21012Y4194D02*
D03*
X20941Y4282D02*
D03*
X20758Y4199D02*
D03*
X20814Y4285D02*
D03*
X21055Y4282D02*
D03*
X20682Y4277D02*
D03*
X20441Y4280D02*
D03*
X20385Y4194D02*
D03*
X20568Y4277D02*
D03*
X20639Y4188D02*
D03*
X20507Y4194D02*
D03*
X20453Y4110D02*
D03*
X20568Y4107D02*
D03*
X20687Y4110D02*
D03*
X20304Y3825D02*
D03*
X20184Y3823D02*
D03*
X20070Y3825D02*
D03*
X20123Y3909D02*
D03*
X20255Y3904D02*
D03*
X20184Y3993D02*
D03*
X20001Y3909D02*
D03*
X20057Y3995D02*
D03*
X20298Y3993D02*
D03*
X19925Y3988D02*
D03*
X19684Y3990D02*
D03*
X19628Y3904D02*
D03*
X19811Y3988D02*
D03*
X19882Y3899D02*
D03*
X19750Y3904D02*
D03*
X19696Y3820D02*
D03*
X19811Y3818D02*
D03*
X19930Y3820D02*
D03*
X21055Y3825D02*
D03*
X20936Y3823D02*
D03*
X20822Y3825D02*
D03*
X20875Y3909D02*
D03*
X21007Y3904D02*
D03*
X20936Y3993D02*
D03*
X20753Y3909D02*
D03*
X20809Y3995D02*
D03*
X21050Y3993D02*
D03*
X20677Y3988D02*
D03*
X20436Y3990D02*
D03*
X20380Y3904D02*
D03*
X20563Y3988D02*
D03*
X20634Y3899D02*
D03*
X20502Y3904D02*
D03*
X20448Y3820D02*
D03*
X20563Y3818D02*
D03*
X20682Y3820D02*
D03*
X20634Y3518D02*
D03*
X20514Y3515D02*
D03*
X20400Y3518D02*
D03*
X20453Y3602D02*
D03*
X20585Y3597D02*
D03*
X20514Y3686D02*
D03*
X20331Y3602D02*
D03*
X20387Y3688D02*
D03*
X20629Y3686D02*
D03*
X20255Y3680D02*
D03*
X20014Y3683D02*
D03*
X19958Y3597D02*
D03*
X20141Y3680D02*
D03*
X20212Y3592D02*
D03*
X20080Y3597D02*
D03*
X20027Y3513D02*
D03*
X20141Y3510D02*
D03*
X20260Y3513D02*
D03*
X20931Y3223D02*
D03*
X20812Y3221D02*
D03*
X20697Y3223D02*
D03*
X20751Y3307D02*
D03*
X20883Y3302D02*
D03*
X20812Y3391D02*
D03*
X20629Y3307D02*
D03*
X20685Y3393D02*
D03*
X20926Y3391D02*
D03*
X20552Y3386D02*
D03*
X20311Y3388D02*
D03*
X20255Y3302D02*
D03*
X20438Y3386D02*
D03*
X20509Y3297D02*
D03*
X20377Y3302D02*
D03*
X20324Y3218D02*
D03*
X20438Y3216D02*
D03*
X20558Y3218D02*
D03*
X21756Y4686D02*
D03*
X22013D02*
D03*
X21721Y6068D02*
D03*
X21601Y6066D02*
D03*
X21487Y6068D02*
D03*
X21540Y6152D02*
D03*
X21673Y6147D02*
D03*
X21601Y6236D02*
D03*
X21419Y6152D02*
D03*
X21474Y6238D02*
D03*
X21716Y6236D02*
D03*
X21342Y6231D02*
D03*
X21101Y6233D02*
D03*
X21045Y6147D02*
D03*
X21228Y6231D02*
D03*
X21299Y6142D02*
D03*
X21167Y6147D02*
D03*
X21114Y6063D02*
D03*
X21228Y6060D02*
D03*
X21347Y6063D02*
D03*
X21701Y6375D02*
D03*
X21581Y6373D02*
D03*
X21467Y6375D02*
D03*
X21520Y6459D02*
D03*
X21652Y6454D02*
D03*
X21581Y6543D02*
D03*
X21398Y6459D02*
D03*
X21454Y6546D02*
D03*
X21695Y6543D02*
D03*
X21322Y6538D02*
D03*
X21081Y6540D02*
D03*
X21025Y6454D02*
D03*
X21208Y6538D02*
D03*
X21279Y6449D02*
D03*
X21147Y6454D02*
D03*
X21093Y6370D02*
D03*
X21208Y6368D02*
D03*
X21327Y6370D02*
D03*
X22013Y7460D02*
D03*
X21340Y7183D02*
D03*
X21220Y7181D02*
D03*
X21106Y7183D02*
D03*
X21160Y7267D02*
D03*
X21292Y7262D02*
D03*
X21220Y7351D02*
D03*
X21038Y7267D02*
D03*
X21093Y7353D02*
D03*
X21335Y7351D02*
D03*
X20961Y7346D02*
D03*
X20720Y7348D02*
D03*
X20664Y7262D02*
D03*
X20847Y7346D02*
D03*
X20918Y7257D02*
D03*
X20786Y7262D02*
D03*
X20733Y7178D02*
D03*
X20847Y7175D02*
D03*
X20966Y7178D02*
D03*
X21711Y6675D02*
D03*
X21591Y6673D02*
D03*
X21477Y6675D02*
D03*
X21530Y6759D02*
D03*
X21662Y6754D02*
D03*
X21591Y6843D02*
D03*
X21408Y6759D02*
D03*
X21464Y6845D02*
D03*
X21706Y6843D02*
D03*
X21332Y6838D02*
D03*
X21091Y6840D02*
D03*
X21035Y6754D02*
D03*
X21218Y6838D02*
D03*
X21289Y6749D02*
D03*
X21157Y6754D02*
D03*
X21104Y6670D02*
D03*
X21218Y6668D02*
D03*
X21337Y6670D02*
D03*
X20941Y8110D02*
D03*
X20822Y8108D02*
D03*
X20707Y8110D02*
D03*
X20761Y8194D02*
D03*
X20893Y8189D02*
D03*
X20822Y8278D02*
D03*
X20639Y8194D02*
D03*
X20695Y8280D02*
D03*
X20936Y8278D02*
D03*
X20563Y8273D02*
D03*
X20321Y8275D02*
D03*
X20265Y8189D02*
D03*
X20448Y8273D02*
D03*
X20519Y8184D02*
D03*
X20387Y8189D02*
D03*
X20334Y8105D02*
D03*
X20448Y8103D02*
D03*
X20568Y8105D02*
D03*
X21142Y7683D02*
D03*
X21022Y7681D02*
D03*
X20908Y7683D02*
D03*
X20961Y7767D02*
D03*
X21093Y7762D02*
D03*
X21022Y7851D02*
D03*
X20839Y7767D02*
D03*
X20895Y7854D02*
D03*
X21137Y7851D02*
D03*
X20763Y7846D02*
D03*
X20522Y7849D02*
D03*
X20466Y7762D02*
D03*
X20649Y7846D02*
D03*
X20720Y7757D02*
D03*
X20588Y7762D02*
D03*
X20535Y7678D02*
D03*
X20649Y7676D02*
D03*
X20768Y7678D02*
D03*
X22579Y5786D02*
D03*
X22699Y5789D02*
D03*
X22813Y5786D02*
D03*
X22760Y5702D02*
D03*
X22628Y5707D02*
D03*
X22699Y5618D02*
D03*
X22882Y5702D02*
D03*
X22826Y5616D02*
D03*
X22584Y5618D02*
D03*
X22958Y5624D02*
D03*
X23199Y5621D02*
D03*
X23255Y5707D02*
D03*
X23072Y5624D02*
D03*
X23001Y5712D02*
D03*
X23133Y5707D02*
D03*
X23186Y5791D02*
D03*
X23072Y5794D02*
D03*
X22953Y5791D02*
D03*
X22165Y5296D02*
D03*
X22163Y5415D02*
D03*
X22165Y5530D02*
D03*
X22249Y5476D02*
D03*
X22244Y5344D02*
D03*
X22333Y5415D02*
D03*
X22249Y5598D02*
D03*
X22336Y5542D02*
D03*
X22333Y5301D02*
D03*
X22328Y5674D02*
D03*
X22330Y5916D02*
D03*
X22244Y5972D02*
D03*
X22328Y5789D02*
D03*
X22239Y5718D02*
D03*
X22244Y5850D02*
D03*
X22160Y5903D02*
D03*
X22158Y5789D02*
D03*
X22160Y5669D02*
D03*
X22145Y3744D02*
D03*
X22142Y3863D02*
D03*
X22145Y3978D02*
D03*
X22229Y3924D02*
D03*
X22224Y3792D02*
D03*
X22313Y3863D02*
D03*
X22229Y4046D02*
D03*
X22315Y3990D02*
D03*
X22313Y3749D02*
D03*
X22308Y4122D02*
D03*
X22310Y4364D02*
D03*
X22224Y4420D02*
D03*
X22308Y4237D02*
D03*
X22219Y4166D02*
D03*
X22224Y4298D02*
D03*
X22140Y4351D02*
D03*
X22137Y4237D02*
D03*
X22140Y4117D02*
D03*
X22686Y3879D02*
D03*
X22684Y3998D02*
D03*
X22686Y4112D02*
D03*
X22770Y4059D02*
D03*
X22765Y3927D02*
D03*
X22854Y3998D02*
D03*
X22770Y4181D02*
D03*
X22856Y4125D02*
D03*
X22854Y3884D02*
D03*
X22849Y4257D02*
D03*
X22851Y4498D02*
D03*
X22765Y4554D02*
D03*
X22849Y4371D02*
D03*
X22760Y4300D02*
D03*
X22765Y4432D02*
D03*
X22681Y4486D02*
D03*
X22678Y4371D02*
D03*
X22681Y4252D02*
D03*
X22968Y4181D02*
D03*
X22965Y4300D02*
D03*
X22968Y4415D02*
D03*
X23052Y4361D02*
D03*
X23047Y4229D02*
D03*
X23136Y4300D02*
D03*
X23052Y4483D02*
D03*
X23138Y4427D02*
D03*
X23136Y4186D02*
D03*
X23131Y4559D02*
D03*
X23133Y4801D02*
D03*
X23047Y4856D02*
D03*
X23131Y4674D02*
D03*
X23042Y4602D02*
D03*
X23047Y4735D02*
D03*
X22963Y4788D02*
D03*
X22960Y4674D02*
D03*
X22963Y4554D02*
D03*
X28203Y5004D02*
D03*
X28200Y5123D02*
D03*
X28203Y5237D02*
D03*
X28287Y5184D02*
D03*
X28282Y5052D02*
D03*
X28371Y5123D02*
D03*
X28287Y5306D02*
D03*
X28373Y5250D02*
D03*
X28371Y5009D02*
D03*
X28365Y5382D02*
D03*
X28368Y5624D02*
D03*
X28282Y5679D02*
D03*
X28365Y5497D02*
D03*
X28277Y5425D02*
D03*
X28282Y5558D02*
D03*
X28198Y5611D02*
D03*
X28195Y5497D02*
D03*
X28198Y5377D02*
D03*
X28495Y4826D02*
D03*
X28492Y4945D02*
D03*
X28495Y5060D02*
D03*
X28579Y5006D02*
D03*
X28574Y4874D02*
D03*
X28663Y4945D02*
D03*
X28579Y5128D02*
D03*
X28665Y5072D02*
D03*
X28663Y4831D02*
D03*
X28658Y5204D02*
D03*
X28660Y5446D02*
D03*
X28574Y5502D02*
D03*
X28658Y5319D02*
D03*
X28569Y5248D02*
D03*
X28574Y5380D02*
D03*
X28490Y5433D02*
D03*
X28487Y5319D02*
D03*
X28490Y5199D02*
D03*
X28985Y4923D02*
D03*
X28983Y5042D02*
D03*
X28985Y5156D02*
D03*
X29069Y5103D02*
D03*
X29064Y4971D02*
D03*
X29153Y5042D02*
D03*
X29069Y5225D02*
D03*
X29155Y5169D02*
D03*
X29153Y4928D02*
D03*
X29148Y5301D02*
D03*
X29150Y5542D02*
D03*
X29064Y5598D02*
D03*
X29148Y5415D02*
D03*
X29059Y5344D02*
D03*
X29064Y5476D02*
D03*
X28980Y5530D02*
D03*
X28978Y5415D02*
D03*
X28980Y5296D02*
D03*
X29948Y4615D02*
D03*
X29829Y4613D02*
D03*
X29714Y4615D02*
D03*
X29768Y4699D02*
D03*
X29900Y4694D02*
D03*
X29829Y4783D02*
D03*
X29646Y4699D02*
D03*
X29702Y4785D02*
D03*
X29943Y4783D02*
D03*
X29569Y4778D02*
D03*
X29328Y4780D02*
D03*
X29272Y4694D02*
D03*
X29455Y4778D02*
D03*
X29526Y4689D02*
D03*
X29394Y4694D02*
D03*
X29341Y4610D02*
D03*
X29455Y4608D02*
D03*
X29575Y4610D02*
D03*
X27555Y2969D02*
D03*
X27436Y2967D02*
D03*
X27322Y2969D02*
D03*
X27375Y3053D02*
D03*
X27507Y3048D02*
D03*
X27436Y3137D02*
D03*
X27253Y3053D02*
D03*
X27309Y3139D02*
D03*
X27550Y3137D02*
D03*
X27177Y3132D02*
D03*
X26935Y3134D02*
D03*
X26880Y3048D02*
D03*
X27062Y3132D02*
D03*
X27134Y3043D02*
D03*
X27002Y3048D02*
D03*
X26948Y2964D02*
D03*
X27062Y2962D02*
D03*
X27182Y2964D02*
D03*
X29666Y1392D02*
D03*
X29663Y1511D02*
D03*
X29666Y1626D02*
D03*
X29750Y1572D02*
D03*
X29745Y1440D02*
D03*
X29834Y1511D02*
D03*
X29750Y1694D02*
D03*
X29836Y1638D02*
D03*
X29834Y1397D02*
D03*
X29829Y1770D02*
D03*
X29831Y2012D02*
D03*
X29745Y2068D02*
D03*
X29829Y1885D02*
D03*
X29740Y1814D02*
D03*
X29745Y1946D02*
D03*
X29661Y1999D02*
D03*
X29658Y1885D02*
D03*
X29661Y1765D02*
D03*
X29778Y704D02*
D03*
X29658Y701D02*
D03*
X29544Y704D02*
D03*
X29597Y787D02*
D03*
X29729Y782D02*
D03*
X29658Y871D02*
D03*
X29475Y787D02*
D03*
X29531Y874D02*
D03*
X29773Y871D02*
D03*
X29399Y866D02*
D03*
X29158Y869D02*
D03*
X29102Y782D02*
D03*
X29285Y866D02*
D03*
X29356Y777D02*
D03*
X29224Y782D02*
D03*
X29171Y699D02*
D03*
X29285Y696D02*
D03*
X29404Y699D02*
D03*
X13915Y3772D02*
D03*
X13796Y3769D02*
D03*
X13682Y3772D02*
D03*
X13735Y3856D02*
D03*
X13867Y3851D02*
D03*
X13796Y3940D02*
D03*
X13613Y3856D02*
D03*
X13669Y3942D02*
D03*
X13910Y3940D02*
D03*
X13537Y3934D02*
D03*
X13296Y3937D02*
D03*
X13240Y3851D02*
D03*
X13423Y3934D02*
D03*
X13494Y3846D02*
D03*
X13362Y3851D02*
D03*
X13308Y3767D02*
D03*
X13423Y3764D02*
D03*
X13542Y3767D02*
D03*
X12996Y4285D02*
D03*
X13115Y4288D02*
D03*
X13230Y4285D02*
D03*
X13176Y4201D02*
D03*
X13044Y4206D02*
D03*
X13115Y4117D02*
D03*
X13298Y4201D02*
D03*
X13242Y4115D02*
D03*
X13001Y4117D02*
D03*
X13374Y4122D02*
D03*
X13616Y4120D02*
D03*
X13672Y4206D02*
D03*
X13489Y4122D02*
D03*
X13418Y4211D02*
D03*
X13550Y4206D02*
D03*
X13603Y4290D02*
D03*
X13489Y4293D02*
D03*
X13369Y4290D02*
D03*
X12417Y3998D02*
D03*
X12536Y4001D02*
D03*
X12650Y3998D02*
D03*
X12597Y3914D02*
D03*
X12465Y3919D02*
D03*
X12536Y3830D02*
D03*
X12719Y3914D02*
D03*
X12663Y3828D02*
D03*
X12422Y3830D02*
D03*
X12795Y3835D02*
D03*
X13037Y3833D02*
D03*
X13092Y3919D02*
D03*
X12910Y3835D02*
D03*
X12838Y3924D02*
D03*
X12971Y3919D02*
D03*
X13024Y4003D02*
D03*
X12910Y4006D02*
D03*
X12790Y4003D02*
D03*
X12470Y3658D02*
D03*
X12590Y3660D02*
D03*
X12704Y3658D02*
D03*
X12650Y3574D02*
D03*
X12518Y3579D02*
D03*
X12590Y3490D02*
D03*
X12772Y3574D02*
D03*
X12717Y3487D02*
D03*
X12475Y3490D02*
D03*
X12849Y3495D02*
D03*
X13090Y3492D02*
D03*
X13146Y3579D02*
D03*
X12963Y3495D02*
D03*
X12892Y3584D02*
D03*
X13024Y3579D02*
D03*
X13077Y3663D02*
D03*
X12963Y3665D02*
D03*
X12844Y3663D02*
D03*
X12884Y2987D02*
D03*
X13004Y2990D02*
D03*
X13118Y2987D02*
D03*
X13065Y2903D02*
D03*
X12932Y2908D02*
D03*
X13004Y2819D02*
D03*
X13186Y2903D02*
D03*
X13131Y2817D02*
D03*
X12889Y2819D02*
D03*
X13263Y2824D02*
D03*
X13504Y2822D02*
D03*
X13560Y2908D02*
D03*
X13377Y2824D02*
D03*
X13306Y2913D02*
D03*
X13438Y2908D02*
D03*
X13491Y2992D02*
D03*
X13377Y2995D02*
D03*
X13258Y2992D02*
D03*
X11543Y3856D02*
D03*
X11662Y3858D02*
D03*
X11777Y3856D02*
D03*
X11723Y3772D02*
D03*
X11591Y3777D02*
D03*
X11662Y3688D02*
D03*
X11845Y3772D02*
D03*
X11789Y3686D02*
D03*
X11548Y3688D02*
D03*
X11922Y3693D02*
D03*
X12163Y3691D02*
D03*
X12219Y3777D02*
D03*
X12036Y3693D02*
D03*
X11965Y3782D02*
D03*
X12097Y3777D02*
D03*
X12150Y3861D02*
D03*
X12036Y3863D02*
D03*
X11916Y3861D02*
D03*
X10618Y3866D02*
D03*
X10738Y3868D02*
D03*
X10852Y3866D02*
D03*
X10799Y3782D02*
D03*
X10667Y3787D02*
D03*
X10738Y3698D02*
D03*
X10921Y3782D02*
D03*
X10865Y3696D02*
D03*
X10624Y3698D02*
D03*
X10997Y3703D02*
D03*
X11238Y3701D02*
D03*
X11294Y3787D02*
D03*
X11111Y3703D02*
D03*
X11040Y3792D02*
D03*
X11172Y3787D02*
D03*
X11226Y3871D02*
D03*
X11111Y3874D02*
D03*
X10992Y3871D02*
D03*
X7101Y3815D02*
D03*
X7220Y3818D02*
D03*
X7334Y3815D02*
D03*
X7281Y3731D02*
D03*
X7149Y3736D02*
D03*
X7220Y3647D02*
D03*
X7403Y3731D02*
D03*
X7347Y3645D02*
D03*
X7106Y3647D02*
D03*
X7479Y3653D02*
D03*
X7720Y3650D02*
D03*
X7776Y3736D02*
D03*
X7593Y3653D02*
D03*
X7522Y3741D02*
D03*
X7654Y3736D02*
D03*
X7708Y3820D02*
D03*
X7593Y3823D02*
D03*
X7474Y3820D02*
D03*
X7901Y3774D02*
D03*
X8020Y3777D02*
D03*
X8134Y3774D02*
D03*
X8081Y3691D02*
D03*
X7949Y3696D02*
D03*
X8020Y3607D02*
D03*
X8203Y3691D02*
D03*
X8147Y3604D02*
D03*
X7906Y3607D02*
D03*
X8279Y3612D02*
D03*
X8520Y3609D02*
D03*
X8576Y3696D02*
D03*
X8393Y3612D02*
D03*
X8322Y3701D02*
D03*
X8454Y3696D02*
D03*
X8508Y3780D02*
D03*
X8393Y3782D02*
D03*
X8274Y3780D02*
D03*
X4040Y6695D02*
D03*
X4037Y6815D02*
D03*
X4040Y6929D02*
D03*
X4124Y6876D02*
D03*
X4119Y6744D02*
D03*
X4208Y6815D02*
D03*
X4124Y6998D02*
D03*
X4210Y6942D02*
D03*
X4208Y6701D02*
D03*
X4202Y7074D02*
D03*
X4205Y7315D02*
D03*
X4119Y7371D02*
D03*
X4202Y7188D02*
D03*
X4114Y7117D02*
D03*
X4119Y7249D02*
D03*
X4035Y7303D02*
D03*
X4032Y7188D02*
D03*
X4035Y7069D02*
D03*
X7248Y6434D02*
D03*
X7245Y6553D02*
D03*
X7248Y6668D02*
D03*
X7332Y6614D02*
D03*
X7327Y6482D02*
D03*
X7416Y6553D02*
D03*
X7332Y6736D02*
D03*
X7418Y6680D02*
D03*
X7416Y6439D02*
D03*
X7410Y6812D02*
D03*
X7413Y7054D02*
D03*
X7327Y7109D02*
D03*
X7410Y6927D02*
D03*
X7322Y6855D02*
D03*
X7327Y6988D02*
D03*
X7243Y7041D02*
D03*
X7240Y6927D02*
D03*
X7243Y6807D02*
D03*
X6786Y6520D02*
D03*
X6783Y6640D02*
D03*
X6786Y6754D02*
D03*
X6869Y6701D02*
D03*
X6864Y6568D02*
D03*
X6953Y6640D02*
D03*
X6869Y6822D02*
D03*
X6956Y6767D02*
D03*
X6953Y6525D02*
D03*
X6948Y6899D02*
D03*
X6951Y7140D02*
D03*
X6864Y7196D02*
D03*
X6948Y7013D02*
D03*
X6859Y6942D02*
D03*
X6864Y7074D02*
D03*
X6781Y7127D02*
D03*
X6778Y7013D02*
D03*
X6781Y6894D02*
D03*
X6384Y6652D02*
D03*
X6382Y6772D02*
D03*
X6384Y6886D02*
D03*
X6468Y6833D02*
D03*
X6463Y6701D02*
D03*
X6552Y6772D02*
D03*
X6468Y6955D02*
D03*
X6554Y6899D02*
D03*
X6552Y6657D02*
D03*
X6547Y7031D02*
D03*
X6549Y7272D02*
D03*
X6463Y7328D02*
D03*
X6547Y7145D02*
D03*
X6458Y7074D02*
D03*
X6463Y7206D02*
D03*
X6379Y7259D02*
D03*
X6377Y7145D02*
D03*
X6379Y7026D02*
D03*
X6857Y7455D02*
D03*
X6854Y7574D02*
D03*
X6857Y7689D02*
D03*
X6941Y7635D02*
D03*
X6936Y7503D02*
D03*
X7024Y7574D02*
D03*
X6941Y7757D02*
D03*
X7027Y7701D02*
D03*
X7024Y7460D02*
D03*
X7019Y7833D02*
D03*
X7022Y8075D02*
D03*
X6936Y8131D02*
D03*
X7019Y7948D02*
D03*
X6930Y7877D02*
D03*
X6936Y8009D02*
D03*
X6852Y8062D02*
D03*
X6849Y7948D02*
D03*
X6852Y7828D02*
D03*
X7173Y8151D02*
D03*
X7292Y8153D02*
D03*
X7406Y8151D02*
D03*
X7353Y8067D02*
D03*
X7221Y8072D02*
D03*
X7292Y7983D02*
D03*
X7475Y8067D02*
D03*
X7419Y7981D02*
D03*
X7178Y7983D02*
D03*
X7551Y7988D02*
D03*
X7792Y7986D02*
D03*
X7848Y8072D02*
D03*
X7665Y7988D02*
D03*
X7594Y8077D02*
D03*
X7726Y8072D02*
D03*
X7780Y8156D02*
D03*
X7665Y8158D02*
D03*
X7546Y8156D02*
D03*
X8843Y7668D02*
D03*
X8840Y7788D02*
D03*
X8843Y7902D02*
D03*
X8927Y7849D02*
D03*
X8922Y7717D02*
D03*
X9011Y7788D02*
D03*
X8927Y7971D02*
D03*
X9013Y7915D02*
D03*
X9011Y7673D02*
D03*
X9006Y8047D02*
D03*
X9008Y8288D02*
D03*
X9006Y8161D02*
D03*
X8917Y8090D02*
D03*
X8922Y8222D02*
D03*
X8838Y8275D02*
D03*
X8835Y8161D02*
D03*
X8838Y8042D02*
D03*
X6752Y7922D02*
D03*
X6755Y7803D02*
D03*
X6752Y7689D02*
D03*
X6669Y7742D02*
D03*
X6674Y7874D02*
D03*
X6585Y7803D02*
D03*
X6669Y7620D02*
D03*
X6582Y7676D02*
D03*
X6585Y7917D02*
D03*
X6590Y7544D02*
D03*
X6306Y7597D02*
D03*
X6674Y7247D02*
D03*
X6590Y7429D02*
D03*
X6679Y7501D02*
D03*
X6674Y7369D02*
D03*
X6757Y7315D02*
D03*
X6760Y7429D02*
D03*
X6757Y7549D02*
D03*
X16341Y3035D02*
D03*
X16460Y3038D02*
D03*
X16575Y3035D02*
D03*
X16521Y2951D02*
D03*
X16389Y2957D02*
D03*
X16460Y2868D02*
D03*
X16643Y2951D02*
D03*
X16588Y2865D02*
D03*
X16346Y2868D02*
D03*
X15973Y2863D02*
D03*
X16214Y2860D02*
D03*
X16270Y2946D02*
D03*
X16087Y2863D02*
D03*
X16016Y2951D02*
D03*
X16148Y2946D02*
D03*
X16201Y3030D02*
D03*
X16087Y3033D02*
D03*
X15968Y3030D02*
D03*
X15973Y3320D02*
D03*
X16092Y3322D02*
D03*
X16207Y3320D02*
D03*
X16153Y3236D02*
D03*
X16021Y3241D02*
D03*
X16092Y3152D02*
D03*
X16275Y3236D02*
D03*
X16219Y3150D02*
D03*
X15978Y3152D02*
D03*
X15605Y3147D02*
D03*
X15846Y3145D02*
D03*
X15902Y3231D02*
D03*
X15719Y3147D02*
D03*
X15648Y3236D02*
D03*
X15780Y3231D02*
D03*
X15833Y3315D02*
D03*
X15719Y3317D02*
D03*
X15599Y3315D02*
D03*
X16029Y3619D02*
D03*
X16148Y3622D02*
D03*
X16262Y3619D02*
D03*
X16209Y3536D02*
D03*
X16077Y3541D02*
D03*
X16148Y3452D02*
D03*
X16331Y3536D02*
D03*
X16275Y3449D02*
D03*
X16034Y3452D02*
D03*
X15660Y3447D02*
D03*
X15902Y3444D02*
D03*
X15958Y3531D02*
D03*
X15775Y3447D02*
D03*
X15704Y3536D02*
D03*
X15836Y3531D02*
D03*
X15889Y3614D02*
D03*
X15775Y3617D02*
D03*
X15655Y3614D02*
D03*
X14329Y4188D02*
D03*
X14449Y4191D02*
D03*
X14563Y4188D02*
D03*
X14510Y4105D02*
D03*
X14378Y4110D02*
D03*
X14449Y4021D02*
D03*
X14632Y4105D02*
D03*
X14576Y4018D02*
D03*
X14335Y4021D02*
D03*
X13961Y4016D02*
D03*
X14202Y4013D02*
D03*
X14258Y4100D02*
D03*
X14136D02*
D03*
X14190Y4183D02*
D03*
X13956D02*
D03*
X14914Y4064D02*
D03*
X13882Y5377D02*
D03*
X13880Y5497D02*
D03*
X13882Y5611D02*
D03*
X13966Y5558D02*
D03*
X13961Y5425D02*
D03*
X14050Y5497D02*
D03*
X13966Y5679D02*
D03*
X14053Y5624D02*
D03*
X14050Y5382D02*
D03*
X14055Y5009D02*
D03*
X14058Y5250D02*
D03*
X13971Y5306D02*
D03*
X14055Y5123D02*
D03*
X13966Y5052D02*
D03*
X13971Y5184D02*
D03*
X13887Y5237D02*
D03*
X13885Y5123D02*
D03*
X13887Y5004D02*
D03*
X16875Y1699D02*
D03*
X16755Y1697D02*
D03*
X16641Y1699D02*
D03*
X16694Y1783D02*
D03*
X16826Y1778D02*
D03*
X16755Y1867D02*
D03*
X16572Y1783D02*
D03*
X16628Y1869D02*
D03*
X16869Y1867D02*
D03*
X17243Y1872D02*
D03*
X17002Y1875D02*
D03*
X16946Y1788D02*
D03*
X17129Y1872D02*
D03*
X17200Y1783D02*
D03*
X17068Y1788D02*
D03*
X17014Y1704D02*
D03*
X17129Y1702D02*
D03*
X17248Y1704D02*
D03*
X17662Y2200D02*
D03*
X17781Y2202D02*
D03*
X17896Y2200D02*
D03*
X17842Y2116D02*
D03*
X17710Y2121D02*
D03*
X17781Y2032D02*
D03*
X17964Y2116D02*
D03*
X17908Y2029D02*
D03*
X17667Y2032D02*
D03*
X17294Y2027D02*
D03*
X17535Y2024D02*
D03*
X17591Y2111D02*
D03*
X17408Y2027D02*
D03*
X17337Y2116D02*
D03*
X17469Y2111D02*
D03*
X17522Y2195D02*
D03*
X17408Y2197D02*
D03*
X17289Y2195D02*
D03*
X14048Y2299D02*
D03*
X14167Y2301D02*
D03*
X14281Y2299D02*
D03*
X14228Y2215D02*
D03*
X14096Y2220D02*
D03*
X14167Y2131D02*
D03*
X14350Y2215D02*
D03*
X14294Y2129D02*
D03*
X14053Y2131D02*
D03*
X13679Y2126D02*
D03*
X13921Y2123D02*
D03*
X13976Y2210D02*
D03*
X13793Y2126D02*
D03*
X13722Y2215D02*
D03*
X13854Y2210D02*
D03*
X13908Y2294D02*
D03*
X13793Y2296D02*
D03*
X13674Y2294D02*
D03*
X15292Y2314D02*
D03*
X15411Y2316D02*
D03*
X15526Y2314D02*
D03*
X15472Y2230D02*
D03*
X15340Y2235D02*
D03*
X15411Y2146D02*
D03*
X15594Y2230D02*
D03*
X15538Y2144D02*
D03*
X15297Y2146D02*
D03*
X14924Y2141D02*
D03*
X15165Y2139D02*
D03*
X15221Y2225D02*
D03*
X15038Y2141D02*
D03*
X14967Y2230D02*
D03*
X15099Y2225D02*
D03*
X15152Y2309D02*
D03*
X15038Y2311D02*
D03*
X14919Y2309D02*
D03*
X16669Y10005D02*
D03*
X16560Y9583D02*
D03*
X16158Y9126D02*
D03*
X2435Y2789D02*
D03*
X2028Y1989D02*
D03*
X1957Y1773D02*
D03*
X1906Y1580D02*
D03*
X2719Y1547D02*
D03*
X2945Y1562D02*
D03*
X3044Y1717D02*
D03*
X3085Y1532D02*
D03*
X3951Y1798D02*
D03*
X3976Y1603D02*
D03*
X3895Y1514D02*
D03*
X4050Y1732D02*
D03*
X3832Y1887D02*
D03*
X3067Y2383D02*
D03*
X27113Y2520D02*
D03*
X27332Y2385D02*
D03*
X27184Y2344D02*
D03*
X27248Y2494D02*
D03*
X28137Y1913D02*
D03*
X28297Y1953D02*
D03*
X27987Y2009D02*
D03*
X27416Y1283D02*
D03*
X27596Y1166D02*
D03*
X27697Y1173D02*
D03*
X28691Y1321D02*
D03*
X28800Y1191D02*
D03*
X26031Y1552D02*
D03*
X26275Y1450D02*
D03*
X26153Y1702D02*
D03*
X26140Y1450D02*
D03*
X26405Y940D02*
D03*
X26212Y742D02*
D03*
X25986Y625D02*
D03*
X27545Y511D02*
D03*
X27563Y330D02*
D03*
X26577Y775D02*
D03*
X25792Y897D02*
D03*
X25805Y620D02*
D03*
X28183Y2700D02*
D03*
X28317Y2675D02*
D03*
X27974Y2609D02*
D03*
X29813Y3437D02*
D03*
X29851Y4003D02*
D03*
X28350Y4696D02*
D03*
X28287Y4557D02*
D03*
X23235Y5161D02*
D03*
X26890Y1394D02*
D03*
X26737Y1407D02*
D03*
X2104Y2223D02*
D03*
X2463D02*
D03*
X2450Y2118D02*
D03*
X3550Y1085D02*
D03*
X3682Y1080D02*
D03*
X3611Y952D02*
D03*
X4075Y1250D02*
D03*
X4159Y1346D02*
D03*
X3821Y2390D02*
D03*
X3918Y2294D02*
D03*
X1934Y10094D02*
D03*
X1789Y9876D02*
D03*
X1601Y9754D02*
D03*
X1495Y9566D02*
D03*
X1464Y9820D02*
D03*
X1609Y9870D02*
D03*
X1711Y10028D02*
D03*
X1891Y10274D02*
D03*
X1970Y10259D02*
D03*
X1899Y9921D02*
D03*
X1962Y9812D02*
D03*
X1731Y9741D02*
D03*
X1632Y9609D02*
D03*
X4855Y10051D02*
D03*
X4977Y10094D02*
D03*
X4964Y9934D02*
D03*
X4776Y10188D02*
D03*
X26351Y9609D02*
D03*
X26501Y9733D02*
D03*
X26661Y9766D02*
D03*
X25734Y9947D02*
D03*
X25577Y9891D02*
D03*
X23849Y11529D02*
D03*
X23758Y11394D02*
D03*
X23801Y11466D02*
D03*
X23740Y11529D02*
D03*
X23651Y11392D02*
D03*
X23694Y11463D02*
D03*
X24370Y12078D02*
D03*
X24337Y11968D02*
D03*
X24456Y12009D02*
D03*
X21599Y8346D02*
D03*
X21594Y8733D02*
D03*
X21802Y8004D02*
D03*
X22150Y7811D02*
D03*
X22684D02*
D03*
X22386Y7775D02*
D03*
X22480Y7899D02*
D03*
X12090Y11996D02*
D03*
X11836Y12055D02*
D03*
X12021Y10960D02*
D03*
X12123Y11803D02*
D03*
Y11671D02*
D03*
X12101Y11902D02*
D03*
X20800Y2525D02*
D03*
X20820Y2466D02*
D03*
X20792Y2408D02*
D03*
X20825Y2316D02*
D03*
X4227Y9774D02*
D03*
X4155Y10505D02*
D03*
X4247Y10495D02*
D03*
X4328Y10493D02*
D03*
D146*
X19125Y2151D02*
D03*
X19168Y2027D02*
D03*
X19963Y9241D02*
D03*
X19209Y9251D02*
D03*
X13090Y9243D02*
D03*
X13092Y8240D02*
D03*
X12789Y8297D02*
D03*
X19031Y8407D02*
D03*
X5959Y8857D02*
D03*
Y9287D02*
D03*
X5406Y10452D02*
D03*
X12440Y12476D02*
D03*
X12444Y12807D02*
D03*
X8958Y12814D02*
D03*
X6730Y9215D02*
D03*
X6105Y8590D02*
D03*
X2358Y8849D02*
D03*
X12790Y9492D02*
D03*
X12950Y9479D02*
D03*
X3600Y9718D02*
D03*
X3369D02*
D03*
X4749Y8915D02*
D03*
X5668Y8857D02*
D03*
X5765Y7183D02*
D03*
X2851Y7214D02*
D03*
X9841Y12489D02*
D03*
X24473Y10555D02*
D03*
X24489Y9555D02*
D03*
X26349Y9898D02*
D03*
X28259Y3584D02*
D03*
X27913Y7175D02*
D03*
X26631Y7165D02*
D03*
X25577Y7170D02*
D03*
X2699Y4107D02*
D03*
X24619Y7033D02*
D03*
X24627Y8583D02*
D03*
X3931Y9718D02*
D03*
X2369Y7361D02*
D03*
X2356Y9718D02*
D03*
X27926Y3327D02*
D03*
X28368Y7381D02*
D03*
X28371Y9682D02*
D03*
X28868Y6129D02*
D03*
X27052Y9688D02*
D03*
X28150Y9682D02*
D03*
X28871Y5735D02*
D03*
X29521Y6304D02*
D03*
X18454Y2456D02*
D03*
X20230Y8412D02*
D03*
X19036Y9131D02*
D03*
X21309Y5227D02*
D03*
X21838Y3294D02*
D03*
X21835Y2731D02*
D03*
X21287Y2263D02*
D03*
X20334Y2520D02*
D03*
X20271Y2715D02*
D03*
X20268Y2631D02*
D03*
X20243Y2525D02*
D03*
X20116Y2377D02*
D03*
X20032Y2289D02*
D03*
X19900Y2659D02*
D03*
X20052Y2685D02*
D03*
X19986Y2588D02*
D03*
X19859Y2471D02*
D03*
X18137Y2469D02*
D03*
X17093Y2489D02*
D03*
X16529Y2738D02*
D03*
X19102Y1961D02*
D03*
X19107Y1717D02*
D03*
X18960Y1803D02*
D03*
X19503Y2149D02*
D03*
X19455Y2007D02*
D03*
X19448Y1849D02*
D03*
X19572Y1999D02*
D03*
X19879Y2032D02*
D03*
X20062Y2035D02*
D03*
X20352Y2037D02*
D03*
X20316Y1669D02*
D03*
X19882Y1897D02*
D03*
X19712Y1618D02*
D03*
X20072Y1676D02*
D03*
X19890Y1702D02*
D03*
X20217Y1574D02*
D03*
X20634Y1549D02*
D03*
X20441Y1618D02*
D03*
X20799Y1593D02*
D03*
X20989Y1534D02*
D03*
X21360Y1725D02*
D03*
X20860Y3594D02*
D03*
X20997Y3665D02*
D03*
X21043Y3523D02*
D03*
X21050Y3358D02*
D03*
X20748Y3711D02*
D03*
X21739Y7460D02*
D03*
X21609Y7348D02*
D03*
X21525Y7145D02*
D03*
X21441Y7031D02*
D03*
X21144Y7023D02*
D03*
X21325Y7059D02*
D03*
X21695Y7054D02*
D03*
X28937Y4641D02*
D03*
X28876Y4557D02*
D03*
X29031Y4519D02*
D03*
X29196Y4369D02*
D03*
X29247Y4232D02*
D03*
X28843Y3713D02*
D03*
X29143Y3706D02*
D03*
X28985Y3719D02*
D03*
X29239Y3782D02*
D03*
X29351Y2850D02*
D03*
X26900Y11224D02*
D03*
X27106Y11026D02*
D03*
X27659Y10376D02*
D03*
X27441Y10188D02*
D03*
X27934D02*
D03*
X27629Y10147D02*
D03*
X27786Y10267D02*
D03*
X28665Y8560D02*
D03*
X28942Y8341D02*
D03*
X28744D02*
D03*
X28774Y8529D02*
D03*
X28901Y8481D02*
D03*
X29188Y9141D02*
D03*
X29404Y8786D02*
D03*
X29247Y8854D02*
D03*
X29465Y9032D02*
D03*
X29503Y8588D02*
D03*
X29582Y8786D02*
D03*
X27294Y11765D02*
D03*
X27520Y11598D02*
D03*
X27954Y11252D02*
D03*
X28211Y10937D02*
D03*
X28340Y10790D02*
D03*
X28508Y10632D02*
D03*
X28607Y10513D02*
D03*
X28703Y10394D02*
D03*
X28802Y10257D02*
D03*
X28922Y10079D02*
D03*
X28932Y9843D02*
D03*
X28912Y9733D02*
D03*
X29120Y9792D02*
D03*
X29346Y9357D02*
D03*
X28980Y9032D02*
D03*
X28152Y11173D02*
D03*
X28023Y11057D02*
D03*
X27697Y11402D02*
D03*
X27677Y11648D02*
D03*
X27461Y11796D02*
D03*
X27106Y12022D02*
D03*
X26948Y12151D02*
D03*
X26367Y12466D02*
D03*
X26514Y12418D02*
D03*
X25566Y12764D02*
D03*
X25785Y12753D02*
D03*
X25932Y12723D02*
D03*
X5109Y5184D02*
D03*
X5279Y5027D02*
D03*
X5036Y4958D02*
D03*
X5117Y5067D02*
D03*
X5251Y5146D02*
D03*
X5417Y5027D02*
D03*
X5173Y4930D02*
D03*
X5513D02*
D03*
X5831Y4917D02*
D03*
X5881Y4747D02*
D03*
X5792Y4585D02*
D03*
X4888Y4783D02*
D03*
X4878Y4976D02*
D03*
X4769Y4971D02*
D03*
X4672Y4844D02*
D03*
X4644Y4641D02*
D03*
X4576Y4691D02*
D03*
X4396Y4770D02*
D03*
X4718Y4709D02*
D03*
X4906Y4623D02*
D03*
X4776Y4608D02*
D03*
X5008Y4755D02*
D03*
X4815Y4879D02*
D03*
X4883Y5326D02*
D03*
X4975Y5123D02*
D03*
X5389Y4925D02*
D03*
X4474Y4669D02*
D03*
X5053Y4595D02*
D03*
X5269Y4585D02*
D03*
X5632Y4572D02*
D03*
X5429Y4577D02*
D03*
X6087Y4554D02*
D03*
X6773D02*
D03*
X6763Y4806D02*
D03*
X6966Y4516D02*
D03*
X7002Y4328D02*
D03*
X6836Y4435D02*
D03*
X6636Y4572D02*
D03*
X6801Y4719D02*
D03*
X7080Y4448D02*
D03*
X7108Y4300D02*
D03*
X7029Y5215D02*
D03*
X7045Y5083D02*
D03*
X7108Y4907D02*
D03*
X7126Y5243D02*
D03*
X6359Y4895D02*
D03*
X6176Y4907D02*
D03*
X6636Y4895D02*
D03*
X6354Y4567D02*
D03*
X6552Y4585D02*
D03*
X5678Y4907D02*
D03*
X4741Y5339D02*
D03*
X4441Y7280D02*
D03*
Y7130D02*
D03*
X4439Y6934D02*
D03*
X4436Y6774D02*
D03*
X4655Y7315D02*
D03*
X4647Y7135D02*
D03*
Y6861D02*
D03*
Y6566D02*
D03*
X4601Y6187D02*
D03*
X4467Y6167D02*
D03*
X4307Y6251D02*
D03*
X4004Y6271D02*
D03*
X3694D02*
D03*
X3359D02*
D03*
X3054Y6251D02*
D03*
X2902Y6248D02*
D03*
X3258Y6223D02*
D03*
X3468Y6187D02*
D03*
X3827Y6210D02*
D03*
X4225Y6213D02*
D03*
X3773Y6802D02*
D03*
X3631Y6866D02*
D03*
X3885Y6909D02*
D03*
X3915Y6767D02*
D03*
X5158Y6901D02*
D03*
X5236Y6774D02*
D03*
X5053Y6767D02*
D03*
X5305Y6914D02*
D03*
X6481Y6980D02*
D03*
X6443Y7793D02*
D03*
Y7615D02*
D03*
X6435Y7457D02*
D03*
X6242Y7463D02*
D03*
X6191Y7597D02*
D03*
X6219Y7744D02*
D03*
X6346Y7696D02*
D03*
X6219Y7254D02*
D03*
X6201Y6924D02*
D03*
X6298Y6812D02*
D03*
X6270Y7099D02*
D03*
X6156Y7361D02*
D03*
X6697Y6957D02*
D03*
X6638Y7130D02*
D03*
X6661Y6723D02*
D03*
X6636Y6383D02*
D03*
X6496Y6253D02*
D03*
X6313Y6172D02*
D03*
X6384Y6523D02*
D03*
X7156Y6548D02*
D03*
X7083Y6952D02*
D03*
Y7150D02*
D03*
X7306Y7343D02*
D03*
X7159Y7630D02*
D03*
X7134Y7811D02*
D03*
X7309Y7866D02*
D03*
X7228Y7178D02*
D03*
X7080Y6782D02*
D03*
X7070Y6642D02*
D03*
X15297Y4102D02*
D03*
X15117Y4046D02*
D03*
X15267Y3970D02*
D03*
X15521D02*
D03*
X15620Y3917D02*
D03*
X15777Y3848D02*
D03*
X15391Y3995D02*
D03*
X13730Y5098D02*
D03*
X13725Y4793D02*
D03*
X13755Y4630D02*
D03*
X13928Y4851D02*
D03*
X13717Y4945D02*
D03*
X13854Y4729D02*
D03*
X14073Y4737D02*
D03*
X14114Y4925D02*
D03*
X13839Y4519D02*
D03*
X13862Y4407D02*
D03*
X14319Y5083D02*
D03*
X14174Y5560D02*
D03*
X14286Y5497D02*
D03*
X14159Y5042D02*
D03*
X13458Y7602D02*
D03*
X13877Y7955D02*
D03*
X14073Y8153D02*
D03*
X14418Y2982D02*
D03*
X15709Y2918D02*
D03*
X15356Y3216D02*
D03*
X12430Y4615D02*
D03*
X12470Y4503D02*
D03*
X12518Y4829D02*
D03*
X12511Y4923D02*
D03*
X12407Y5596D02*
D03*
X12531Y5545D02*
D03*
X12442Y5431D02*
D03*
X12379Y5316D02*
D03*
X11474Y5062D02*
D03*
X11381Y5240D02*
D03*
X11579Y5116D02*
D03*
X11398Y4905D02*
D03*
X11650Y4991D02*
D03*
X11449Y4374D02*
D03*
X11596Y4282D02*
D03*
X12470Y6096D02*
D03*
X12935Y6124D02*
D03*
X13334Y6109D02*
D03*
X14327Y8217D02*
D03*
X14223Y8047D02*
D03*
X14030Y7846D02*
D03*
X13829Y7689D02*
D03*
X13664Y7767D02*
D03*
X13649Y7432D02*
D03*
X13489Y7348D02*
D03*
X13326Y7404D02*
D03*
X13296Y7683D02*
D03*
X13456Y7813D02*
D03*
X13854Y8192D02*
D03*
X13341Y8197D02*
D03*
X13644Y8186D02*
D03*
X15465Y7932D02*
D03*
X15904Y7912D02*
D03*
X15132Y8021D02*
D03*
X15691Y7963D02*
D03*
X17850Y5116D02*
D03*
X17959Y5182D02*
D03*
X18028Y5121D02*
D03*
X18000Y5062D02*
D03*
X17918Y5050D02*
D03*
X17921Y5123D02*
D03*
X17433Y7442D02*
D03*
X17416Y7305D02*
D03*
X16158Y8031D02*
D03*
X23776Y10424D02*
D03*
Y11209D02*
D03*
X24180Y12215D02*
D03*
X24182Y12568D02*
D03*
X24369Y10296D02*
D03*
X24595D02*
D03*
M02*
