M48
;Layer_Color=9474304
;FILE_FORMAT=4:2
METRIC,LZ
;TYPE=PLATED
T6F00S00C1.00
T8F00S00C1.20
T10F00S00C1.60
%
G90
G05
T06
G00X028599Y006292
M15
G01Y006312
M16
G00X029206Y00631
M15
G01Y00629
M16
G00X029206Y00811
M15
G01Y00809
M16
G00X028599Y008092
M15
G01Y008112
M16
G00X001497Y007975
M15
G01Y008015
M16
G00X0009Y008016
M15
G01Y007976
M16
G00X0009Y006216
M15
G01Y006176
M16
G00X001497Y006175
M15
G01Y006215
M16
T08
G00X020929Y000835
M15
G01X020969
M16
G00X021529Y000835
M15
G01X021569
M16
G00X019027Y000835
M15
G01X019067
M16
G00X018427Y000835
M15
G01X018467
M16
G00X016525Y00084
M15
G01X016565
M16
G00X015925Y00084
M15
G01X015965
M16
G00X014031Y000835
M15
G01X014071
M16
G00X013431Y000835
M15
G01X013471
M16
G00X011531Y000833
M15
G01X011571
M16
G00X010931Y000833
M15
G01X010971
M16
G00X009024Y000839
M15
G01X009064
M16
G00X008424Y000839
M15
G01X008464
M16
G00X008424Y001299
M15
G01X008464
M16
G00X009024Y001299
M15
G01X009064
M16
G00X010931Y001293
M15
G01X010971
M16
G00X011531Y001293
M15
G01X011571
M16
G00X013431Y001295
M15
G01X013471
M16
G00X014031Y001295
M15
G01X014071
M16
G00X015925Y0013
M15
G01X015965
M16
G00X016525Y0013
M15
G01X016565
M16
G00X018427Y001295
M15
G01X018467
M16
G00X019027Y001295
M15
G01X019067
M16
G00X020929Y001295
M15
G01X020969
M16
G00X021529Y001295
M15
G01X021569
M16
T10
G00X007409Y005948
M15
G01Y005988
M16
G00X007409Y007639
M15
G01Y007679
M16
M17
M30
