%FSLAX42Y42*%
%MOMM*%
G71*
G01*
G75*
G04 Layer_Color=16711935*
%ADD10C,0.25*%
%ADD11R,1.60X2.70*%
%ADD12R,2.70X1.60*%
%ADD13C,1.00*%
%ADD14C,0.25*%
%ADD15C,0.50*%
%ADD16C,0.30*%
%ADD17C,0.35*%
%ADD18C,1.00*%
%ADD19C,1.20*%
%ADD20C,0.20*%
%ADD21C,0.40*%
%ADD22C,0.80*%
%ADD23C,0.60*%
%ADD24O,2.40X2.00*%
%ADD25O,1.40X2.50*%
%ADD26R,1.40X2.50*%
%ADD27C,1.70*%
%ADD28R,2.50X1.40*%
%ADD29O,2.50X1.40*%
%ADD30O,2.00X2.30*%
%ADD31O,2.00X3.00*%
%ADD32P,2.71X8X292.5*%
%ADD33C,2.50*%
%ADD34O,1.20X2.50*%
%ADD35R,1.20X2.50*%
%ADD36C,3.00*%
%ADD37C,0.60*%
%ADD38C,0.80*%
%ADD39R,0.50X1.10*%
%ADD40R,1.30X1.30*%
%ADD41R,1.10X0.50*%
%ADD42R,1.30X1.30*%
%ADD43R,1.35X0.70*%
%ADD44R,1.80X0.70*%
G04:AMPARAMS|DCode=45|XSize=1.9mm|YSize=3.3mm|CornerRadius=0mm|HoleSize=0mm|Usage=FLASHONLY|Rotation=90.000|XOffset=0mm|YOffset=0mm|HoleType=Round|Shape=Octagon|*
%AMOCTAGOND45*
4,1,8,-1.65,-0.47,-1.65,0.47,-1.17,0.95,1.17,0.95,1.65,0.47,1.65,-0.47,1.17,-0.95,-1.17,-0.95,-1.65,-0.47,0.0*
%
%ADD45OCTAGOND45*%

%ADD46R,1.60X1.80*%
%ADD47R,1.80X1.60*%
%ADD48R,1.65X0.60*%
%ADD49R,1.80X1.60*%
%ADD50P,1.84X4X360.0*%
%ADD51P,1.84X4X90.0*%
%ADD52R,3.00X2.00*%
%ADD53R,1.80X2.70*%
%ADD54R,1.20X1.60*%
%ADD55R,1.80X2.00*%
%ADD56R,2.50X2.00*%
%ADD57R,1.20X3.50*%
%ADD58R,2.20X2.20*%
G04:AMPARAMS|DCode=59|XSize=2.2mm|YSize=2.2mm|CornerRadius=0.55mm|HoleSize=0mm|Usage=FLASHONLY|Rotation=270.000|XOffset=0mm|YOffset=0mm|HoleType=Round|Shape=RoundedRectangle|*
%AMROUNDEDRECTD59*
21,1,2.20,1.10,0,0,270.0*
21,1,1.10,2.20,0,0,270.0*
1,1,1.10,-0.55,-0.55*
1,1,1.10,-0.55,0.55*
1,1,1.10,0.55,0.55*
1,1,1.10,0.55,-0.55*
%
%ADD59ROUNDEDRECTD59*%
%ADD60R,2.00X1.80*%
G04:AMPARAMS|DCode=61|XSize=6mm|YSize=12.7mm|CornerRadius=1.5mm|HoleSize=0mm|Usage=FLASHONLY|Rotation=0.000|XOffset=0mm|YOffset=0mm|HoleType=Round|Shape=RoundedRectangle|*
%AMROUNDEDRECTD61*
21,1,6.00,9.70,0,0,0.0*
21,1,3.00,12.70,0,0,0.0*
1,1,3.00,1.50,-4.85*
1,1,3.00,-1.50,-4.85*
1,1,3.00,-1.50,4.85*
1,1,3.00,1.50,4.85*
%
%ADD61ROUNDEDRECTD61*%
%ADD62R,1.00X1.00*%
%ADD63R,1.30X1.00*%
%ADD64R,1.60X1.20*%
%ADD65R,2.60X1.60*%
%ADD66R,1.10X2.15*%
%ADD67R,1.10X2.15*%
%ADD68R,3.50X2.15*%
%ADD69R,2.15X3.50*%
%ADD70R,2.15X1.10*%
%ADD71R,2.15X1.10*%
%ADD72R,0.50X1.80*%
%ADD73O,0.50X1.80*%
%ADD74R,1.00X1.00*%
%ADD75R,1.00X1.30*%
%ADD76R,2.50X4.00*%
%ADD77O,1.80X0.55*%
%ADD78R,1.80X0.55*%
%ADD79R,2.50X3.30*%
%ADD80O,1.80X0.50*%
%ADD81R,1.80X0.50*%
G04:AMPARAMS|DCode=82|XSize=1.9mm|YSize=3.3mm|CornerRadius=0mm|HoleSize=0mm|Usage=FLASHONLY|Rotation=0.000|XOffset=0mm|YOffset=0mm|HoleType=Round|Shape=Octagon|*
%AMOCTAGOND82*
4,1,8,-0.47,1.65,0.47,1.65,0.95,1.17,0.95,-1.17,0.47,-1.65,-0.47,-1.65,-0.95,-1.17,-0.95,1.17,-0.47,1.65,0.0*
%
%ADD82OCTAGOND82*%

%ADD83R,0.70X1.80*%
%ADD84R,0.70X1.35*%
%ADD85R,5.80X6.20*%
%ADD86R,1.60X3.00*%
%ADD87R,1.27X0.50*%
%ADD88R,0.50X1.27*%
%ADD89R,1.60X1.80*%
G04:AMPARAMS|DCode=90|XSize=6mm|YSize=12.7mm|CornerRadius=1.5mm|HoleSize=0mm|Usage=FLASHONLY|Rotation=90.000|XOffset=0mm|YOffset=0mm|HoleType=Round|Shape=RoundedRectangle|*
%AMROUNDEDRECTD90*
21,1,6.00,9.70,0,0,90.0*
21,1,3.00,12.70,0,0,90.0*
1,1,3.00,4.85,1.50*
1,1,3.00,4.85,-1.50*
1,1,3.00,-4.85,-1.50*
1,1,3.00,-4.85,1.50*
%
%ADD90ROUNDEDRECTD90*%
%ADD91R,2.00X3.00*%
%ADD92R,1.00X4.50*%
%ADD93R,9.00X9.00*%
%ADD94R,0.25X2.00*%
%ADD95R,2.00X0.25*%
%ADD96R,1.90X1.60*%
%ADD97R,1.45X2.00*%
%ADD98O,1.60X0.25*%
%ADD99R,1.60X0.25*%
G04:AMPARAMS|DCode=100|XSize=5mm|YSize=1.6mm|CornerRadius=0.4mm|HoleSize=0mm|Usage=FLASHONLY|Rotation=90.000|XOffset=0mm|YOffset=0mm|HoleType=Round|Shape=RoundedRectangle|*
%AMROUNDEDRECTD100*
21,1,5.00,0.80,0,0,90.0*
21,1,4.20,1.60,0,0,90.0*
1,1,0.80,0.40,2.10*
1,1,0.80,0.40,-2.10*
1,1,0.80,-0.40,-2.10*
1,1,0.80,-0.40,2.10*
%
%ADD100ROUNDEDRECTD100*%
%ADD101R,0.60X1.65*%
%ADD102C,0.15*%
%ADD103R,6.05X6.05*%
%ADD104R,4.95X6.30*%
%ADD105R,1.57X1.19*%
%ADD106C,0.10*%
%ADD107C,0.13*%
%ADD108C,0.14*%
%ADD109R,4.76X1.25*%
%ADD110R,4.69X1.25*%
%ADD111R,1.25X4.69*%
%ADD112R,1.25X4.76*%
%ADD113C,0.19*%
%ADD114C,0.20*%
%ADD115C,0.05*%
%ADD116C,0.30*%
%ADD117C,0.12*%
%ADD118R,0.16X0.27*%
%ADD119R,0.15X0.19*%
%ADD120R,0.19X0.28*%
%ADD121R,0.05X0.15*%
%ADD122R,0.06X0.18*%
%ADD123R,0.10X0.24*%
%ADD124R,0.09X0.15*%
%ADD125R,5.23X5.16*%
%ADD126R,3.33X8.53*%
%ADD127R,3.78X8.51*%
%ADD128R,7.52X1.80*%
%ADD129R,1.80X2.90*%
%ADD130R,2.90X1.80*%
%ADD131C,1.20*%
%ADD132O,2.60X2.20*%
%ADD133O,1.60X2.70*%
%ADD134R,1.60X2.70*%
%ADD135C,1.90*%
%ADD136R,2.70X1.60*%
%ADD137O,2.70X1.60*%
%ADD138O,2.20X2.50*%
%ADD139O,2.20X3.20*%
%ADD140P,2.93X8X292.5*%
%ADD141C,2.70*%
%ADD142O,1.40X2.70*%
%ADD143R,1.40X2.70*%
%ADD144C,3.20*%
%ADD145C,0.80*%
%ADD146C,1.00*%
%ADD147R,0.70X1.30*%
%ADD148R,1.50X1.50*%
%ADD149R,1.30X0.70*%
%ADD150R,1.50X1.50*%
%ADD151R,1.55X0.90*%
%ADD152R,2.00X0.90*%
G04:AMPARAMS|DCode=153|XSize=2.1mm|YSize=3.5mm|CornerRadius=0mm|HoleSize=0mm|Usage=FLASHONLY|Rotation=90.000|XOffset=0mm|YOffset=0mm|HoleType=Round|Shape=Octagon|*
%AMOCTAGOND153*
4,1,8,-1.75,-0.53,-1.75,0.53,-1.23,1.05,1.23,1.05,1.75,0.53,1.75,-0.53,1.23,-1.05,-1.23,-1.05,-1.75,-0.53,0.0*
%
%ADD153OCTAGOND153*%

%ADD154R,1.80X2.00*%
%ADD155R,2.00X1.80*%
%ADD156R,1.85X0.80*%
%ADD157R,2.00X1.80*%
%ADD158P,2.13X4X360.0*%
%ADD159P,2.13X4X90.0*%
%ADD160R,3.20X2.20*%
%ADD161R,2.00X2.90*%
%ADD162R,1.40X1.80*%
%ADD163R,2.00X2.20*%
%ADD164R,2.70X2.20*%
%ADD165R,1.40X3.70*%
%ADD166R,2.40X2.40*%
G04:AMPARAMS|DCode=167|XSize=2.4mm|YSize=2.4mm|CornerRadius=0.6mm|HoleSize=0mm|Usage=FLASHONLY|Rotation=270.000|XOffset=0mm|YOffset=0mm|HoleType=Round|Shape=RoundedRectangle|*
%AMROUNDEDRECTD167*
21,1,2.40,1.20,0,0,270.0*
21,1,1.20,2.40,0,0,270.0*
1,1,1.20,-0.60,-0.60*
1,1,1.20,-0.60,0.60*
1,1,1.20,0.60,0.60*
1,1,1.20,0.60,-0.60*
%
%ADD167ROUNDEDRECTD167*%
%ADD168R,2.20X2.00*%
G04:AMPARAMS|DCode=169|XSize=6.2mm|YSize=12.9mm|CornerRadius=1.55mm|HoleSize=0mm|Usage=FLASHONLY|Rotation=0.000|XOffset=0mm|YOffset=0mm|HoleType=Round|Shape=RoundedRectangle|*
%AMROUNDEDRECTD169*
21,1,6.20,9.80,0,0,0.0*
21,1,3.10,12.90,0,0,0.0*
1,1,3.10,1.55,-4.90*
1,1,3.10,-1.55,-4.90*
1,1,3.10,-1.55,4.90*
1,1,3.10,1.55,4.90*
%
%ADD169ROUNDEDRECTD169*%
%ADD170R,1.20X1.20*%
%ADD171R,1.50X1.20*%
%ADD172R,1.80X1.40*%
%ADD173R,2.80X1.80*%
%ADD174R,1.30X2.35*%
%ADD175R,1.30X2.35*%
%ADD176R,3.70X2.35*%
%ADD177R,2.35X3.70*%
%ADD178R,2.35X1.30*%
%ADD179R,2.35X1.30*%
%ADD180R,0.70X2.00*%
%ADD181O,0.70X2.00*%
%ADD182R,1.20X1.20*%
%ADD183R,1.20X1.50*%
%ADD184R,2.70X4.20*%
%ADD185O,2.00X0.75*%
%ADD186R,2.00X0.75*%
%ADD187R,2.70X3.50*%
%ADD188O,2.00X0.70*%
%ADD189R,2.00X0.70*%
G04:AMPARAMS|DCode=190|XSize=2.1mm|YSize=3.5mm|CornerRadius=0mm|HoleSize=0mm|Usage=FLASHONLY|Rotation=0.000|XOffset=0mm|YOffset=0mm|HoleType=Round|Shape=Octagon|*
%AMOCTAGOND190*
4,1,8,-0.53,1.75,0.53,1.75,1.05,1.23,1.05,-1.23,0.53,-1.75,-0.53,-1.75,-1.05,-1.23,-1.05,1.23,-0.53,1.75,0.0*
%
%ADD190OCTAGOND190*%

%ADD191R,0.90X2.00*%
%ADD192R,0.90X1.55*%
%ADD193R,6.00X6.40*%
%ADD194R,1.80X3.20*%
%ADD195R,1.47X0.70*%
%ADD196R,0.70X1.47*%
%ADD197R,1.80X2.00*%
G04:AMPARAMS|DCode=198|XSize=6.2mm|YSize=12.9mm|CornerRadius=1.55mm|HoleSize=0mm|Usage=FLASHONLY|Rotation=90.000|XOffset=0mm|YOffset=0mm|HoleType=Round|Shape=RoundedRectangle|*
%AMROUNDEDRECTD198*
21,1,6.20,9.80,0,0,90.0*
21,1,3.10,12.90,0,0,90.0*
1,1,3.10,4.90,1.55*
1,1,3.10,4.90,-1.55*
1,1,3.10,-4.90,-1.55*
1,1,3.10,-4.90,1.55*
%
%ADD198ROUNDEDRECTD198*%
%ADD199R,2.20X3.20*%
%ADD200R,1.20X4.70*%
%ADD201R,9.20X9.20*%
%ADD202R,0.45X2.20*%
%ADD203R,2.20X0.45*%
%ADD204R,2.10X1.80*%
%ADD205R,1.65X2.20*%
%ADD206O,1.80X0.45*%
%ADD207R,1.80X0.45*%
G04:AMPARAMS|DCode=208|XSize=5.2mm|YSize=1.8mm|CornerRadius=0.45mm|HoleSize=0mm|Usage=FLASHONLY|Rotation=90.000|XOffset=0mm|YOffset=0mm|HoleType=Round|Shape=RoundedRectangle|*
%AMROUNDEDRECTD208*
21,1,5.20,0.90,0,0,90.0*
21,1,4.30,1.80,0,0,90.0*
1,1,0.90,0.45,2.15*
1,1,0.90,0.45,-2.15*
1,1,0.90,-0.45,-2.15*
1,1,0.90,-0.45,2.15*
%
%ADD208ROUNDEDRECTD208*%
%ADD209R,0.80X1.85*%
D10*
X8206Y7893D02*
G03*
X8006Y7893I-100J0D01*
G01*
X8007Y6110D02*
G03*
X8207Y6109I100J-1D01*
G01*
X5100Y3986D02*
X6300D01*
X5100Y2786D02*
X6300D01*
X5099Y2785D02*
Y3986D01*
X6302Y2790D02*
Y3985D01*
X23697Y3986D02*
X24897D01*
X23697Y2787D02*
Y3986D01*
Y2787D02*
X23698Y2786D01*
X24897D02*
Y3986D01*
X23698Y2786D02*
X24897D01*
X8206Y7903D02*
X8208Y6103D01*
X8006Y6112D02*
Y7903D01*
D106*
X10120Y13290D02*
G03*
X10270Y13140I150J0D01*
G01*
X11290D02*
G03*
X11440Y13290I0J150D01*
G01*
X18645D02*
G03*
X18795Y13140I150J0D01*
G01*
X19815D02*
G03*
X19965Y13290I0J150D01*
G01*
X26230Y405D02*
G03*
X26080Y255I0J-150D01*
G01*
X27400D02*
G03*
X27250Y405I-150J0D01*
G01*
X19155Y255D02*
G03*
X19005Y405I-150J0D01*
G01*
X17985D02*
G03*
X17835Y255I0J-150D01*
G01*
X5651Y13214D02*
G03*
X0Y6770I849J-6444D01*
G01*
X30060D02*
G03*
X24409Y13214I-6500J0D01*
G01*
X0Y1100D02*
G03*
X1100Y0I1100J0D01*
G01*
X28960D02*
G03*
X30060Y1100I0J1100D01*
G01*
X24409Y13214D02*
G03*
X24210Y13240I-5879J-44614D01*
G01*
X24210D02*
G03*
X24041Y13257I-379J-2976D01*
G01*
X18645Y13600D02*
G03*
X18530Y13600I-115J-45000D01*
G01*
X11530D02*
G03*
X11440Y13600I0J-45000D01*
G01*
X6019Y13257D02*
G03*
X5850Y13240I209J-2993D01*
G01*
D02*
G03*
X5651Y13214I5680J-44640D01*
G01*
X3940Y255D02*
G03*
X3790Y405I-150J0D01*
G01*
X2770D02*
G03*
X2620Y255I0J-150D01*
G01*
X29515Y5645D02*
G03*
X29515Y5645I-170J0D01*
G01*
X18335Y13065D02*
G03*
X18335Y13065I-170J0D01*
G01*
X12025D02*
G03*
X12025Y13065I-170J0D01*
G01*
X825Y5665D02*
G03*
X825Y5665I-170J0D01*
G01*
X29210Y9460D02*
G03*
X29210Y9460I-155J0D01*
G01*
X1110Y9475D02*
G03*
X1110Y9475I-155J0D01*
G01*
X13630Y200D02*
G03*
X13630Y200I-155J0D01*
G01*
X7495Y12900D02*
G03*
X7495Y12900I-140J0D01*
G01*
X15460Y12880D02*
G03*
X15460Y12880I-140J0D01*
G01*
X24070D02*
G03*
X24070Y12880I-140J0D01*
G01*
X6215Y200D02*
G03*
X6215Y200I-140J0D01*
G01*
X14810D02*
G03*
X14810Y200I-140J0D01*
G01*
X24060D02*
G03*
X24060Y200I-140J0D01*
G01*
X24055Y12880D02*
G03*
X24055Y12880I-125J0D01*
G01*
X29195Y9460D02*
G03*
X29195Y9460I-140J0D01*
G01*
X29625Y5005D02*
G03*
X29625Y5005I-90J0D01*
G01*
X24045Y200D02*
G03*
X24045Y200I-125J0D01*
G01*
X15445Y12880D02*
G03*
X15445Y12880I-125J0D01*
G01*
X14795Y200D02*
G03*
X14795Y200I-125J0D01*
G01*
X7480Y12900D02*
G03*
X7480Y12900I-125J0D01*
G01*
X1095Y9475D02*
G03*
X1095Y9475I-140J0D01*
G01*
X615Y5005D02*
G03*
X615Y5005I-90J0D01*
G01*
X6200Y200D02*
G03*
X6200Y200I-125J0D01*
G01*
X2620Y0D02*
Y255D01*
X0Y0D02*
X2620D01*
X0D02*
Y6770D01*
X3940Y0D02*
Y255D01*
X17835Y0D02*
Y255D01*
X19155Y0D02*
Y255D01*
X26230Y405D02*
X27250D01*
X17985D02*
X19005D01*
X2770D02*
X3790D01*
X19155Y0D02*
X26080D01*
X3940D02*
X17835D01*
X26080D02*
Y255D01*
X27400Y0D02*
Y255D01*
X3980Y0D02*
X11305D01*
X26270Y405D02*
X27290D01*
X2810D02*
X3830D01*
X6019Y13257D02*
X10120Y13544D01*
X11530Y13600D02*
X18530D01*
X10270Y13140D02*
X11290D01*
X10120Y13290D02*
Y13544D01*
X11440Y13290D02*
Y13600D01*
X10245Y13140D02*
X11265D01*
X19965Y13542D02*
X24041Y13257D01*
X18795Y13140D02*
X19815D01*
X18645Y13290D02*
Y13600D01*
X19965Y13290D02*
Y13542D01*
X18770Y13140D02*
X19790D01*
X0Y-500D02*
Y0D01*
X27400D02*
X30060D01*
Y-500D02*
Y0D01*
X0Y-500D02*
X30060D01*
X0Y6540D02*
Y13600D01*
Y14100D01*
X-8Y14100D02*
X30058D01*
X30060Y0D02*
Y13600D01*
X0D02*
X30060D01*
Y13584D02*
Y14100D01*
D107*
X4973Y1111D02*
G03*
X4973Y1111I-120J0D01*
G01*
X3095Y2989D02*
G03*
X3095Y2989I-120J0D01*
G01*
X3650Y1627D02*
G03*
X3650Y1627I-160J0D01*
G01*
X4835Y2811D02*
G03*
X4835Y2811I-160J0D01*
G01*
X2874Y2051D02*
G03*
X2874Y2051I-160J0D01*
G01*
X4075Y850D02*
G03*
X4075Y850I-160J0D01*
G01*
X28059Y1091D02*
G03*
X28059Y1091I-120J0D01*
G01*
X26181Y2969D02*
G03*
X26181Y2969I-120J0D01*
G01*
X26736Y1606D02*
G03*
X26736Y1606I-160J0D01*
G01*
X27921Y2791D02*
G03*
X27921Y2791I-160J0D01*
G01*
X25960Y2031D02*
G03*
X25960Y2031I-160J0D01*
G01*
X27161Y830D02*
G03*
X27161Y830I-160J0D01*
G01*
X24470Y3391D02*
G03*
X24470Y3391I-170J0D01*
G01*
X5920D02*
G03*
X5920Y3391I-220J0D01*
G01*
D115*
X25457Y0D02*
G03*
X25457Y0I-3J0D01*
G01*
X27402D02*
G03*
X27402Y0I-3J0D01*
G01*
X1102D02*
G03*
X1102Y0I-3J0D01*
G01*
M02*
