%FSLAX42Y42*%
%MOMM*%
G71*
G01*
G75*
G04 Layer_Color=65535*
%ADD10C,0.25*%
%ADD11R,1.60X2.70*%
%ADD12R,2.70X1.60*%
%ADD13C,1.00*%
%ADD14C,0.25*%
%ADD15C,0.50*%
%ADD16C,0.30*%
%ADD17C,0.35*%
%ADD18C,1.00*%
%ADD19C,1.20*%
%ADD20C,0.20*%
%ADD21C,0.40*%
%ADD22C,0.80*%
%ADD23C,0.60*%
%ADD24O,2.40X2.00*%
%ADD25O,1.40X2.50*%
%ADD26R,1.40X2.50*%
%ADD27C,1.70*%
%ADD28R,2.50X1.40*%
%ADD29O,2.50X1.40*%
%ADD30O,2.00X2.30*%
%ADD31O,2.00X3.00*%
%ADD32P,2.71X8X292.5*%
%ADD33C,2.50*%
%ADD34O,1.20X2.50*%
%ADD35R,1.20X2.50*%
%ADD36C,3.00*%
%ADD37C,0.60*%
%ADD38C,0.80*%
%ADD39R,0.50X1.10*%
%ADD40R,1.30X1.30*%
%ADD41R,1.10X0.50*%
%ADD42R,1.30X1.30*%
%ADD43R,1.35X0.70*%
%ADD44R,1.80X0.70*%
G04:AMPARAMS|DCode=45|XSize=1.9mm|YSize=3.3mm|CornerRadius=0mm|HoleSize=0mm|Usage=FLASHONLY|Rotation=90.000|XOffset=0mm|YOffset=0mm|HoleType=Round|Shape=Octagon|*
%AMOCTAGOND45*
4,1,8,-1.65,-0.47,-1.65,0.47,-1.17,0.95,1.17,0.95,1.65,0.47,1.65,-0.47,1.17,-0.95,-1.17,-0.95,-1.65,-0.47,0.0*
%
%ADD45OCTAGOND45*%

%ADD46R,1.60X1.80*%
%ADD47R,1.80X1.60*%
%ADD48R,1.65X0.60*%
%ADD49R,1.80X1.60*%
%ADD50P,1.84X4X360.0*%
%ADD51P,1.84X4X90.0*%
%ADD52R,3.00X2.00*%
%ADD53R,1.80X2.70*%
%ADD54R,1.20X1.60*%
%ADD55R,1.80X2.00*%
%ADD56R,2.50X2.00*%
%ADD57R,1.20X3.50*%
%ADD58R,2.20X2.20*%
G04:AMPARAMS|DCode=59|XSize=2.2mm|YSize=2.2mm|CornerRadius=0.55mm|HoleSize=0mm|Usage=FLASHONLY|Rotation=270.000|XOffset=0mm|YOffset=0mm|HoleType=Round|Shape=RoundedRectangle|*
%AMROUNDEDRECTD59*
21,1,2.20,1.10,0,0,270.0*
21,1,1.10,2.20,0,0,270.0*
1,1,1.10,-0.55,-0.55*
1,1,1.10,-0.55,0.55*
1,1,1.10,0.55,0.55*
1,1,1.10,0.55,-0.55*
%
%ADD59ROUNDEDRECTD59*%
%ADD60R,2.00X1.80*%
G04:AMPARAMS|DCode=61|XSize=6mm|YSize=12.7mm|CornerRadius=1.5mm|HoleSize=0mm|Usage=FLASHONLY|Rotation=0.000|XOffset=0mm|YOffset=0mm|HoleType=Round|Shape=RoundedRectangle|*
%AMROUNDEDRECTD61*
21,1,6.00,9.70,0,0,0.0*
21,1,3.00,12.70,0,0,0.0*
1,1,3.00,1.50,-4.85*
1,1,3.00,-1.50,-4.85*
1,1,3.00,-1.50,4.85*
1,1,3.00,1.50,4.85*
%
%ADD61ROUNDEDRECTD61*%
%ADD62R,1.00X1.00*%
%ADD63R,1.30X1.00*%
%ADD64R,1.60X1.20*%
%ADD65R,2.60X1.60*%
%ADD66R,1.10X2.15*%
%ADD67R,1.10X2.15*%
%ADD68R,3.50X2.15*%
%ADD69R,2.15X3.50*%
%ADD70R,2.15X1.10*%
%ADD71R,2.15X1.10*%
%ADD72R,0.50X1.80*%
%ADD73O,0.50X1.80*%
%ADD74R,1.00X1.00*%
%ADD75R,1.00X1.30*%
%ADD76R,2.50X4.00*%
%ADD77O,1.80X0.55*%
%ADD78R,1.80X0.55*%
%ADD79R,2.50X3.30*%
%ADD80O,1.80X0.50*%
%ADD81R,1.80X0.50*%
G04:AMPARAMS|DCode=82|XSize=1.9mm|YSize=3.3mm|CornerRadius=0mm|HoleSize=0mm|Usage=FLASHONLY|Rotation=0.000|XOffset=0mm|YOffset=0mm|HoleType=Round|Shape=Octagon|*
%AMOCTAGOND82*
4,1,8,-0.47,1.65,0.47,1.65,0.95,1.17,0.95,-1.17,0.47,-1.65,-0.47,-1.65,-0.95,-1.17,-0.95,1.17,-0.47,1.65,0.0*
%
%ADD82OCTAGOND82*%

%ADD83R,0.70X1.80*%
%ADD84R,0.70X1.35*%
%ADD85R,5.80X6.20*%
%ADD86R,1.60X3.00*%
%ADD87R,1.27X0.50*%
%ADD88R,0.50X1.27*%
%ADD89R,1.60X1.80*%
G04:AMPARAMS|DCode=90|XSize=6mm|YSize=12.7mm|CornerRadius=1.5mm|HoleSize=0mm|Usage=FLASHONLY|Rotation=90.000|XOffset=0mm|YOffset=0mm|HoleType=Round|Shape=RoundedRectangle|*
%AMROUNDEDRECTD90*
21,1,6.00,9.70,0,0,90.0*
21,1,3.00,12.70,0,0,90.0*
1,1,3.00,4.85,1.50*
1,1,3.00,4.85,-1.50*
1,1,3.00,-4.85,-1.50*
1,1,3.00,-4.85,1.50*
%
%ADD90ROUNDEDRECTD90*%
%ADD91R,2.00X3.00*%
%ADD92R,1.00X4.50*%
%ADD93R,9.00X9.00*%
%ADD94R,0.25X2.00*%
%ADD95R,2.00X0.25*%
%ADD96R,1.90X1.60*%
%ADD97R,1.45X2.00*%
%ADD98O,1.60X0.25*%
%ADD99R,1.60X0.25*%
G04:AMPARAMS|DCode=100|XSize=5mm|YSize=1.6mm|CornerRadius=0.4mm|HoleSize=0mm|Usage=FLASHONLY|Rotation=90.000|XOffset=0mm|YOffset=0mm|HoleType=Round|Shape=RoundedRectangle|*
%AMROUNDEDRECTD100*
21,1,5.00,0.80,0,0,90.0*
21,1,4.20,1.60,0,0,90.0*
1,1,0.80,0.40,2.10*
1,1,0.80,0.40,-2.10*
1,1,0.80,-0.40,-2.10*
1,1,0.80,-0.40,2.10*
%
%ADD100ROUNDEDRECTD100*%
%ADD101R,0.60X1.65*%
%ADD102C,0.15*%
%ADD103R,6.05X6.05*%
%ADD104R,4.95X6.30*%
%ADD105R,1.57X1.19*%
%ADD106C,0.10*%
%ADD107C,0.13*%
%ADD108C,0.14*%
%ADD109R,4.76X1.25*%
%ADD110R,4.69X1.25*%
%ADD111R,1.25X4.69*%
%ADD112R,1.25X4.76*%
D10*
X6300Y3391D02*
G03*
X6300Y3391I-600J0D01*
G01*
X24897Y3386D02*
G03*
X24897Y3386I-600J0D01*
G01*
X14582Y6778D02*
G03*
X14582Y6778I-62J0D01*
G01*
X19247Y645D02*
Y1495D01*
X18264Y645D02*
X19247D01*
X18264D02*
Y1495D01*
X19247D01*
X21749Y645D02*
Y1495D01*
X20766Y645D02*
X21749D01*
X20766D02*
Y1495D01*
X21749D01*
X10769Y1493D02*
X11751D01*
X10769Y643D02*
Y1493D01*
Y643D02*
X11751D01*
Y643D02*
Y1493D01*
X13268Y1495D02*
X14251D01*
X13268Y645D02*
Y1495D01*
Y645D02*
X14251D01*
Y645D02*
Y1495D01*
X15762Y1500D02*
X16745D01*
X15762Y650D02*
Y1500D01*
Y650D02*
X16745D01*
Y650D02*
Y1500D01*
X8116Y2227D02*
Y10394D01*
X8262Y1499D02*
X9244D01*
X8262Y649D02*
Y1499D01*
Y649D02*
X9244D01*
Y649D02*
Y1499D01*
D15*
X28523Y2027D02*
G03*
X28523Y2027I-1500J0D01*
G01*
X5404Y2057D02*
G03*
X5404Y2057I-1500J0D01*
G01*
X26468Y13115D02*
X29186D01*
X29261Y13360D02*
X29635Y12987D01*
Y12985D02*
Y12987D01*
X29278Y12628D02*
X29635Y12985D01*
X29256Y12607D02*
Y12880D01*
X26442Y12884D02*
X29238D01*
X26442D02*
Y13107D01*
X26451Y13116D01*
X29164Y13115D02*
X29257D01*
X29258Y13115D01*
Y13357D01*
X29257Y13357D02*
X29258Y13357D01*
X29256Y12607D02*
X29331Y12682D01*
X3106Y12640D02*
X3181Y12715D01*
X3107Y13391D02*
X3108Y13390D01*
Y13149D02*
Y13390D01*
X3107Y13148D02*
X3108Y13149D01*
X3014Y13148D02*
X3107D01*
X292Y13141D02*
X301Y13150D01*
X292Y12917D02*
Y13141D01*
Y12917D02*
X3088D01*
X3106Y12640D02*
Y12914D01*
X3128Y12661D02*
X3485Y13018D01*
Y13020D01*
X3111Y13394D02*
X3485Y13020D01*
X318Y13148D02*
X3036D01*
D20*
X26344Y1875D02*
X26493D01*
X26303Y1916D02*
X26343Y1876D01*
X26303Y1916D02*
Y2182D01*
X26343Y2222D01*
X26346Y2225D02*
X26493D01*
X26633D02*
X26823D01*
X26633Y1875D02*
X26823D01*
Y1770D02*
Y2330D01*
Y1875D02*
Y2225D01*
X26346Y2330D02*
X26823D01*
X26346Y1770D02*
Y1875D01*
Y1770D02*
X26823D01*
X26346Y2222D02*
Y2330D01*
X26343Y2222D02*
X26346D01*
X26330Y2938D02*
X26334D01*
Y3046D01*
Y2486D02*
X26810D01*
X26334D02*
Y2591D01*
Y3046D02*
X26810D01*
Y2591D02*
Y2941D01*
Y2486D02*
Y3046D01*
X26620Y2591D02*
X26810D01*
X26620Y2941D02*
X26810D01*
X26334D02*
X26480D01*
X26290Y2898D02*
X26330Y2938D01*
X26290Y2632D02*
Y2898D01*
Y2632D02*
X26330Y2592D01*
X26331Y2591D02*
X26480D01*
X3546Y2270D02*
X3695D01*
X3696Y2270D02*
X3736Y2230D01*
Y1963D02*
Y2230D01*
X3696Y1923D02*
X3736Y1963D01*
X3546Y1920D02*
X3692D01*
X3216D02*
X3406D01*
X3216Y2270D02*
X3406D01*
X3216Y1816D02*
Y2375D01*
Y1920D02*
Y2270D01*
Y1816D02*
X3692D01*
Y2270D02*
Y2375D01*
X3216D02*
X3692D01*
Y1816D02*
Y1923D01*
X3696D01*
X3686Y2639D02*
X3689D01*
X3686Y2532D02*
Y2639D01*
X3209Y3092D02*
X3686D01*
Y2987D02*
Y3092D01*
X3209Y2532D02*
X3686D01*
X3209Y2637D02*
Y2987D01*
Y2532D02*
Y3092D01*
Y2987D02*
X3399D01*
X3209Y2637D02*
X3399D01*
X3539D02*
X3686D01*
X3689Y2639D02*
X3729Y2679D01*
Y2946D01*
X3689Y2986D02*
X3729Y2946D01*
X3539Y2987D02*
X3688D01*
X3875Y7521D02*
Y7525D01*
Y7521D02*
X3982D01*
X3422Y7045D02*
Y7521D01*
X3527D01*
X3982Y7045D02*
Y7521D01*
X3527Y7045D02*
X3877D01*
X3422D02*
X3982D01*
X3527D02*
Y7235D01*
X3877Y7045D02*
Y7235D01*
Y7375D02*
Y7521D01*
X3835Y7565D02*
X3875Y7525D01*
X3568Y7565D02*
X3835D01*
X3528Y7525D02*
X3568Y7565D01*
X3527Y7375D02*
Y7524D01*
X3763Y10113D02*
Y10262D01*
X3764Y10263D02*
X3804Y10303D01*
X4071D01*
X4111Y10263D01*
X4113Y10113D02*
Y10259D01*
Y9783D02*
Y9973D01*
X3763Y9783D02*
Y9973D01*
X3658Y9783D02*
X4218D01*
X3763D02*
X4113D01*
X4218D02*
Y10259D01*
X3658D02*
X3763D01*
X3658Y9783D02*
Y10259D01*
X4111D02*
X4218D01*
X4111D02*
Y10263D01*
X2937Y9205D02*
Y9209D01*
Y9205D02*
X3045D01*
X2485Y8729D02*
Y9205D01*
X2590D01*
X3045Y8729D02*
Y9205D01*
X2590Y8729D02*
X2940D01*
X2485D02*
X3045D01*
X2590D02*
Y8919D01*
X2940Y8729D02*
Y8919D01*
Y9059D02*
Y9205D01*
X2897Y9249D02*
X2937Y9209D01*
X2631Y9249D02*
X2897D01*
X2591Y9209D02*
X2631Y9249D01*
X2590Y9059D02*
Y9208D01*
X5214Y9104D02*
Y9253D01*
X5215Y9254D02*
X5255Y9294D01*
X5521D01*
X5561Y9254D01*
X5564Y9104D02*
Y9251D01*
Y8774D02*
Y8964D01*
X5214Y8774D02*
Y8964D01*
X5109Y8774D02*
X5669D01*
X5214D02*
X5564D01*
X5669D02*
Y9251D01*
X5109D02*
X5214D01*
X5109Y8774D02*
Y9251D01*
X5561D02*
X5669D01*
X5561D02*
Y9254D01*
X5604Y7539D02*
Y7543D01*
Y7539D02*
X5712D01*
X5152Y7063D02*
Y7539D01*
X5257D01*
X5712Y7063D02*
Y7539D01*
X5257Y7063D02*
X5607D01*
X5152D02*
X5712D01*
X5257D02*
Y7253D01*
X5607Y7063D02*
Y7253D01*
Y7393D02*
Y7539D01*
X5564Y7583D02*
X5604Y7543D01*
X5298Y7583D02*
X5564D01*
X5258Y7543D02*
X5298Y7583D01*
X5257Y7393D02*
Y7541D01*
X5216Y10834D02*
Y10983D01*
X5217Y10984D02*
X5257Y11024D01*
X5524D01*
X5564Y10984D01*
X5566Y10834D02*
Y10981D01*
Y10504D02*
Y10694D01*
X5216Y10504D02*
Y10694D01*
X5111Y10504D02*
X5671D01*
X5216D02*
X5566D01*
X5671D02*
Y10981D01*
X5111D02*
X5216D01*
X5111Y10504D02*
Y10981D01*
X5564D02*
X5671D01*
X5564D02*
Y10984D01*
X24842Y10978D02*
Y10982D01*
Y10978D02*
X24950D01*
X24390Y10502D02*
Y10978D01*
X24495D01*
X24950Y10502D02*
Y10978D01*
X24495Y10502D02*
X24845D01*
X24390D02*
X24950D01*
X24495D02*
Y10692D01*
X24845Y10502D02*
Y10692D01*
Y10832D02*
Y10978D01*
X24802Y11022D02*
X24842Y10982D01*
X24536Y11022D02*
X24802D01*
X24496Y10982D02*
X24536Y11022D01*
X24495Y10832D02*
Y10981D01*
X4422Y1731D02*
Y1879D01*
X4423Y1881D02*
X4463Y1921D01*
X4730D01*
X4770Y1881D01*
X4772Y1731D02*
Y1877D01*
Y1401D02*
Y1591D01*
X4422Y1401D02*
Y1591D01*
X4317Y1401D02*
X4877D01*
X4422D02*
X4772D01*
X4877D02*
Y1877D01*
X4317D02*
X4422D01*
X4317Y1401D02*
Y1877D01*
X4770D02*
X4877D01*
X4770D02*
Y1881D01*
X2473Y1877D02*
Y1881D01*
Y1877D02*
X2580D01*
X2020Y1401D02*
Y1877D01*
X2125D01*
X2580Y1401D02*
Y1877D01*
X2125Y1401D02*
X2475D01*
X2020D02*
X2580D01*
X2125D02*
Y1591D01*
X2475Y1401D02*
Y1591D01*
Y1731D02*
Y1877D01*
X2433Y1921D02*
X2473Y1881D01*
X2166Y1921D02*
X2433D01*
X2126Y1881D02*
X2166Y1921D01*
X2125Y1731D02*
Y1879D01*
X27536Y1690D02*
Y1839D01*
X27537Y1840D02*
X27577Y1880D01*
X27843D01*
X27883Y1840D01*
X27886Y1690D02*
Y1836D01*
Y1360D02*
Y1550D01*
X27536Y1360D02*
Y1550D01*
X27431Y1360D02*
X27991D01*
X27536D02*
X27886D01*
X27991D02*
Y1836D01*
X27431D02*
X27536D01*
X27431Y1360D02*
Y1836D01*
X27883D02*
X27991D01*
X27883D02*
Y1840D01*
X24500Y9102D02*
Y9251D01*
X24501Y9252D02*
X24541Y9292D01*
X24807D01*
X24848Y9252D01*
X24850Y9102D02*
Y9248D01*
Y8772D02*
Y8962D01*
X24500Y8772D02*
Y8962D01*
X24395Y8772D02*
X24955D01*
X24500D02*
X24850D01*
X24955D02*
Y9248D01*
X24395D02*
X24500D01*
X24395Y8772D02*
Y9248D01*
X24848D02*
X24955D01*
X24848D02*
Y9252D01*
X24804Y7529D02*
Y7532D01*
Y7529D02*
X24912D01*
X24352Y7052D02*
Y7529D01*
X24457D01*
X24912Y7052D02*
Y7529D01*
X24457Y7052D02*
X24807D01*
X24352D02*
X24912D01*
X24457D02*
Y7242D01*
X24807Y7052D02*
Y7242D01*
Y7382D02*
Y7529D01*
X24764Y7572D02*
X24804Y7532D01*
X24498Y7572D02*
X24764D01*
X24458Y7532D02*
X24498Y7572D01*
X24457Y7382D02*
Y7531D01*
X26192Y7377D02*
Y7526D01*
X26192Y7527D02*
X26232Y7567D01*
X26499D01*
X26539Y7527D01*
X26542Y7377D02*
Y7524D01*
Y7047D02*
Y7237D01*
X26192Y7047D02*
Y7237D01*
X26086Y7047D02*
X26646D01*
X26192D02*
X26542D01*
X26646D02*
Y7524D01*
X26086D02*
X26192D01*
X26086Y7047D02*
Y7524D01*
X26539D02*
X26646D01*
X26539D02*
Y7527D01*
X26295Y10249D02*
Y10253D01*
Y10249D02*
X26403D01*
X25843Y9773D02*
Y10249D01*
X25948D01*
X26403Y9773D02*
Y10249D01*
X25948Y9773D02*
X26298D01*
X25843D02*
X26403D01*
X25948D02*
Y9963D01*
X26298Y9773D02*
Y9963D01*
Y10103D02*
Y10249D01*
X26255Y10293D02*
X26295Y10253D01*
X25989Y10293D02*
X26255D01*
X25949Y10253D02*
X25989Y10293D01*
X25948Y10103D02*
Y10252D01*
X27126Y9069D02*
Y9218D01*
X27127Y9219D02*
X27167Y9259D01*
X27434D01*
X27474Y9219D01*
X27476Y9069D02*
Y9215D01*
Y8739D02*
Y8929D01*
X27126Y8739D02*
Y8929D01*
X27021Y8739D02*
X27581D01*
X27126D02*
X27476D01*
X27581D02*
Y9215D01*
X27021D02*
X27126D01*
X27021Y8739D02*
Y9215D01*
X27474D02*
X27581D01*
X27474D02*
Y9219D01*
X28078Y7737D02*
Y7741D01*
Y7737D02*
X28186D01*
X27626Y7261D02*
Y7737D01*
X27731D01*
X28186Y7261D02*
Y7737D01*
X27731Y7261D02*
X28081D01*
X27626D02*
X28186D01*
X27731D02*
Y7451D01*
X28081Y7261D02*
Y7451D01*
Y7591D02*
Y7737D01*
X28038Y7781D02*
X28078Y7741D01*
X27772Y7781D02*
X28038D01*
X27732Y7741D02*
X27772Y7781D01*
X27731Y7591D02*
Y7740D01*
X28074Y3918D02*
Y4067D01*
X28075Y4068D02*
X28115Y4108D01*
X28381D01*
X28421Y4068D01*
X28424Y3918D02*
Y4064D01*
Y3588D02*
Y3778D01*
X28074Y3588D02*
Y3778D01*
X27969Y3588D02*
X28529D01*
X28074D02*
X28424D01*
X28529D02*
Y4064D01*
X27969D02*
X28074D01*
X27969Y3588D02*
Y4064D01*
X28421D02*
X28529D01*
X28421D02*
Y4068D01*
X1985Y7586D02*
Y7735D01*
X1986Y7736D02*
X2026Y7776D01*
X2293D01*
X2333Y7736D01*
X2335Y7586D02*
Y7732D01*
Y7256D02*
Y7446D01*
X1985Y7256D02*
Y7446D01*
X1880Y7256D02*
X2440D01*
X1985D02*
X2335D01*
X2440D02*
Y7732D01*
X1880D02*
X1985D01*
X1880Y7256D02*
Y7732D01*
X2333D02*
X2440D01*
X2333D02*
Y7736D01*
X21670Y2235D02*
Y10402D01*
X8121D02*
X21670D01*
X25232Y1690D02*
Y1839D01*
X25233Y1840D02*
X25273Y1880D01*
X25539D01*
X25579Y1840D01*
X25582Y1690D02*
Y1836D01*
Y1360D02*
Y1550D01*
X25232Y1360D02*
Y1550D01*
X25127Y1360D02*
X25687D01*
X25232D02*
X25582D01*
X25687D02*
Y1836D01*
X25127D02*
X25232D01*
X25127Y1360D02*
Y1836D01*
X25579D02*
X25687D01*
X25579D02*
Y1840D01*
X8599Y12398D02*
X8748D01*
X8558Y12439D02*
X8598Y12399D01*
X8558Y12439D02*
Y12706D01*
X8598Y12746D01*
X8602Y12748D02*
X8748D01*
X8888D02*
X9078D01*
X8888Y12398D02*
X9078D01*
Y12293D02*
Y12853D01*
Y12398D02*
Y12748D01*
X8602Y12853D02*
X9078D01*
X8602Y12293D02*
Y12398D01*
Y12293D02*
X9078D01*
X8602Y12746D02*
Y12853D01*
X8598Y12746D02*
X8602D01*
X21089Y12660D02*
Y12809D01*
X21090Y12810D02*
X21130Y12850D01*
X21396D01*
X21436Y12810D01*
X21439Y12660D02*
Y12807D01*
Y12330D02*
Y12520D01*
X21089Y12330D02*
Y12520D01*
X20984Y12330D02*
X21544D01*
X21089D02*
X21439D01*
X21544D02*
Y12807D01*
X20984D02*
X21089D01*
X20984Y12330D02*
Y12807D01*
X21436D02*
X21544D01*
X21436D02*
Y12810D01*
X3329Y4263D02*
Y4412D01*
X3330Y4413D02*
X3370Y4453D01*
X3637D01*
X3677Y4413D01*
X3679Y4263D02*
Y4410D01*
Y3933D02*
Y4123D01*
X3329Y3933D02*
Y4123D01*
X3224Y3933D02*
X3784D01*
X3329D02*
X3679D01*
X3784D02*
Y4410D01*
X3224D02*
X3329D01*
X3224Y3933D02*
Y4410D01*
X3677D02*
X3784D01*
X3677D02*
Y4413D01*
X14299Y13856D02*
X15963D01*
X15859Y13958D02*
X15961Y13856D01*
X15869Y13762D02*
X15961Y13854D01*
D106*
X6134Y3899D02*
G03*
X797Y3899I-2669J-2264D01*
G01*
X29466Y3636D02*
G03*
X23724Y3636I-2871J-2002D01*
G01*
X8055Y12580D02*
G03*
X8870Y13298I-3530J4833D01*
G01*
Y11862D02*
G03*
X8055Y12580I-4345J-4116D01*
G01*
X21190Y13298D02*
G03*
X22005Y12580I4345J4116D01*
G01*
D02*
G03*
X21190Y11862I3530J-4833D01*
G01*
X28226Y7519D02*
G03*
X28226Y7519I-325J0D01*
G01*
X26689Y7305D02*
G03*
X26689Y7305I-325J0D01*
G01*
X24961D02*
G03*
X24961Y7305I-325J0D01*
G01*
X3083Y8988D02*
G03*
X3083Y8988I-325J0D01*
G01*
X5718Y10753D02*
G03*
X5718Y10753I-325J0D01*
G01*
X27627Y8988D02*
G03*
X27627Y8988I-325J0D01*
G01*
X26451Y10035D02*
G03*
X26451Y10035I-325J0D01*
G01*
X24992Y9029D02*
G03*
X24992Y9029I-325J0D01*
G01*
Y10753D02*
G03*
X24992Y10753I-325J0D01*
G01*
X2484Y7519D02*
G03*
X2484Y7519I-325J0D01*
G01*
X4021Y7305D02*
G03*
X4021Y7305I-325J0D01*
G01*
X5749D02*
G03*
X5749Y7305I-325J0D01*
G01*
X5718Y9029D02*
G03*
X5718Y9029I-325J0D01*
G01*
X4259Y10035D02*
G03*
X4259Y10035I-325J0D01*
G01*
X3797Y1634D02*
G03*
X3797Y1634I-303J0D01*
G01*
X26974D02*
G03*
X26974Y1634I-408J0D01*
G01*
X-0Y0D02*
Y6770D01*
X0Y0D02*
X2620D01*
X9385Y12220D02*
Y12940D01*
X7326Y2504D02*
X22734D01*
X7326Y11096D02*
X22734D01*
Y2504D02*
Y11096D01*
Y2504D02*
X22864Y2344D01*
X22734Y11096D02*
X22864Y11256D01*
X7196D02*
X7326Y11096D01*
X7196Y2344D02*
X7326Y2504D01*
X6934Y1574D02*
Y11574D01*
Y1574D02*
X23424D01*
Y11574D01*
X6934D02*
X23424D01*
X22864Y2344D02*
Y11256D01*
X7196Y2344D02*
X22864D01*
X7196D02*
Y11256D01*
X22864D01*
X0Y1100D02*
Y6770D01*
X26290Y1929D02*
X26323Y1956D01*
X0Y0D02*
Y1128D01*
Y0D02*
X1228D01*
X6887Y11843D02*
X9354D01*
X797Y1017D02*
Y3899D01*
X6134Y1017D02*
Y3899D01*
X23724Y1017D02*
X29466D01*
X797D02*
X6134D01*
X23724D02*
Y3636D01*
X29466Y1017D02*
Y3636D01*
X8870Y11862D02*
Y12220D01*
X9385D01*
X8870Y12940D02*
X9385D01*
X8870D02*
Y13298D01*
X21190Y11862D02*
Y12220D01*
X20675D02*
X21190D01*
X20675D02*
Y12940D01*
X21190D01*
Y13298D01*
X7326Y2509D02*
Y11101D01*
X13666Y13898D02*
X13719D01*
X13693D01*
Y13818D01*
X13786Y13898D02*
X13759D01*
X13746Y13885D01*
Y13831D01*
X13759Y13818D01*
X13786D01*
X13799Y13831D01*
Y13885D01*
X13786Y13898D01*
X13826Y13818D02*
Y13898D01*
X13866D01*
X13879Y13885D01*
Y13858D01*
X13866Y13845D01*
X13826D01*
D107*
X8920Y1072D02*
G03*
X8595Y1072I-162J0D01*
G01*
D02*
G03*
X8920Y1072I162J0D01*
G01*
X11099Y1065D02*
G03*
X11424Y1065I162J0D01*
G01*
D02*
G03*
X11099Y1065I-162J0D01*
G01*
X13604D02*
G03*
X13929Y1065I162J0D01*
G01*
D02*
G03*
X13604Y1065I-162J0D01*
G01*
X16095Y1067D02*
G03*
X16420Y1067I162J0D01*
G01*
D02*
G03*
X16095Y1067I-162J0D01*
G01*
X23606Y1584D02*
Y11730D01*
X23406Y1803D02*
Y11833D01*
X22561Y2813D02*
Y10813D01*
X24506Y3171D02*
X24699Y2837D01*
X24424Y3114D02*
X24584Y2837D01*
X6886Y10813D02*
X7731D01*
X5993Y3436D02*
X6686D01*
X23606D02*
X24002D01*
X23606Y3336D02*
X24002D01*
X5993D02*
X6686D01*
X22561Y2813D02*
X23406D01*
X6886Y1803D02*
X23406D01*
X7731Y2813D02*
Y10813D01*
X5411Y2837D02*
X5571Y3114D01*
X5295Y2837D02*
X5488Y3171D01*
X6686Y1503D02*
Y11700D01*
X23407Y1813D02*
Y11843D01*
X6887Y1813D02*
X23407D01*
X6887D02*
Y11843D01*
X3270Y1961D02*
X3650Y2231D01*
X3710Y1921D02*
Y2271D01*
X3210Y1921D02*
Y2271D01*
X3710D01*
X3210Y1921D02*
X3710D01*
X3270Y2231D02*
X3650Y1961D01*
Y2231D01*
X3270Y1961D02*
X3650D01*
X3270Y2231D02*
X3650D01*
X3270Y1961D02*
Y2231D01*
Y2931D02*
X3650Y2661D01*
X3710Y2621D02*
Y2971D01*
X3210Y2621D02*
Y2971D01*
Y2621D02*
X3710D01*
X3210Y2971D02*
X3710D01*
X3270Y2661D02*
X3650Y2931D01*
Y2661D02*
Y2931D01*
X3270D02*
X3650D01*
X3270Y2661D02*
X3650D01*
X3270D02*
Y2931D01*
X4475Y1476D02*
X4745Y1856D01*
X4435Y1416D02*
X4785D01*
X4435Y1916D02*
X4785D01*
X4435Y1416D02*
Y1916D01*
X4785Y1416D02*
Y1916D01*
X4475Y1856D02*
X4745Y1476D01*
X4475D02*
X4745D01*
Y1856D01*
X4475Y1476D02*
Y1856D01*
X4745D01*
X2175D02*
X2445Y1476D01*
X2135Y1416D02*
X2485D01*
X2135Y1916D02*
X2485D01*
Y1416D02*
Y1916D01*
X2135Y1416D02*
Y1916D01*
X2175Y1476D02*
X2445Y1856D01*
X2175Y1476D02*
X2445D01*
X2175D02*
Y1856D01*
X2445Y1476D02*
Y1856D01*
X2175D02*
X2445D01*
X9350Y11843D02*
X23407D01*
X8478Y847D02*
Y1287D01*
Y847D02*
X9108D01*
X8478Y1287D02*
X9108D01*
Y847D02*
Y1287D01*
X9073Y852D02*
Y1292D01*
X8443D02*
X9073D01*
X8262Y1499D02*
X9244D01*
Y649D02*
Y1499D01*
X8262Y649D02*
X9244D01*
X8262D02*
Y1499D01*
X8442Y852D02*
X9072D01*
X8442D02*
Y1292D01*
X11576Y845D02*
Y1285D01*
X10946Y845D02*
Y1285D01*
X11576D01*
X10946Y845D02*
X11576D01*
X10766Y641D02*
Y1491D01*
Y641D02*
X11748D01*
Y641D02*
Y1491D01*
X10766D02*
X11748D01*
X10947Y845D02*
X11577D01*
X10947D02*
Y1285D01*
X11577D01*
Y845D02*
Y1285D01*
X14081Y845D02*
Y1285D01*
X13451Y845D02*
Y1285D01*
X14081D01*
X13451Y845D02*
X14081D01*
X13270Y641D02*
Y1491D01*
Y641D02*
X14253D01*
Y641D02*
Y1491D01*
X13270D02*
X14253D01*
X13451Y845D02*
X14081D01*
X13451D02*
Y1285D01*
X14081D01*
Y845D02*
Y1285D01*
X16572Y847D02*
Y1287D01*
X15942Y847D02*
Y1287D01*
X16572D01*
X15942Y847D02*
X16572D01*
X15761Y644D02*
Y1494D01*
Y644D02*
X16744D01*
Y644D02*
Y1494D01*
X15761D02*
X16744D01*
X15942Y847D02*
X16572D01*
X15942D02*
Y1287D01*
X16572D01*
Y847D02*
Y1287D01*
D108*
X21185Y559D02*
X21172Y573D01*
X21145D01*
X21132Y559D01*
Y546D01*
X21145Y533D01*
X21172D01*
X21185Y519D01*
Y506D01*
X21172Y493D01*
X21145D01*
X21132Y506D01*
X21212Y573D02*
Y493D01*
X21238Y519D01*
X21265Y493D01*
Y573D01*
X21345D02*
X21318Y559D01*
X21292Y533D01*
Y506D01*
X21305Y493D01*
X21331D01*
X21345Y506D01*
Y519D01*
X21331Y533D01*
X21292D01*
X18719Y572D02*
X18705Y585D01*
X18679D01*
X18665Y572D01*
Y559D01*
X18679Y545D01*
X18705D01*
X18719Y532D01*
Y519D01*
X18705Y505D01*
X18679D01*
X18665Y519D01*
X18745Y585D02*
Y505D01*
X18772Y532D01*
X18799Y505D01*
Y585D01*
X18878D02*
X18825D01*
Y545D01*
X18852Y559D01*
X18865D01*
X18878Y545D01*
Y519D01*
X18865Y505D01*
X18838D01*
X18825Y519D01*
X2026Y7969D02*
Y7889D01*
Y7969D02*
X2052D01*
X2064Y7965D01*
X2071Y7958D01*
X2075Y7950D01*
X2079Y7939D01*
Y7920D01*
X2075Y7908D01*
X2071Y7901D01*
X2064Y7893D01*
X2052Y7889D01*
X2026D01*
X2097Y7969D02*
Y7889D01*
X2143D01*
X2155Y7950D02*
Y7954D01*
X2159Y7962D01*
X2163Y7965D01*
X2170Y7969D01*
X2186D01*
X2193Y7965D01*
X2197Y7962D01*
X2201Y7954D01*
Y7946D01*
X2197Y7939D01*
X2189Y7927D01*
X2151Y7889D01*
X2205D01*
X2230Y7969D02*
X2272D01*
X2249Y7939D01*
X2261D01*
X2268Y7935D01*
X2272Y7931D01*
X2276Y7920D01*
Y7912D01*
X2272Y7901D01*
X2264Y7893D01*
X2253Y7889D01*
X2242D01*
X2230Y7893D01*
X2226Y7897D01*
X2223Y7904D01*
X27746Y3903D02*
Y3823D01*
Y3903D02*
X27772D01*
X27784Y3899D01*
X27791Y3891D01*
X27795Y3884D01*
X27799Y3872D01*
Y3853D01*
X27795Y3842D01*
X27791Y3834D01*
X27784Y3827D01*
X27772Y3823D01*
X27746D01*
X27817Y3903D02*
Y3823D01*
X27863D01*
X27871Y3887D02*
X27879Y3891D01*
X27890Y3903D01*
Y3823D01*
X27840Y7949D02*
Y7869D01*
Y7949D02*
X27866D01*
X27878Y7945D01*
X27885Y7937D01*
X27889Y7930D01*
X27893Y7918D01*
Y7899D01*
X27889Y7888D01*
X27885Y7880D01*
X27878Y7873D01*
X27866Y7869D01*
X27840D01*
X27911Y7949D02*
Y7869D01*
X27957D01*
X27969Y7930D02*
Y7934D01*
X27973Y7941D01*
X27977Y7945D01*
X27984Y7949D01*
X28000D01*
X28007Y7945D01*
X28011Y7941D01*
X28015Y7934D01*
Y7926D01*
X28011Y7918D01*
X28003Y7907D01*
X27965Y7869D01*
X28019D01*
X27195Y9425D02*
Y9345D01*
Y9425D02*
X27221D01*
X27233Y9421D01*
X27240Y9413D01*
X27244Y9406D01*
X27248Y9394D01*
Y9375D01*
X27244Y9364D01*
X27240Y9356D01*
X27233Y9348D01*
X27221Y9345D01*
X27195D01*
X27266Y9425D02*
Y9345D01*
X27311D01*
X27328Y9425D02*
X27370D01*
X27347Y9394D01*
X27358D01*
X27366Y9390D01*
X27370Y9387D01*
X27374Y9375D01*
Y9368D01*
X27370Y9356D01*
X27362Y9348D01*
X27351Y9345D01*
X27339D01*
X27328Y9348D01*
X27324Y9352D01*
X27320Y9360D01*
X26036Y10458D02*
Y10378D01*
Y10458D02*
X26063D01*
X26074Y10455D01*
X26082Y10447D01*
X26086Y10439D01*
X26090Y10428D01*
Y10409D01*
X26086Y10397D01*
X26082Y10390D01*
X26074Y10382D01*
X26063Y10378D01*
X26036D01*
X26108Y10458D02*
Y10378D01*
X26153D01*
X26200Y10458D02*
X26162Y10405D01*
X26219D01*
X26200Y10458D02*
Y10378D01*
X26295Y7769D02*
Y7689D01*
Y7769D02*
X26322D01*
X26333Y7765D01*
X26341Y7757D01*
X26345Y7750D01*
X26349Y7738D01*
Y7719D01*
X26345Y7708D01*
X26341Y7700D01*
X26333Y7692D01*
X26322Y7689D01*
X26295D01*
X26367Y7769D02*
Y7689D01*
X26412D01*
X26467Y7769D02*
X26429D01*
X26425Y7734D01*
X26429Y7738D01*
X26440Y7742D01*
X26452D01*
X26463Y7738D01*
X26471Y7730D01*
X26474Y7719D01*
Y7711D01*
X26471Y7700D01*
X26463Y7692D01*
X26452Y7689D01*
X26440D01*
X26429Y7692D01*
X26425Y7696D01*
X26421Y7704D01*
X24543Y7741D02*
Y7661D01*
Y7741D02*
X24569D01*
X24581Y7737D01*
X24588Y7729D01*
X24592Y7722D01*
X24596Y7710D01*
Y7691D01*
X24592Y7680D01*
X24588Y7672D01*
X24581Y7664D01*
X24569Y7661D01*
X24543D01*
X24614Y7741D02*
Y7661D01*
X24660D01*
X24714Y7729D02*
X24710Y7737D01*
X24699Y7741D01*
X24691D01*
X24680Y7737D01*
X24672Y7725D01*
X24668Y7706D01*
Y7687D01*
X24672Y7672D01*
X24680Y7664D01*
X24691Y7661D01*
X24695D01*
X24707Y7664D01*
X24714Y7672D01*
X24718Y7683D01*
Y7687D01*
X24714Y7699D01*
X24707Y7706D01*
X24695Y7710D01*
X24691D01*
X24680Y7706D01*
X24672Y7699D01*
X24668Y7687D01*
X24591Y9468D02*
Y9388D01*
Y9468D02*
X24618D01*
X24629Y9464D01*
X24637Y9456D01*
X24641Y9449D01*
X24644Y9437D01*
Y9418D01*
X24641Y9407D01*
X24637Y9399D01*
X24629Y9392D01*
X24618Y9388D01*
X24591D01*
X24662Y9468D02*
Y9388D01*
X24708D01*
X24770Y9468D02*
X24732Y9388D01*
X24717Y9468D02*
X24770D01*
X27644Y2061D02*
Y1981D01*
Y2061D02*
X27671D01*
X27682Y2057D01*
X27690Y2050D01*
X27694Y2042D01*
X27697Y2031D01*
Y2012D01*
X27694Y2000D01*
X27690Y1993D01*
X27682Y1985D01*
X27671Y1981D01*
X27644D01*
X27715Y2061D02*
Y1981D01*
X27761D01*
X27819Y2035D02*
X27816Y2023D01*
X27808Y2015D01*
X27796Y2012D01*
X27793D01*
X27781Y2015D01*
X27774Y2023D01*
X27770Y2035D01*
Y2038D01*
X27774Y2050D01*
X27781Y2057D01*
X27793Y2061D01*
X27796D01*
X27808Y2057D01*
X27816Y2050D01*
X27819Y2035D01*
Y2015D01*
X27816Y1996D01*
X27808Y1985D01*
X27796Y1981D01*
X27789D01*
X27777Y1985D01*
X27774Y1993D01*
X26885Y2785D02*
Y2705D01*
Y2785D02*
X26911D01*
X26923Y2781D01*
X26930Y2774D01*
X26934Y2766D01*
X26938Y2755D01*
Y2736D01*
X26934Y2724D01*
X26930Y2717D01*
X26923Y2709D01*
X26911Y2705D01*
X26885D01*
X26956Y2785D02*
Y2705D01*
X27002D01*
X27010Y2770D02*
X27018Y2774D01*
X27029Y2785D01*
Y2705D01*
X27092Y2785D02*
X27080Y2781D01*
X27073Y2770D01*
X27069Y2751D01*
Y2739D01*
X27073Y2720D01*
X27080Y2709D01*
X27092Y2705D01*
X27099D01*
X27111Y2709D01*
X27119Y2720D01*
X27122Y2739D01*
Y2751D01*
X27119Y2770D01*
X27111Y2781D01*
X27099Y2785D01*
X27092D01*
X26913Y2079D02*
Y1999D01*
Y2079D02*
X26939D01*
X26951Y2075D01*
X26958Y2068D01*
X26962Y2060D01*
X26966Y2048D01*
Y2029D01*
X26962Y2018D01*
X26958Y2010D01*
X26951Y2003D01*
X26939Y1999D01*
X26913D01*
X26984Y2079D02*
Y1999D01*
X27030D01*
X27038Y2064D02*
X27046Y2068D01*
X27057Y2079D01*
Y1999D01*
X27097Y2064D02*
X27105Y2068D01*
X27116Y2079D01*
Y1999D01*
X2160Y1317D02*
Y1237D01*
Y1317D02*
X2187D01*
X2198Y1313D01*
X2206Y1306D01*
X2210Y1298D01*
X2214Y1286D01*
Y1267D01*
X2210Y1256D01*
X2206Y1248D01*
X2198Y1241D01*
X2187Y1237D01*
X2160D01*
X2232Y1317D02*
Y1237D01*
X2277D01*
X2286Y1302D02*
X2294Y1306D01*
X2305Y1317D01*
Y1237D01*
X2348Y1298D02*
Y1302D01*
X2352Y1309D01*
X2356Y1313D01*
X2364Y1317D01*
X2379D01*
X2387Y1313D01*
X2390Y1309D01*
X2394Y1302D01*
Y1294D01*
X2390Y1286D01*
X2383Y1275D01*
X2345Y1237D01*
X2398D01*
X4477Y2074D02*
Y1994D01*
Y2074D02*
X4503D01*
X4515Y2070D01*
X4522Y2062D01*
X4526Y2055D01*
X4530Y2043D01*
Y2024D01*
X4526Y2013D01*
X4522Y2005D01*
X4515Y1998D01*
X4503Y1994D01*
X4477D01*
X4548Y2074D02*
Y1994D01*
X4594D01*
X4602Y2059D02*
X4610Y2062D01*
X4622Y2074D01*
Y1994D01*
X4669Y2074D02*
X4711D01*
X4688Y2043D01*
X4699D01*
X4707Y2040D01*
X4711Y2036D01*
X4714Y2024D01*
Y2017D01*
X4711Y2005D01*
X4703Y1998D01*
X4692Y1994D01*
X4680D01*
X4669Y1998D01*
X4665Y2002D01*
X4661Y2009D01*
X3816Y2871D02*
Y2791D01*
Y2871D02*
X3843D01*
X3854Y2868D01*
X3862Y2860D01*
X3866Y2852D01*
X3870Y2841D01*
Y2822D01*
X3866Y2811D01*
X3862Y2803D01*
X3854Y2795D01*
X3843Y2791D01*
X3816D01*
X3888Y2871D02*
Y2791D01*
X3933D01*
X3942Y2856D02*
X3950Y2860D01*
X3961Y2871D01*
Y2791D01*
X4039Y2871D02*
X4001Y2818D01*
X4058D01*
X4039Y2871D02*
Y2791D01*
X3875Y2137D02*
Y2057D01*
Y2137D02*
X3901D01*
X3913Y2134D01*
X3921Y2126D01*
X3924Y2118D01*
X3928Y2107D01*
Y2088D01*
X3924Y2076D01*
X3921Y2069D01*
X3913Y2061D01*
X3901Y2057D01*
X3875D01*
X3946Y2137D02*
Y2057D01*
X3992D01*
X4000Y2122D02*
X4008Y2126D01*
X4020Y2137D01*
Y2057D01*
X4105Y2137D02*
X4067D01*
X4063Y2103D01*
X4067Y2107D01*
X4078Y2111D01*
X4090D01*
X4101Y2107D01*
X4109Y2099D01*
X4112Y2088D01*
Y2080D01*
X4109Y2069D01*
X4101Y2061D01*
X4090Y2057D01*
X4078D01*
X4067Y2061D01*
X4063Y2065D01*
X4059Y2073D01*
X24566Y11218D02*
Y11138D01*
Y11218D02*
X24592D01*
X24604Y11214D01*
X24611Y11206D01*
X24615Y11199D01*
X24619Y11187D01*
Y11168D01*
X24615Y11157D01*
X24611Y11149D01*
X24604Y11142D01*
X24592Y11138D01*
X24566D01*
X24637Y11218D02*
Y11138D01*
X24683D01*
X24691Y11203D02*
X24699Y11206D01*
X24710Y11218D01*
Y11138D01*
X24796Y11206D02*
X24792Y11214D01*
X24780Y11218D01*
X24773D01*
X24761Y11214D01*
X24754Y11203D01*
X24750Y11184D01*
Y11165D01*
X24754Y11149D01*
X24761Y11142D01*
X24773Y11138D01*
X24777D01*
X24788Y11142D01*
X24796Y11149D01*
X24799Y11161D01*
Y11165D01*
X24796Y11176D01*
X24788Y11184D01*
X24777Y11187D01*
X24773D01*
X24761Y11184D01*
X24754Y11176D01*
X24750Y11165D01*
X5300Y11200D02*
Y11120D01*
Y11200D02*
X5326D01*
X5338Y11196D01*
X5345Y11189D01*
X5349Y11181D01*
X5353Y11170D01*
Y11151D01*
X5349Y11139D01*
X5345Y11132D01*
X5338Y11124D01*
X5326Y11120D01*
X5300D01*
X5371Y11200D02*
Y11120D01*
X5417D01*
X5425Y11185D02*
X5433Y11189D01*
X5444Y11200D01*
Y11120D01*
X5537Y11200D02*
X5499Y11120D01*
X5484Y11200D02*
X5537D01*
X5307Y7743D02*
Y7663D01*
Y7743D02*
X5334D01*
X5345Y7739D01*
X5353Y7732D01*
X5357Y7724D01*
X5361Y7713D01*
Y7694D01*
X5357Y7682D01*
X5353Y7675D01*
X5345Y7667D01*
X5334Y7663D01*
X5307D01*
X5379Y7743D02*
Y7663D01*
X5424D01*
X5433Y7728D02*
X5441Y7732D01*
X5452Y7743D01*
Y7663D01*
X5511Y7743D02*
X5499Y7739D01*
X5496Y7732D01*
Y7724D01*
X5499Y7717D01*
X5507Y7713D01*
X5522Y7709D01*
X5534Y7705D01*
X5541Y7697D01*
X5545Y7690D01*
Y7678D01*
X5541Y7671D01*
X5537Y7667D01*
X5526Y7663D01*
X5511D01*
X5499Y7667D01*
X5496Y7671D01*
X5492Y7678D01*
Y7690D01*
X5496Y7697D01*
X5503Y7705D01*
X5515Y7709D01*
X5530Y7713D01*
X5537Y7717D01*
X5541Y7724D01*
Y7732D01*
X5537Y7739D01*
X5526Y7743D01*
X5511D01*
X5287Y9488D02*
Y9408D01*
Y9488D02*
X5314D01*
X5325Y9484D01*
X5333Y9477D01*
X5337Y9469D01*
X5340Y9458D01*
Y9439D01*
X5337Y9427D01*
X5333Y9420D01*
X5325Y9412D01*
X5314Y9408D01*
X5287D01*
X5358Y9488D02*
Y9408D01*
X5404D01*
X5413Y9473D02*
X5420Y9477D01*
X5432Y9488D01*
Y9408D01*
X5521Y9461D02*
X5517Y9450D01*
X5509Y9442D01*
X5498Y9439D01*
X5494D01*
X5483Y9442D01*
X5475Y9450D01*
X5471Y9461D01*
Y9465D01*
X5475Y9477D01*
X5483Y9484D01*
X5494Y9488D01*
X5498D01*
X5509Y9484D01*
X5517Y9477D01*
X5521Y9461D01*
Y9442D01*
X5517Y9423D01*
X5509Y9412D01*
X5498Y9408D01*
X5490D01*
X5479Y9412D01*
X5475Y9420D01*
X2621Y9394D02*
Y9314D01*
Y9394D02*
X2647D01*
X2659Y9390D01*
X2666Y9383D01*
X2670Y9375D01*
X2674Y9364D01*
Y9345D01*
X2670Y9333D01*
X2666Y9326D01*
X2659Y9318D01*
X2647Y9314D01*
X2621D01*
X2692Y9394D02*
Y9314D01*
X2738D01*
X2750Y9375D02*
Y9379D01*
X2754Y9386D01*
X2758Y9390D01*
X2765Y9394D01*
X2781D01*
X2788Y9390D01*
X2792Y9386D01*
X2796Y9379D01*
Y9371D01*
X2792Y9364D01*
X2784Y9352D01*
X2746Y9314D01*
X2800D01*
X2840Y9394D02*
X2829Y9390D01*
X2821Y9379D01*
X2818Y9360D01*
Y9348D01*
X2821Y9329D01*
X2829Y9318D01*
X2840Y9314D01*
X2848D01*
X2859Y9318D01*
X2867Y9329D01*
X2871Y9348D01*
Y9360D01*
X2867Y9379D01*
X2859Y9390D01*
X2848Y9394D01*
X2840D01*
X3847Y10484D02*
Y10404D01*
Y10484D02*
X3874D01*
X3885Y10480D01*
X3893Y10472D01*
X3896Y10465D01*
X3900Y10453D01*
Y10434D01*
X3896Y10423D01*
X3893Y10415D01*
X3885Y10408D01*
X3874Y10404D01*
X3847D01*
X3918Y10484D02*
Y10404D01*
X3964D01*
X3976Y10465D02*
Y10469D01*
X3980Y10476D01*
X3984Y10480D01*
X3992Y10484D01*
X4007D01*
X4014Y10480D01*
X4018Y10476D01*
X4022Y10469D01*
Y10461D01*
X4018Y10453D01*
X4011Y10442D01*
X3973Y10404D01*
X4026D01*
X4044Y10469D02*
X4051Y10472D01*
X4063Y10484D01*
Y10404D01*
X3573Y7733D02*
Y7653D01*
Y7733D02*
X3599D01*
X3611Y7729D01*
X3618Y7722D01*
X3622Y7714D01*
X3626Y7703D01*
Y7683D01*
X3622Y7672D01*
X3618Y7664D01*
X3611Y7657D01*
X3599Y7653D01*
X3573D01*
X3644Y7733D02*
Y7653D01*
X3689D01*
X3702Y7714D02*
Y7718D01*
X3706Y7725D01*
X3710Y7729D01*
X3717Y7733D01*
X3733D01*
X3740Y7729D01*
X3744Y7725D01*
X3748Y7718D01*
Y7710D01*
X3744Y7703D01*
X3736Y7691D01*
X3698Y7653D01*
X3752D01*
X3773Y7714D02*
Y7718D01*
X3777Y7725D01*
X3781Y7729D01*
X3788Y7733D01*
X3804D01*
X3811Y7729D01*
X3815Y7725D01*
X3819Y7718D01*
Y7710D01*
X3815Y7703D01*
X3808Y7691D01*
X3769Y7653D01*
X3823D01*
X16196Y569D02*
X16189Y577D01*
X16177Y580D01*
X16162D01*
X16151Y577D01*
X16143Y569D01*
Y561D01*
X16147Y554D01*
X16151Y550D01*
X16158Y546D01*
X16181Y538D01*
X16189Y535D01*
X16193Y531D01*
X16196Y523D01*
Y512D01*
X16189Y504D01*
X16177Y500D01*
X16162D01*
X16151Y504D01*
X16143Y512D01*
X16214Y580D02*
X16233Y500D01*
X16252Y580D02*
X16233Y500D01*
X16252Y580D02*
X16271Y500D01*
X16290Y580D02*
X16271Y500D01*
X16344Y580D02*
X16306Y527D01*
X16364D01*
X16344Y580D02*
Y500D01*
X13717Y536D02*
X13710Y544D01*
X13698Y547D01*
X13683D01*
X13672Y544D01*
X13664Y536D01*
Y528D01*
X13668Y521D01*
X13672Y517D01*
X13679Y513D01*
X13702Y505D01*
X13710Y502D01*
X13713Y498D01*
X13717Y490D01*
Y479D01*
X13710Y471D01*
X13698Y467D01*
X13683D01*
X13672Y471D01*
X13664Y479D01*
X13735Y547D02*
X13754Y467D01*
X13773Y547D02*
X13754Y467D01*
X13773Y547D02*
X13792Y467D01*
X13811Y547D02*
X13792Y467D01*
X13835Y547D02*
X13877D01*
X13854Y517D01*
X13865D01*
X13873Y513D01*
X13877Y509D01*
X13881Y498D01*
Y490D01*
X13877Y479D01*
X13869Y471D01*
X13858Y467D01*
X13846D01*
X13835Y471D01*
X13831Y475D01*
X13827Y483D01*
X11208Y531D02*
X11200Y538D01*
X11189Y542D01*
X11173D01*
X11162Y538D01*
X11154Y531D01*
Y523D01*
X11158Y516D01*
X11162Y512D01*
X11170Y508D01*
X11193Y500D01*
X11200Y497D01*
X11204Y493D01*
X11208Y485D01*
Y474D01*
X11200Y466D01*
X11189Y462D01*
X11173D01*
X11162Y466D01*
X11154Y474D01*
X11226Y542D02*
X11245Y462D01*
X11264Y542D02*
X11245Y462D01*
X11264Y542D02*
X11283Y462D01*
X11302Y542D02*
X11283Y462D01*
X11322Y523D02*
Y527D01*
X11325Y535D01*
X11329Y538D01*
X11337Y542D01*
X11352D01*
X11360Y538D01*
X11364Y535D01*
X11367Y527D01*
Y519D01*
X11364Y512D01*
X11356Y500D01*
X11318Y462D01*
X11371D01*
X3374Y4606D02*
Y4526D01*
X3414D01*
X3428Y4540D01*
Y4593D01*
X3414Y4606D01*
X3374D01*
X3454D02*
Y4526D01*
X3508D01*
X3588D02*
X3534D01*
X3588Y4580D01*
Y4593D01*
X3574Y4606D01*
X3548D01*
X3534Y4593D01*
X3654Y4526D02*
Y4606D01*
X3614Y4566D01*
X3668D01*
X25300Y1312D02*
Y1232D01*
Y1312D02*
X25326D01*
X25338Y1308D01*
X25345Y1300D01*
X25349Y1293D01*
X25353Y1281D01*
Y1262D01*
X25349Y1251D01*
X25345Y1243D01*
X25338Y1236D01*
X25326Y1232D01*
X25300D01*
X25371Y1312D02*
Y1232D01*
X25417D01*
X25444Y1312D02*
X25433Y1308D01*
X25429Y1300D01*
Y1293D01*
X25433Y1285D01*
X25441Y1281D01*
X25456Y1278D01*
X25467Y1274D01*
X25475Y1266D01*
X25479Y1259D01*
Y1247D01*
X25475Y1240D01*
X25471Y1236D01*
X25460Y1232D01*
X25444D01*
X25433Y1236D01*
X25429Y1240D01*
X25425Y1247D01*
Y1259D01*
X25429Y1266D01*
X25437Y1274D01*
X25448Y1278D01*
X25463Y1281D01*
X25471Y1285D01*
X25475Y1293D01*
Y1300D01*
X25471Y1308D01*
X25460Y1312D01*
X25444D01*
X9207Y12736D02*
X9128D01*
Y12696D01*
X9141Y12682D01*
X9194D01*
X9207Y12696D01*
Y12736D01*
Y12656D02*
X9128D01*
Y12602D01*
Y12522D02*
Y12576D01*
X9181Y12522D01*
X9194D01*
X9207Y12536D01*
Y12562D01*
X9194Y12576D01*
X9207Y12442D02*
Y12496D01*
X9168D01*
X9181Y12469D01*
Y12456D01*
X9168Y12442D01*
X9141D01*
X9128Y12456D01*
Y12482D01*
X9141Y12496D01*
X21129Y12305D02*
Y12225D01*
X21169D01*
X21182Y12238D01*
Y12292D01*
X21169Y12305D01*
X21129D01*
X21209D02*
Y12225D01*
X21262D01*
X21342D02*
X21289D01*
X21342Y12278D01*
Y12292D01*
X21329Y12305D01*
X21302D01*
X21289Y12292D01*
X21422Y12305D02*
X21396Y12292D01*
X21369Y12265D01*
Y12238D01*
X21382Y12225D01*
X21409D01*
X21422Y12238D01*
Y12252D01*
X21409Y12265D01*
X21369D01*
X8724Y574D02*
X8716Y582D01*
X8705Y585D01*
X8689D01*
X8678Y582D01*
X8670Y574D01*
Y566D01*
X8674Y559D01*
X8678Y555D01*
X8686Y551D01*
X8708Y544D01*
X8716Y540D01*
X8720Y536D01*
X8724Y528D01*
Y517D01*
X8716Y509D01*
X8705Y505D01*
X8689D01*
X8678Y509D01*
X8670Y517D01*
X8742Y585D02*
X8761Y505D01*
X8780Y585D02*
X8761Y505D01*
X8780Y585D02*
X8799Y505D01*
X8818Y585D02*
X8799Y505D01*
X8834Y570D02*
X8841Y574D01*
X8853Y585D01*
Y505D01*
D109*
X26585Y1822D02*
D03*
X26572Y2538D02*
D03*
X3454Y2323D02*
D03*
X3447Y3039D02*
D03*
X8840Y12345D02*
D03*
D110*
X26581Y2277D02*
D03*
X26568Y2993D02*
D03*
X3458Y1868D02*
D03*
X3451Y2584D02*
D03*
X8836Y12800D02*
D03*
D111*
X3930Y7287D02*
D03*
X4166Y10025D02*
D03*
X2992Y8971D02*
D03*
X5616Y9016D02*
D03*
X5659Y7304D02*
D03*
X5619Y10746D02*
D03*
X24897Y10744D02*
D03*
X4825Y1642D02*
D03*
X2528Y1643D02*
D03*
X27938Y1602D02*
D03*
X24902Y9014D02*
D03*
X24859Y7294D02*
D03*
X26594Y7289D02*
D03*
X26350Y10015D02*
D03*
X27529Y8981D02*
D03*
X28133Y7503D02*
D03*
X28476Y3830D02*
D03*
X2388Y7498D02*
D03*
X25634Y1602D02*
D03*
X21491Y12572D02*
D03*
X3731Y4175D02*
D03*
D112*
X3475Y7283D02*
D03*
X3711Y10021D02*
D03*
X2537Y8967D02*
D03*
X5162Y9013D02*
D03*
X5204Y7301D02*
D03*
X5163Y10742D02*
D03*
X24442Y10740D02*
D03*
X4370Y1639D02*
D03*
X2075Y1639D02*
D03*
X27482Y1598D02*
D03*
X24447Y9010D02*
D03*
X24404Y7291D02*
D03*
X26139Y7285D02*
D03*
X25895Y10011D02*
D03*
X27074Y8977D02*
D03*
X27679Y7499D02*
D03*
X28021Y3826D02*
D03*
X1932Y7494D02*
D03*
X25179Y1598D02*
D03*
X21036Y12569D02*
D03*
X3276Y4171D02*
D03*
M02*
