M48
;Layer_Color=9474304
;FILE_FORMAT=4:2
METRIC,LZ
;TYPE=PLATED
T1F00S00C0.30
T2F00S00C0.40
T3F00S00C0.85
T4F00S00C0.90
T5F00S00C1.00
T7F00S00C1.20
T9F00S00C1.40
%
T01
X028084Y000343
X028198
X028325Y00034
X028457Y000348
X028571
X028698Y000345
X028754Y000432
X028632
X028686Y000516
X028571Y000518
X028452Y000516
X0285Y000437
X028381Y000427
X028259
X028127Y000432
X028078Y000511
X028198Y000513
X028312Y000511
X028269Y000856
X028155
X028198Y000945
X02815Y001024
X028269Y001026
X028383Y001024
X02833Y00094
X028452
X028571Y00095
X028523Y001029
X028642Y001031
X028757Y001029
X028703Y000945
X028825
X028769Y000859
X028642Y000861
X028528
X028396Y000853
X028835Y000521
X028955Y000523
X029069Y000521
X029016Y000437
X029138
X029082Y000351
X028955Y000353
X02884
X028884Y000442
X029171Y000699
X029285Y000696
X029404Y000699
X029356Y000777
X029475Y000787
X029597
X029544Y000704
X029658Y000701
X029778Y000704
X029729Y000782
X029773Y000871
X029658
X029531Y000874
X029399Y000866
X029285
X029158Y000869
X029102Y000782
X029224
X025782Y000277
X025668Y000279
X025549Y000277
X025597Y000198
X025477Y000188
X025356
X025224Y000193
X025175Y000272
X025295Y000274
X025409Y000272
X025422Y000102
X025295Y000104
X02518
X025038Y000107
X024911Y000109
X024797
X02484Y000198
X024792Y000277
X024911Y000279
X025025Y000277
X024972Y000193
X025094
X024721Y000188
X024599
X024467Y000193
X024418Y000272
X024538Y000274
X024652Y000272
X024665Y000102
X024538Y000104
X024423
X024075Y000714
X023948Y000716
X023834
X023877Y000805
X023829Y000884
X023948Y000886
X024063Y000884
X024009Y0008
X024131
X024154Y001019
X024027Y001021
X023913
X023956Y00111
X023908Y001189
X024027Y001191
X024141Y001189
X024088Y001105
X02421
X023837Y0011
X023715
X023583Y001105
X023534Y001184
X023654Y001186
X023768Y001184
X023781Y001013
X023654Y001016
X023539
X023575Y000881
X023689Y000879
X023636Y000795
X023758
X023702Y000709
X023575Y000711
X023461
X023504Y0008
X023456Y000879
X023306Y000884
X023191Y000886
X023072Y000884
X02312Y000805
X023077Y000716
X023191
X023318Y000714
X023374Y0008
X023252
X023199Y001029
X023085
X023128Y001118
X02308Y001196
X023199Y001199
X023313Y001196
X02326Y001113
X023382
X023326Y001026
X023288Y000302
X023174Y000305
X023235Y000218
X023357
X023301Y000132
X023174Y000135
X023103Y000224
X025554Y000109
X025668
X025795Y000107
X025851Y000193
X025729
X023059Y000135
X022927Y000127
X0228Y00013
X022686
X022729Y000218
X022681Y000297
X0228Y0003
X022915Y000297
X022861Y000213
X022983
X023054Y000302
X022945Y000709
X022818Y000711
X022704
X022747Y0008
X022699Y000879
X022818Y000881
X022932Y000879
X022879Y000795
X023001
X022953Y001021
X022826Y001024
X022711
X022755Y001113
X022706Y001191
X022826Y001194
X02294Y001191
X022887Y001107
X023009
X022516Y001125
X022308Y001041
X022219Y001161
X02212Y001087
X022135Y000942
X02197Y000782
X022384Y000762
X022315Y000295
X022201Y000297
X022082Y000295
X02213Y000216
X02201Y000206
X021888
X021756Y000211
X021708Y00029
X021828Y000292
X021942Y00029
X021955Y000119
X021828Y000122
X021713
X0215Y000132
X021373Y000135
X021259
X021302Y000224
X021253Y000302
X021373Y000305
X021487Y000302
X021434Y000218
X021556
X021182Y000213
X02106
X020928Y000218
X02088Y000297
X020999Y0003
X021114Y000297
X021126Y000127
X020999Y00013
X020885
X020718Y000132
X020591Y000135
X020476
X020519Y000224
X020471Y000302
X020591Y000305
X020705Y000302
X020651Y000218
X020773
X0204Y000213
X020278
X020146Y000218
X020098Y000297
X020217Y0003
X020331Y000297
X020344Y000127
X020217Y00013
X020103
X01992
X019793Y000132
X019679
X019722Y000221
X019674Y0003
X019793Y000302
X019907Y0003
X019854Y000216
X019976
X019602Y000211
X019481
X019348Y000216
X0193Y000295
X01942Y000297
X019534Y000295
X019547Y000124
X01942Y000127
X019305
X019618Y000561
X019575Y000782
X019765Y000742
X020004Y00079
X019956Y000635
X020243Y000488
X020347Y000937
X020603Y000942
X020545Y000798
X021228Y000853
Y001072
X02169Y001029
X022087Y000127
X022201
X022328Y000124
X022384Y000211
X022262
X02006Y001201
X019417Y001085
X01942Y000983
X019257
X019176Y001082
X0177Y000272
X017586Y000274
X017466Y000272
X017515Y000193
X017395Y000183
X017273
X017141Y000188
X017093Y000267
X017212Y000269
X017327Y000267
X017339Y000097
X017212Y000099
X017098
X016885Y000109
X016758Y000112
X016643
X016687Y000201
X016638Y000279
X016758Y000282
X016872Y000279
X016819Y000196
X016941
X016567Y00019
X016445
X016313Y000196
X016265Y000274
X016384Y000277
X016499Y000274
X016511Y000104
X016384Y000107
X01627
X016102Y000109
X015975Y000112
X015861
X015904Y000201
X015856Y000279
X015975Y000282
X01609Y000279
X016036Y000196
X016158
X015785Y00019
X015663
X015531Y000196
X015483Y000274
X015602Y000277
X015716Y000274
X015729Y000104
X015602Y000107
X015488
X015305
X015178Y000109
X015239Y000193
X015361
X015292Y000277
X015178Y000279
X017471Y000104
X017586
X017713Y000102
X017769Y000188
X017647
X015107Y000198
X015058Y000277
X014919Y000272
X014865Y000188
X014987
X014931Y000102
X015063Y000109
X014357Y000163
X01423Y000165
X014116
X014159Y000254
X014111Y000333
X01423Y000335
X014345Y000333
X014291Y000249
X014413
X01404Y000244
X013918
X013971Y000328
X013857Y00033
X013738Y000328
X013786Y000249
X013743Y00016
X013857
X013984Y000157
X012793Y000203
X012666Y000206
X012551
X012595Y000295
X012546Y000373
X012666Y000376
X01278Y000373
X012727Y00029
X012849
X012475Y000284
X012353
X012407Y000368
X012292Y000371
X012173Y000368
X012221Y00029
X012178Y000201
X012292
X012419Y000198
X011965Y000211
X011838Y000213
X011723
X011767Y000302
X011718Y000381
X011838Y000384
X011952Y000381
X011899Y000297
X012021
X011647Y000292
X011525
X011579Y000376
X011464Y000378
X011345Y000376
X011393Y000297
X01135Y000208
X011464
X011591Y000206
X011182Y000211
X011238Y000297
X01117Y000381
X011807Y000884
X012287Y001184
X012676Y001201
X011055Y000384
X010936Y000381
X010984Y000302
X010865Y000292
X010743
X010796Y000376
X010682Y000378
X010563Y000376
X010611Y000297
X010568Y000208
X010682
X010809Y000206
X010941Y000213
X011055
X011116Y000297
X010441Y000295
X010319
X010187Y0003
X010138Y000378
X010258Y000381
X010372Y000378
X010385Y000208
X010258Y000211
X010144
X010011Y000203
X009884Y000206
X00977
X009813Y000295
X009765Y000373
X009884Y000376
X009999Y000373
X009945Y00029
X010067
X009613Y000287
X009491
X009359Y000292
X00931Y000371
X00943Y000373
X009544Y000371
X009557Y000201
X00943Y000203
X009315
X009183Y000196
X009056Y000198
X008942
X008985Y000287
X008937Y000366
X009056Y000368
X009171Y000366
X009117Y000282
X009239
X008782Y000274
X00866
X008528Y000279
X00848Y000358
X008599Y000361
X008714Y000358
X008726Y000188
X008599Y00019
X008485
X008353Y000183
X008226Y000185
X008112
X008155Y000274
X008106Y000353
X008226Y000356
X00834Y000353
X008287Y000269
X008409
X007974Y000241
X007852
X00772Y000246
X007672Y000325
X007791Y000328
X007906Y000325
X007918Y000155
X007791Y000157
X007677
X007545Y00015
X007418Y000152
X007304
X007347Y000241
X007299Y00032
X007418Y000323
X007532Y00032
X007479Y000236
X007601
X007205Y000244
X007217Y000814
X007311
X007644Y000833
X007687Y00114
X007967Y000782
X009442Y000765
X009956Y000775
X007136Y000328
X007022Y00033
X006902Y000328
X006951Y000249
X006831Y000239
X006709
X006763Y000323
X006648Y000325
X006529Y000323
X006577Y000244
X006534Y000155
X006648
X006775Y000152
X006908Y00016
X007022
X007149Y000157
X007083Y000244
X006544Y00078
X00643
X006346
X005831Y000912
X005709
X005762Y000996
X005648Y000998
X005528Y000996
X005577Y000917
X005457Y000907
X005335
X005203Y000912
X005155Y000991
X005274Y000993
X005389Y000991
X005412Y00112
X005292Y001118
X005178Y00112
X005231Y001204
X005109
X005363Y001199
X005551Y001125
X005665Y001123
X005785Y001125
X005737Y001204
X005404Y000277
X00529Y000279
X00517Y000277
X005218Y000198
X005099Y000188
X004977
X005031Y000272
X004916Y000274
X004797Y000272
X004845Y000193
X004716
X004594
X004462Y000198
X004413Y000277
X004533Y000279
X004647Y000277
X00466Y000107
X004533Y000109
X004418
X004286Y000102
X004159Y000104
X004045
X004088Y000193
X00404Y000272
X004159Y000274
X004274Y000272
X00422Y000188
X004342
X004802Y000104
X004916
X005043Y000102
X005175Y000109
X00529
X005417Y000107
X005472Y000193
X005351
X003367Y000561
X003194Y000625
X003186Y000495
X003067Y000493
X002953Y000495
X003006Y000579
X002884
X002765Y000569
X002813Y00049
X002694Y000488
X002579Y00049
X002633Y000574
X002511
X002567Y00066
X002572Y000759
X002452Y000757
X002338Y000759
X002391Y000843
X00227
X002325Y00093
X002452Y000927
X002567
X002524Y000838
X002643Y000848
X002765
X002711Y000765
X002826Y000762
X002808Y000658
X002694
X00294Y000665
X002945Y000765
X002897Y000843
X00294Y000932
X002826
X002699Y000935
X003044Y000955
X003067Y000663
X002366Y000607
X002252
X002125Y00061
X001993Y000602
X001878
X001751Y000605
X001695Y000518
X001817
X001949Y000513
X001998Y000434
X001878Y000432
X001764Y000434
X001701Y000305
X001828Y000302
X001942
X001899Y000213
X001947Y000135
X001828Y000132
X001713Y000135
X001767Y000218
X001645
X001391Y000211
X001271Y000208
X001157Y000211
X00121Y000295
X001088
X000969Y000284
X001017Y000206
X000898Y000203
X000784Y000206
X000837Y00029
X000715
X000771Y000376
X000898Y000373
X001012
X001144Y000381
X001271Y000378
X001386
X001342Y00029
X001335Y000566
X001449Y000564
X001568Y000566
X00152Y000645
X001563Y000734
X001449
X001322Y000737
X00119Y000729
X001076
X000949Y000732
X000893Y000645
X001015
X001147Y00064
X001195Y000561
X001076Y000559
X000961Y000561
X000682Y000541
Y000655
X000685Y000782
X000677Y000914
Y001029
X000679Y001156
X000593Y00109
X000588Y000958
X000509Y000909
X000507Y001029
X000509Y001143
X000514Y00077
X000512Y000655
X000514Y000536
X000593Y000584
X000598Y000716
Y000838
X001096Y000983
X001094Y001102
X00118Y001163
X001175Y001031
X001264Y000988
Y001102
X001373Y001191
X0015Y001189
X001614
X001579Y001069
X001693
X00165Y00098
X001698Y000902
X001579Y000899
X001464Y000902
X001518Y000986
X001396
X001452Y001072
X001769Y000991
X001891
X001838Y000907
X001952Y000904
X002071Y000907
X002023Y000986
X002069Y000523
X002191
X002137Y000439
X002252Y000437
X002371Y000439
X002323Y000518
X002315Y000307
X002201
X002074Y00031
X002018Y000224
X00214
X002087Y00014
X002201Y000137
X00232Y00014
X002272Y000218
X001388Y00065
X001266
Y001229
X001259Y001361
Y001476
X001261Y001603
X001175Y001659
Y001537
X00117Y001405
X001091Y001356
X001088Y001476
X001091Y00159
X000941Y001626
X000939Y001499
Y001384
X00085Y001427
X000771Y001379
X000768Y001499
X000771Y001613
X000855Y00156
Y001681
X000845Y001801
X000766Y001753
X000763Y001872
X000766Y001986
X00085Y001933
Y002055
X000936Y001999
X000933Y001872
Y001758
X000456Y001722
Y001836
X000459Y001963
X000372Y002019
Y001897
X000367Y001765
X000288Y001717
X000286Y001836
X000288Y001951
Y002294
X00021Y002245
X000207Y002365
X00021Y002479
X000293Y002426
Y002548
X000283Y002667
X000205Y002619
X000202Y002738
X000205Y002852
X000288Y002799
Y002921
X000375Y002865
X000372Y002738
Y002624
X00038Y002492
X000377Y002365
Y00225
X000565Y002197
X000563Y002316
X000565Y002431
X000649Y002377
Y002499
X000639Y002619
X00056Y00257
X000558Y00269
X00056Y002804
X000644Y002751
Y002873
X00073Y002817
X000728Y00269
Y002576
X000735Y002443
X000733Y002316
Y002202
X000644Y002245
X000941Y002296
X000939Y002416
X000941Y00253
X001025Y002476
Y002598
X001015Y002718
X000936Y00267
X000933Y002789
X000936Y002903
X00102Y00285
Y002972
X001106Y002916
X001104Y002789
Y002675
X001111Y002543
X001109Y002416
Y002301
X00102Y002344
X00088Y003096
Y003211
X000883Y003338
X000875Y00347
Y003584
X000878Y003711
X000791Y003767
Y003645
X000786Y003513
X000707Y003465
X000705Y003584
X000707Y003698
X000428Y003691
Y003576
X000339Y003619
X00026Y003571
X000258Y003691
X00026Y003805
X000344Y003752
Y003874
X000431Y003818
X000542Y004034
X00054Y004153
X000542Y004267
X000626Y004214
Y004336
X000616Y004455
X000537Y004407
X000535Y004526
X000537Y004641
X000621Y004587
Y004709
X000707Y004653
X000705Y004526
Y004412
X000712Y00428
X00071Y004153
Y004039
X000621Y004082
X000342Y004166
Y00428
X000344Y004407
X000337Y004539
Y004653
X000339Y00478
X000253Y004836
Y004714
X000248Y004582
X000169Y004534
X000166Y004653
X000169Y004768
X000174Y004394
X000171Y00428
X000174Y004161
X000253Y004209
X000258Y004341
Y004463
X00119Y004483
X001528Y004488
X001368Y004214
X00152Y003848
X001751Y003909
X001716Y003693
X001833Y003622
X001906Y003749
X001693Y00352
X001538Y003513
X001274Y003526
Y00364
X001276Y003767
X00119Y003823
Y003701
X001185Y003569
X001106Y00352
X001104Y00364
X001106Y003754
X001111Y003381
X001109Y003266
X001111Y003147
X00119Y003195
X001279Y003152
Y003266
X001281Y003393
X001195Y003449
Y003327
X000796Y003272
Y003393
X000712Y003325
X00071Y003211
X000712Y003091
X000791Y003139
X000433Y003203
Y003317
X000436Y003444
X000349Y0035
Y003378
X000265Y003432
X000263Y003317
X000265Y003198
X000344Y003246
X000377Y001646
Y001524
X000293Y001577
X000291Y001463
X000293Y001344
X000372Y001392
X000461Y001349
Y001463
X000464Y00159
X000593Y001212
X001096Y001217
X00118Y001285
X002513Y001552
X00262Y001788
X003164Y002174
X003128Y002774
X0028Y003203
Y003317
X002803Y003444
X002795Y003576
Y003691
X002798Y003818
X002711Y003874
Y003752
X002628Y003805
X002625Y003691
X002628Y003571
X002706Y003619
X002717Y0035
Y003378
X002711Y003246
X002633Y003198
X00263Y003317
X002633Y003432
X002513Y003426
Y003312
X002424Y003355
X002346Y003307
X002231Y003312
X002229Y003185
Y003071
X00214Y003114
X002061Y003066
X002059Y003185
X002061Y003299
X002145Y003246
Y003368
X002343Y003426
X002346Y003541
X00243Y003487
Y003609
X002516Y003553
X002521Y00318
X002518Y003053
Y002939
X00243Y002982
X002351Y002934
X002236Y002939
X002234Y002812
Y002697
X002145Y002741
X002066Y002692
X002064Y002812
X002066Y002926
X00215Y002873
Y002995
X002348Y003053
X002351Y003167
X002435Y003114
Y003236
X002511Y004046
X002747Y003993
X0026Y004331
X002201Y004455
X002082Y004442
X004142Y003993
X004269Y00399
X004383
X00434Y003901
X004388Y003823
X004269Y00382
X004154Y003823
X004208Y003907
X004086
X004459Y003912
X004581
X004713Y003907
X004761Y003828
X004642Y003825
X004528Y003828
X004515Y003998
X004642Y003995
X004756
X004906Y003858
X004903Y00368
X004779Y003698
X004782Y003579
X004779Y003465
X004695Y003518
Y003396
X004705Y003277
X004784Y003325
X004787Y003205
X004784Y003091
X0047Y003145
Y003023
X004614Y003078
X004616Y003205
Y00332
X004609Y003452
X004611Y003579
Y003693
X0047Y00365
X004451Y003706
X004454Y003586
X004451Y003472
X004368Y003526
Y003404
X004378Y003284
X004456Y003332
X004459Y003213
X004456Y003099
X004373Y003152
Y00303
X004286Y003086
X004289Y003213
Y003327
X004281Y003459
X004284Y003586
Y003701
X004373Y003658
X004901Y003505
Y003315
Y003137
Y002946
X004903Y002751
X005018Y002695
X005005Y002847
X005003Y003043
Y003233
Y003411
Y003602
X005005Y003777
X005008Y003955
X005114Y004656
X005229
X005356Y004653
X005488Y004661
X005602
X005729Y004658
X005785Y004745
X005663
X005716Y004829
X005602Y004831
X005483Y004829
X005531Y00475
X005412Y00474
X00529
X005158Y004745
X005109Y004823
X005229Y004826
X005343Y004823
X005937Y004816
X006057Y004818
X006171Y004816
X006118Y004732
X00624
X006359Y004742
X006311Y004821
X00643Y004823
X006544Y004821
X006491Y004737
X006613
X006557Y004651
X00643Y004653
X006316
X006184Y004646
X006057Y004648
X005942
X005986Y004737
X00676Y00495
X007032Y004155
X007151Y004158
X00708Y004077
X007037Y003988
X007151
X007101Y003815
X007149Y003736
X007106Y003647
X006534Y003645
Y003454
Y003277
Y003086
X006532Y002911
X006529Y002733
X006412Y00284
X006415Y003018
X006417Y003193
Y003383
Y003561
Y003752
X006415Y003947
X006532Y00384
X006321Y00269
X006125Y002692
X00593Y00269
X005739
X005561
X005371
X005196Y002692
X005165Y00129
X005292Y001288
X005406
X005538Y001295
X005665Y001293
X00578
X005605Y001209
X005483
X006011Y001503
X006101Y001507
X006191Y001504
X006387Y001483
X006514Y001481
X006628
X006585Y001392
X006633Y001313
X006514Y001311
X0064Y001313
X006453Y001397
X006331
X006704Y001402
X006826
X006958Y001397
X007007Y001318
X006887Y001316
X006773Y001318
X00676Y001488
X006887Y001486
X007002
X007154
X007098Y0014
X007167Y001316
X006191Y001844
X0061Y001754
X006011Y001664
X004271Y001798
X004179Y001522
X003791Y00208
X003616Y002517
X004403Y004905
X004421Y005042
X004507Y005044
X0045Y004981
X004604Y004968
X004596Y005088
X004688Y005085
X004804Y00509
X004515Y005174
X004401Y005123
X004347Y005014
X004528Y004846
X007228
X007342
X007469Y004844
X007601Y004851
X007715
X007842Y004849
X007898Y004935
X007776
X00783Y005019
X007715Y005022
X007596Y005019
X007644Y00494
X007525Y00493
X007403
X007271Y004935
X007223Y005014
X007342Y005017
X007456Y005014
X007497Y005126
X00737Y005128
X007256
X007629Y005133
X007743
X00787Y005131
X008084Y005121
X008198
X008325Y005118
X008457Y005126
X008571
X008698Y005123
X008658Y005011
X008543Y005014
X008424Y005011
X008472Y004933
X008353Y004923
X008231
X008099Y004928
X008051Y005006
X00817Y005009
X008284Y005006
X008297Y004836
X00817Y004839
X008056
X008045Y00447
X008165Y004473
X008279Y00447
X008226Y004387
X008348
X008467Y004397
X008419Y004475
X008538Y004478
X008653Y004475
X008599Y004392
X008721
X008665Y004305
X008538Y004308
X008424
X008292Y0043
X008165Y004303
X008051
X008094Y004392
X007893Y004399
X007771
X007825Y004483
X00771Y004486
X007591Y004483
X007639Y004404
X00752Y004394
X007398
X007266Y004399
X007217Y004478
X007337Y004481
X007451Y004478
X007464Y004308
X007337Y00431
X007223
X007266Y004155
X007212Y004072
X007334
X007454Y004082
X007405Y004161
X007525Y004163
X007639Y004161
X007586Y004077
X007708
X007652Y00399
X007525Y003993
X00741
X007278Y003985
X00722Y003818
X007334Y003815
X007281Y003731
X007403
X007522Y003741
X007474Y00382
X007593Y003823
X007708Y00382
X007654Y003736
X007776
X00772Y00365
X007593Y003653
X007479
X007347Y003645
X00722Y003647
X007906Y003607
X00802
X008147Y003604
X008279Y003612
X008393
X00852Y003609
X008576Y003696
X008454
X008322Y003701
X008274Y00378
X008393Y003782
X008508Y00378
X00848Y003983
X008353Y003985
X008239
X008282Y004074
X008233Y004153
X008353Y004155
X008467Y004153
X008414Y004069
X008536
X00868Y004074
X008632Y004153
X008752Y004155
X008866Y004153
X008813Y004069
X008934
X009054Y004079
X009006Y004158
X009125Y004161
X009239Y004158
X009186Y004074
X009308
X009252Y003988
X009125Y00399
X009011
X008879Y003983
X008752Y003985
X008637
X008106Y003978
X007979Y00398
X007865
X007908Y004069
X00786Y004148
X007979Y00415
X008094Y004148
X00804Y004064
X008162
X008134Y003774
X00802Y003777
X007901Y003774
X007949Y003696
X008081Y003691
X008203
X007837Y004313
X00771Y004315
X007596
X008851Y00431
X008965
X009092Y004308
X009224Y004315
X009338
X009465Y004313
X009521Y004399
X009399
X009453Y004483
X009338Y004486
X009219Y004483
X009267Y004404
X009148Y004394
X009026
X008894Y004399
X008846Y004478
X008965Y004481
X009079Y004478
X009143Y004849
X009016Y004851
X008901
X008945Y00494
X008896Y005019
X009016Y005022
X00913Y005019
X009077Y004935
X009199
X009318Y004945
X00927Y005024
X009389Y005027
X009503Y005024
X00945Y00494
X009572
X009516Y004854
X009389Y004856
X009275
X009295Y005141
X009409
X009536Y005138
X00975Y005128
X009864
X009991Y005126
X010123Y005133
X010238
X010364Y005131
X010331Y005017
X010217Y005019
X010098Y005017
X010146Y004938
X010027Y004928
X009905
X009773Y004933
X009724Y005011
X009844Y005014
X009958Y005011
X009971Y004841
X009844Y004844
X009729
X010103Y004849
X010217
X010344Y004846
X0104Y004933
X010278
X010281Y004475
X010166Y004478
X010047Y004475
X010095Y004397
X009976Y004387
X009854
X009722Y004392
X009674Y00447
X009793Y004473
X009907Y00447
X00992Y0043
X009793Y004303
X009679
X009694Y004145
X00958Y004148
X00946Y004145
X009509Y004067
X009465Y003978
X00958
X009707Y003975
X009839Y003983
X009953
X01008Y00398
X010136Y004067
X010014
X010067Y00415
X009953Y004153
X009834Y00415
X009882Y004072
X009763Y004061
X009641
X010052Y004308
X010166
X010293Y004305
X010349Y004392
X010227
X010273Y004153
X010392Y004155
X010507Y004153
X010453Y004069
X010575
X010695Y004079
X010646Y004158
X010766Y004161
X01088Y004158
X010827Y004074
X010949
X010893Y003988
X010766Y00399
X010652
X010519Y003983
X010392Y003985
X010278
X010321Y004074
X010618Y003866
X010738Y003868
X010852Y003866
X010799Y003782
X010921
X01104Y003792
X010992Y003871
X011111Y003874
X011106Y003978
X011149Y004067
X011101Y004145
X011111Y003703
X010997
X010865Y003696
X010738Y003698
X010624
X010667Y003787
X010382Y003088
X010092Y003165
Y002997
X009831Y002906
X00983Y003169
X009577Y003172
X009319Y003166
X009061Y003167
X008823
Y002448
X009063Y002376
X009061Y00254
X009318Y002627
X009318Y002377
X009577Y002369
X00983Y002373
X010092Y002368
X010385Y002367
X009577Y002717
X009836Y001295
X009956Y001227
X009963Y001361
X010067Y001285
X007654Y001318
X00754Y001321
X007593Y001405
X007471
X007352Y001394
X0074Y001316
X007281Y001313
X00722Y0014
X007281Y001483
X007395
X007527Y001491
X007654Y001488
X007769
X007725Y0014
X008429Y004844
X008543
X00867Y004841
X008726Y004928
X008604
X008922Y005136
X009036
X009163Y005133
X01122Y004148
X011335Y004145
X011281Y004061
X011403
X011523Y004072
X011474Y00415
X011594Y004153
X011708Y00415
X011655Y004067
X011777
X011721Y00398
X011594Y003983
X01148
X011347Y003975
X01122Y003978
X011226Y003871
X011172Y003787
X011294
X011238Y003701
X011548Y003688
X011662
X011789Y003686
X011922Y003693
X012036
X012163Y003691
X012219Y003777
X012097
X011965Y003782
X011916Y003861
X012036Y003863
X01215Y003861
X012422Y00383
X012536
X012663Y003828
X012795Y003835
X01291
X013037Y003833
X013092Y003919
X012971
X012838Y003924
X01279Y004003
X01291Y004006
X013024Y004003
X013001Y004117
X013115
X013242Y004115
X013374Y004122
X013489
X013616Y00412
X013672Y004206
X01355
X013418Y004211
X013369Y00429
X013489Y004293
X013603Y00429
X013529Y004544
X013252
X013268Y004786
X013184Y00478
X013359Y004793
X013425Y00478
X013435Y004872
X013326Y004994
X013199Y005009
X013359Y004709
X01323Y004285
X013115Y004288
X012996Y004285
X013044Y004206
X013176Y004201
X013298
X013296Y003937
X013423Y003934
X013537
X013494Y003846
X013542Y003767
X013423Y003764
X013308Y003767
X013362Y003851
X01324
X013077Y003663
X012963Y003665
X012844Y003663
X012892Y003584
X012772Y003574
X01265
X012704Y003658
X01259Y00366
X01247Y003658
X012518Y003579
X012475Y00349
X01259
X012717Y003487
X012849Y003495
X012963
X01309Y003492
X013146Y003579
X013024
X013004Y00299
X013118Y002987
X013065Y002903
X013186
X013306Y002913
X013258Y002992
X013377Y002995
X013491Y002992
X013438Y002908
X01356
X013504Y002822
X013377Y002824
X013263
X013131Y002817
X013004Y002819
X012889
X012932Y002908
X012884Y002987
X012887Y002309
X012805Y00225
X013016Y002291
X013085Y002243
X013184
X013156Y002332
X013247Y002322
X013674Y002294
X013793Y002296
X013908Y002294
X013854Y00221
X013976
X014096Y00222
X014048Y002299
X014167Y002301
X014281Y002299
X014228Y002215
X01435
X014294Y002129
X014167Y002131
X014053
X013921Y002123
X013793Y002126
X013679
X013722Y002215
X01261Y002154
X012478Y002151
X012381Y002189
X012252
X012221Y001915
X012084Y001933
X011965
X011807Y001925
X011693Y0024
X011683Y002553
X011617Y002626
X011614Y002715
X011617Y002837
X011426
X011228Y002822
X011246Y002715
X011182Y002906
X011277Y002995
Y003154
X011182Y003162
X01169Y003167
Y003076
X011675Y003012
X011706Y002979
X011698Y003274
X011952Y003284
Y003459
X011845Y003772
X011723
X011777Y003856
X011662Y003858
X011543Y003856
X011591Y003777
X012465Y003919
X012417Y003998
X012536Y004001
X01265Y003998
X012597Y003914
X012719
X013613Y003856
X013735
X013682Y003772
X013796Y003769
X013915Y003772
X013867Y003851
X01391Y00394
X013796
X013669Y003942
X013961Y004016
X013956Y004183
X01419
X014136Y0041
X014258
X014378Y00411
X014329Y004188
X014449Y004191
X014563Y004188
X01451Y004105
X014632
X014576Y004018
X014449Y004021
X014335
X014202Y004013
X014241Y004732
Y004841
Y004948
X014314Y004897
X014312Y004785
X014314Y004686
X014055Y005009
Y005123
X013966Y005052
X013887Y005004
X013885Y005123
X014914Y004064
X014919Y002309
X015038Y002311
X015099Y002225
X014967Y00223
X014924Y002141
X015038
X014929Y001372
X014896Y00126
X01498Y001252
X012524Y001242
X012396Y001209
X012544Y0014
X012473Y001504
X012221Y001496
X012473Y001915
X011515Y002535
X011236Y002448
X015152Y002309
X015292Y002314
X015411Y002316
X015526Y002314
X015472Y00223
X015594
X015538Y002144
X015411Y002146
X015297
X01534Y002235
X015221Y002225
X015165Y002139
X015605Y003147
X015719
X015846Y003145
X015978Y003152
X016092
X016087Y003033
X016201Y00303
X016148Y002946
X01627
X016389Y002957
X016341Y003035
X01646Y003038
X016575Y003035
X016521Y002951
X016643
X016588Y002865
X01646Y002868
X016346
X016214Y00286
X016087Y002863
X015973
X016016Y002951
X015968Y00303
X016021Y003241
X015973Y00332
X016092Y003322
X016207Y00332
X016153Y003236
X016275
X016219Y00315
X016275Y003449
X016148Y003452
X016034
X016077Y003541
X016029Y003619
X016148Y003622
X016262Y003619
X016209Y003536
X016331
X015958Y003531
X015836
X015704Y003536
X015655Y003614
X015775Y003617
X015889Y003614
X015902Y003444
X015775Y003447
X01566
X015719Y003317
X015833Y003315
X01578Y003231
X015902
X015648Y003236
X015599Y003315
X01566Y004364
X015777Y00427
X015826Y004209
X015889Y004272
X015963Y004242
X015937Y004155
X016008Y00461
X016128Y004597
X016191Y004651
X016171Y004757
X016199Y004821
X016323
X016073Y00477
X016085Y004684
X016073Y004919
X015787Y00492
X015775Y005011
X015305Y004361
X016529Y004282
X01657Y004288
X017375Y004166
X017494Y004138
X017471Y003973
X017395Y004028
X017416Y003874
X017357Y003792
X017466Y003752
X017431Y003574
X017497Y002824
X017578Y002852
X017875Y00255
X018058
X01815Y002365
X018551
X018579Y002451
X018437Y002568
X017896Y0022
X017781Y002202
X017662Y0022
X01771Y002121
X017591Y002111
X017469
X017337Y002116
X017289Y002195
X017408Y002197
X017522Y002195
X017535Y002024
X017408Y002027
X017294
X017243Y001872
X017129
X017002Y001875
X016869Y001867
X016755
X016628Y001869
X016572Y001783
X016694
X016641Y001699
X016755Y001697
X016875Y001699
X016826Y001778
X016946Y001788
X017068
X0172Y001783
X017248Y001704
X017129Y001702
X017014Y001704
X017022Y002423
X016443Y002654
X016278Y001379
X016123
X017352Y001242
X017446Y001311
X017583Y001252
X017659Y001321
X017667Y002032
X017781
X017908Y002029
X017964Y002116
X017842
X018607Y001773
X018668Y00173
X018614Y001615
X018627Y001486
X018759Y001471
X019082Y001864
X019054Y003028
X018995Y003294
X018952Y003289
X019257Y003282
X019346Y003302
X019186Y003198
X019188Y003035
X019171Y002285
X019257Y002189
X019348Y002187
X019506Y001463
X019498Y001295
X019155Y001463
X020024Y001379
X020083Y001311
X020156Y001367
X020164Y001222
X020159Y002731
X020164Y003091
X020042Y003122
X019945Y003139
X01993Y003228
X020027Y003513
X020141Y00351
X02026Y003513
X020212Y003592
X020331Y003602
X020453
X0204Y003518
X020514Y003515
X020634Y003518
X020585Y003597
X020629Y003686
X020514
X020387Y003688
X020255Y00368
X020141
X020014Y003683
X019958Y003597
X02008
X02007Y003825
X020184Y003823
X020304Y003825
X020255Y003904
X02038
X020502
X020634Y003899
X020682Y00382
X020563Y003818
X020448Y00382
X020436Y00399
X020563Y003988
X020677
X020687Y00411
X020568Y004107
X020453Y00411
X020507Y004194
X020385
X02026Y004196
X020309Y004117
X020189Y004115
X020075Y004117
X020128Y004201
X020006
X019887Y004191
X019935Y004112
X019816Y00411
X019702Y004112
X019755Y004196
X019633
X019689Y004282
X019816Y00428
X01993
X020062Y004288
X020189Y004285
X020304
X020441Y00428
X020568Y004277
X020682
X020639Y004188
X020758Y004199
X02088
X020827Y004115
X020941Y004112
X02106Y004115
X021012Y004194
X021055Y004282
X020941
X020814Y004285
X020809Y003995
X020936Y003993
X02105
X021007Y003904
X021055Y003825
X020936Y003823
X020822Y003825
X020875Y003909
X020753
X020298Y003993
X020184
X020057Y003995
X019925Y003988
X019811
X019684Y00399
X019628Y003904
X01975
X019882Y003899
X01993Y00382
X019811Y003818
X019696Y00382
X020001Y003909
X020123
X020311Y003388
X020438Y003386
X020552
X020509Y003297
X020558Y003218
X020438Y003216
X020324Y003218
X020377Y003302
X020255
X020629Y003307
X020751
X020697Y003223
X020812Y003221
X020931Y003223
X020883Y003302
X020926Y003391
X020812
X020685Y003393
X021205Y003195
X021281Y003251
X021421Y003094
X021497Y00303
X02168Y003216
X021647Y003432
X021723Y003505
X021647Y003602
X021713Y003686
X02165Y003805
X021713Y003894
X021599Y003955
X021617Y004097
X021718Y004079
X021731Y004206
X02165Y004196
X021607Y004331
X021726Y004315
X021657Y004417
X021716Y004531
X021756Y004686
X022013
X022066Y004923
X022196Y004856
X022389Y004834
X022325Y005032
X022262Y005159
X022153Y005052
X022485Y005105
X02261Y005024
X022744Y005149
X022963Y004788
X02296Y004674
X022963Y004554
X023042Y004602
X023052Y004483
Y004361
X022968Y004415
X022965Y0043
X022968Y004181
X023047Y004229
X022849Y004257
Y004371
X022851Y004498
X022765Y004554
Y004432
X02276Y0043
X022681Y004252
X022678Y004371
X022681Y004486
X022686Y004112
X022684Y003998
X022686Y003879
X022765Y003927
X022854Y003884
Y003998
X022856Y004125
X02277Y004181
Y004059
X023052Y003988
X02295Y003777
X022704Y003597
X022457Y003574
X022452Y003868
X022313Y003863
Y003749
X022224Y003792
X022145Y003744
X022142Y003863
X022145Y003978
X022229Y003924
Y004046
X022219Y004166
X02214Y004117
X022137Y004237
X02214Y004351
X022224Y004298
Y00442
X02231Y004364
X022308Y004237
Y004122
X022315Y00399
X022483Y004186
X022554Y003157
X022899Y003124
X022785Y002913
X023001Y002725
X023065Y003317
X022008Y003373
X021998Y002548
X021883Y00255
X021764Y002548
X021812Y002469
X021769Y00238
X021883
X02201Y002377
X022142Y002385
X022257
X022384Y002383
X022318Y002469
X022186Y002474
X022137Y002553
X022257Y002555
X022066Y002464
X021944
X022165Y001999
X022285Y002002
X022399Y001999
X022346Y001915
X022468
X022587Y001925
X022539Y002004
X022658Y002007
X022772Y002004
X022719Y00192
X022841
X022785Y001834
X022658Y001836
X022544
X022412Y001829
X022285Y001831
X02217
X022214Y00192
X022165Y001577
X022066Y001582
X021977Y001588
X021871Y001565
X0218Y001605
X021822Y001481
X021675Y001582
X022242Y001526
X022366Y001562
X022953Y001504
X023001Y001425
X022958Y001336
X021137Y002263
X020825Y002316
X020792Y002408
X02082Y002466
X0208Y002525
X021204Y002652
X021287Y002626
X021388Y00461
X021548Y004501
X02168Y005169
X020796Y005141
X023047Y004856
Y004735
X023131Y004674
Y004559
X023138Y004427
X023136Y0043
Y004186
X023298Y004308
X023293Y00463
X023133Y004801
X023773Y004669
X023707Y004409
X023887Y00444
X023984Y004831
X024116Y005088
X024078Y005164
X024248Y005126
X024322Y005098
X024395Y005156
X025152Y004841
X025119Y004755
X02517Y004676
X025165Y004529
X025152Y004422
Y004331
X025145Y004232
X025236Y004178
X025119Y00411
X025076Y003973
X024987Y003934
X025018Y00381
X025076Y00383
X02499Y003739
Y003548
X025079Y003635
Y003444
X02499Y003371
Y00318
X025079Y003266
Y003076
X024987Y003005
X024985Y002827
X025076Y002901
X025074Y002723
X024896Y002685
X024718Y002687
X024543Y00269
X024352
X024174
X023984
X023788Y002687
X02359Y002708
X023489Y002784
X023486Y002979
X023588Y002903
Y003094
X023486Y00317
Y003348
X023588Y003272
Y003462
X023486Y003538
X023489Y003713
X02359Y003637
X023593Y003815
X023585Y003909
X023578Y004003
X023491Y003891
X023354Y00382
X023352Y003642
X023349Y003467
Y003277
Y003099
Y002908
X023352Y002713
X023136Y002967
X023131Y003205
X023179Y001971
X023298Y001974
X023412Y001971
X023359Y001887
X023481
X0236Y001897
X023552Y001976
X023672Y001979
X023786Y001976
X023733Y001892
X023854
X023799Y001806
X023672Y001808
X023557
X023425Y001801
X023298Y001803
X023184
X023227Y001892
X023186Y001504
X023072Y001506
X023133Y00142
X023255
X023374Y00143
X023326Y001509
X023446Y001511
X02356Y001509
X023506Y001425
X023628
X023573Y001339
X023446Y001341
X023331
X023199Y001334
X023072Y001336
X024758Y001982
X024848Y001984
X024938Y001976
X024939Y002147
X024848Y002237
X024759Y002327
X025384Y002443
X025546Y002476
X025665Y002451
X025719Y002578
X0255Y002588
X025495Y002151
X025602Y002156
X025536Y001943
X025429Y001986
X02534Y001933
X025201Y001928
X025653Y001758
X025782Y001621
X025909Y001626
Y001488
X025758Y00148
X026024Y001412
X026158Y001285
X026318Y001318
X026544Y001323
X027012Y001306
X026814Y001547
X026841Y002037
X026265Y002047
X026052Y002052
X025991Y002156
X026128Y002154
X026176Y002449
X026265Y002428
X026262Y00251
X026423Y00241
X026714Y002565
X026948Y002964
X027002Y003048
X02688
X026935Y003134
X026841Y003653
X026753Y003589
Y003854
X026841Y003927
X026402Y003944
X026158
X02609Y004107
X026008Y004178
X02592Y004247
X025831Y004333
X02574Y004425
X025653Y004526
X026021Y004529
X026016Y004425
X026029Y004331
X026046Y004674
X026003Y004755
X026077Y004829
X025506Y004755
X025419Y004676
X025328Y004841
X025326Y003601
X025236Y003602
X025416Y003599
X025506Y003599
X025648Y003595
X025738Y003655
X025828Y003749
X026013Y003795
X025991Y003653
X026062Y003588
X026006Y00351
X026067Y003442
X026024Y003355
X026082Y003279
X026204Y001877
X02629Y001798
X026295Y001646
X027314Y001803
X027426Y001801
X027692Y001935
X027715Y001313
X027555Y002969
X027436Y002967
X027322Y002969
X027375Y003053
X027253
X027134Y003043
X027182Y002964
X027062Y002962
Y003132
X027177
X027309Y003139
X027436Y003137
X02755
X027507Y003048
X028223Y003096
X028307
X028396Y003056
X028401Y002845
X028609Y002835
Y002563
X029232Y002827
X029237Y002898
X02963Y002941
X029628Y002827
X02963Y002708
X029709Y002756
X029719Y002637
Y002515
X029635Y002568
X029633Y002454
X029635Y002334
X029714Y002383
X029803Y002339
Y002454
X029806Y002581
X029798Y002713
Y002827
X029801Y002954
X029714Y00301
Y002888
X029684Y00366
Y003774
X029686Y003901
X029679Y004034
Y004148
X029681Y004275
X029595Y004331
Y004209
X02959Y004077
X029511Y004028
X029508Y004148
X029511Y004262
X029516Y003889
X029514Y003774
X029516Y003655
X029595Y003703
X0296Y003835
Y003957
X029575Y00461
X029455Y004608
X029341Y00461
X029394Y004694
X029272
X029328Y00478
X029455Y004778
X029569
X029526Y004689
X029646Y004699
X029768
X029714Y004615
X029829Y004613
X029948Y004615
X0299Y004694
X029943Y004783
X029829
X029702Y004785
X029752Y004917
X02975Y005037
X029752Y005151
X029836Y005098
X029831Y004966
X02992Y004923
Y005037
X029923Y005164
X029155Y005169
X029153Y005042
Y004928
X029064Y004971
X028985Y004923
X028983Y005042
X028985Y005156
X029069Y005103
X028665Y005072
X028663Y004945
Y004831
X028574Y004874
X028495Y004826
X028492Y004945
X028495Y00506
X028579Y005006
Y005128
X028371Y005123
Y005009
X028282Y005052
X028203Y005004
X0282Y005123
X027644
X027489Y005126
X027281Y005095
X027212Y005037
X027987Y004361
X027931Y004181
X028246Y004163
X029661Y001999
X029658Y001885
X029661Y001765
X02974Y001814
X02975Y001694
Y001572
X029666Y001626
X029663Y001511
X029666Y001392
X029745Y00144
X029834Y001397
Y001511
X029836Y001638
X029829Y00177
Y001885
X029831Y002012
X029745Y002068
Y001946
X029747Y005291
X029745Y00541
X029747Y005524
X029831Y005471
Y005593
X029917Y005537
X029915Y00541
Y005296
X029826Y005339
X029836Y00522
X029884Y005911
Y006025
X029887Y006152
X029879Y006284
Y006398
X029882Y006525
X029795Y006581
Y006459
X02979Y006327
X029712Y006279
X029709Y006398
X029712Y006513
X029704Y006878
X029702Y006998
X029704Y007112
X029788Y007059
Y007181
X029778Y0073
X029699Y007252
X029696Y007371
X029699Y007485
X029783Y007432
Y007554
X029869Y007498
X029867Y007371
Y007257
X029874Y007125
X029872Y006998
Y006883
X029783Y006927
X02929Y006873
X029295Y007036
X029173Y007066
X028998Y007071
X028823Y007059
X02879Y007277
X0288Y007422
X02881Y007963
X028726Y007912
X028538Y007915
X028147Y007955
X028155Y008141
X02803Y008138
X028076Y008197
X027929Y008166
X027855Y008161
X02772Y008164
X02771Y008052
X027687Y007859
X027695Y007661
X02757Y007767
X027182Y007714
X027211Y00867
X027621Y008455
X028063Y008446
X028067Y008702
X028063Y008954
X027752Y009025
X027741Y009116
X028957Y007976
X029064Y007963
X029635Y00791
X029633Y007795
X029635Y007676
X029714Y007724
X029803Y007681
Y007795
X029806Y007922
X029798Y008054
Y008169
X029801Y008296
X029714Y008352
Y00823
X029709Y008098
X02963Y008049
X029628Y008169
X02963Y008283
X029719Y007978
Y007856
X029295Y007351
X029277Y007188
X029127Y00682
X029244Y00666
X029105Y006528
X028774Y006088
X028777Y005697
X02866Y005446
X028658Y005319
Y005204
X028569Y005248
X02849Y005199
X028487Y005319
X02849Y005433
X028574Y00538
Y005502
X028365Y005497
Y005382
X028277Y005425
X028198Y005377
X028195Y005497
X028198Y005611
X028282Y005558
Y005679
X028368Y005624
X028373Y00525
X028287Y005306
Y005184
X028203Y005237
X02756
X027583Y005415
X027466Y005456
X027525Y00554
X027644Y005563
X0274Y005606
X02751Y005733
X027723Y005845
X027667Y005933
X027797Y005923
X02754Y006071
X027169Y005745
X027309Y005428
X027393Y005324
X027367Y005199
X02898Y005296
X028978Y005415
X02898Y00553
X029064Y005476
Y005598
X02915Y005542
X029148Y005415
Y005301
X029059Y005344
X029069Y005225
X029717Y005906
X029714Y006025
X029717Y006139
X029801Y006086
Y006208
X029795Y005954
X028249Y00617
X028345Y00633
X028058Y006299
X028078Y006622
X026781Y007013
X02662Y007681
X026527Y007668
X026303Y007628
X02659Y007925
X026674Y008186
X026908
X026918Y007871
X026958Y007811
X026676Y008677
X026928Y009063
X025008Y008868
Y008606
X024916Y0086
X025084Y008656
X024411Y008606
X024314Y008593
X024126Y008611
Y008778
X0239Y00859
X023786Y008514
X023697Y008522
X02314Y008468
X023138Y008778
X023118Y008992
X023242Y008994
X023346Y008997
X023461Y008999
X024314Y009121
X024248Y007852
X024018Y007854
X023776Y007852
X023758Y007465
X023699Y007381
X023786Y007338
X023865Y007267
X023791Y007173
X023689Y007239
X023674Y007117
X023527Y007084
X023529Y007209
X02358Y007348
X023928Y007379
X024022Y00731
X023974Y007203
X024083Y007211
X02418Y007231
X024248Y00731
X024152Y007379
X024053Y00747
X024266Y007463
X024286Y007122
X024116Y007097
X024096Y00696
X024314Y006952
X023595Y006967
X02343Y006919
X023415Y00665
X023473Y006566
X02344Y006457
X023522Y006365
X023611Y006393
X023618Y006292
X023547Y006233
X023479Y006228
X023504Y006106
X023377Y006165
X023275Y006231
X023258Y006114
X023085Y006139
X023072Y005794
X023186Y005791
X023133Y005707
X023255
X023199Y005621
X023072Y005624
X023534Y005466
Y00521
X023707Y00525
X023733Y005588
X023923Y005606
X023771Y006561
X023578Y006505
X023565Y00665
X023372Y00634
X023265Y007844
X023161Y007744
X023085Y007673
X024515Y00763
X024896Y007849
X02552Y007638
Y007549
Y007463
X025569Y007008
X024627Y005178
X022902Y005281
X022805Y005382
X022663Y005471
X022699Y005618
X022584
X022628Y005707
X022579Y005786
X022699Y005789
X022813Y005786
X02276Y005702
X022882
X023001Y005712
X022953Y005791
X022958Y005624
X022826Y005616
X023004Y005433
X022653Y005291
X022488Y00537
X022483Y00553
X022336Y005542
X022333Y005415
Y005301
X022244Y005344
X022165Y005296
X022163Y005415
X022165Y00553
X022249Y005476
Y005598
X022239Y005718
X02216Y005669
X022158Y005789
X02216Y005903
X022244Y00585
Y005972
X02233Y005916
X022328Y005789
Y005674
X022445Y005667
X022437Y00525
X021685Y005276
X021678Y005354
X021601Y005314
X021586Y005207
X021259Y005194
X021088Y005329
X020949Y005672
X020946Y006104
X021045Y006147
X021167
X021299Y006142
X021347Y006063
X021228Y00606
X021114Y006063
X021101Y006233
X021228Y006231
X021342
X021474Y006238
X021601Y006236
X021716
X021673Y006147
X021721Y006068
X021601Y006066
X021487Y006068
X02154Y006152
X021419
X021467Y006375
X021581Y006373
X021701Y006375
X021652Y006454
X021695Y006543
X021581
X021454Y006546
X021322Y006538
X021208
X021081Y00654
X021025Y006454
X021147
X021279Y006449
X021327Y00637
X021208Y006368
X021093Y00637
X021104Y00667
X021218Y006668
X021337Y00667
X021289Y006749
X021408Y006759
X02153
X021477Y006675
X021591Y006673
X021711Y006675
X021662Y006754
X021706Y006843
X021591
X021464Y006845
X021332Y006838
X021218
X021091Y00684
X021035Y006754
X021157
X021106Y007183
X02122Y007181
X02134Y007183
X021292Y007262
X021335Y007351
X02122
X021093Y007353
X020961Y007346
X020847
X02072Y007348
X020664Y007262
X020786
X020918Y007257
X020966Y007178
X020847Y007175
X020733Y007178
X021038Y007267
X02116
X021142Y007683
X021022Y007681
X020908Y007683
X020961Y007767
X020839
X02072Y007757
X020768Y007678
X020649Y007676
X020535Y007678
X020588Y007762
X020466
X020522Y007849
X020649Y007846
X020763
X020895Y007854
X021022Y007851
X021137
X021093Y007762
X020941Y00811
X020822Y008108
X020707Y00811
X020761Y008194
X020639
X020519Y008184
X020568Y008105
X020448Y008103
X020334Y008105
X020387Y008189
X020265
X020321Y008275
X020448Y008273
X020563
X020695Y00828
X020822Y008278
X020936
X020893Y008189
Y008959
X020786
X020845Y009025
X020941Y009022
X021048Y009025
X021002Y008959
X021104Y008964
X021091Y009096
X020984Y009093
X020883
X020781
X020608
X020502Y009091
X0204
X020298
X020362Y009022
X020458Y00902
X020565Y009022
X020519Y008956
X020621Y008961
X02041Y008956
X020304
X019948Y008849
X019943Y008763
X019803Y008847
X019732Y008915
X019663Y008984
X019595Y009065
X019214Y009053
X019135Y008984
X019204Y008915
X019138Y008844
X019199Y008773
X01923Y008548
X020237Y00855
X021858Y008448
X021868Y008357
X021952Y008397
X021965Y008298
X022051Y008374
X022071Y008484
X021995Y008487
X022043Y008194
X022109Y008232
X022198Y008225
X022153Y008143
X022282Y008115
X022323Y008199
X022409Y008118
X022767Y008252
X022757Y008339
X022772Y008506
X022648Y008501
X022567Y008603
X022569Y008707
X022564Y008788
X02259Y008873
X022483Y008898
X02231Y0089
X022996Y008964
X023052Y008688
X023053Y008529
X022838Y007452
X022427Y007455
X022775Y006617
X022922Y006612
X022935Y00651
X022927Y006424
X022938Y006314
X02294Y006165
X022737Y006292
X022112Y006218
X02152Y006459
X021398
X02148Y00569
X021624Y005659
X021701Y005593
X021739Y005695
X021581Y005545
X019808Y006622
X019834Y006746
X019752Y006825
X019864Y006899
X019707Y006683
X019059Y007109
X017819Y007122
X01754Y007125
X017332Y006886
X017365Y006711
X017418Y006601
X017456Y006485
X01737Y006424
X016976Y006901
X016984Y007402
X017098Y007523
X017708Y007483
X017695Y007628
Y007948
X017629Y007945
X01787Y007912
X017924Y007838
X017949Y007976
X018018Y008044
X018091Y007968
X018162Y008021
X018251Y007976
X018332Y008255
X018482Y008298
X018569Y008303
X018655Y008278
X018645Y008616
X018569Y008694
X018338Y008557
X017949
X017339Y008044
X017352Y007948
X016753Y007996
X016727Y007869
X01659Y007783
X016588Y007971
X016478Y007912
X016336Y007955
X016079Y007798
X015952Y0078
X01582Y007793
X015706
X015579Y007795
X015523Y007709
X015645
X015592Y007625
X015706Y007623
X015826Y007625
X015777Y007704
X015897Y007714
X016019
X016151Y007709
X016079Y007628
X015965Y00763
X015371Y007638
X015251Y007635
X015137Y007638
X01519Y007722
X015323Y007717
X015366Y007805
X015251
X015272Y006627
X015165
X015221Y006553
X015333Y006548
X015432Y006551
X015544Y006548
X015632Y006556
X015594Y006622
X015549Y00668
X015488Y006622
X015378
X015404Y006452
X015531
X015323Y006403
X015221Y006401
X015168Y00633
X015213Y006259
X015168Y006185
X015292Y00621
X01529Y006309
X015363Y006264
Y006154
Y006048
X01529Y006099
X015305Y005728
Y005621
Y005512
X015307Y005413
Y005306
Y005197
X015378Y00525
X015419Y005179
X015381Y005362
X015378Y005466
X015376Y005565
X015378Y005677
X015704Y005634
X015815Y005631
X015914Y005634
X015869Y00556
X015759
X015653
X015914Y00524
X016021Y00522
X016072Y005834
Y005944
Y00605
X016077Y006137
X01597
X016021Y00621
X016133Y006208
X016232Y00621
X016186Y006137
X016146Y005999
X016143Y005888
X016146Y005789
X016148Y006342
X01611Y006449
X016123Y006693
X016232Y006703
X016339Y006662
X016448
X016554
X016504Y006589
X016392Y006591
X016293Y006589
X015937Y006579
X015826Y006581
X015726Y006579
X015772Y006652
X015881
X015988
X015696Y006688
X015272Y006474
X015165
X015056
X014949Y006472
X014843
X014733
X014688Y006398
X014787Y006401
X014898Y006398
X014937Y006325
X014843Y00632
X014863Y006215
X014746Y006218
X014718Y006284
X014614Y006312
X014639Y006228
X014746Y006106
X01498Y006076
X014952Y006185
X015058
X015114Y006256
X015003Y006259
X015061Y00633
X01501Y006401
X015109Y006403
Y006556
X01501Y006553
X014916Y006579
X014914Y006683
X015056Y006627
X014807Y006576
X014454Y005987
X014451Y005875
X014454Y005776
X014451Y005672
X014449Y00556
X014451Y005461
X014378Y005507
Y005616
Y005723
X01438Y005822
Y005931
Y006038
X014246Y005824
X014243Y005712
X014246Y005613
X014172Y005659
Y005768
Y005875
X014053Y005624
X01405Y005497
Y005382
X013961Y005425
X013882Y005377
X01388Y005497
X013882Y005611
X013966Y005558
Y005679
X013971Y005306
Y005184
X013887Y005237
X014058Y00525
X013349Y005217
X013199Y005215
Y005573
X013293Y005575
X013113Y005593
X013001Y005588
X01292Y005585
X012579Y005641
X012588Y005738
X012076Y006154
X011894Y006038
X011784Y005987
X011657Y005984
X011556Y005979
X011447
X01134
X011398Y006045
X011495Y006043
X011601Y006045
X011645Y006116
X011538Y006114
X011436
X011335
X011243Y006053
X011469Y005812
X011769Y006119
X011528Y007356
X0115Y00746
X011513Y007574
X011424Y007536
X011332Y007587
X011525Y007694
X011728Y007686
X011566Y007889
X011596Y008021
X01169Y008026
X011645Y008103
X011584Y008138
X011749Y008217
X011944
X012219Y008128
X012333
X01244Y008136
X012615Y008014
X012612Y007899
X012714Y007851
X012719Y007724
Y00761
X012546Y007607
X012597Y007752
X012727Y008004
Y00809
X012973Y008125
X012948Y00823
X013367Y008054
X013468
X01357
X013677Y008057
X013633Y007986
X013527Y007983
X01343Y007986
X013479Y00792
X013372
X013588
X013689Y007925
X014751Y007803
X014878Y0078
X014992
X014949Y007711
X014997Y007633
X014878Y00763
X014764Y007633
X014817Y007717
X014695
X015069Y007722
X015124Y007808
X011317Y007242
X011093Y007704
X011038Y007831
X010753Y008202
X010644Y008192
X010679Y008131
X010565Y008136
X010512Y008202
X010382Y007323
X010268
X010085
X009923Y007325
X009768Y00733
X009618Y007323
X009481Y00732
X009351Y007315
X009255Y007297
X009188Y007219
X009125Y007313
Y007122
X009308Y007043
X009392
X009341Y006985
X009249Y006982
X008739Y007013
X008683Y007084
X008691Y007178
X008597Y007234
X008625Y007328
X008589Y007409
X008571Y007511
X008531Y007579
X0085Y007473
X008419Y007529
X008315
X00831Y007623
X008287Y007722
X008371Y007742
X008416Y007653
X008401Y007882
X008345Y007953
X008282Y007902
X008239Y008029
Y008087
X008355Y008092
X008421Y008021
X008485Y007968
X008843Y007902
X00884Y007788
X008843Y007668
X008922Y007717
X009011Y007673
Y007788
X009013Y007915
X009006Y008047
Y008161
X009008Y008288
X008922Y008222
X008917Y00809
X008838Y008042
X008835Y008161
X008838Y008275
X008927Y007971
Y007849
X008703Y007523
Y007379
X008752Y007282
X008498Y0073
X008383Y007249
X008378Y007122
X008498Y00713
X008579Y007127
X008597Y007015
X008485Y007026
X008543Y006939
X00852Y006817
X008645Y006833
X008724Y006807
X008691Y006685
X008741Y006591
X008701Y006513
X008609Y006525
X008538Y006495
X008447Y00652
X008366Y006538
X008396Y006436
X008297Y006457
X008335Y006358
X008302Y006269
X008406Y006276
X008454Y006355
X008457Y006162
X008332Y006185
X008315Y006104
X008294Y005895
X008241Y005712
X008345Y005697
X008513Y005723
X008747Y005669
X008853
X008962
X009064Y005674
X009008Y005735
X008901Y005733
X008805Y005735
X008843Y005804
X008741
X008945
X009051Y005806
X009084Y005906
X009191
X0093
X009402Y005911
X009346Y005972
X009239Y005969
X009143Y005972
X009181Y00604
X009079
X009282
X009389Y006043
X009531Y005989
X009638
X009747
X009849Y005994
X009793Y006055
X009686Y006053
X00959Y006055
X009628Y006124
X009526
X009729
X009836Y006126
X009841Y00586
X00974
X009803Y005791
X0099Y005789
X010006Y005791
X009961Y005725
X010062Y00573
X01005Y005862
X009943Y00586
X009851Y005725
X009745
X009595Y005674
X009493Y005669
X009384
X009277
X009336Y005735
X009432Y005733
X009539Y005735
X009582Y005806
X009475Y005804
X009374
X009272
X00929Y005309
X009409Y005311
X009524Y005309
X00947Y005225
X009592
X009793Y005217
X009745Y005296
X009864Y005298
X009978Y005296
X009925Y005212
X010047
X010166Y005222
X010118Y005301
X010238Y005304
X010352Y005301
X010298Y005217
X01042
X010441Y005918
X010339Y005913
X01023
X010123
X010182Y005979
X010278Y005977
X010385Y005979
X010428Y00605
X010321Y006048
X01022
X010118
X010258Y005812
X01055Y006017
X010608Y006111
X010758Y006144
X01086
X010961
X011068Y006147
X011025Y006076
X010918Y006073
X010822Y006076
X01087Y00601
X010763
X010979
X011081Y006015
X009016Y006292
X008868Y006314
X008769Y006271
X00878Y006393
X009087Y006408
X008607Y006624
X008579Y006723
X008401Y006721
X008391Y006863
X008378Y006988
X008294Y006937
X008297Y00681
X008307Y006637
X008467Y006634
X008691Y006929
X008292Y007079
X008302Y007191
X008294Y007325
Y007437
X008399Y007422
X007873Y007447
X00787Y00732
Y007206
X007781Y007249
X007703Y007201
X007616Y007188
Y007303
X0077Y00732
X007703Y007435
X007619Y007429
X007532Y007485
Y007363
X007449Y007417
X007446Y007303
X007449Y007183
X007527Y007231
X007537Y007112
Y00699
X007532Y006858
X007454Y00681
X00741Y006812
Y006927
X007451Y006929
X007454Y007043
X007413Y007054
X007327Y007109
Y006988
X007322Y006855
X007243Y006807
X00724Y006927
X007243Y007041
X007248Y006668
X007245Y006553
X007248Y006434
X007327Y006482
X007416Y006439
Y006553
X007418Y00668
X007332Y006736
Y006614
X007586Y006596
X0077Y006551
X007703Y006665
X007786Y006612
Y006734
X007776Y006853
X007697Y006805
X007621Y006815
Y006929
X007695Y006924
X007697Y007038
X007624Y007056
X007781Y007107
Y006985
X007865Y006924
Y00681
X007873Y006678
X00787Y006551
Y006436
X007781Y00648
X007703Y006431
X007624Y00633
X007537Y006375
X0077Y006243
X007784Y00619
X007786Y006119
X007779Y006058
X007789Y005939
Y005817
X007784Y005685
X007705Y005636
X007873Y005641
Y005756
X007875Y005883
X007868Y006015
Y006129
X00787Y006256
X007784Y006312
X008Y005852
X008109Y005725
X008079Y005288
X008198Y005291
X008312Y005288
X008259Y005204
X008381
X0085Y005215
X008452Y005293
X008571Y005296
X008686Y005293
X008632Y00521
X008754
X008965Y005225
X008917Y005304
X009036Y005306
X00915Y005304
X009097Y00522
X009219
X009338Y00523
X008127Y00521
X007926Y005217
X007804
X007858Y005301
X007743Y005304
X007624Y005301
X007672Y005222
X007553Y005212
X007431
X007299Y005217
X00725Y005296
X00737Y005298
X007484Y005296
X007868Y007051
X007786Y007381
Y007503
X007776Y007623
X007697Y007574
X007695Y007694
X007697Y007808
X007781Y007755
Y007877
X007792Y007986
X007665Y007988
X007551
X007594Y008077
X007546Y008156
X007665Y008158
X00778Y008156
X007726Y008072
X007848
X007868Y007821
X007865Y007694
Y007579
X007419Y007981
X007292Y007983
X007353Y008067
X007475
X007406Y008151
X007292Y008153
X007221Y008072
X0093
X009404Y008037
X009402Y008158
X009496Y008204
X009483Y008092
X01085Y009139
X010956Y009141
X011058
X01116
X006895Y009134
X006936Y008131
Y008009
X00693Y007877
X006852Y007828
X006849Y007948
X006852Y008062
X007022Y008075
X007019Y007948
Y007833
X007027Y007701
X007024Y007574
Y00746
X006936Y007503
X006857Y007455
X006854Y007574
X006857Y007689
X006752
X006755Y007803
X006752Y007922
X006674Y007874
X006585Y007917
Y007803
X006582Y007676
X00659Y007544
Y007429
X006674Y007369
Y007247
X006549Y007272
X006547Y007145
Y007031
X006458Y007074
X006379Y007026
X006377Y007145
X006379Y007259
X006463Y007206
Y007328
X006757Y007315
X00676Y007429
X006757Y007549
X006679Y007501
X006669Y00762
Y007742
X006941Y007757
Y007635
X006951Y00714
X006948Y007013
Y006899
X006859Y006942
X006781Y006894
X006778Y007013
X006781Y007127
X006864Y007074
Y007196
X006869Y006822
Y006701
X006786Y006754
X006783Y00664
X006786Y00652
X006864Y006568
X006953Y006525
Y00664
X006956Y006767
X006552Y006772
Y006657
X006463Y006701
X006384Y006652
X006382Y006772
X006384Y006886
X006468Y006833
Y006955
X006554Y006899
X005787Y006894
X005782Y006769
X005787Y007033
X005549Y006977
X005551Y00684
X005544Y006739
X005546Y006353
X005625Y006195
X005328
X004797Y00606
X004713Y006096
X004683Y006015
X004637Y00606
X004568Y006109
Y005987
Y005875
X004477Y00587
X004512Y005773
X004429Y005738
X004324Y005674
X004314Y005395
X004375Y005296
X00434Y005212
X004429Y00522
X004507Y005258
X00451Y005364
X00466Y00521
X004804Y00525
X004924Y005179
X004909Y005753
X005008Y005758
X004782Y005756
X004832Y005812
X004761Y005878
X004766Y005966
X004652Y005933
X004667Y005806
X004647Y00572
X004469Y006048
X004502Y006233
X004208Y006701
Y006815
X00421Y006942
X004202Y007074
Y007188
X004205Y007315
X004119Y007371
Y007249
X004114Y007117
X004035Y007069
X004032Y007188
X004035Y007303
X004055Y007498
X004096Y00759
X004063Y007668
X004053Y00777
X003554Y007772
X003556Y007682
X003562Y007592
X003468Y007861
X003329Y007772
Y008077
X003562Y008078
X003563Y00817
X003565Y008263
X003997Y008443
X00407Y008461
X00406Y008529
X004263Y008473
X00439Y008379
X004469Y008306
X004677Y008376
X00467Y008473
X004761Y008306
X004698Y008235
X004695Y007991
X004957Y008004
X004945Y008148
X005211
X005224Y007993
X005475Y00796
X005533Y007894
X005645
X005478Y008151
X00613Y008113
X006133Y008006
Y007904
Y007803
X006201Y007866
X006204Y007963
X006201Y00807
X006267Y008024
X006262Y008125
X006364Y008148
Y008047
Y007945
X006267Y007915
Y007808
X006306Y007597
X006433Y008009
X006435Y008105
X006433Y008212
X006499Y008166
X006494Y008268
X006361Y008255
X006499Y008057
Y00795
X007178Y007983
X007173Y008151
X006154Y00864
X005864Y008773
X005861Y007463
X005018Y007363
X004903Y007269
X005046Y007722
X004782Y009025
X004616Y009017
X004464Y009004
X004332Y00905
X004235Y009055
X004159Y009042
X00405Y009134
X004281Y009129
X004124Y006998
Y006876
X00404Y006929
X004037Y006815
X00404Y006695
X004119Y006744
X006722Y005314
X006913Y00541
X007116Y005408
X002554Y005651
X002371Y005601
X002239Y005514
X002148Y005565
X002036Y005659
X001909Y005662
X001795
X001838Y005751
X001789Y005829
X001909Y005832
X002023Y005829
X00197Y005745
X002092
X001718Y00574
X001596
X001464Y005745
X001416Y005824
X001535Y005827
X00165Y005824
X001662Y005654
X001535Y005657
X001421
X001256Y006182
X001797Y006248
X001911Y006246
X002031Y006248
X001983Y006327
X002102Y006337
X002224
X002356Y006332
X002404Y006253
X002285Y006251
X00217Y006253
X002158Y006424
X002285Y006421
X002399
X002026Y006416
X001911
X001784Y006419
X001728Y006332
X00185
X001838Y007003
X00198Y007033
X00232Y007026
X002361Y007125
X00228Y00717
X00229Y006883
X00244Y006901
X00247Y007033
X00259Y006942
X002597Y006774
X002833Y006764
X002826Y006855
X002818Y007013
X003199Y006944
X003225Y006853
X003197Y006746
X003209Y007076
X002872Y007452
X002947Y007592
X003077Y007682
X002869Y007785
X002877Y008072
X002865Y00817
X00294Y008263
X003079Y008171
X003189Y007963
X002547Y007892
Y007643
Y008146
X002554Y008395
X002513Y008529
X00197Y008181
X002026Y008087
X001929Y008062
X001848Y008057
X001876Y007943
X001764Y007935
X001744Y008014
X001787Y008146
X001838Y008209
X001782Y008291
X001518Y008336
X001505Y008227
X001403Y008278
X001436Y008446
X001554Y008468
X001121Y008456
X001119Y008341
X001035Y008395
Y008273
X000949Y008329
X000951Y008456
Y00857
X00104Y008527
X001119Y008575
X001114Y008715
X001116Y008829
X001114Y008948
X001035Y0089
X000946Y008943
Y008829
X000944Y008702
X00103Y008646
Y008768
X000814Y008804
X000817Y008684
X000814Y00857
X00073Y008623
Y008501
X000644Y008557
X000646Y008684
Y008799
X000735Y008755
X000725Y008875
Y008997
X000809Y008943
X000812Y009058
X00073Y009129
X000641Y009058
X000639Y008931
X000687Y008382
X00069Y008263
X000687Y008148
X000603Y008202
Y00808
X000613Y00796
X000692Y008009
X000695Y007889
X000692Y007775
X000608Y007828
Y007706
X000522Y007762
X000525Y007889
Y008004
X000517Y008136
X000519Y008263
Y008377
X000608Y008334
X000367Y007882
X000365Y007755
Y00764
X000276Y007683
X000197Y007635
X000194Y007755
X000197Y007869
X000281Y007816
Y007938
X000286Y007564
Y007442
X000202Y007496
X000199Y007381
X000202Y007262
X000281Y00731
X00037Y007267
Y007381
X000372Y007508
X000616Y007409
X000613Y007295
X000616Y007175
X000695Y007224
X000705Y007104
Y006982
X000621Y007036
X000619Y006921
X000621Y006802
X0007Y00685
X000789Y006807
Y006921
X000791Y007049
X000784Y007181
Y007295
X000786Y007422
X0007Y007478
Y007356
X000304Y007079
X000301Y006952
Y006838
X000212Y006881
X000133Y006833
X000131Y006952
X000133Y007066
X000217Y007013
Y007135
X000222Y006761
Y00664
X000138Y006693
X000136Y006579
X000138Y006459
X000217Y006507
X000306Y006464
Y006579
X000309Y006706
X000438Y00665
X000436Y006535
X000438Y006416
X000517Y006464
X000527Y006345
Y006223
X000443Y006276
X000441Y006162
X000443Y006043
X000522Y006091
X000611Y006048
Y006162
X000613Y006289
X000606Y006421
Y006535
X000608Y006662
X000522Y006718
Y006596
X000324Y00586
X000321Y005733
Y005618
X000232Y005662
X000154Y005613
X000151Y005733
X000154Y005847
X000238Y005794
Y005916
X000243Y005542
Y00542
X000159Y005474
X000156Y005359
X000159Y00524
X000238Y005288
X000326Y005245
Y005359
X000329Y005486
X00137Y006873
X001276Y006975
X001294Y007122
X001337Y007269
X001731Y007379
X001812Y007457
X001835Y007643
X001746Y007714
X00182Y007836
X001942Y007856
X001985Y007978
X002242Y007849
X001713Y006949
X001774Y008997
X001942Y009155
X001949Y009284
X001924Y009378
X001792Y009479
X002092Y009543
X002201Y009545
X00217Y009637
X00244Y010198
X002595Y010307
X002872Y009291
X001581Y009192
X00148Y009159
X000809Y009177
X000641Y009172
X003136Y011493
X003189Y011577
X003067
X003123Y011664
X00325Y011661
X003364
X003321Y011572
X003369Y011493
X00325Y011491
X003509Y011499
X003623Y011496
X003743Y011499
X003694Y011577
X003738Y011666
X003623
X003496Y011669
X00344Y011582
X003562
X003613Y011814
X003499Y011816
X003552Y0119
X00343
X003486Y011986
X003613Y011984
X003727
X003684Y011895
X003733Y011816
X003872Y011821
X003987Y011819
X004106Y011821
X004058Y0119
X004101Y011989
X003987
X00386Y011991
X003804Y011905
X003926
X003928Y012212
X003814Y012215
X003867Y012299
X003745
X003801Y012385
X003928Y012382
X004042
X003999Y012294
X004048Y012215
X004187Y01222
X004302Y012217
X004421Y01222
X004373Y012299
X004416Y012388
X004302
X004175Y01239
X004119Y012304
X004241
X004235Y012479
X004121Y012482
X004175Y012565
X004053
X004108Y012652
X004235Y012649
X00435
X004307Y01256
X004355Y012482
X004495Y012487
X004609Y012484
X004728Y012487
X00468Y012565
X004723Y012654
X00471Y0127
X004825Y012697
X004944Y0127
X004896Y012779
X005015Y012789
X005137
X005084Y012705
X005198Y012703
X005318Y012705
X005269Y012784
X005312Y012873
X005198
X005071Y012875
X004939Y012868
X004825
X004698Y01287
X004642Y012784
X004764
X004609Y012654
X004482Y012657
X004426Y01257
X004548
X004611Y011742
X004713
X004815
X004921Y011745
X004878Y011674
X004771Y011671
X004675Y011674
X004723Y011608
X004616
X004832
X004934Y011613
X005099Y0116
Y011499
X005168Y011562
X00517Y011659
X005168Y011765
X005234Y01172
X005229Y011821
X005097Y011808
X005099Y011702
X005234Y01161
Y011504
X005163Y011389
X005343Y011239
X005442Y011077
X005696Y011239
X005724Y011356
X005848Y011351
X006407Y011402
Y011295
Y011186
X006412Y011085
X006473Y01114
X006471Y011247
X006473Y011344
X006542Y011306
Y011407
Y011204
X006544Y011097
X006621Y010998
Y010892
Y010782
X006626Y010681
X006687Y010737
X006684Y010843
X006687Y01094
X006755Y010902
Y011003
Y0108
X006758Y010693
X007144Y010604
X007065Y010902
X006993Y010979
X006915Y011052
X006837Y011135
X006834Y011232
X007136Y011247
Y011354
X0071Y011431
X007095Y011533
Y011642
Y011749
X007161Y01169
X007158Y011594
X007161Y011487
X007136Y011138
X007141Y011036
X007164Y012156
X007062
X006956Y012154
X006999Y012225
X007106Y012228
X007154Y012291
X007045
X006943Y012286
X006669Y012301
X006562
X006453
X006351Y012296
X006407Y012235
X006514Y012238
X00661Y012235
X006572Y012167
X006674
X006471
X006364Y012164
X006499Y011986
Y01188
Y01177
X006504Y011669
X006565Y011725
X006562Y011831
X006565Y011928
X006633Y01189
Y011991
Y011788
X006636Y011681
X006839Y011979
X00689Y0127
X007004Y012697
X007123Y0127
X007075Y012779
X007118Y012868
X007004
X006877Y01287
X006745Y012863
X006631
X006504Y012865
X006448Y012779
X00657
X006702Y012774
X00675Y012695
X006631Y012692
X006516Y012695
X006481Y01299
X006367Y012992
X00642Y013076
X006298
X006179Y013066
X006227Y012987
X006107Y012984
X005993Y012987
X006047Y013071
X005925
X005945Y01286
X006059
X006016Y012771
X006064Y012692
X005945Y01269
X005831Y012692
X005884Y012776
X005762
X005643Y012766
X005691Y012687
X005572Y012685
X005457Y012687
X005511Y012771
X005389
X005445Y012857
X005572Y012855
X005686
X005818Y012863
X005607Y012316
Y012215
Y012113
X00561Y012007
X005538Y01205
X005536Y012156
X005538Y012253
X005472Y012205
Y012311
Y012095
X005478Y011994
X005279Y011963
X005277Y01207
Y012172
Y012273
X005208Y01221
X005206Y012113
X005208Y012007
X005142Y012052
X005147Y011951
X005142Y012162
Y012268
X0066Y012992
X006552Y013071
X006821Y012784
X006943
X006029Y010478
X006087Y010406
X0061Y010259
X006082Y010102
X006125Y00999
X006059Y009903
X006113Y009804
X006074Y00968
X006113Y009568
X006049Y009482
X006057Y009365
X006128Y009426
X00613Y009294
X005864Y009279
X005818Y009489
X005782Y009616
X00566Y009622
X005594Y009695
X005574Y009789
X005498Y009809
X005579Y009898
X005688Y009741
X005759Y009802
X005823Y009738
X005389Y009362
X005198Y009312
X005135
X00517Y009418
X005114Y009482
X004959Y00919
X004873Y00918
X004162Y009149
X00403Y009274
X004025Y009383
X00403Y009545
X004025Y009634
X004116Y009705
X004227Y009774
X004195Y009464
X004319Y009467
X003842Y009479
X003588Y009327
X003354Y009299
X003296Y009322
X003278Y009243
X003263Y010571
X003811Y010772
X003816Y010874
X003755Y010955
X003801Y011041
X00375Y011166
X004063Y011163
X00405Y011041
X004081Y010955
X004155Y010505
X004247Y010495
X004328Y010493
X004048Y010358
X004568Y01015
X004652Y010188
X006671Y009159
X007022Y009235
X007096Y009164
X007154Y009286
X007075Y009421
X006971Y009352
X007248Y009467
X0074Y009378
X007578Y009375
X007753Y009373
X007944
X008122
X008312
X008409Y009276
X008508Y009375
Y009162
X008312Y009159
X008122
X007944
X007753
X007578Y009162
X0074Y009164
X007243Y009185
X007301Y009279
X007479Y009276
X007654Y009274
X007845
X008023
X008213
X008868Y009207
X00914Y009202
X00927Y009205
X010458Y009172
X010499Y009238
X010608Y009246
X010705Y009243
X010667Y009174
X010768
X010763Y009309
X010657
X010547
X010446Y009304
X010484Y00938
X010606Y009385
X010712
X010672Y009472
X010771
X010692Y009566
X010601Y009581
X010502Y009576
X010537Y009652
X010578Y009754
X010448
X010497Y009832
X010555Y009906
X010636Y009886
X010639Y009992
X010504Y010008
X010436Y009942
X010377Y010038
X010451Y010107
X010486Y010183
X010563Y010094
X010329Y010135
X010362Y010251
X010359Y010363
X010194Y010185
X01071Y010312
X01074Y009944
X010824Y009987
X010837Y009271
X010939Y009276
X011048
X011154
X011096Y00921
X011Y009213
X010893Y00921
X010565Y009174
X010542Y009472
X010499Y012446
X010324Y012449
X010146Y012451
X00976Y012492
X009953Y01273
X010011Y012964
X009892Y012962
X009778Y012964
X009831Y013048
X009709
X00959Y013038
X009638Y012959
X009519Y012957
X009404Y012959
X009458Y013043
X009336
X009046Y013061
X008927Y013058
X008813Y013061
X008673Y013056
X008553Y013053
X008439Y013056
X008266Y01192
X00818Y011872
X008076Y011852
Y011717
X007957Y011684
X007929Y011829
X007847Y011897
X00784Y012024
X007825Y012136
X007748Y012197
X007713Y012073
X007725Y011923
X007797Y011803
X007776Y011687
X007774Y011521
X007906Y011537
X008048Y011557
X007997Y01142
X008043Y011336
X007955Y011331
X008094Y011239
X00803Y011135
X00819Y011118
X008284Y011201
X008399Y011242
X008371Y011097
X008401Y011666
X00836Y011783
X008244Y011727
X008094Y011971
X007954Y011976
X007926Y012098
X007936Y012202
X007266Y012156
X007202Y012225
X007261Y012291
X007229Y011754
Y011652
Y011551
X007232Y011444
X007271Y011359
Y011257
Y011156
X007273Y011049
X007202Y011092
X0072Y011199
X007202Y011295
X008559Y011841
X009963Y013043
X010423Y012982
X010545
X010677Y012977
X010725Y012898
X010606Y012896
X010492Y012898
X010479Y013068
X010606Y013066
X01072
X010852Y013073
X010979Y013071
X011093
X01105Y012982
X011099Y012903
X010979Y012901
X010865Y012903
X010918Y012987
X010796
X010867Y012446
X01069
X011058
X011254Y012449
X011388Y012474
X011429Y012388
X01153Y012426
X011584Y012342
X011701Y01236
X011731Y012474
X011614Y012479
Y012235
X011731Y012212
X011698Y012093
X011836Y012055
X011833Y012151
X01184Y012291
X011972Y012278
X01197Y012474
X011843Y012449
X011769Y011986
X011718Y011877
X011614Y011817
X011505Y011867
X011563Y011996
X01152Y012184
X011441Y012134
X011855Y011829
X011849Y011681
X011846Y011465
X011967Y011367
X012047Y011306
X012026Y011171
X012021Y01096
X011901Y010886
X011761Y010958
X011657Y010909
X011474Y010876
X011457Y011013
X011584Y011085
X011553Y01125
X011739Y011262
X011878Y011256
X011863Y011077
X012018Y010757
X012023Y010607
X012003Y010424
X012008Y01032
X012046Y010184
X011965
X011988Y010051
X01199Y009944
Y009843
Y009741
X011914Y009756
X011812
X011711
X011604Y009754
X011647Y009825
X011754Y009827
X01185Y009825
X011802Y009891
X011909
X012061Y009901
X012059Y009804
X012125Y009853
Y009746
X012211Y009804
Y009906
Y010008
X012209Y010114
X01228Y010071
X012282Y009964
X01228Y009868
X012346Y009916
Y009809
X01231Y00969
X012313Y009583
Y009482
Y00938
X012381Y009444
X012384Y00954
X012381Y009647
X012447Y009601
X012442Y009703
X01265Y009705
X012676Y009589
X012447Y009492
Y009385
X012183Y009373
X012082Y009368
X011972
X011866
X011924Y009434
X012021Y009431
X012127Y009434
X01217Y009505
X012064Y009502
X011962
X011861
X011756Y009622
X01198Y009629
X012183
X012125Y009962
X01212Y010063
X012059Y010008
X012346Y010025
X012341Y010127
X012119Y010253
X011693Y009891
X011591Y009886
X011309Y009909
X011322Y009629
X011246Y009599
X011386Y00934
X011416Y009263
X011505Y009233
X011492Y009342
X011622Y009218
X013143Y009456
X013082Y00955
X013047Y009649
X013319Y009675
X013359Y009835
X01324Y010163
X013189
X013352Y010538
X013369Y010658
X013258Y01114
X013194Y011087
X013057Y011153
X013065Y011463
X013047Y011582
X01312Y011707
X013214Y011633
X013197Y011514
X013293Y011567
X013308Y011742
X013367Y011847
X013197Y011803
X01307Y011826
X013506Y011933
X013603
X013715Y011976
X013745Y01188
X013882Y011948
X013997Y011902
X013999Y012012
X014256Y011925
X014477Y011933
X014528Y01176
Y011643
X014479Y011501
X014301Y011491
X014147Y011483
X014037Y011438
X014017Y011532
X013941Y011471
X01388Y0114
X013872Y011293
X013766Y011326
X013674Y011369
X013578Y0114
X013639Y011481
X013773Y011478
X013727Y011212
X013644Y011156
X013613Y011252
X013588Y011067
X013791Y010942
X013768Y010864
X013882Y010884
X013865Y010998
X013997Y011326
X014098Y011333
X01434Y011054
X014446Y011029
X014571Y011044
X014538Y010927
X014591Y01082
Y010668
X014497Y01066
X014482Y010566
X014525Y010465
X014614Y010508
X014634Y010587
X014738Y010544
X014718Y01047
X014662Y010399
X014639Y010287
X01453Y010335
X014797
X014751Y010226
X014855Y010168
X015084Y010071
X015091Y009568
X014944Y009515
X014855Y009525
X014754Y009545
X014675Y009586
X014619Y009515
X01453Y009589
X014429Y009606
X014456Y00951
X014332Y009512
X014276Y009601
X01418Y009644
X014088Y009561
X013926Y009566
X013834Y009533
X013733Y009538
X013788Y009606
X013872Y009644
X013705Y009647
X014459Y010737
X014441Y010836
X014759Y01082
X014817Y010729
X014703Y010711
X014766Y010632
X014817Y010508
X01483Y010963
X01468Y010945
X014731Y011054
X014779Y011539
X014873Y011491
X014837Y011633
X014751Y011692
X014657Y012228
X014912Y01223
X014944Y012456
Y012558
Y012659
X014942Y012766
X015013Y012723
X015015Y012616
X015013Y01252
X015079Y012568
Y012461
Y012677
X015074Y012779
X014434Y012964
X014314Y012962
X0142Y012964
X014253Y013048
X014131
X014012Y013038
X01406Y012959
X013941Y012957
X013827Y012959
X01388Y013043
X013758
X013499Y013111
X013245Y013109
X013125Y013106
X013011Y013109
X012755Y013035
X012803Y012957
X012684Y012954
X012569Y012957
X012623Y01304
X012501
X012381Y01303
X01243Y012951
X01231Y012949
X012196Y012951
X012249Y013035
X012127
X01209Y011996
X012101Y011902
X012123Y011803
Y011671
X013392Y012103
X013387Y012355
X013456Y012299
X013522Y012365
X013948Y012372
X014063Y01237
X014185Y012372
X014385Y013043
X015216Y01251
X015318Y012515
X015427
X015533
X015475Y012449
X015378Y012451
X015272Y012449
X015229Y012377
X015335Y01238
X015437
X015538
X015739Y012352
X015846Y012355
X015947
X016049
X015986Y012423
X015889Y012426
X015782Y012423
X015828Y012489
X015726Y012484
X015937Y012489
X016044
X015876Y012667
X015775
X015673
X015566Y012664
X01561Y012736
X015716Y012738
X015813Y012736
X015765Y012802
X015871
X016003Y012819
X01611Y012822
X016212
X016313
X01625Y01289
X016153Y012893
X016046Y01289
X016092Y012957
X015991Y012951
X016201Y012957
X016308
X016722Y012951
X016824Y012957
X016933
X01704
X016981Y01289
X016885Y012893
X016778Y01289
X016735Y012819
X016841Y012822
X016943
X017045
X016996Y012583
X017103
X017045Y012517
X016948Y01252
X016841Y012517
X016887Y012583
X016786Y012578
X016798Y012446
X016905Y012449
X017007
X017108
X017185Y012232
X016963Y011958
X016857Y011956
X016755
X016654
X016717Y011887
X016814Y011885
X01692Y011887
X016875Y011821
X016976Y011826
X016765Y011821
X016659
X016019Y011781
X016016Y011887
Y011989
Y01209
X015947Y012027
X015945Y01193
X015947Y011824
X015881Y011869
X015886Y011768
X015704Y011775
X015701Y011882
Y011984
Y012085
X015632Y012022
X01563Y011925
X015632Y011819
X015566Y011864
X015571Y011763
X015566Y011974
Y01208
X015881Y012085
Y011979
X015655Y012802
X015554Y012797
X017675Y012563
X017776Y012568
X017885
X017992
X017934Y012502
X017837Y012504
X01773Y012502
X017794Y012433
X017896
X017997
X018066Y012197
X018127Y012141
X018183Y012205
X018175Y012301
X018467Y012357
X018449Y012525
X018795Y012474
X018894Y012497
X019031Y012474
X01897Y012357
X018843
X018805Y01224
X018899Y01223
X018983Y012151
X019059Y012238
X019013Y01286
X018899Y012863
X018952Y012946
X01883
X018886Y013033
X019013Y01303
X019084Y012941
X01771Y012385
X017697Y011615
X017748Y011605
X017421Y01095
X017309
X017174Y010932
X017164Y010628
X017177Y010452
X017258Y010455
X017352Y010452
X017438Y01045
X017675Y010348
X017756Y01063
X016816Y01062
X01673Y010638
X016755Y010777
X016816Y010013
X016669Y010005
X016537Y009995
X016506Y009906
X016494Y009812
X016524Y009713
X01656Y009583
X016656Y009578
X016463Y009566
X016349
X01627
X016194Y009754
X015846Y009751
X015747Y009769
X015744Y009865
X015693Y009964
X015798Y009967
X01577Y010066
X01562Y010076
X015455Y010096
X015523Y00998
X015338Y009886
X015259Y010084
X015147Y009995
X015196Y009558
X015333Y009563
X015447Y00952
X015508Y009606
X01561Y009512
X015749Y009649
X015851Y009622
X016872Y009563
X016986
X017047Y009568
X017113
X017327Y009817
X017339Y009929
X017309Y01002
X017159Y010036
X016971Y010003
X016872Y00924
X017588Y009736
X017929Y009743
X018018Y009662
X018254Y009619
X018175Y009423
X018089Y009426
X01849Y009345
X018569Y00986
X018655Y009835
X018658Y009936
X018668Y010079
X018658Y010185
X019087
X019181Y01015
Y010048
Y009947
X019249Y01001
X019252Y010107
X019249Y010213
X019315Y010168
X01931Y010269
X019178Y010257
X01927Y010376
X019298Y010488
X019514Y010406
X019516Y0103
Y010198
Y010096
X019575Y010028
X019585Y01016
X019587Y010257
X019585Y010363
X019651Y010317
X019646Y010419
X019747Y010396
Y010498
Y010599
X019745Y010706
X019816Y010663
X019818Y010556
X019816Y01046
X019882Y010508
Y010401
X019996Y0105
X020093Y010584
Y01077
X020095Y010866
X020093Y010973
X020159Y010927
X020154Y011029
X020022Y011016
X020024Y010909
Y010808
Y010706
X020159Y010711
Y010818
X019823Y01082
Y010952
X019793Y011072
X019554Y011044
X019542Y010795
X019674Y0108
X01958Y010645
X019615Y010536
X019882Y010617
X019877Y010719
X019793Y010272
X019651Y010208
Y010102
X019503Y009947
X019315Y009952
Y010058
X01915Y009827
X019331Y009624
X019351Y0095
X019133Y009426
X02007Y009408
X020281Y00938
X020392Y009423
X020494Y009428
X020603
X02071
X020651Y009362
X020555Y009365
X020448Y009362
X020405Y009291
X020512Y009294
X020613
X020715
X020662Y009507
X02056
X020458
X020352Y009505
X020395Y009576
X020502Y009578
X020598Y009576
X02055Y009642
X020657
X020723Y009571
X020745Y00971
Y009812
Y009914
X020743Y01002
X020814Y009977
X020817Y00987
X020814Y009774
X02088Y009822
Y009715
Y009931
X020875Y010033
X021137Y010096
Y010198
Y0103
X021134Y010406
X021205Y010363
X021208Y010257
X021205Y01016
X021271Y010208
Y010102
X021396Y010056
Y010157
Y010259
X021393Y010366
X021464Y010323
X021467Y010216
X021464Y010119
X02153Y010168
Y010061
X02167
Y010163
Y010264
X021668Y010371
X021739Y010328
X021741Y010221
X021739Y010124
X021805Y010173
Y010066
X021975Y010089
Y01019
Y010292
X021972Y010399
X022043Y010356
X022046Y010249
X022043Y010152
X022109Y010201
Y010094
X022229Y010076
Y010178
Y010279
X022226Y010386
X022297Y010343
X0223Y010236
X022297Y01014
X022363Y010188
Y010081
Y010297
X022358Y010399
X022104Y010411
X022109Y01031
X021805Y010282
X0218Y010384
X021525Y010378
X02153Y010277
X021271Y010317
X021266Y010419
X021238Y009962
Y009855
Y009746
X021243Y009644
X021304Y0097
X021302Y009807
X021304Y009903
X021373Y009865
Y009967
Y009764
X021375Y009657
X021487Y009723
X02169
X022234Y009731
X022325Y009723
X02262Y009517
X022678Y009515
X022813Y009525
X022997Y009466
Y009309
X023065Y009216
X02259Y009172
Y009261
X022602Y009347
X022607Y009439
X021807Y009207
X021157Y00921
X02103Y009815
X020626Y009792
X020644Y009896
X020491Y009774
X020441Y009642
X020339Y009637
X020255Y009535
X020382Y011293
X020484Y011303
X019986Y011562
X019808Y011554
X019691Y01156
X019577Y011565
X019796Y011435
X019818Y011953
X019846Y01207
X019699Y012065
X019666Y011951
X019549
X019511Y012047
X019407Y011966
X01943Y011843
X019308Y011895
X019343Y012083
X019237Y012057
X019249Y012174
X019138Y012149
X019196Y012276
X01931Y01225
X019379Y012352
X019397Y012479
X019257Y012499
X019262Y012395
X019138Y012382
Y012527
X019133Y012863
X019272Y012868
X019387Y012865
X019506Y012868
X019458Y012946
X019501Y013035
X019387
X01926Y013038
X019127Y01303
X019204Y012951
X019326
X019554Y012502
X019493Y012413
X019475Y012289
X019427Y012169
X019559Y012192
X019628Y012304
X019646Y012421
X019737Y012357
X019836Y012319
X019823Y0122
X019714Y012238
X019813Y012431
X019864Y012527
X019735Y012515
X020042Y012606
Y012769
X020382Y012408
X020481Y012367
X021029Y012725
X021109Y013104
X021223Y013101
X021342Y013104
X021482Y013109
X021596Y013106
X021716Y013109
X022059Y013028
X022181
X022313Y013023
X022361Y012944
X022242Y012941
X022127Y012944
X022242Y013111
X022356
X022432Y013033
X022554
X022501Y012949
X022615Y012946
X022734Y012949
X022686Y013028
X022666Y012852
X022551
X022424Y012855
X022369Y012769
X02249
X022623Y012764
X022671Y012685
X022551Y012682
X022437Y012685
X02281Y01269
X022925Y012687
X023044Y01269
X022996Y012769
X023039Y012857
X022925
X022798Y01286
X022742Y012774
X022864
X022971Y012972
X023024Y013056
X022902
X022389Y011737
X022409Y011509
X022536Y011362
X022503Y011209
X022417Y011105
X02231
X022201
X022099Y0111
X022155Y011039
X022262Y011041
X022358Y011039
X02232Y01097
X022422
X022219
X022112Y010968
X021662Y011029
X021665Y010546
X021203Y011405
X021121Y011438
X021198Y011516
X02212Y01175
X021711Y01221
X021492Y012451
X023293Y012697
X0234
X023509
X023611Y012703
X023555Y012764
X023448Y012761
X023352Y012764
X02339Y012832
X023288
X023344Y012977
X023458Y012974
X023578Y012977
X023529Y013056
X023397Y013061
X023275
X023156Y013051
X023204Y012972
X023085Y012969
X023491Y012832
X023598Y012835
X024225Y012842
X024327
X024428
X024535Y012845
X024492Y012774
X024385Y012771
X024289Y012774
X024337Y012708
X02423
X024446
X024548Y012713
X024756Y012718
X02487Y012715
X02499Y012718
X024942Y012797
X025061Y012807
X025117Y012893
X025244Y01289
X025358
X025432Y012802
X025399Y012713
X025566Y012573
X025693Y01257
X025808
X025765Y012482
X025813Y012403
X025693Y0124
X025579Y012403
X025632Y012487
X025511
X025884Y012492
X026006
X025952Y012408
X026067Y012405
X026186Y012408
X026138Y012487
X026181Y012576
X026067
X02594Y012578
X025902Y012248
X0258
X025698
X025762Y012179
X025858Y012177
X025965Y012179
X025919Y012113
X026021Y012118
X026008Y01225
X026201Y012253
X026328Y01225
X026443
X0264Y012162
X026448Y012083
X026328Y01208
X026214Y012083
X026267Y012167
X026146
X026519Y012172
X026641
X026587Y012088
X026702Y012085
X026821Y012088
X026773Y012167
X026816Y012256
X026702
X026575Y012258
X02581Y012113
X025704
X025282Y011582
X025175Y01158
X025074
X024972
X025036Y011511
X025132Y011509
X025239Y011511
X025193Y011445
X025295Y01145
X025084Y011445
X024977
X024949Y011704
X024741Y011709
Y011811
Y011913
X024672Y011849
X02467Y011753
X024672Y011646
X024606Y011692
X024611Y01159
X024606Y011801
Y011908
X024428Y011519
X023849Y011529
X02374
X023639Y011524
X023694Y011463
X023801Y011466
X023758Y011394
X023651Y011392
X023616Y011219
X023509
X0234
X023298Y011214
X023354Y011153
X023461Y011156
X023557Y011153
X023519Y011085
X023621
X023669Y01096
X023418Y011085
X023311Y011082
X023275Y011547
X023717Y011986
X023832Y011984
X023951Y011986
X023903Y012065
X024022Y012075
X023946Y012154
X023832
X023705Y012156
X023649Y01207
X023771
X024291Y012944
X024398
X024507
X024609Y012949
X024553Y01301
X024446Y013007
X02435Y01301
X024388Y013078
X024286
X024489
X024596Y013081
X024743Y012888
X02487Y012885
X024985
X025048Y012979
X025046Y012611
X02515Y012543
X024809Y012802
X024688
X024964Y010902
X024954Y010366
X025211Y0103
X025206Y01045
X025244Y010119
X025084Y009723
X025003Y009652
X024914Y009611
X0247Y009535
X024408Y009468
X024314Y009472
X024127Y009473
X0239Y009474
X023786Y009479
X023697Y009398
X023786Y009306
X023623Y009545
X02367Y010433
X023994Y010417
Y01032
X024027Y010671
X024134
X024243
X024345Y010676
X024289Y010737
X024182Y010734
X024086Y010737
X024225Y010805
X024332Y010808
X024284Y010922
X024385Y010417
X024916Y009216
X026593Y009437
Y009609
X026933Y009162
X026895Y010635
X027009Y010632
X026948Y010719
X026826
X026882Y010805
X027009Y010803
X026664Y010693
X026285Y010119
X0272Y009771
X027443Y009812
X027558Y009809
X027677Y009812
X027629Y009891
X027748Y009901
X02787
X027817Y009817
X027931Y009815
X028051Y009817
X028002Y009896
X028045Y009985
X027931
X027804Y009987
X027672Y00998
X027558
X027431Y009982
X027375Y009896
X027497
X027728Y009418
X027741Y009337
X027766Y009205
X028152Y009467
X028142Y009573
X028452
X028528Y009467
X027052Y009205
X027129Y010635
X02708Y010714
X0272Y010724
X027322
X027268Y01064
X027383Y010638
X027502Y01064
X027454Y010719
X027497Y010808
X027383
X027255Y01081
X027123Y010803
X023573Y013145
X023458
X023331Y013147
X023199Y013139
X023085
X022958Y013142
X022729Y013117
X022615
X022488Y013119
X022115Y013114
X021668Y013188
X021711Y013277
X021596
X021469Y013279
X021337Y013271
X021223
X021096Y013274
X02104Y013188
X021162
X021294Y013183
X021413Y013193
X021535
X020791Y013203
X020839Y013124
X02072Y013122
X020606Y013124
X020659Y013208
X020537
X020418Y013198
X020466Y013119
X020347Y013117
X020232Y013119
X020286Y013203
X020164
X02022Y013289
X020347Y013287
X020461
X020593Y013294
X02072Y013292
X020834
X017918Y013254
X017799Y013251
X017685Y013254
X017738Y013338
X017616
X017497Y013327
X017545Y013249
X017426Y013246
X017311Y013249
X017365Y013332
X017243
X017299Y013419
X017426Y013416
X01754
X017672Y013424
X017799Y013421
X017913
X01787Y013332
X017073Y01334
X017121Y013261
X017002Y013259
X016887Y013261
X016941Y013345
X016819
X016699Y013335
X016748Y013256
X016628Y013254
X016514Y013256
X016567Y01334
X016445
X016501Y013426
X016628Y013424
X016742
X016875Y013432
X017002Y013429
X017116
X016265Y013447
X016151
X016024Y013449
X015892Y013442
X015777
X01565Y013444
X015594Y013358
X015716
X015848Y013353
X015897Y013274
X015777Y013271
X015663Y013274
X015409Y013261
X01529Y013259
X015175Y013261
X015229Y013345
X015361Y01334
X015404Y013429
X01529
X015163Y013432
X015968Y013363
X01609
X016036Y013279
X016151Y013277
X01627Y013279
X016222Y013358
X015107Y013345
X014987Y013335
X015036Y013256
X014916Y013254
X014802Y013256
X014855Y01334
X014733
X014789Y013426
X014916Y013424
X01503
X014439Y013439
X014324
X014197Y013442
X014065Y013434
X013951
X013824Y013437
X013768Y01335
X01389
X014022Y013345
X01407Y013266
X013951Y013264
X013837Y013266
X013814Y013129
X013941Y013127
X014055
X014187Y013134
X014314Y013132
X014429
X014444Y013271
X014324Y013269
X01421Y013271
X014263Y013355
X014141
X014395Y01335
X013613Y013282
X013499
X013372Y013284
X01324Y013277
X013125
X012998Y013279
X012943Y013193
X013065
X013197Y013188
X013316Y013198
X013438
X013385Y013114
X013618
X01357Y013193
X012798Y013124
X012684
X012557Y013127
X012424Y013119
X01231
X012183Y013122
X012135Y01331
X012249Y013307
X012369Y01331
X01232Y013388
X01244Y013399
X012562
X012508Y013315
X012623Y013312
X012742Y013315
X012694Y013393
X012737Y013482
X012623
X012496Y013485
X012363Y013477
X012249
X012122Y01348
X012066Y013393
X012188
X010006Y013132
X009892
X009765Y013134
X009633Y013127
X009519
X009392Y013129
X008998Y013139
X009041Y013228
X008927
X0088Y013231
X008668Y013223
X008553
X008426Y013226
X008371Y013139
X008493
X008625Y013134
X008744Y013145
X008866
X006595Y01316
X006481
X006354Y013162
X006222Y013155
X006107
X00598Y013157
T02
X027563Y00033
X027545Y000511
X027596Y001166
X027697Y001173
X0288Y001191
X026577Y000775
X026405Y00094
X026212Y000742
X025986Y000625
X025805Y00062
X025792Y000897
X003611Y000952
X00355Y001085
X003682Y00108
X003085Y001532
X002945Y001562
X002719Y001547
X003044Y001717
X003067Y002383
X002463Y002223
X00245Y002118
X002104Y002223
X002028Y001989
X001957Y001773
X001906Y00158
X002435Y002789
X002699Y004107
X004474Y004669
X004576Y004691
X004644Y004641
X004718Y004709
X004776Y004608
X004906Y004623
X005053Y004595
X005008Y004755
X004888Y004783
X004815Y004879
X004769Y004971
X004878Y004976
X005036Y004958
X005173Y00493
X005117Y005067
X004975Y005123
X005251Y005146
X005279Y005027
X005417
X005389Y004925
X005513Y00493
X005678Y004907
X005831Y004917
X005881Y004747
X005792Y004585
X005632Y004572
X005429Y004577
X005269Y004585
X006087Y004554
X006354Y004567
X006552Y004585
X006636Y004572
X006773Y004554
X006836Y004435
X006966Y004516
X00708Y004448
X007108Y0043
X007002Y004328
X006801Y004719
X006763Y004806
X006636Y004895
X006359
X006176Y004907
X007108
X007045Y005083
X004672Y004844
X004396Y00477
X003821Y00239
X003918Y002294
X003832Y001887
X003951Y001798
X00405Y001732
X003976Y001603
X003895Y001514
X004159Y001346
X004075Y00125
X011449Y004374
X011596Y004282
X01165Y004991
X011579Y005116
X011474Y005062
X011398Y004905
X012511Y004923
X012518Y004829
X01243Y004615
X01247Y004503
X013839Y004519
X013862Y004407
X013755Y00463
X013725Y004793
X013717Y004945
X01373Y005098
X013928Y004851
X013854Y004729
X014073Y004737
X014114Y004925
X014159Y005042
X014319Y005083
X015117Y004046
X014418Y002982
X015356Y003216
X015709Y002918
X015777Y003848
X01562Y003917
X015521Y00397
X015391Y003995
X015267Y00397
X015297Y004102
X016529Y002738
X017093Y002489
X018137Y002469
X018454Y002456
X01896Y001803
X018Y005062
X018028Y005121
X017921Y005123
X017918Y00505
X01785Y005116
X019125Y002151
X019168Y002027
X019102Y001961
X019107Y001717
X019448Y001849
X019455Y002007
X019572Y001999
X019503Y002149
X019879Y002032
X019882Y001897
X01989Y001702
X020072Y001676
X020217Y001574
X020316Y001669
X020441Y001618
X020634Y001549
X020799Y001593
X020989Y001534
X02136Y001725
X021287Y002263
X021835Y002731
X021838Y003294
X02105Y003358
X021043Y003523
X020997Y003665
X02086Y003594
X020748Y003711
X020271Y002715
X020268Y002631
X020243Y002525
X020334Y00252
X020116Y002377
X020032Y002289
X020062Y002035
X020352Y002037
X019986Y002588
X0199Y002659
X020052Y002685
X019859Y002471
X019712Y001618
X026031Y001552
X02614Y00145
X026275
X026153Y001702
X026737Y001407
X02689Y001394
X023235Y005161
X02835Y004696
X028287Y004557
X028876
X028937Y004641
X029031Y004519
X029196Y004369
X029247Y004232
X029239Y003782
X029143Y003706
X028985Y003719
X028843Y003713
X028259Y003584
X027926Y003327
X027974Y002609
X028183Y0027
X028317Y002675
X028297Y001953
X028137Y001913
X027987Y002009
X027332Y002385
X027184Y002344
X027248Y002494
X027113Y00252
X027416Y001283
X028691Y001321
X029351Y00285
X029813Y003437
X029851Y004003
X029521Y006304
X028868Y006129
X028871Y005735
X028368Y007381
X027913Y007175
X028744Y008341
X028942
X028901Y008481
X028774Y008529
X028665Y00856
X02898Y009032
X029188Y009141
X029247Y008854
X029404Y008786
X029582
X029503Y008588
X029465Y009032
X026631Y007165
X025577Y00717
X024619Y007033
X024627Y008583
X022684Y007811
X02248Y007899
X022386Y007775
X02215Y007811
X022013Y00746
X021739
X021609Y007348
X021525Y007145
X021441Y007031
X021325Y007059
X021144Y007023
X021695Y007054
X021802Y008004
X021599Y008346
X021594Y008733
X02023Y008412
X021309Y005227
X017959Y005182
X017416Y007305
X017433Y007442
X016158Y008031
X015904Y007912
X015691Y007963
X015465Y007932
X016158Y009126
X019036Y009131
X019031Y008407
X015132Y008021
X014223Y008047
X014073Y008153
X013854Y008192
X013644Y008186
X013341Y008197
X013092Y00824
X012789Y008297
X013296Y007683
X013458Y007602
X013456Y007813
X013664Y007767
X013829Y007689
X013877Y007955
X01403Y007846
X014327Y008217
X013649Y007432
X013489Y007348
X013326Y007404
X013334Y006109
X012935Y006124
X01247Y006096
X012407Y005596
X012531Y005545
X012442Y005431
X012379Y005316
X011381Y00524
X014174Y00556
X014286Y005497
X007228Y007178
X007306Y007343
X007309Y007866
X007134Y007811
X007159Y00763
X007083Y00715
Y006952
X00708Y006782
X00707Y006642
X007156Y006548
X006661Y006723
X006697Y006957
X006638Y00713
X006481Y00698
X00627Y007099
X006219Y007254
X006156Y007361
X006242Y007463
X006191Y007597
X006219Y007744
X006346Y007696
X006443Y007615
X006435Y007457
X006443Y007793
X006201Y006924
X006298Y006812
X006384Y006523
X006496Y006253
X006313Y006172
X006636Y006383
X007029Y005215
X007126Y005243
X005109Y005184
X004883Y005326
X004741Y005339
X004601Y006187
X004467Y006167
X004307Y006251
X004225Y006213
X004004Y006271
X003827Y00621
X003694Y006271
X003468Y006187
X003359Y006271
X003258Y006223
X003631Y006866
X003773Y006802
X003915Y006767
X003885Y006909
X004439Y006934
X004436Y006774
X004647Y006861
Y007135
X004655Y007315
X004441Y00728
Y00713
X004647Y006566
X005053Y006767
X005236Y006774
X005158Y006901
X005305Y006914
X005765Y007183
X006105Y00859
X005959Y008857
X005668
X004749Y008915
X002358Y008849
X002369Y007361
X002851Y007214
X002902Y006248
X003054Y006251
X002356Y009718
X001962Y009812
X001899Y009921
X001789Y009876
X001609Y00987
X001601Y009754
X001731Y009741
X001632Y009609
X001495Y009566
X001464Y00982
X001711Y010028
X001934Y010094
X00197Y010259
X001891Y010274
X003369Y009718
X0036
X003931
X004964Y009934
X004977Y010094
X004855Y010051
X004776Y010188
X005406Y010452
X005959Y009287
X00673Y009215
X008958Y012814
X009841Y012489
X01244Y012476
X012444Y012807
X01279Y009492
X01295Y009479
X01309Y009243
X019209Y009251
X019963Y009241
X024489Y009555
X024595Y010296
X024369
X024473Y010555
X023776Y010424
Y011209
X024337Y011968
X02437Y012078
X024456Y012009
X02418Y012215
X024182Y012568
X025566Y012764
X025785Y012753
X025932Y012723
X026367Y012466
X026514Y012418
X026948Y012151
X0269Y011224
X026661Y009766
X026501Y009733
X026351Y009609
X026349Y009898
X025734Y009947
X025577Y009891
X027052Y009688
X027441Y010188
X027629Y010147
X027659Y010376
X027786Y010267
X027934Y010188
X02815Y009682
X028371
X028912Y009733
X028932Y009843
X02912Y009792
X028922Y010079
X028802Y010257
X028703Y010394
X028607Y010513
X028508Y010632
X02834Y01079
X028211Y010937
X028152Y011173
X028023Y011057
X027954Y011252
X027697Y011402
X027677Y011648
X02752Y011598
X027461Y011796
X027294Y011765
X027106Y012022
Y011026
X029346Y009357
T03
X014656Y003416
X014906
X015156
X015406
X023854Y006751
Y007001
X014372Y011707
X014122
X013872
X013622
T04
X02754Y000953
X004454Y000973
X002834Y00259
X003374Y003127
X004994Y00151
X02592Y002569
X02646Y003106
X02808Y00149
T05
X027087Y00598
X027337
Y0065
X027087
X026837
X026587
X026337
X026087
X025837
X025587
X025337
X025087
Y00598
X025337
X025587
X025837
X026087
X026337
X026587
X026837
X006179Y005974
X005929
X005679
X005429
X005179
X004929
Y006494
X005179
X005429
X005679
X005929
X006179
X004329
X004079
X003829
X003579
X003329
Y005974
X003579
X003829
X004079
X004329
X003079
X002829
X002579
Y006494
X002829
X003079
X008287Y011433
X008787
X016427Y01192
Y01242
X017497
Y01192
X02392Y011732
X02442
X024952Y012136
X025452
T07
X011126Y011554
X011626
T09
X024449Y000846
X022349Y001346
X024449Y001356
Y001866
M30
